<svg width="32" height="24" viewBox="0 0 32 24" fill="none" xmlns="http://www.w3.org/2000/svg">
    <path d="M9.33325 5.87421V19.5834" stroke="#999999" stroke-linecap="round" stroke-linejoin="round"/>
    <path d="M9.33325 15.8333C10.2374 15.3167 11.2504 15.0201 12.2904 14.9676C13.3303 14.9151 14.3681 15.1081 15.3197 15.531L16.6802 16.1357C17.6317 16.5586 18.6695 16.7516 19.7095 16.6991C20.7495 16.6466 21.7625 16.35 22.6666 15.8333V5.87418C21.7625 6.39081 20.7495 6.68739 19.7095 6.73991C18.6695 6.79244 17.6317 6.59944 16.6802 6.17652L15.3197 5.57184C14.3681 5.14893 13.3304 4.95592 12.2904 5.00845C11.2504 5.06097 10.2374 5.35754 9.33325 5.87418" stroke="#999999" stroke-linecap="round" stroke-linejoin="round"/>
    <path d="M14.75 12.0833L17.25 9.58334" stroke="#999999" stroke-linecap="round" stroke-linejoin="round"/>
    <path d="M17.25 12.0833L14.75 9.58334" stroke="#999999" stroke-linecap="round" stroke-linejoin="round"/>
</svg>
