<svg width="24" height="24" viewBox="0 0 24 24" fill="none" xmlns="http://www.w3.org/2000/svg">
<g clip-path="url(#clip0_1024_811)">
<path d="M13.5999 20H10.3999" stroke="#555555" stroke-width="1.5" stroke-linecap="round" stroke-linejoin="round"/>
<path d="M12 5C9.239 5 7 7.239 7 10V10.032V12.504C7 12.828 6.817 13.123 6.528 13.268L6.025 13.519C5.397 13.834 5 14.476 5 15.178C5 16.202 5.83 17.032 6.854 17.032H17.146C18.17 17.032 19 16.202 19 15.178C19 14.476 18.603 13.834 17.975 13.52L17.472 13.269C17.183 13.123 17 12.828 17 12.504V10.032V10" stroke="#555555" stroke-width="1.5" stroke-linecap="round" stroke-linejoin="round"/>
<path d="M13.139 5.142C12.772 5.056 12.394 5 12 5" stroke="#555555" stroke-linecap="round" stroke-linejoin="round"/>
<path d="M16.8579 8.86084C16.9439 9.22784 16.9999 9.60584 16.9999 9.99984" stroke="#555555" stroke-linecap="round" stroke-linejoin="round"/>
<path d="M18.1213 3.87868C19.2929 5.05025 19.2929 6.94975 18.1213 8.12132C16.9497 9.29289 15.0502 9.29289 13.8787 8.12132C12.7071 6.94975 12.7071 5.05025 13.8787 3.87868C15.0502 2.70711 16.9497 2.70711 18.1213 3.87868Z" stroke="#555555" stroke-width="1.5" stroke-linecap="round" stroke-linejoin="round"/>
</g>
</svg>
