<svg width="25" height="24" viewBox="0 0 25 24" fill="none" xmlns="http://www.w3.org/2000/svg">
<g clip-path="url(#clip0_4_2529)">
<path stroke="#999999" d="M5.41003 6.15992C5.87103 5.61992 6.39603 5.13892 6.97203 4.72192" stroke-width="1.5" stroke-linecap="round" stroke-linejoin="round"/>
<path stroke="#999999" d="M17.25 19.4819C15.82 20.4399 14.101 20.9999 12.25 20.9999C11.338 20.9999 10.459 20.8619 9.63 20.6099" stroke-width="1.5" stroke-linecap="round" stroke-linejoin="round"/>
<path stroke="#999999" d="M3.773 9C3.44 9.94 3.25 10.946 3.25 12" stroke-width="1.5" stroke-linecap="round" stroke-linejoin="round"/>
<path stroke="#999999" d="M13.771 12L15.077 13.684C15.213 13.859 15.287 14.075 15.287 14.297V15.5C15.287 15.776 15.063 16 14.787 16H9.71301C9.43701 16 9.21301 15.776 9.21301 15.5V14.279C9.21301 14.069 9.27901 13.863 9.40301 13.693L10.628 12L9.40301 10.308C9.28001 10.137 9.21301 9.932 9.21301 9.722V8.5C9.21301 8.224 9.43701 8 9.71301 8H14.787C15.063 8 15.287 8.224 15.287 8.5V9.703C15.287 9.925 15.213 10.141 15.077 10.316L13.771 12Z" stroke-width="1.5" stroke-linecap="round" stroke-linejoin="round"/>
<path stroke="#999999" d="M9.63 3.39C10.459 3.138 11.338 3 12.25 3C17.221 3 21.25 7.029 21.25 12C21.25 13.855 20.677 15.569 19.713 17" stroke-width="1.5" stroke-linecap="round" stroke-linejoin="round"/>
<path stroke="#999999" d="M6.97202 19.279C5.51202 18.219 4.39002 16.73 3.77502 15" stroke-width="1.5" stroke-linecap="round" stroke-linejoin="round"/>
</g>
</svg>
