<svg width="40" height="40" viewBox="0 0 40 40" fill="none" xmlns="http://www.w3.org/2000/svg">
<path d="M28.3333 23.75H27.0833C26.6413 23.75 26.2173 23.5744 25.9048 23.2618C25.5922 22.9493 25.4166 22.5254 25.4166 22.0833V17.9167C25.4166 17.4746 25.5922 17.0507 25.9048 16.7382C26.2173 16.4256 26.6413 16.25 27.0833 16.25H28.3333C28.7753 16.25 29.1992 16.4256 29.5118 16.7382C29.8244 17.0507 30 17.4746 30 17.9167V22.0833C30 22.5254 29.8244 22.9493 29.5118 23.2618C29.1992 23.5744 28.7753 23.75 28.3333 23.75Z" stroke="white" stroke-width="2" stroke-linecap="round" stroke-linejoin="round"/>
<path d="M26.6667 5H13.3333C8.73096 5 5 8.73096 5 13.3333V26.6667C5 31.269 8.73096 35 13.3333 35H26.6667C31.269 35 35 31.269 35 26.6667V13.3333C35 8.73096 31.269 5 26.6667 5Z" stroke="white" stroke-width="2" stroke-linecap="round" stroke-linejoin="round"/>
<path d="M10 20H13.45" stroke="white" stroke-width="2" stroke-linecap="round" stroke-linejoin="round"/>
<path d="M21.875 16.25H19.7917C19.3496 16.25 18.9257 16.4256 18.6132 16.7382C18.3006 17.0507 18.125 17.4746 18.125 17.9167V22.0833C18.125 22.5254 18.3006 22.9493 18.6132 23.2618C18.9257 23.5744 19.3496 23.75 19.7917 23.75H21.875" stroke="white" stroke-width="2" stroke-linecap="round" stroke-linejoin="round"/>
<path d="M14.1667 16.25H10.8333C10.6123 16.25 10.4004 16.3378 10.2441 16.4941C10.0878 16.6504 10 16.8623 10 17.0833V22.9167C10 23.1377 10.0878 23.3496 10.2441 23.5059C10.4004 23.6622 10.6123 23.75 10.8333 23.75H14.1667" stroke="white" stroke-width="2" stroke-linecap="round" stroke-linejoin="round"/>
</svg>
