<svg width="16" height="16" viewBox="0 0 16 16" fill="none" xmlns="http://www.w3.org/2000/svg">
<path stroke="#555555" d="M12.8427 12.2893V14C12.8427 14.1768 12.7725 14.3464 12.6474 14.4714C12.5224 14.5964 12.3528 14.6667 12.176 14.6667H10.8427C10.6659 14.6667 10.4963 14.5964 10.3713 14.4714C10.2463 14.3464 10.176 14.1768 10.176 14V13" stroke-linecap="round" stroke-linejoin="round"/>
<path stroke="#555555" d="M5.82402 13V14C5.82402 14.1768 5.75378 14.3464 5.62875 14.4714C5.50373 14.5964 5.33416 14.6667 5.15735 14.6667H3.82402C3.6472 14.6667 3.47763 14.5964 3.35261 14.4714C3.22759 14.3464 3.15735 14.1768 3.15735 14V12.2893" stroke-linecap="round" stroke-linejoin="round"/>
<path stroke="#555555" d="M12.9999 8.33333H13.9999C14.1768 8.33333 14.3463 8.2631 14.4714 8.13807C14.5964 8.01305 14.6666 7.84348 14.6666 7.66667V5.66667C14.6666 5.48986 14.5964 5.32029 14.4714 5.19526C14.3463 5.07024 14.1768 5 13.9999 5H12.8212" stroke-linecap="round" stroke-linejoin="round"/>
<path stroke="#555555" d="M3.00004 8.33333H2.00004C1.82323 8.33333 1.65366 8.2631 1.52864 8.13807C1.40361 8.01305 1.33337 7.84348 1.33337 7.66667V5.66667C1.33337 5.48986 1.40361 5.32029 1.52864 5.19526C1.65366 5.07024 1.82323 5 2.00004 5H3.17975" stroke-linecap="round" stroke-linejoin="round"/>
<path stroke="#555555" d="M12.6667 4.78532V2.73332C12.6667 2.45043 12.5543 2.17911 12.3543 1.97908C12.1542 1.77904 11.8829 1.66666 11.6 1.66666H4.40004C4.11714 1.66666 3.84583 1.77904 3.64579 1.97908C3.44575 2.17911 3.33337 2.45043 3.33337 2.73332V4.78532" stroke-linecap="round" stroke-linejoin="round"/>
<path stroke="#555555" d="M3 8.33334C6.31852 8.77779 9.68148 8.77779 13 8.33334" stroke-linecap="round" stroke-linejoin="round"/>
<path stroke="#555555" d="M11.256 10.6667H10" stroke-linecap="round" stroke-linejoin="round"/>
<path stroke="#555555" d="M5.99996 10.6667H4.66663" stroke-linecap="round" stroke-linejoin="round"/>
<path stroke="#555555" d="M11.6667 4.33334H4.33333C3.59695 4.33334 3 4.9303 3 5.66668V11.6667C3 12.4031 3.59695 13 4.33333 13H11.6667C12.403 13 13 12.4031 13 11.6667V5.66668C13 4.9303 12.403 4.33334 11.6667 4.33334Z" stroke-linecap="round" stroke-linejoin="round"/>
</svg>
