<svg width="98" height="28" viewBox="0 0 98 28" fill="none" xmlns="http://www.w3.org/2000/svg">
<path d="M53 9V27L2 26.9472V9H53Z" fill="#BDC6C2"/>
<path d="M94.5096 9.40917C93.2686 9.01357 73 0.0010376 73 0.0010376H76.2169L97.5 9.40917H94.5096Z" fill="#6D6B62"/>
<path d="M94.9959 9.40704L75 0L53 9V26.899H95L94.9959 9.40704Z" fill="#E6E7E7"/>
<path d="M75 0L53.106 9H1.38374H0L21.563 0H75Z" fill="#807F7B"/>
<path d="M46 17V14H43V17H46Z" fill="#243A57"/>
<path d="M39 17V14H36V17H39Z" fill="#243A57"/>
<path d="M32 17V14H29V17H32Z" fill="#243A57"/>
<path d="M25 17V14H22V17H25Z" fill="#243A57"/>
<path d="M18 17V14H15V17H18Z" fill="#243A57"/>
<path d="M11 17V14H8V17H11Z" fill="#243A57"/>
<path d="M91 14H57V27H91V14Z" fill="#243A57"/>
<g style="mix-blend-mode:multiply">
<path d="M57 17V19L83.5 25V17H57Z" fill="#19293D"/>
</g>
<path d="M56 16L92 16V14L56 14V16Z" fill="white"/>
<path d="M56 17L92 17V16L56 16V17Z" fill="white" fill-opacity="0.7"/>
<path d="M56 14.7178L92 14.7178V13.9766L56 13.9766V14.7178Z" fill="white"/>
<path d="M95.9066 22.9994H91.7198V26.9982H95.9066V22.9994Z" fill="#F8C37E"/>
<path d="M97.9999 23.0011H95.9065V27H97.9999V23.0011Z" fill="#D8844C"/>
<path d="M94.3686 22.9994H93.2563V24.0557H94.3686V22.9994Z" fill="#D8844C"/>
<path d="M95.9066 26.8954H91.7198V27H95.9066V26.8954Z" fill="#D8844C"/>
<path d="M95.9066 19.0006H91.7198V22.9995H95.9066V19.0006Z" fill="#F8C37E"/>
<path d="M97.9999 19.0006H95.9065V22.9995H97.9999V19.0006Z" fill="#D8844C"/>
<path d="M94.3686 19.0006H93.2563V20.0569H94.3686V19.0006Z" fill="#D8844C"/>
<path d="M95.9066 22.8965H91.7198V23.0011H95.9066V22.8965Z" fill="#D8844C"/>
<path d="M95.9066 15H91.7198V18.9989H95.9066V15Z" fill="#F8C37E"/>
<path d="M97.9999 15.0016H95.9065V19.0005H97.9999V15.0016Z" fill="#D8844C"/>
<path d="M94.3686 15H93.2563V16.0563H94.3686V15Z" fill="#D8844C"/>
<path d="M95.9066 18.8959H91.7198V19.0005H95.9066V18.8959Z" fill="#D8844C"/>
<path d="M93.6134 22.9994H89.4266V26.9982H93.6134V22.9994Z" fill="#F8C37E"/>
<path d="M95.7084 23.0011H93.615V27H95.7084V23.0011Z" fill="#D8844C"/>
<path d="M92.0769 22.9994H90.9647V24.0557H92.0769V22.9994Z" fill="#D8844C"/>
<path d="M93.6134 26.8954H89.4266V27H93.6134V26.8954Z" fill="#D8844C"/>
<path d="M93.6134 19.0006H89.4266V22.9995H93.6134V19.0006Z" fill="#F8C37E"/>
<path d="M95.7084 19.0006H93.615V22.9995H95.7084V19.0006Z" fill="#D8844C"/>
<path d="M92.0769 19.0006H90.9647V20.0569H92.0769V19.0006Z" fill="#D8844C"/>
<path d="M93.6134 22.8965H89.4266V23.0011H93.6134V22.8965Z" fill="#D8844C"/>
<path d="M93.6134 15H89.4266V18.9989H93.6134V15Z" fill="#F8C37E"/>
<path d="M95.7084 15.0016H93.615V19.0005H95.7084V15.0016Z" fill="#D8844C"/>
<path d="M92.0769 15H90.9647V16.0563H92.0769V15Z" fill="#D8844C"/>
<path d="M93.6134 18.8959H89.4266V19.0005H93.6134V18.8959Z" fill="#D8844C"/>
<path d="M78.1867 22.9994H74V26.9982H78.1867V22.9994Z" fill="#F8C37E"/>
<path d="M80.2801 23.0011H78.1868V27H80.2801V23.0011Z" fill="#D8844C"/>
<path d="M76.6486 22.9994H75.5364V24.0557H76.6486V22.9994Z" fill="#D8844C"/>
<path d="M78.1867 26.8954H74V27H78.1867V26.8954Z" fill="#D8844C"/>
<path d="M82.5651 22.9994H78.3784V26.9982H82.5651V22.9994Z" fill="#F8C37E"/>
<path d="M84.6586 23.0011H82.5652V27H84.6586V23.0011Z" fill="#D8844C"/>
<path d="M81.027 22.9994H79.9148V24.0557H81.027V22.9994Z" fill="#D8844C"/>
<path d="M82.5651 26.8954H78.3784V27H82.5651V26.8954Z" fill="#D8844C"/>
<path d="M86.9436 22.9994H82.7568V26.9982H86.9436V22.9994Z" fill="#F8C37E"/>
<path d="M89.037 23.0011H86.9436V27H89.037V23.0011Z" fill="#D8844C"/>
<path d="M85.4054 22.9994H84.2932V24.0557H85.4054V22.9994Z" fill="#D8844C"/>
<path d="M86.9436 26.8954H82.7568V27H86.9436V26.8954Z" fill="#D8844C"/>
<path d="M91.322 22.9994H87.1353V26.9982H91.322V22.9994Z" fill="#F8C37E"/>
<path d="M93.4154 23.0011H91.322V27H93.4154V23.0011Z" fill="#D8844C"/>
<path d="M89.7838 22.9994H88.6716V24.0557H89.7838V22.9994Z" fill="#D8844C"/>
<path d="M91.322 26.8954H87.1353V27H91.322V26.8954Z" fill="#D8844C"/>
<path d="M82.5651 19.0006H78.3784V22.9995H82.5651V19.0006Z" fill="#F8C37E"/>
<path d="M84.6586 19.0006H82.5652V22.9995H84.6586V19.0006Z" fill="#D8844C"/>
<path d="M81.027 19.0006H79.9148V20.0569H81.027V19.0006Z" fill="#D8844C"/>
<path d="M82.5651 22.8965H78.3784V23.0011H82.5651V22.8965Z" fill="#D8844C"/>
<path d="M86.9436 19.0006H82.7568V22.9995H86.9436V19.0006Z" fill="#F8C37E"/>
<path d="M89.037 19.0006H86.9436V22.9995H89.037V19.0006Z" fill="#D8844C"/>
<path d="M85.4054 19.0006H84.2932V20.0569H85.4054V19.0006Z" fill="#D8844C"/>
<path d="M86.9436 22.8965H82.7568V23.0011H86.9436V22.8965Z" fill="#D8844C"/>
<path d="M91.322 19.0006H87.1353V22.9995H91.322V19.0006Z" fill="#F8C37E"/>
<path d="M93.4154 19.0006H91.322V22.9995H93.4154V19.0006Z" fill="#D8844C"/>
<path d="M89.7838 19.0006H88.6716V20.0569H89.7838V19.0006Z" fill="#D8844C"/>
<path d="M91.322 22.8965H87.1353V23.0011H91.322V22.8965Z" fill="#D8844C"/>
<path d="M86.9436 15H82.7568V18.9989H86.9436V15Z" fill="#F8C37E"/>
<path d="M89.037 15.0016H86.9436V19.0005H89.037V15.0016Z" fill="#D8844C"/>
<path d="M85.4054 15H84.2932V16.0563H85.4054V15Z" fill="#D8844C"/>
<path d="M86.9436 18.8959H82.7568V19.0005H86.9436V18.8959Z" fill="#D8844C"/>
<path d="M91.322 15H87.1353V18.9989H91.322V15Z" fill="#F8C37E"/>
<path d="M93.4154 15.0016H91.322V19.0005H93.4154V15.0016Z" fill="#D8844C"/>
<path d="M89.7838 15H88.6716V16.0563H89.7838V15Z" fill="#D8844C"/>
<path d="M91.322 18.8959H87.1353V19.0005H91.322V18.8959Z" fill="#D8844C"/>
</svg>
