<svg width="25" height="24" viewBox="0 0 25 24" fill="none" xmlns="http://www.w3.org/2000/svg">
<path stroke="#111111" d="M6.73889 6H17.7389C18.8439 6 19.7389 6.895 19.7389 8V9C19.7389 10.105 18.8439 11 17.7389 11H6.73889C5.63389 11 4.73889 10.105 4.73889 9V8C4.73889 6.895 5.63389 6 6.73889 6Z" stroke-width="1.5" stroke-miterlimit="10" stroke-linecap="round" stroke-linejoin="round"/>
<path stroke="#111111" d="M4.73889 17C4.73889 18.105 5.63389 19 6.73889 19H17.7389C18.8439 19 19.7389 18.105 19.7389 17V4C19.7389 2.895 18.8439 2 17.7389 2H6.73889C5.63389 2 4.73889 2.895 4.73889 4V17Z" stroke-width="1.5" stroke-miterlimit="10" stroke-linecap="round" stroke-linejoin="round"/>
<path stroke="#111111" d="M17.1229 15H16.2389" stroke-width="1.5" stroke-linecap="round" stroke-linejoin="round"/>
<path stroke="#111111" d="M8.2389 15H7.0369" stroke-width="1.5" stroke-linecap="round" stroke-linejoin="round"/>
<path stroke="#111111" d="M13.7389 16.3271H10.7389" stroke-width="1.5" stroke-miterlimit="10" stroke-linecap="round" stroke-linejoin="round"/>
<path stroke="#111111" d="M13.7389 14.0771H10.7389" stroke-width="1.5" stroke-miterlimit="10" stroke-linecap="round" stroke-linejoin="round"/>
<path stroke="#111111" d="M19.5029 17.9336V20.4996C19.5029 21.0516 19.0549 21.4996 18.5029 21.4996H16.5029C15.9509 21.4996 15.5029 21.0516 15.5029 20.4996V18.9996" stroke-width="1.5" stroke-linecap="round" stroke-linejoin="round"/>
<path stroke="#111111" d="M8.97488 18.9996V20.4996C8.97488 21.0516 8.52688 21.4996 7.97488 21.4996H5.97488C5.42288 21.4996 4.97488 21.0516 4.97488 20.4996V17.9336" stroke-width="1.5" stroke-linecap="round" stroke-linejoin="round"/>
<path stroke="#111111" d="M4.73889 7H3.23889C2.68689 7 2.23889 7.448 2.23889 8V11.062" stroke-width="1.5" stroke-linecap="round" stroke-linejoin="round"/>
<path stroke="#111111" d="M19.7389 7H21.2389C21.7909 7 22.2389 7.448 22.2389 8V11.062" stroke-width="1.5" stroke-linecap="round" stroke-linejoin="round"/>
</svg>
