<svg width="36" height="36" viewBox="0 0 36 36" fill="none" xmlns="http://www.w3.org/2000/svg">
<rect fill="#ffffff" width="36" height="36" rx="4"/>
<path fill="#005C9C" d="M18.0031 7C13.494 7 10.0061 10.351 10.0061 14.903V25.366C10.0061 25.366 9.90912 26.7762 10.4864 27.7254C10.9666 28.3893 11.67 28.9065 12.3419 29C12.8222 28.9065 12.9168 28.3049 12.9168 28.3049V21.0657C14.292 22.1084 16.0505 22.8035 18.0031 22.8035C22.4806 22.8035 26 19.4213 26 14.9006C26 10.3798 22.483 7 18.0031 7ZM18.0031 20.0877C15.1555 20.0877 12.8222 17.6859 12.8222 14.903C12.8222 12.12 15.1579 9.68706 18.0031 9.68706C20.8482 9.68706 23.1524 11.9954 23.1524 14.903C23.1524 17.8106 20.8167 20.0877 18.0031 20.0877Z"/>
</svg>
