<svg width="20" height="20" viewBox="0 0 20 20" fill="none" xmlns="http://www.w3.org/2000/svg">
<path d="M5 2.5H15C15.663 2.5 16.2989 2.76339 16.7678 3.23223C17.2366 3.70107 17.5 4.33696 17.5 5V15C17.5 15.663 17.2366 16.2989 16.7678 16.7678C16.2989 17.2366 15.663 17.5 15 17.5H5C4.33696 17.5 3.70107 17.2366 3.23223 16.7678C2.76339 16.2989 2.5 15.663 2.5 15V5C2.5 4.33696 2.76339 3.70107 3.23223 3.23223C3.70107 2.76339 4.33696 2.5 5 2.5Z" stroke="#555555" stroke-width="1.5" stroke-linecap="round" stroke-linejoin="round"/>
<path d="M10 14.1326V5.8674C10 5.51905 9.903 5.17759 9.71986 4.88127C9.53673 4.58495 9.27469 4.34548 8.96312 4.1897L6.11803 2.7672C5.73688 2.57662 5.31335 2.48664 4.88764 2.50579C4.46193 2.52494 4.04819 2.6526 3.68569 2.87663C3.32319 3.10066 3.02398 3.41363 2.81646 3.78583C2.60894 4.15802 2.50001 4.57708 2.5 5.00322V14.9968C2.5 15.4229 2.60893 15.842 2.81645 16.2142C3.02396 16.5864 3.32318 16.8994 3.68567 17.1234C4.04817 17.3474 4.46192 17.4751 4.88763 17.4942C5.31334 17.5134 5.73688 17.4234 6.11803 17.2328L8.96312 15.8103C9.27469 15.6545 9.53673 15.415 9.71986 15.1187C9.903 14.8224 10 14.4809 10 14.1326Z" stroke="#555555" stroke-width="1.5" stroke-linecap="round" stroke-linejoin="round"/>
<path d="M7.5 9.16667V10.8333" stroke="#555555" stroke-width="1.5" stroke-linecap="round" stroke-linejoin="round"/>
</svg>
