<svg width="60" height="60" viewBox="0 0 60 60" fill="none" xmlns="http://www.w3.org/2000/svg">
<path d="M52.3828 31.747C52.3828 35.8951 49.014 39.2578 44.8568 39.2578H17.6239C12.0977 39.2578 7.61719 34.787 7.61719 29.2698C7.61719 23.7542 12.0977 19.2818 17.6239 19.2818C18.1195 19.2818 18.6066 19.3198 19.0843 19.3889C21.3441 14.9097 25.9916 11.8359 31.3603 11.8359C37.8565 11.8359 43.2987 16.3379 44.7284 22.3861C44.8711 22.99 44.9741 23.6087 45.0333 24.2389V24.2405C49.107 24.3333 52.3828 27.6581 52.3828 31.747Z" fill="#BAC7CB" fill-opacity="0.6"/>
<g filter="url(#filter0_b_0_1204)">
<path d="M52.3828 31.747C52.3828 35.8951 49.014 39.2578 44.8568 39.2578H17.6239C12.0977 39.2578 7.61719 34.787 7.61719 29.2698C7.61719 23.7542 12.0977 19.2818 17.6239 19.2818C18.1195 19.2818 18.6066 19.3198 19.0843 19.3889C21.3441 14.9097 25.9916 11.8359 31.3603 11.8359C37.8565 11.8359 43.2987 16.3379 44.7284 22.3861C44.8711 22.99 44.9741 23.6087 45.0333 24.2389V24.2405C49.107 24.3333 52.3828 27.6581 52.3828 31.747Z" fill="url(#paint0_linear_0_1204)"/>
</g>
<g filter="url(#filter1_b_0_1204)">
<path fill-rule="evenodd" clip-rule="evenodd" d="M19.2176 19.645L19.0507 19.6209C18.5834 19.5533 18.1075 19.5162 17.6239 19.5162C12.2267 19.5162 7.85156 23.8841 7.85156 29.2698C7.85156 34.6571 12.2267 39.0234 17.6239 39.0234H44.8568C48.885 39.0234 52.1484 35.7652 52.1484 31.747C52.1484 27.7862 48.9751 24.5647 45.0279 24.4748L44.7989 24.4696V24.2499C44.7406 23.6345 44.6397 23.0302 44.5003 22.4401C43.0951 16.4954 37.7456 12.0703 31.3603 12.0703C26.0833 12.0703 21.515 15.0913 19.2935 19.4945L19.2176 19.645ZM45.0333 24.2389V24.2405C49.107 24.3333 52.3828 27.6581 52.3828 31.747C52.3828 35.8951 49.014 39.2578 44.8568 39.2578H17.6239C12.0977 39.2578 7.61719 34.787 7.61719 29.2698C7.61719 23.7542 12.0977 19.2818 17.6239 19.2818C18.1195 19.2818 18.6066 19.3198 19.0843 19.3889C21.3441 14.9097 25.9916 11.8359 31.3603 11.8359C37.8565 11.8359 43.2987 16.3379 44.7284 22.3861C44.8711 22.99 44.9741 23.6087 45.0333 24.2389Z" fill="url(#paint1_linear_0_1204)"/>
</g>
<path d="M40.5218 38.5418C40.5218 41.5907 38.0456 44.0625 34.9899 44.0625H14.9725C10.9106 44.0625 7.61719 40.7763 7.61719 36.7209C7.61719 32.6667 10.9106 29.3793 14.9725 29.3793C15.3368 29.3793 15.6949 29.4072 16.046 29.458C17.707 26.1656 21.1231 23.9062 25.0694 23.9062C29.8444 23.9062 33.8446 27.2154 34.8955 31.6611C35.0004 32.105 35.0761 32.5597 35.1196 33.023V33.0241C38.1139 33.0924 40.5218 35.5362 40.5218 38.5418Z" fill="#BAC7CB"/>
<g filter="url(#filter2_b_0_1204)">
<path d="M40.5218 38.5418C40.5218 41.5907 38.0456 44.0625 34.9899 44.0625H14.9725C10.9106 44.0625 7.61719 40.7763 7.61719 36.7209C7.61719 32.6667 10.9106 29.3793 14.9725 29.3793C15.3368 29.3793 15.6949 29.4072 16.046 29.458C17.707 26.1656 21.1231 23.9062 25.0694 23.9062C29.8444 23.9062 33.8446 27.2154 34.8955 31.6611C35.0004 32.105 35.0761 32.5597 35.1196 33.023V33.0241C38.1139 33.0924 40.5218 35.5362 40.5218 38.5418Z" fill="url(#paint2_linear_0_1204)"/>
</g>
<g filter="url(#filter3_b_0_1204)">
<path fill-rule="evenodd" clip-rule="evenodd" d="M16.1793 29.7141L16.0124 29.69C15.6717 29.6407 15.3248 29.6137 14.9725 29.6137C11.0396 29.6137 7.85156 32.7966 7.85156 36.7209C7.85156 40.6464 11.0396 43.8281 14.9725 43.8281H34.9899C37.9166 43.8281 40.2875 41.4609 40.2875 38.5418C40.2875 35.6643 37.9821 33.3238 35.1143 33.2584L34.8852 33.2532V33.034C34.8426 32.5855 34.769 32.1451 34.6674 31.715C33.641 27.3729 29.7335 24.1406 25.0694 24.1406C21.2149 24.1406 17.8779 26.3472 16.2552 29.5636L16.1793 29.7141ZM35.1196 33.023V33.0241C38.1139 33.0924 40.5218 35.5362 40.5218 38.5418C40.5218 41.5907 38.0456 44.0625 34.9899 44.0625H14.9725C10.9106 44.0625 7.61719 40.7763 7.61719 36.7209C7.61719 32.6667 10.9106 29.3793 14.9725 29.3793C15.3368 29.3793 15.6949 29.4072 16.046 29.458C17.707 26.1656 21.1231 23.9062 25.0694 23.9062C29.8444 23.9062 33.8446 27.2154 34.8955 31.6611C35.0004 32.105 35.0761 32.5597 35.1196 33.023Z" fill="url(#paint3_linear_0_1204)"/>
</g>
<defs>
<filter id="filter0_b_0_1204" x="-23.4206" y="-19.2019" width="106.841" height="89.4975" filterUnits="userSpaceOnUse" color-interpolation-filters="sRGB">
<feFlood flood-opacity="0" result="BackgroundImageFix"/>
<feGaussianBlur in="BackgroundImageFix" stdDeviation="15.5189"/>
<feComposite in2="SourceAlpha" operator="in" result="effect1_backgroundBlur_0_1204"/>
<feBlend mode="normal" in="SourceGraphic" in2="effect1_backgroundBlur_0_1204" result="shape"/>
</filter>
<filter id="filter1_b_0_1204" x="-23.4206" y="-19.2019" width="106.841" height="89.4975" filterUnits="userSpaceOnUse" color-interpolation-filters="sRGB">
<feFlood flood-opacity="0" result="BackgroundImageFix"/>
<feGaussianBlur in="BackgroundImageFix" stdDeviation="15.5189"/>
<feComposite in2="SourceAlpha" operator="in" result="effect1_backgroundBlur_0_1204"/>
<feBlend mode="normal" in="SourceGraphic" in2="effect1_backgroundBlur_0_1204" result="shape"/>
</filter>
<filter id="filter2_b_0_1204" x="-22.3828" y="-6.09375" width="92.9046" height="80.1562" filterUnits="userSpaceOnUse" color-interpolation-filters="sRGB">
<feFlood flood-opacity="0" result="BackgroundImageFix"/>
<feGaussianBlur in="BackgroundImageFix" stdDeviation="15"/>
<feComposite in2="SourceAlpha" operator="in" result="effect1_backgroundBlur_0_1204"/>
<feBlend mode="normal" in="SourceGraphic" in2="effect1_backgroundBlur_0_1204" result="shape"/>
</filter>
<filter id="filter3_b_0_1204" x="-23.4206" y="-7.13158" width="94.9803" height="82.2319" filterUnits="userSpaceOnUse" color-interpolation-filters="sRGB">
<feFlood flood-opacity="0" result="BackgroundImageFix"/>
<feGaussianBlur in="BackgroundImageFix" stdDeviation="15.5189"/>
<feComposite in2="SourceAlpha" operator="in" result="effect1_backgroundBlur_0_1204"/>
<feBlend mode="normal" in="SourceGraphic" in2="effect1_backgroundBlur_0_1204" result="shape"/>
</filter>
<linearGradient id="paint0_linear_0_1204" x1="14.707" y1="16.6406" x2="47.8868" y2="40.9432" gradientUnits="userSpaceOnUse">
<stop offset="0.416176" stop-color="white" stop-opacity="0.7"/>
<stop offset="1" stop-color="white" stop-opacity="0"/>
</linearGradient>
<linearGradient id="paint1_linear_0_1204" x1="4.18919" y1="19.062" x2="20.2172" y2="30.5903" gradientUnits="userSpaceOnUse">
<stop stop-color="white"/>
<stop offset="1" stop-color="white" stop-opacity="0"/>
</linearGradient>
<linearGradient id="paint2_linear_0_1204" x1="12.8285" y1="27.4379" x2="37.5769" y2="45.2904" gradientUnits="userSpaceOnUse">
<stop offset="0.416176" stop-color="white" stop-opacity="0.7"/>
<stop offset="1" stop-color="white" stop-opacity="0"/>
</linearGradient>
<linearGradient id="paint3_linear_0_1204" x1="5.09746" y1="29.2177" x2="16.8788" y2="37.6915" gradientUnits="userSpaceOnUse">
<stop stop-color="white"/>
<stop offset="1" stop-color="white" stop-opacity="0"/>
</linearGradient>
</defs>
</svg>
