<svg width="40" height="40" viewBox="0 0 40 40" fill="none" xmlns="http://www.w3.org/2000/svg">
<mask id="path-1-inside-1_128_3226" fill="white">
<path d="M8 10.9998H13V15.9998H8V10.9998Z"/>
</mask>
<path d="M8 10.9998H13V15.9998H8V10.9998Z" fill="#D8915C"/>
<path d="M8 10.9998V10.7998H7.8V10.9998H8ZM13 10.9998H13.2V10.7998H13V10.9998ZM8 11.1998H13V10.7998H8V11.1998ZM12.8 10.9998V15.9998H13.2V10.9998H12.8ZM8.2 15.9998V10.9998H7.8V15.9998H8.2Z" fill="#9C7254" mask="url(#path-1-inside-1_128_3226)"/>
<mask id="path-3-inside-2_128_3226" fill="white">
<path d="M18 10.9998H23V15.9998H18V10.9998Z"/>
</mask>
<path d="M18 10.9998H23V15.9998H18V10.9998Z" fill="#D8915C"/>
<path d="M23 10.9998H23.2V10.7998H23V10.9998ZM18 11.1998H23V10.7998H18V11.1998ZM22.8 10.9998V15.9998H23.2V10.9998H22.8Z" fill="#9C7254" mask="url(#path-3-inside-2_128_3226)"/>
<mask id="path-5-inside-3_128_3226" fill="white">
<path d="M28 10.9998H33V15.9998H28V10.9998Z"/>
</mask>
<path d="M28 10.9998H33V15.9998H28V10.9998Z" fill="#D8915C"/>
<path d="M33 10.9998H33.2V10.7998H33V10.9998ZM28 11.1998H33V10.7998H28V11.1998ZM32.8 10.9998V15.9998H33.2V10.9998H32.8Z" fill="#9C7254" mask="url(#path-5-inside-3_128_3226)"/>
<mask id="path-7-inside-4_128_3226" fill="white">
<path d="M13 10.9998H18V15.9998H13V10.9998Z"/>
</mask>
<path d="M13 10.9998H18V15.9998H13V10.9998Z" fill="#FBB87C"/>
<path d="M18 10.9998H18.2V10.7998H18V10.9998ZM13 11.1998H18V10.7998H13V11.1998ZM17.8 10.9998V15.9998H18.2V10.9998H17.8Z" fill="#9C7254" mask="url(#path-7-inside-4_128_3226)"/>
<mask id="path-9-inside-5_128_3226" fill="white">
<path d="M23 10.9998H28V15.9998H23V10.9998Z"/>
</mask>
<path d="M23 10.9998H28V15.9998H23V10.9998Z" fill="#FBB87C"/>
<path d="M28 10.9998H28.2V10.7998H28V10.9998ZM23 11.1998H28V10.7998H23V11.1998ZM27.8 10.9998V15.9998H28.2V10.9998H27.8Z" fill="#9C7254" mask="url(#path-9-inside-5_128_3226)"/>
<mask id="path-11-inside-6_128_3226" fill="white">
<path d="M8 15.9998H13V20.9998H8V15.9998Z"/>
</mask>
<path d="M8 15.9998H13V20.9998H8V15.9998Z" fill="#FBB87C"/>
<path d="M8 15.9998V15.7998H7.8V15.9998H8ZM13 15.9998H13.2V15.7998H13V15.9998ZM8 16.1998H13V15.7998H8V16.1998ZM12.8 15.9998V20.9998H13.2V15.9998H12.8ZM8.2 20.9998V15.9998H7.8V20.9998H8.2Z" fill="#9C7254" mask="url(#path-11-inside-6_128_3226)"/>
<mask id="path-13-inside-7_128_3226" fill="white">
<path d="M18 15.9998H23V20.9998H18V15.9998Z"/>
</mask>
<path d="M18 15.9998H23V20.9998H18V15.9998Z" fill="#FBB87C"/>
<path d="M23 15.9998H23.2V15.7998H23V15.9998ZM18 16.1998H23V15.7998H18V16.1998ZM22.8 15.9998V20.9998H23.2V15.9998H22.8Z" fill="#9C7254" mask="url(#path-13-inside-7_128_3226)"/>
<mask id="path-15-inside-8_128_3226" fill="white">
<path d="M28 15.9998H33V20.9998H28V15.9998Z"/>
</mask>
<path d="M28 15.9998H33V20.9998H28V15.9998Z" fill="#FBB87C"/>
<path d="M33 15.9998H33.2V15.7998H33V15.9998ZM28 16.1998H33V15.7998H28V16.1998ZM32.8 15.9998V20.9998H33.2V15.9998H32.8Z" fill="#9C7254" mask="url(#path-15-inside-8_128_3226)"/>
<mask id="path-17-inside-9_128_3226" fill="white">
<path d="M13 15.9998H18V20.9998H13V15.9998Z"/>
</mask>
<path d="M13 15.9998H18V20.9998H13V15.9998Z" fill="#D8915C"/>
<path d="M18 15.9998H18.2V15.7998H18V15.9998ZM13 16.1998H18V15.7998H13V16.1998ZM17.8 15.9998V20.9998H18.2V15.9998H17.8Z" fill="#9C7254" mask="url(#path-17-inside-9_128_3226)"/>
<mask id="path-19-inside-10_128_3226" fill="white">
<path d="M23 15.9998H28V20.9998H23V15.9998Z"/>
</mask>
<path d="M23 15.9998H28V20.9998H23V15.9998Z" fill="#D8915C"/>
<path d="M28 15.9998H28.2V15.7998H28V15.9998ZM23 16.1998H28V15.7998H23V16.1998ZM27.8 15.9998V20.9998H28.2V15.9998H27.8Z" fill="#9C7254" mask="url(#path-19-inside-10_128_3226)"/>
<path d="M6 19.9723L20.0274 18.6572V20.4107L6 21.7257V19.9723Z" fill="#505E5F"/>
<path d="M6 21.7258L20.0274 20.4107V30.9313L6.87671 28.3011L6 21.7258Z" fill="#324041"/>
<path d="M6.87659 28.3011L20.0273 30.9312V33.9997L7.31494 30.4929L6.87659 28.3011Z" fill="#CF6053"/>
<path d="M33.1781 28.3011L20.0274 30.9312V33.9997L32.7397 30.4929L33.1781 28.3011Z" fill="#F7796A"/>
<path d="M34.0547 21.7258L20.0273 20.4107V30.9313L33.178 28.3011L34.0547 21.7258Z" fill="#505E5F"/>
<path d="M34.0547 19.9724L20.0273 18.6573V20.4107L34.0547 21.7258V19.9724Z" fill="#858F91"/>
<ellipse cx="26.6707" cy="23.6635" rx="1.31507" ry="0.613699" transform="rotate(15 26.6707 23.6635)" fill="#212F30"/>
<ellipse cx="1.31507" cy="0.613699" rx="1.31507" ry="0.613699" transform="matrix(-0.965926 0.258819 0.258819 0.965926 13.6188 22.7303)" fill="#212F30"/>
<path d="M3.17155 8.99976H4.69155V38.9655H2.07521C1.49446 38.9655 1.03585 38.4724 1.07782 37.8932L3.17155 8.99976Z" fill="#505E5F"/>
<path d="M36.8287 8.99976H35.3087V38.9655H37.925C38.5058 38.9655 38.9644 38.4724 38.9224 37.8932L36.8287 8.99976Z" fill="#505E5F"/>
<rect x="4.69153" y="36.3598" width="31.4857" height="2.60571" fill="#505E5F"/>
<path d="M1.09024 37.6522H38.9239L38.9404 37.9433C38.9728 38.5168 38.5164 38.9997 37.942 38.9997H2.06922C1.49066 38.9997 1.03283 38.5102 1.07145 37.9329L1.09024 37.6522Z" fill="#324041"/>
<path d="M13.8115 33.6683L15.5487 34.3198V36.3598H13.8115V33.6683Z" fill="#324041"/>
<path d="M26.1887 33.6683L24.4516 34.3198V36.3598H26.1887V33.6683Z" fill="#324041"/>
<rect x="9" y="3.99976" width="23" height="2" fill="#CFCFCE"/>
<path d="M11 1.99976H13V3.99976H11L11 1.99976Z" fill="#D7D7D7"/>
<path d="M17 -0.000244141H19V3.99976H17L17 -0.000244141Z" fill="#D7D7D7"/>
<path d="M18 -0.000244141H19V3.99976H18L18 -0.000244141Z" fill="#B4B4B4"/>
<path d="M12 1.99976H13V3.99976H12L12 1.99976Z" fill="#B4B4B4"/>
<path d="M22 -0.000244141H24V3.99976H22L22 -0.000244141Z" fill="#D7D7D7"/>
<path d="M23 -0.000244141H24V3.99976H23L23 -0.000244141Z" fill="#B4B4B4"/>
<path d="M28 1.99976H30V3.99976H28L28 1.99976Z" fill="#D7D7D7"/>
<path d="M29 1.99976H30V3.99976H29L29 1.99976Z" fill="#B4B4B4"/>
<path d="M9 3.50659L32 3.50659V4.40894H9V3.50659Z" fill="#DADAD2"/>
<rect x="10" y="5.99976" width="21" height="5" fill="#DADAD2"/>
<rect x="10" y="4.99976" width="21" height="1" fill="#B4B4B4"/>
<rect x="12" y="5.99976" width="3.77778" height="1" fill="#858F91"/>
<rect x="12" y="7.99976" width="3.77778" height="1" fill="#858F91"/>
<rect x="18.6111" y="5.99976" width="3.77778" height="1" fill="#858F91"/>
<rect x="18.6111" y="7.99976" width="3.77778" height="1" fill="#858F91"/>
<rect x="25.2222" y="5.99976" width="3.77778" height="1" fill="#858F91"/>
<rect x="25.2222" y="7.99976" width="3.77778" height="1" fill="#858F91"/>
</svg>
