<svg width="21" height="20" viewBox="0 0 21 20" fill="none" xmlns="http://www.w3.org/2000/svg">
<path d="M10.3633 17.5C14.5054 17.5 17.8633 14.1421 17.8633 10C17.8633 5.85786 14.5054 2.5 10.3633 2.5C6.22115 2.5 2.86328 5.85786 2.86328 10C2.86328 14.1421 6.22115 17.5 10.3633 17.5Z" stroke="white" stroke-width="1.5" stroke-linecap="round" stroke-linejoin="round"/>
<path d="M9.52979 12.9165H11.4542" stroke="white" stroke-width="1.5" stroke-linecap="round" stroke-linejoin="round"/>
<path d="M10.4959 12.9167V9.375H9.5376" stroke="white" stroke-width="1.5" stroke-linecap="round" stroke-linejoin="round"/>
<path d="M10.4465 6.87288C10.4465 6.91409 10.4342 6.95437 10.4113 6.98863C10.3884 7.02289 10.3559 7.04959 10.3178 7.06536C10.2798 7.08113 10.2379 7.08525 10.1975 7.07721C10.1571 7.06918 10.1199 7.04933 10.0908 7.0202C10.0617 6.99106 10.0418 6.95394 10.0338 6.91353C10.0257 6.87312 10.0299 6.83123 10.0456 6.79316C10.0614 6.75509 10.0881 6.72255 10.1224 6.69966C10.1566 6.67677 10.1969 6.66455 10.2381 6.66455" stroke="white" stroke-width="1.5" stroke-linecap="round" stroke-linejoin="round"/>
<path d="M10.2383 6.66455C10.2935 6.66455 10.3465 6.6865 10.3856 6.72557C10.4247 6.76464 10.4466 6.81763 10.4466 6.87288" stroke="white" stroke-width="1.5" stroke-linecap="round" stroke-linejoin="round"/>
</svg>
