<svg width="40" height="40" viewBox="0 0 40 40" fill="none" xmlns="http://www.w3.org/2000/svg">
<g>
<path stroke="#ffffff" d="M18.3333 20.0001V12.9167C18.3333 12.2267 18.8933 11.6667 19.5833 11.6667C20.2733 11.6667 20.8333 12.2267 20.8333 12.9167V20.0001" stroke-width="1.5" stroke-linecap="round" stroke-linejoin="round"/>
<path stroke="#ffffff" d="M18.3333 14.5833C18.3333 13.8933 17.7733 13.3333 17.0833 13.3333C16.3933 13.3333 15.8333 13.8933 15.8333 14.5833V19.9999" stroke-width="1.5" stroke-linecap="round" stroke-linejoin="round"/>
<path stroke="#ffffff" d="M20.8333 14.5833C20.8333 13.8933 21.3933 13.3333 22.0833 13.3333C22.7733 13.3333 23.3333 13.8933 23.3333 14.5833V19.1666V21.6666L24.9175 20.0824C25.4233 19.5766 26.2433 19.5766 26.7491 20.0824C27.1858 20.5191 27.2533 21.2033 26.9108 21.7166L23.9841 26.1066C23.0566 27.4974 21.4958 28.3333 19.8241 28.3333H18.3333C15.5716 28.3333 13.3333 26.0949 13.3333 23.3333V19.1666V16.2499C13.3333 15.5599 13.8933 14.9999 14.5833 14.9999C15.2733 14.9999 15.8333 15.5599 15.8333 16.2499" stroke-width="1.5" stroke-linecap="round" stroke-linejoin="round"/>
<path stroke="#ffffff" d="M11.3807 33.0474L6.95262 28.6193C5.70238 27.369 5 25.6734 5 23.9052V16.0964C5 14.3283 5.70238 12.6326 6.95262 11.3824L11.3824 6.95262C12.6326 5.70238 14.3283 5 16.0964 5H23.9019C24.7774 5 25.6443 5.17244 26.4531 5.50747C27.262 5.8425 27.9969 6.33356 28.616 6.95262L33.0474 11.384C33.6664 12.0031 34.1575 12.738 34.4925 13.5469C34.8276 14.3557 35 15.2226 35 16.0981V23.9036C35 25.6712 34.298 27.3665 33.0483 28.6167L28.6202 33.0465C28.0011 33.6658 27.266 34.1571 26.457 34.4923C25.648 34.8275 24.7809 35 23.9052 35H16.0948C15.2193 35 14.3524 34.8276 13.5435 34.4925C12.7347 34.1575 11.9998 33.6664 11.3807 33.0474Z" stroke-width="1.5" stroke-linecap="round" stroke-linejoin="round"/>
</g>
</svg>
