<svg width="25" height="24" viewBox="0 0 25 24" fill="none" xmlns="http://www.w3.org/2000/svg">
<g>
<path fill="#999999" d="M12.2467 18.803C11.793 18.803 11.4247 19.1712 11.428 19.625C11.428 20.0787 11.7962 20.4469 12.25 20.4469C12.7037 20.4469 13.072 20.0787 13.072 19.625C13.072 19.1712 12.7037 18.803 12.2467 18.803Z"/>
<path stroke="#999999" d="M6.25 20L19.25 3" stroke-width="1.5" stroke-miterlimit="10" stroke-linecap="round" stroke-linejoin="round"/>
<path stroke="#999999" d="M14.3659 9.38709C11.0309 8.75909 7.42894 9.62709 4.84094 12.0001" stroke-width="1.5" stroke-miterlimit="10" stroke-linecap="round" stroke-linejoin="round"/>
<path stroke="#999999" d="M17.764 4.94395C12.454 3.05295 6.14799 4.00595 1.84399 7.80395" stroke-width="1.5" stroke-miterlimit="10" stroke-linecap="round" stroke-linejoin="round"/>
<path stroke="#999999" d="M17.517 10.4971C18.282 10.9021 19.004 11.3991 19.658 12.0001" stroke-width="1.5" stroke-miterlimit="10" stroke-linecap="round" stroke-linejoin="round"/>
<path stroke="#999999" d="M20.671 6.37207C21.364 6.79707 22.037 7.25907 22.656 7.80407" stroke-width="1.5" stroke-miterlimit="10" stroke-linecap="round" stroke-linejoin="round"/>
<path stroke="#999999" d="M14.512 14.427C15.298 14.728 16.036 15.191 16.67 15.821" stroke-width="1.5" stroke-miterlimit="10" stroke-linecap="round" stroke-linejoin="round"/>
</g>
</svg>
