<svg width="16" height="16" viewBox="0 0 16 16" fill="none" xmlns="http://www.w3.org/2000/svg">
<path fill-rule="evenodd" clip-rule="evenodd" d="M7.2136 1C6.92248 2.36294 5.0394 4.4999 4.08451 5.52823C3.18165 6.50052 2.64987 7.32476 2.35043 8.10234C2.04865 8.88602 2 9.57929 2 10.2458C2 11.6714 2.66265 12.8811 3.76065 13.7175C4.84832 14.5462 6.34587 15 8.0471 15C11.5291 15 13.6923 12.76 13.9632 10.3125C14.1088 8.99717 13.8918 6.25626 12.0302 3.81912C12.0068 4.73435 12.0302 5.5 11.5 5.5C10.8591 3.80317 8.77223 1.74342 7.2136 1ZM8.32663 8.4495C8.19542 8.30653 8.0036 8.23572 7.81142 8.25937C7.61925 8.28302 7.45013 8.39815 7.35711 8.56868C7.1295 8.98623 6.93584 9.3025 6.76149 9.58717C6.66465 9.74534 6.57369 9.89378 6.48627 10.0444C6.2663 10.4234 6.05654 10.8348 6.05654 11.3056C6.05654 11.7266 6.1966 12.1851 6.49886 12.5485C6.8134 12.9267 7.28759 13.18 7.88449 13.18C8.45996 13.18 8.94213 12.9589 9.2757 12.5905C9.601 12.2312 9.75668 11.7639 9.75668 11.3056C9.75668 11.0408 9.68333 10.7652 9.59456 10.5215C9.50254 10.2691 9.37784 10.0078 9.24111 9.75912C8.97007 9.26614 8.6254 8.77501 8.32663 8.4495Z" fill="#F57453"/>
</svg>
