<svg width="25" height="24" viewBox="0 0 25 24" fill="none" xmlns="http://www.w3.org/2000/svg">
<g>
<path stroke="#999999" d="M21.25 8H3.25" stroke-width="1.5" stroke-linecap="round" stroke-linejoin="round"/>
<path stroke="#999999" d="M17.75 13C18.64 13 19.51 13.2639 20.2501 13.7584C20.9901 14.2529 21.5669 14.9557 21.9075 15.7779C22.2481 16.6002 22.3372 17.505 22.1635 18.3779C21.9899 19.2508 21.5613 20.0526 20.932 20.682C20.3026 21.3113 19.5008 21.7399 18.6279 21.9135C17.755 22.0872 16.8502 21.9981 16.0279 21.6575C15.2057 21.3169 14.5029 20.7401 14.0084 20.0001C13.5139 19.26 13.25 18.39 13.25 17.5C13.25 16.3065 13.7241 15.1619 14.568 14.318C15.4119 13.4741 16.5565 13 17.75 13Z" stroke-width="1.5" stroke-linecap="round" stroke-linejoin="round"/>
<path stroke="#999999" d="M14.923 21H6.25C5.45435 21 4.69129 20.6839 4.12868 20.1213C3.56607 19.5587 3.25 18.7956 3.25 18V6C3.25 5.20435 3.56607 4.44129 4.12868 3.87868C4.69129 3.31607 5.45435 3 6.25 3H18.25C19.0456 3 19.8087 3.31607 20.3713 3.87868C20.9339 4.44129 21.25 5.20435 21.25 6V14.673" stroke-width="1.5" stroke-linecap="round" stroke-linejoin="round"/>
<path stroke="#999999" d="M17.6429 15.9829V17.7409L19.0249 18.5839" stroke-width="1.5" stroke-linecap="round" stroke-linejoin="round"/>
<circle fill="#999999" cx="6.9009" cy="11.4" r="0.6"/>
<circle fill="#999999" cx="10.4949" cy="11.4" r="0.6"/>
<circle fill="#999999" cx="14.0889" cy="11.4" r="0.6"/>
<circle fill="#999999" cx="6.9009" cy="14.4989" r="0.6"/>
<circle fill="#999999" cx="10.5" cy="14.4989" r="0.6"/>
<circle fill="#999999" cx="6.9009" cy="17.4999" r="0.6"/>
<circle fill="#999999" cx="10.5" cy="17.4999" r="0.6"/>
</g>
</svg>
