<svg width="25" height="24" viewBox="0 0 25 24" fill="none" xmlns="http://www.w3.org/2000/svg">
<g>
<path stroke="#999999" d="M11.0833 12.0001V7.04175C11.0833 6.55875 11.4753 6.16675 11.9583 6.16675C12.4413 6.16675 12.8333 6.55875 12.8333 7.04175V12.0001" stroke-linecap="round" stroke-linejoin="round"/>
<path stroke="#999999" d="M11.0833 8.20825C11.0833 7.72525 10.6913 7.33325 10.2083 7.33325C9.72525 7.33325 9.33325 7.72525 9.33325 8.20825V11.9999" stroke-linecap="round" stroke-linejoin="round"/>
<path stroke="#999999" d="M12.8333 8.20825C12.8333 7.72525 13.2253 7.33325 13.7083 7.33325C14.1913 7.33325 14.5833 7.72525 14.5833 8.20825V11.4166V13.1666L15.6922 12.0577C16.0463 11.7036 16.6203 11.7036 16.9743 12.0577C17.28 12.3633 17.3273 12.8423 17.0875 13.2016L15.0388 16.2746C14.3896 17.2482 13.297 17.8333 12.1268 17.8333H11.0833C9.15009 17.8333 7.58325 16.2664 7.58325 14.3333V11.4166V9.37492C7.58325 8.89192 7.97525 8.49992 8.45825 8.49992C8.94125 8.49992 9.33325 8.89192 9.33325 9.37492" stroke-linecap="round" stroke-linejoin="round"/>
<path stroke="#999999" d="M7.07843 19.8284L4.42157 17.1716C3.67143 16.4214 3.25 15.404 3.25 14.3432V9.65785C3.25 8.59699 3.67143 7.57957 4.42157 6.82943L7.07943 4.17157C7.82957 3.42143 8.84699 3 9.90785 3H14.5911C15.1164 3 15.6366 3.10346 16.1219 3.30448C16.6072 3.5055 17.0481 3.80014 17.4196 4.17157L20.0784 6.83043C20.4499 7.20186 20.7445 7.64282 20.9455 8.12813C21.1465 8.61343 21.25 9.13357 21.25 9.65886V14.3421C21.25 15.4027 20.8288 16.4199 20.079 17.17L17.4221 19.8279C17.0506 20.1995 16.6096 20.4943 16.1242 20.6954C15.6388 20.8965 15.1186 21 14.5932 21H9.90686C9.38157 21 8.86143 20.8965 8.37613 20.6955C7.89082 20.4945 7.44987 20.1999 7.07843 19.8284Z" stroke-width="1.5" stroke-linecap="round" stroke-linejoin="round"/>
</g>
</svg>
