<svg width="40" height="40" viewBox="0 0 40 40" fill="none" xmlns="http://www.w3.org/2000/svg">
<path d="M17 21.9998H0V27.9998H17V21.9998Z" fill="#EA8F18"/>
<path d="M3 27.9998H0V29.9998H2L3 27.9998Z" fill="#EA8F18"/>
<path d="M17 27.9998H4V28.9998H17V27.9998Z" fill="#B36A00"/>
<path d="M17 32.9998H5V33.9998H17V32.9998Z" fill="#B36A00"/>
<path d="M14 28.9998H8V32.9998H14V28.9998Z" fill="#EA8F18"/>
<path d="M3 26.4998C2.44828 26.4998 2 26.0664 2 25.5331V24.4664C2 23.9331 2.44828 23.4998 3 23.4998C3.55172 23.4998 4 23.9331 4 24.4664V25.5331C4 26.0664 3.55172 26.4998 3 26.4998Z" fill="#B26A00"/>
<path d="M6 26.4998C5.44828 26.4998 5 26.0664 5 25.5331V24.4664C5 23.9331 5.44828 23.4998 6 23.4998C6.55172 23.4998 7 23.9331 7 24.4664V25.5331C7 26.0664 6.55172 26.4998 6 26.4998Z" fill="#B26A00"/>
<path d="M17 21.9996L13 21.9997L14 27.9952H17V21.9996Z" fill="#B36A00"/>
<path d="M8 31.9998L14 30.4266V28.9998H8V31.9998Z" fill="#B36A00"/>
<path d="M18 33.9998H4L2 36.4998L2.00009 38.9998H5V37.9998L6 36.4998H16L17 37.9998V38.9998H20V36.4998L18 33.9998Z" fill="#EA8F18"/>
<path d="M22.6032 6.22357L17 22.0016L15.4622 18.5111L20.3782 6.22357H22.6032Z" fill="#EA8F18"/>
<path d="M9.77845 16.3996L17.8221 5.4855L16.0191 4.81705L7.9165 14.6774L9.77845 16.3996Z" fill="#EA8F18"/>
<path d="M19.8789 7.46424L21.6752 8.82023L22.5559 6.39362L20.2702 6.45773L19.8789 7.46424Z" fill="#B36A00"/>
<path d="M37.4352 20.9998L34.4352 22.9998L31.4352 20.9998V19.9998H37.4352V20.9998Z" fill="#EA8F18"/>
<path d="M37.4353 20.9998L34.4353 22.9998L37.4353 19.9998V20.9998Z" fill="#B26A00"/>
<rect x="32.004" y="4.99976" width="1.6" height="15" fill="#EA8F18"/>
<rect x="35.126" y="4.99976" width="1.6" height="15" fill="#EA8F18"/>
<path d="M19.9989 0.00830491L15.3001 5.67978L17.0462 6.39468L21.9113 0.00842709L19.9989 0.00830491Z" fill="#EA8F18"/>
<path d="M36.6995 4.51984L21.886 0.00830707L21.0373 1.03424L21.1389 1.89544L36.6995 6.17564L36.6995 4.51984Z" fill="#EA8F18"/>
<path d="M22.1023 0.976885L20.0028 0.0786743L20.4592 5.41552L22.61 5.31845L22.1023 0.976885Z" fill="#EA8F18"/>
<path d="M32.5939 4.04906L16.3376 4.65931L15.8523 6.59518L36.4931 5.97069L32.5939 4.04906Z" fill="#EA8F18"/>
<path d="M17.4352 7.51214L14.2221 5.21502L13.175 6.64637L16.3881 8.94348L17.4352 7.51214Z" fill="#EA8F18"/>
<path d="M13.8306 17.3102H2.69873V19.4496H13.8306V17.3102Z" fill="#EA8F18"/>
<path d="M2.69873 19.4496H5.5173C5.57327 19.1006 5.60379 18.7289 5.60379 18.3495C5.60379 17.993 5.57835 17.644 5.52748 17.3102H2.69873V19.4496Z" fill="#B36A00"/>
<path d="M8.76557 8.4854L1.59753 17.0023L3.23437 18.3799L10.4024 9.86302L8.76557 8.4854Z" fill="#EA8F18"/>
<path d="M3.23437 18.3799L5.04931 16.2234C4.81835 15.9559 4.55359 15.6931 4.26337 15.4489C3.99057 15.2193 3.70718 15.014 3.41903 14.838L1.59753 17.0023L3.23437 18.3799Z" fill="#B36A00"/>
<path d="M12.1659 9.51609L10.4213 11.6065L13 21.9998H17L12.1659 9.51609Z" fill="#B26A00"/>
<path d="M2.00067 19.9998C3.10487 19.9998 3.99999 19.1043 3.99999 17.9998C3.99999 16.8952 3.10487 15.9998 2.00067 15.9998C0.896472 15.9998 0.00134277 16.8952 0.00134277 17.9998C0.00134277 19.1043 0.896472 19.9998 2.00067 19.9998Z" fill="#EA8F18"/>
<path d="M7.9165 14.6789L9.78902 16.4027L11.163 14.5061L10.4296 11.6064L7.9165 14.6789Z" fill="#B36A00"/>
<path d="M14.0324 7.25531L15.6631 8.44588L14.576 9.92114L13.3465 8.08354L14.0324 7.25531Z" fill="#B36A00"/>
</svg>
