<svg width="24" height="24" viewBox="0 0 24 24" fill="none" xmlns="http://www.w3.org/2000/svg">
<g clip-path="url(#clip0_1024_921)">
<circle cx="12" cy="12" r="9.25" stroke="#555555" stroke-width="1.5"/>
<path d="M12 12C13.3807 12 14.5 10.8807 14.5 9.5C14.5 8.11929 13.3807 7 12 7C10.6193 7 9.5 8.11929 9.5 9.5C9.5 10.8807 10.6193 12 12 12Z" stroke="#555555" stroke-width="1.5" stroke-linecap="round" stroke-linejoin="round"/>
<path d="M7 17C7 16.337 7.26339 15.7011 7.73223 15.2322C8.20107 14.7634 8.83696 14.5 9.5 14.5H14.5C14.8283 14.5 15.1534 14.5647 15.4567 14.6903C15.76 14.8159 16.0356 15.0001 16.2678 15.2322C16.4999 15.4644 16.6841 15.74 16.8097 16.0433C16.9353 16.3466 17 16.6717 17 17" stroke="#555555" stroke-width="1.5" stroke-linecap="round" stroke-linejoin="round"/>
</g>
</svg>
