<svg width="20" height="20" viewBox="0 0 20 20" fill="none" xmlns="http://www.w3.org/2000/svg">
<path stroke="#ffffff" d="M8.33333 15.8333H3.91667C3.13417 15.8333 2.5 15.17 2.5 14.3517V3.98167C2.5 3.16333 3.13417 2.5 3.91667 2.5H15.25C16.0325 2.5 16.6667 3.16333 16.6667 3.98167V7.5" stroke-width="1.5" stroke-linecap="round" stroke-linejoin="round"/>
<path stroke="#ffffff" d="M7.5 5.83301H12.5" stroke-width="1.5" stroke-linecap="round" stroke-linejoin="round"/>
<path stroke="#ffffff" d="M5.83325 9.16699H12.4999" stroke-width="1.5" stroke-linecap="round" stroke-linejoin="round"/>
<path stroke="#ffffff" d="M5.83325 12.5H8.33325" stroke-width="1.5" stroke-linecap="round" stroke-linejoin="round"/>
<path stroke="#ffffff" d="M14.4109 17.2557L18.0892 13.5774C18.4151 13.2515 18.4151 12.724 18.0892 12.399L16.7676 11.0774C16.4417 10.7515 15.9142 10.7515 15.5892 11.0774L11.9109 14.7557C11.7542 14.9124 11.6667 15.124 11.6667 15.3449V17.4999H13.8217C14.0426 17.4999 14.2542 17.4124 14.4109 17.2557Z" stroke-width="1.5" stroke-linecap="round" stroke-linejoin="round"/>
</svg>
