<svg width="20" height="20" viewBox="0 0 20 20" fill="none" xmlns="http://www.w3.org/2000/svg">
<path stroke="#999999" d="M13.3093 7.8393C12.911 7.8393 12.536 7.92097 12.2077 8.08513C11.9618 6.46597 10.5552 5.2218 8.86683 5.2218C7.026 5.2218 5.526 6.70013 5.4785 8.53097C4.37683 8.6718 3.521 9.61013 3.521 10.7726C3.52016 12.0168 4.52766 13.026 5.771 13.026H13.3085C14.7385 13.026 15.8993 11.8643 15.8993 10.4326C15.8993 9.00097 14.7385 7.8393 13.3093 7.8393Z" stroke-width="1.5" stroke-linecap="round" stroke-linejoin="round"/>
<path stroke="#999999" d="M14.592 15.5259L14.1753 16.3592" stroke-width="1.5" stroke-linecap="round" stroke-linejoin="round"/>
<path stroke="#999999" d="M7.09196 18.026L6.67529 18.8593" stroke-width="1.5" stroke-linecap="round" stroke-linejoin="round"/>
<path stroke="#999999" d="M4.58766 15.5219C4.58516 15.5219 4.5835 15.5237 4.5835 15.5265C4.5835 15.5294 4.58516 15.5312 4.58766 15.5312C4.59016 15.5312 4.59183 15.5294 4.59183 15.5265C4.59183 15.5237 4.59016 15.5219 4.58766 15.5219Z" stroke-width="1.5" stroke-linecap="round" stroke-linejoin="round"/>
<path stroke="#999999" d="M9.58766 15.5219C9.58516 15.5219 9.5835 15.5237 9.5835 15.5265C9.5835 15.5294 9.58516 15.5312 9.58766 15.5312C9.59016 15.5312 9.59183 15.5294 9.59183 15.5265C9.59183 15.5237 9.59016 15.5219 9.58766 15.5219Z" stroke-width="1.5" stroke-linecap="round" stroke-linejoin="round"/>
<path stroke="#999999" d="M11.2586 18.0176C11.2561 18.0176 11.2544 18.0195 11.2544 18.0223C11.2544 18.0251 11.2561 18.027 11.2586 18.027C11.2611 18.027 11.2627 18.0251 11.2627 18.0223C11.2627 18.0195 11.2611 18.0176 11.2586 18.0176Z" stroke-width="1.5" stroke-linecap="round" stroke-linejoin="round"/>
<path stroke="#999999" d="M9.55518 5.29923C9.75018 3.5634 11.2077 2.20923 12.9977 2.20923C12.9977 4.12923 14.5568 5.68673 16.4793 5.68673C16.4793 6.84923 15.9018 7.8734 15.0243 8.50423" stroke-width="1.5" stroke-linecap="round" stroke-linejoin="round"/>
</svg>
