<svg width="20" height="20" viewBox="0 0 20 20" fill="none" xmlns="http://www.w3.org/2000/svg">
<g clip-path="url(#clip0_0_1302)">
<path fill-rule="evenodd" clip-rule="evenodd" d="M17.5 8.54125C17.5 4.515 14.1425 1.25 10 1.25C5.8575 1.25 2.5 4.515 2.5 8.54125C2.5 11.6557 4.93247 13.9257 7.02683 15.8801C8.61002 17.3576 10 18.75 10 18.75C10 18.75 11.39 17.3576 12.9732 15.8801C15.0675 13.9257 17.5 11.6557 17.5 8.54125ZM10 11C11.1046 11 12 10.1046 12 9C12 7.89543 11.1046 7 10 7C8.89543 7 8 7.89543 8 9C8 10.1046 8.89543 11 10 11Z" fill="#00A2E0"/>
</g>
<defs>
<clipPath id="clip0_0_1302">
<rect width="20" height="20" fill="white"/>
</clipPath>
</defs>
</svg>
