<svg width="40" height="40" viewBox="0 0 40 40" fill="none" xmlns="http://www.w3.org/2000/svg">
<g clip-path="url(#clip0_1053_2438)">
<path d="M25.8332 5L19.9998 15L14.1665 5" stroke="#111111" stroke-width="1.5" stroke-linecap="round" stroke-linejoin="round"/>
<path d="M28.3333 21.6667H25" stroke="#111111" stroke-width="1.5" stroke-linecap="round" stroke-linejoin="round"/>
<path d="M28.3333 28.3333H25" stroke="#111111" stroke-width="1.5" stroke-linecap="round" stroke-linejoin="round"/>
<path d="M14.9998 21.6667H11.6665" stroke="#111111" stroke-width="1.5" stroke-linecap="round" stroke-linejoin="round"/>
<path d="M14.9998 28.3333H11.6665" stroke="#111111" stroke-width="1.5" stroke-linecap="round" stroke-linejoin="round"/>
<path d="M19.9998 31.6667C19.9998 32.5507 19.6486 33.3986 19.0235 34.0237C18.3984 34.6488 17.5506 35 16.6665 35H9.99984C9.11578 35 8.26794 34.6488 7.64281 34.0237C7.01769 33.3986 6.6665 32.5507 6.6665 31.6667V18.0474C6.6665 17.6096 6.75272 17.1762 6.92024 16.7718C7.08776 16.3673 7.33329 15.9999 7.64282 15.6904L9.99984 13.3333V8.33333C9.99984 7.44928 10.351 6.60143 10.9761 5.97631C11.6013 5.35119 12.4491 5 13.3332 5H26.6665C27.5506 5 28.3984 5.35119 29.0235 5.97631C29.6486 6.60143 29.9998 7.44928 29.9998 8.33333V13.3333L32.3569 15.6904C32.6664 15.9999 32.9119 16.3673 33.0794 16.7718C33.247 17.1762 33.3332 17.6096 33.3332 18.0474V31.6667C33.3332 32.5507 32.982 33.3986 32.3569 34.0237C31.7317 34.6488 30.8839 35 29.9998 35H23.3332C22.4491 35 21.6013 34.6488 20.9761 34.0237C20.351 33.3986 19.9998 32.5507 19.9998 31.6667Z" stroke="#111111" stroke-width="1.5" stroke-linecap="round" stroke-linejoin="round"/>
<path d="M20 31.6667V15" stroke="#111111" stroke-width="1.5" stroke-linecap="round" stroke-linejoin="round"/>
</g>
</svg>
