<svg width="40" height="40" viewBox="0 0 40 40" fill="none" xmlns="http://www.w3.org/2000/svg">
<g clip-path="url(#clip0_1053_2552)">
<path d="M8.3335 26.6667H11.6668" stroke="#111111" stroke-width="1.5" stroke-linecap="round" stroke-linejoin="round"/>
<path d="M21.6668 31.6667H6.66683C4.82516 31.6667 3.3335 30.175 3.3335 28.3333V12.615C3.3335 12.165 3.42516 11.7183 3.60183 11.305L5.43183 7.02333C5.95683 5.79667 7.16183 5 8.49683 5H24.8368C26.1718 5 27.3768 5.79667 27.9018 7.02333L29.7318 11.305C29.9085 11.72 30.0002 12.165 30.0002 12.615V18.5" stroke="#111111" stroke-width="1.5" stroke-linecap="round" stroke-linejoin="round"/>
<path d="M16.667 5V12.4" stroke="#111111" stroke-width="1.5" stroke-linecap="round" stroke-linejoin="round"/>
<path d="M29.9835 12.3999H3.3335" stroke="#111111" stroke-width="1.5" stroke-linecap="round" stroke-linejoin="round"/>
<path d="M34.2259 20.7743C37.4803 24.0286 37.4803 29.305 34.2259 32.5594C30.9715 35.8138 25.6951 35.8138 22.4408 32.5594C19.1864 29.305 19.1864 24.0286 22.4408 20.7743C25.6951 17.5199 30.9715 17.5199 34.2259 20.7743Z" stroke="#111111" stroke-width="1.5" stroke-linecap="round" stroke-linejoin="round"/>
<path d="M30.2075 23.8291C31.5086 25.1302 31.5086 27.2397 30.2075 28.5408C28.9064 29.8419 26.7969 29.8419 25.4958 28.5408C24.1947 27.2397 24.1947 25.1302 25.4958 23.8291C26.7969 22.528 28.9064 22.528 30.2075 23.8291Z" stroke="#111111" stroke-width="1.5" stroke-linecap="round" stroke-linejoin="round"/>
<path d="M31.6669 30.0001L30.2002 28.5334" stroke="#111111" stroke-width="1.5" stroke-linecap="round" stroke-linejoin="round"/>
</g>
</svg>
