<svg xmlns="http://www.w3.org/2000/svg" width="20" height="20" viewBox="0 0 20 20" fill="none">
<g>
<path d="M17.5 9.95203V13.0882C17.5 14.2583 17.0352 15.3805 16.2078 16.2078C15.3805 17.0352 14.2583 17.5 13.0882 17.5H6.91177C5.74169 17.5 4.61954 17.0352 3.79218 16.2078C2.96481 15.3805 2.5 14.2583 2.5 13.0882V6.91177C2.5 5.74169 2.96481 4.61954 3.79218 3.79218C4.61954 2.96481 5.74169 2.5 6.91177 2.5H10.048" stroke="#999999" stroke-width="1.5" stroke-linecap="round" stroke-linejoin="round"/>
<path d="M10.6666 11.6904L17.0118 5.34518C17.1665 5.19041 17.2893 5.00668 17.3731 4.80447C17.4568 4.60226 17.4999 4.38553 17.4999 4.16666C17.4999 3.94779 17.4568 3.73107 17.3731 3.52886C17.2893 3.32665 17.1665 3.14292 17.0118 2.98815C16.6992 2.67559 16.2753 2.5 15.8333 2.5C15.3912 2.5 14.9673 2.67559 14.6547 2.98815L8.3095 9.33333C7.99076 9.65207 7.784 10.0656 7.72025 10.5118L7.50419 12.0243C7.49504 12.0883 7.50093 12.1536 7.52138 12.2149C7.54184 12.2763 7.5763 12.3321 7.62204 12.3778C7.66778 12.4235 7.72354 12.458 7.7849 12.4785C7.84627 12.4989 7.91155 12.5048 7.97559 12.4957L9.48801 12.2796C9.93426 12.2159 10.3478 12.0091 10.6666 11.6904Z" stroke="#999999" stroke-width="1.5" stroke-linecap="round" stroke-linejoin="round"/>
</g>
</svg>