<svg width="24" height="24" viewBox="0 0 24 24" fill="none" xmlns="http://www.w3.org/2000/svg">
<path stroke="#ffffff" d="M16 18.42H8.342" stroke-width="1.5" stroke-linecap="round" stroke-linejoin="round"/>
<path stroke="#ffffff" d="M22 13H18.5C18.3674 13 18.2402 12.9473 18.1464 12.8536C18.0527 12.7598 18 12.6326 18 12.5V9H21.4998" stroke-width="1.5" stroke-linecap="round" stroke-linejoin="round"/>
<path stroke="#ffffff" d="M18.5566 17.4393C18.7664 17.6491 18.9093 17.9163 18.9672 18.2073C19.0251 18.4983 18.9954 18.7999 18.8818 19.074C18.7683 19.3481 18.5761 19.5823 18.3294 19.7472C18.0828 19.912 17.7927 20 17.4961 20C17.1994 20 16.9094 19.9121 16.6627 19.7472C16.416 19.5824 16.2238 19.3482 16.1102 19.0741C15.9967 18.8 15.9669 18.4984 16.0248 18.2074C16.0827 17.9165 16.2255 17.6492 16.4353 17.4394L16.4354 17.4393C16.7167 17.158 17.0982 17 17.496 17C17.8938 17 18.2753 17.158 18.5566 17.4393V17.4393" stroke-width="1.5" stroke-linecap="round" stroke-linejoin="round"/>
<path stroke="#ffffff" d="M2 4H10" stroke-width="1.5" stroke-linecap="round" stroke-linejoin="round"/>
<path stroke="#ffffff" d="M10 4C10.2652 4 10.5196 4.10536 10.7071 4.29289C10.8946 4.48043 11 4.73478 11 5" stroke-width="1.5" stroke-linecap="round" stroke-linejoin="round"/>
<path stroke="#ffffff" d="M11 5V11" stroke-width="1.5" stroke-linecap="round" stroke-linejoin="round"/>
<path stroke="#ffffff" d="M4.56061 17.4393C4.7704 17.6491 4.91327 17.9163 4.97116 18.2073C5.02906 18.4983 4.99937 18.7999 4.88585 19.074C4.77233 19.3481 4.58008 19.5823 4.33341 19.7472C4.08675 19.912 3.79674 20 3.50007 20C3.2034 20 2.91339 19.9121 2.6667 19.7472C2.42002 19.5824 2.22775 19.3482 2.11421 19.0741C2.00066 18.8 1.97094 18.4984 2.02881 18.2074C2.08667 17.9165 2.22952 17.6492 2.43929 17.4394L2.43959 17.4391C2.57886 17.2998 2.7442 17.1893 2.92617 17.114C3.10814 17.0386 3.30317 16.9998 3.50013 16.9999C3.69709 16.9999 3.89211 17.0387 4.07407 17.1141C4.25602 17.1895 4.42134 17.3 4.56059 17.4393V17.4393" stroke-width="1.5" stroke-linecap="round" stroke-linejoin="round"/>
<path stroke="#ffffff" d="M7.7346 17.4393C7.94439 17.6491 8.08726 17.9163 8.14515 18.2073C8.20304 18.4983 8.17335 18.7999 8.05984 19.074C7.94632 19.3481 7.75407 19.5823 7.5074 19.7472C7.26074 19.912 6.97073 20 6.67406 20C6.37739 20 6.08737 19.9121 5.84069 19.7472C5.59401 19.5824 5.40174 19.3482 5.2882 19.0741C5.17465 18.8 5.14493 18.4984 5.2028 18.2074C5.26066 17.9165 5.40351 17.6492 5.61328 17.4394L5.61358 17.4391C5.75285 17.2998 5.91819 17.1893 6.10016 17.114C6.28213 17.0386 6.47716 16.9998 6.67412 16.9999C6.87108 16.9999 7.0661 17.0387 7.24806 17.1141C7.43001 17.1895 7.59533 17.3 7.73458 17.4393V17.4393" stroke-width="1.5" stroke-linecap="round" stroke-linejoin="round"/>
<path stroke="#ffffff" d="M18.9951 18.5H21C21.2652 18.5 21.5196 18.3946 21.7071 18.2071C21.8946 18.0196 22 17.7652 22 17.5V10.4723C22 10.1617 21.9277 9.85538 21.7887 9.57761L20.5522 7.10534C20.3861 6.77319 20.1307 6.49385 19.8148 6.29863C19.4989 6.1034 19.1348 6 18.7635 6H14" stroke-width="1.5" stroke-linecap="round" stroke-linejoin="round"/>
<path stroke="#ffffff" d="M2 14H14V4" stroke-width="1.5" stroke-linecap="round" stroke-linejoin="round"/>
</svg>
