<svg width="60" height="60" viewBox="0 0 60 60" fill="none" xmlns="http://www.w3.org/2000/svg">
<path d="M52 18.1953C52 23.826 47.4354 28.3906 41.8047 28.3906C36.174 28.3906 31.6094 23.826 31.6094 18.1953C31.6094 12.5646 36.174 8 41.8047 8C47.4354 8 52 12.5646 52 18.1953Z" fill="url(#paint0_linear_0_1158)"/>
<path d="M52.3828 33.9111C52.3828 38.0591 49.014 41.4219 44.8568 41.4219H17.6239C12.0977 41.4219 7.61719 36.9511 7.61719 31.4339C7.61719 25.9183 12.0977 21.4459 17.6239 21.4459C18.1195 21.4459 18.6066 21.4839 19.0843 21.553C21.3441 17.0737 25.9916 14 31.3603 14C37.8565 14 43.2987 18.5019 44.7284 24.5502C44.8711 25.1541 44.9741 25.7727 45.0333 26.403V26.4046C49.107 26.4974 52.3828 29.8221 52.3828 33.9111Z" fill="#BAC7CB" fill-opacity="0.4"/>
<g filter="url(#filter0_b_0_1158)">
<path d="M52.3828 33.9111C52.3828 38.0591 49.014 41.4219 44.8568 41.4219H17.6239C12.0977 41.4219 7.61719 36.9511 7.61719 31.4339C7.61719 25.9183 12.0977 21.4459 17.6239 21.4459C18.1195 21.4459 18.6066 21.4839 19.0843 21.553C21.3441 17.0737 25.9916 14 31.3603 14C37.8565 14 43.2987 18.5019 44.7284 24.5502C44.8711 25.1541 44.9741 25.7727 45.0333 26.403V26.4046C49.107 26.4974 52.3828 29.8221 52.3828 33.9111Z" fill="url(#paint1_linear_0_1158)"/>
</g>
<g filter="url(#filter1_b_0_1158)">
<path fill-rule="evenodd" clip-rule="evenodd" d="M19.2176 21.8091L19.0507 21.7849C18.5834 21.7173 18.1075 21.6803 17.6239 21.6803C12.2267 21.6803 7.85156 26.0481 7.85156 31.4339C7.85156 36.8212 12.2267 41.1875 17.6239 41.1875H44.8568C48.885 41.1875 52.1484 37.9293 52.1484 33.9111C52.1484 29.9503 48.9751 26.7288 45.0279 26.6389L44.7989 26.6337V26.414C44.7406 25.7985 44.6397 25.1942 44.5003 24.6041C43.0951 18.6594 37.7456 14.2344 31.3603 14.2344C26.0833 14.2344 21.515 17.2553 19.2935 21.6585L19.2176 21.8091ZM45.0333 26.403V26.4046C49.107 26.4974 52.3828 29.8221 52.3828 33.9111C52.3828 38.0591 49.014 41.4219 44.8568 41.4219H17.6239C12.0977 41.4219 7.61719 36.9511 7.61719 31.4339C7.61719 25.9183 12.0977 21.4459 17.6239 21.4459C18.1195 21.4459 18.6066 21.4839 19.0843 21.553C21.3441 17.0737 25.9916 14 31.3603 14C37.8565 14 43.2987 18.5019 44.7284 24.5502C44.8711 25.1541 44.9741 25.7727 45.0333 26.403Z" fill="url(#paint2_linear_0_1158)"/>
</g>
<path d="M17.0585 44.546C16.3536 44.9539 15.8789 45.7157 15.8789 46.5888C15.8789 46.6201 15.8796 46.6511 15.8806 46.682C15.9384 48.1649 18.1787 48.1649 18.2362 46.682C18.2375 46.6511 18.2382 46.6201 18.2382 46.5888C18.2382 45.7157 17.7634 44.9539 17.0585 44.546Z" fill="#00A3FF"/>
<path d="M22.2292 46.7518C21.524 47.1597 21.0496 47.9215 21.0496 48.7946C21.0496 48.826 21.0502 48.8569 21.0513 48.8878C21.1088 50.3707 23.3494 50.3707 23.4069 48.8878C23.4082 48.8569 23.4086 48.826 23.4086 48.7946C23.4088 47.9215 22.9341 47.1597 22.2292 46.7518Z" fill="#00A3FF"/>
<path d="M22.2292 40.6979C21.524 41.1058 21.0496 41.8676 21.0496 42.7407C21.0496 42.7718 21.0502 42.8029 21.0513 42.8336C21.1088 44.3167 23.3494 44.3167 23.4069 42.8336C23.4082 42.8029 23.4086 42.7718 23.4086 42.7407C23.4088 41.8676 22.9341 41.1058 22.2292 40.6979Z" fill="#00A3FF"/>
<path d="M27.3997 44.546C26.6948 44.9539 26.2201 45.7157 26.2201 46.5888C26.2201 46.6201 26.2208 46.6511 26.2219 46.682C26.2796 48.1649 28.5199 48.1649 28.5774 46.682C28.5787 46.6511 28.5794 46.6201 28.5794 46.5888C28.5794 45.7157 28.1047 44.9539 27.3997 44.546Z" fill="#00A3FF"/>
<path d="M32.5704 46.7518C31.8655 47.1597 31.3908 47.9215 31.3908 48.7946C31.3908 48.826 31.3912 48.8569 31.3925 48.8878C31.45 50.3707 33.6906 50.3707 33.7481 48.8878C33.7494 48.8569 33.7498 48.826 33.7498 48.7946C33.7501 47.9215 33.2753 47.1597 32.5704 46.7518Z" fill="#00A3FF"/>
<path d="M42.9415 46.7518C42.2366 47.1597 41.7619 47.9215 41.7619 48.7946C41.7619 48.826 41.7626 48.8569 41.7636 48.8878C41.8213 50.3707 44.0617 50.3707 44.1192 48.8878C44.1205 48.8569 44.1211 48.826 44.1211 48.7946C44.1211 47.9215 43.6464 47.1597 42.9415 46.7518Z" fill="#00A3FF"/>
<path d="M37.741 44.546C37.036 44.9539 36.5613 45.7157 36.5613 46.5888C36.5613 46.6201 36.562 46.6511 36.5631 46.682C36.6208 48.1649 38.8611 48.1649 38.9186 46.682C38.9199 46.6511 38.9206 46.6201 38.9206 46.5888C38.9206 45.7157 38.4459 44.9539 37.741 44.546Z" fill="#00A3FF"/>
<defs>
<filter id="filter0_b_0_1158" x="2.61719" y="9" width="54.7656" height="37.4219" filterUnits="userSpaceOnUse" color-interpolation-filters="sRGB">
<feFlood flood-opacity="0" result="BackgroundImageFix"/>
<feGaussianBlur in="BackgroundImageFix" stdDeviation="2.5"/>
<feComposite in2="SourceAlpha" operator="in" result="effect1_backgroundBlur_0_1158"/>
<feBlend mode="normal" in="SourceGraphic" in2="effect1_backgroundBlur_0_1158" result="shape"/>
</filter>
<filter id="filter1_b_0_1158" x="-23.4206" y="-17.0378" width="106.841" height="89.4975" filterUnits="userSpaceOnUse" color-interpolation-filters="sRGB">
<feFlood flood-opacity="0" result="BackgroundImageFix"/>
<feGaussianBlur in="BackgroundImageFix" stdDeviation="15.5189"/>
<feComposite in2="SourceAlpha" operator="in" result="effect1_backgroundBlur_0_1158"/>
<feBlend mode="normal" in="SourceGraphic" in2="effect1_backgroundBlur_0_1158" result="shape"/>
</filter>
<linearGradient id="paint0_linear_0_1158" x1="45.9117" y1="8.94391" x2="37.3221" y2="28.3884" gradientUnits="userSpaceOnUse">
<stop stop-color="#FFD88B"/>
<stop offset="1" stop-color="#FFA900"/>
</linearGradient>
<linearGradient id="paint1_linear_0_1158" x1="14.707" y1="18.8047" x2="48.394" y2="43.1209" gradientUnits="userSpaceOnUse">
<stop offset="0.416176" stop-color="white" stop-opacity="0.7"/>
<stop offset="1" stop-color="white" stop-opacity="0"/>
</linearGradient>
<linearGradient id="paint2_linear_0_1158" x1="4.18919" y1="21.226" x2="20.2172" y2="32.7544" gradientUnits="userSpaceOnUse">
<stop stop-color="white"/>
<stop offset="1" stop-color="white" stop-opacity="0"/>
</linearGradient>
</defs>
</svg>
