<svg width="24" height="24" viewBox="0 0 24 24" fill="none" xmlns="http://www.w3.org/2000/svg">
<path stroke="#ffffff" d="M20 13H15C13.8954 13 13 13.8954 13 15V19C13 20.1046 13.8954 21 15 21H20C21.1046 21 22 20.1046 22 19V15C22 13.8954 21.1046 13 20 13Z" stroke-width="1.5" stroke-linecap="round" stroke-linejoin="round"/>
<path stroke="#ffffff" d="M19 13V15.5C19 15.6326 18.9473 15.7598 18.8536 15.8536C18.7598 15.9473 18.6326 16 18.5 16H16.5C16.3674 16 16.2402 15.9473 16.1464 15.8536C16.0527 15.7598 16 15.6326 16 15.5V13" stroke-width="1.5" stroke-linecap="round" stroke-linejoin="round"/>
<path stroke="#ffffff" d="M3.51387 15H6C6.53043 15 7.03914 14.7893 7.41421 14.4142C7.78929 14.0392 8 13.5304 8 13V11C8 10.4696 8.21071 9.96087 8.58579 9.5858C8.96086 9.21073 9.46957 9.00001 10 9.00001H12C12.5304 9.00001 13.0391 8.7893 13.4142 8.41422C13.7893 8.03915 14 7.53044 14 7.00001V3.2247" stroke-width="1.5" stroke-linecap="round" stroke-linejoin="round"/>
<path stroke="#ffffff" d="M20.7693 10C20.4123 8.43187 19.6416 6.98807 18.5372 5.81893C17.4328 4.64979 16.0353 3.79805 14.49 3.35238C12.9447 2.9067 11.3083 2.88339 9.75092 3.28487C8.19358 3.68635 6.77233 4.49794 5.63512 5.63515C4.49791 6.77236 3.68633 8.19361 3.28485 9.75095C2.88337 11.3083 2.90669 12.9448 3.35236 14.49C3.79804 16.0353 4.64978 17.4329 5.81892 18.5372C6.98806 19.6416 8.43186 20.4124 10 20.7693" stroke-width="1.5" stroke-linecap="round" stroke-linejoin="round"/>
</svg>
