<svg width="40" height="40" viewBox="0 0 40 40" fill="none" xmlns="http://www.w3.org/2000/svg">
<path d="M29.3333 26.5625H32.1333C32.1333 29.2181 29.8327 31.375 27 31.375C24.1673 31.375 21.8667 29.2181 21.8667 26.5625V11.25H20V34L21.4747 32.6175C22.772 33.4837 24.354 34 26.0667 34C30.4487 34 34 30.6706 34 26.5625V22.1875L29.3333 26.5625Z" fill="#505E5F"/>
<path d="M21.8666 20.4375H23.7332C25.2872 20.4375 26.8366 19.8819 28.0219 18.7706C29.2073 17.6594 29.7999 16.2025 29.7999 14.75C29.7999 13.2975 29.2073 11.8406 28.0219 10.7294C26.8366 9.61813 25.2826 9.0625 23.7332 9.0625H21.8665" stroke="#CAA080" stroke-width="2" stroke-linejoin="round"/>
<path d="M10.6667 26.5625H7.86667C7.86667 29.2181 10.1673 31.375 13 31.375C15.8327 31.375 18.1333 29.2181 18.1333 26.5625V11.25H20V34L18.5253 32.6175C17.228 33.4837 15.646 34 13.9333 34C9.55133 34 6 30.6706 6 26.5625V22.1875L10.6667 26.5625Z" fill="#858F91"/>
<path d="M22.8812 27C22.8812 26.44 22.6525 25.88 22.1998 25.4512C21.7425 25.0225 21.1452 24.8125 20.5478 24.8125H16.7332C16.1359 24.8125 15.5386 24.5981 15.0812 24.1738C14.6239 23.745 14.3999 23.185 14.3999 22.625C14.3999 22.065 14.6286 21.505 15.0812 21.0762C15.5386 20.6519 16.1359 20.4375 16.7332 20.4375H18.1332" stroke="#CAA080" stroke-width="2" stroke-linejoin="round"/>
<rect x="18.135" y="11.3846" width="1.86499" height="6.61499" fill="#354142"/>
<rect x="20" y="11.3846" width="1.86523" height="6.61499" fill="#1F2A2B"/>
<path d="M24.7227 13.8225C24.4474 13.5644 24.0927 13.4375 23.7334 13.4375H16.2667C15.9074 13.4375 15.548 13.5644 15.2774 13.8225C15.0067 14.0806 14.8667 14.4131 14.8667 14.75C14.8667 15.0869 15.002 15.4238 15.2774 15.6775C15.5527 15.9313 15.9074 16.0625 16.2667 16.0625H23.7334C24.0927 16.0625 24.452 15.9356 24.7227 15.6775C24.9934 15.4194 25.1334 15.0869 25.1334 14.75C25.1334 14.4131 24.998 14.0762 24.7227 13.8225Z" fill="#C7CBCD"/>
<path d="M20.0001 6C18.1941 6 16.7334 7.36937 16.7334 9.0625C16.7334 10.7556 18.1941 12.125 20.0001 12.125C21.8061 12.125 23.2667 10.7556 23.2667 9.0625C23.2667 7.36937 21.8061 6 20.0001 6ZM20.0001 10.375C19.2254 10.375 18.6001 9.78875 18.6001 9.0625C18.6001 8.33625 19.2254 7.75 20.0001 7.75C20.7747 7.75 21.4001 8.33625 21.4001 9.0625C21.4001 9.78875 20.7747 10.375 20.0001 10.375Z" fill="#C7CBCD"/>
</svg>
