<svg width="16" height="16" viewBox="0 0 16 16" xmlns="http://www.w3.org/2000/svg">
<path fill="#DDDDDD" fill-rule="evenodd" clip-rule="evenodd" d="M12.7804 3.21623C12.5263 2.96268 12.1148 2.96314 11.8612 3.21726L7.98828 7.09889L4.11537 3.21726C3.86181 2.96314 3.45025 2.96268 3.19613 3.21623C2.96741 3.44443 2.94417 3.80061 3.12665 4.05482L3.1951 4.13547L7.07007 8.01916L3.19475 11.9032L3.1263 11.9838C2.94382 12.2381 2.96707 12.5942 3.19578 12.8224C3.44991 13.076 3.86146 13.0755 4.11502 12.8214L7.98828 8.93944L11.8615 12.8214C12.1151 13.0755 12.5267 13.076 12.7808 12.8224C13.0095 12.5942 13.0327 12.2381 12.8503 11.9838L12.7818 11.9032L8.90649 8.01916L12.7815 4.13547L12.8499 4.05482C13.0324 3.80061 13.0091 3.44443 12.7804 3.21623Z"/>
</svg>
