<svg width="24" height="24" viewBox="0 0 24 24" fill="none" xmlns="http://www.w3.org/2000/svg">
<path stroke="#111111" d="M8.237 6.8661V4.4611C8.237 3.9741 8.632 3.5791 9.119 3.5791H14.881C15.368 3.5791 15.763 3.9741 15.763 4.4611V6.8661" stroke-width="1.5" stroke-miterlimit="10" stroke-linecap="round" stroke-linejoin="round"/>
<path stroke="#111111" d="M5.474 11.3822V8.63219C5.474 7.65719 6.264 6.86719 7.239 6.86719H16.762C17.737 6.86719 18.527 7.65719 18.527 8.63219V11.3822" stroke-width="1.5" stroke-miterlimit="10" stroke-linecap="round" stroke-linejoin="round"/>
<path stroke="#111111" d="M12 2V3.579" stroke-width="1.5" stroke-miterlimit="10" stroke-linecap="round" stroke-linejoin="round"/>
<path stroke="#111111" d="M16.685 17.631L18 15L20 12L12 10L4 12L6 15L6.879 17.49" stroke-width="1.5" stroke-miterlimit="10" stroke-linecap="round" stroke-linejoin="round"/>
<path stroke="#111111" d="M3 17.4004C4.1 16.9004 5.5 16.9004 6.6 17.4004C7.7 17.9004 9.1 17.9004 10.2 17.4004C11.3 16.9004 12.7 16.9004 13.8 17.4004C14.9 17.9004 16.3 17.9004 17.4 17.4004C18.5 16.9004 19.9 16.9004 21 17.4004" stroke-width="1.5" stroke-linecap="round" stroke-linejoin="round"/>
<path stroke="#111111" d="M6.60001 20.625C7.70001 21.125 9.10001 21.125 10.2 20.625C11.3 20.125 12.7 20.125 13.8 20.625C14.9 21.125 16.3 21.125 17.4 20.625" stroke-width="1.5" stroke-linecap="round" stroke-linejoin="round"/>
</svg>
