<svg width="72" height="72" viewBox="0 0 72 72" fill="none" xmlns="http://www.w3.org/2000/svg">
<g>
<circle fill="#00A2E0" cx="36" cy="36" r="36" fill-opacity="0.2"/>
<mask fill="#ffffff" id="path-2-inside-1_32_178">
    <path fill-rule="evenodd" clip-rule="evenodd" d="M36 18C27.1634 18 20 25.1634 20 34C20 42.1592 26.1074 48.892 34 49.8762V56C34 57.1046 34.8954 58 36 58C37.1046 58 38 57.1046 38 56V49.8762C45.8926 48.892 52 42.1592 52 34C52 25.1634 44.8366 18 36 18Z"/>
</mask>
<path fill="#00A2E0" fill-rule="evenodd" clip-rule="evenodd" d="M36 18C27.1634 18 20 25.1634 20 34C20 42.1592 26.1074 48.892 34 49.8762V56C34 57.1046 34.8954 58 36 58C37.1046 58 38 57.1046 38 56V49.8762C45.8926 48.892 52 42.1592 52 34C52 25.1634 44.8366 18 36 18Z"/>
<path fill="#ffffff" mask="url(#path-2-inside-1_32_178)" d="M34 49.8762H35C35 49.3718 34.6243 48.9463 34.1237 48.8839L34 49.8762ZM38 49.8762L37.8763 48.8839C37.3757 48.9463 37 49.3718 37 49.8762H38ZM21 34C21 25.7157 27.7157 19 36 19V17C26.6112 17 19 24.6112 19 34H21ZM34.1237 48.8839C26.7254 47.9613 21 41.6485 21 34H19C19 42.6699 25.4893 49.8227 33.8763 50.8685L34.1237 48.8839ZM35 56V49.8762H33V56H35ZM36 57C35.4477 57 35 56.5523 35 56H33C33 57.6569 34.3431 59 36 59V57ZM37 56C37 56.5523 36.5523 57 36 57V59C37.6569 59 39 57.6569 39 56H37ZM37 49.8762V56H39V49.8762H37ZM51 34C51 41.6485 45.2746 47.9613 37.8763 48.8839L38.1237 50.8685C46.5107 49.8227 53 42.6699 53 34H51ZM36 19C44.2843 19 51 25.7157 51 34H53C53 24.6112 45.3888 17 36 17V19Z"/>
<path stroke="#ffffff" d="M37.4851 27.6151C38.3052 28.4352 38.3052 29.7648 37.4851 30.5849C36.665 31.405 35.3353 31.405 34.5152 30.5849C33.6951 29.7648 33.6951 28.4352 34.5152 27.6151C35.3353 26.795 36.665 26.795 37.4851 27.6151Z" stroke-width="2" stroke-linecap="round" stroke-linejoin="round"/>
<path stroke="#ffffff" d="M36 40.9999V31.2" stroke-width="2" stroke-linecap="round" stroke-linejoin="round"/>
<path stroke="#ffffff" d="M31.1 34H29C29 37.8657 32.1342 41 36 41C39.8657 41 43 37.8657 43 34H40.9" stroke-width="2" stroke-linecap="round" stroke-linejoin="round"/>
</g>
</svg>
