<svg width="16" height="16" viewBox="0 0 16 16" fill="none" xmlns="http://www.w3.org/2000/svg">
<path stroke="#555555" d="M6.53333 10H4.66667C3.95942 10 3.28115 10.281 2.78105 10.781C2.28095 11.2811 2 11.9594 2 12.6667V13.3333" stroke-linecap="round" stroke-linejoin="round"/>
<path stroke="#555555" d="M7.33329 7.33333C8.80605 7.33333 9.99996 6.13943 9.99996 4.66667C9.99996 3.19391 8.80605 2 7.33329 2C5.86053 2 4.66663 3.19391 4.66663 4.66667C4.66663 6.13943 5.86053 7.33333 7.33329 7.33333Z" stroke-linecap="round" stroke-linejoin="round"/>
<path stroke="#555555" d="M10.8296 13.4074C12.1387 13.4074 13.2 12.3462 13.2 11.037C13.2 9.72791 12.1387 8.66666 10.8296 8.66666C9.52048 8.66666 8.45923 9.72791 8.45923 11.037C8.45923 12.3462 9.52048 13.4074 10.8296 13.4074Z" stroke-linecap="round" stroke-linejoin="round"/>
<path stroke="#555555" d="M12.6666 12.7131L13.9535 14" stroke-linecap="round" stroke-linejoin="round"/>
</svg>
