<svg width="60" height="60" viewBox="0 0 60 60" fill="none" xmlns="http://www.w3.org/2000/svg">
<path fill-rule="evenodd" clip-rule="evenodd" d="M45.4357 37.8676C43.5275 38.6329 41.444 39.054 39.2623 39.054C30.0981 39.054 22.6691 31.625 22.6691 22.4608C22.6691 19.3704 23.5139 16.4774 24.9852 14C18.8782 16.4493 14.5654 22.4244 14.5654 29.4068C14.5654 38.571 21.9945 46 31.1586 46C37.2324 46 42.544 42.7366 45.4357 37.8676Z" fill="url(#paint0_linear_0_1295)"/>
<g filter="url(#filter0_b_0_1295)">
<path fill-rule="evenodd" clip-rule="evenodd" d="M44.9724 38.2507C43.1897 38.8955 41.2669 39.247 39.2623 39.247C29.9916 39.247 22.4761 31.7315 22.4761 22.4608C22.4761 19.5394 23.2226 16.7918 24.5353 14.3989C18.7765 16.9442 14.7584 22.7065 14.7584 29.4068C14.7584 38.4644 22.101 45.8071 31.1586 45.8071C36.9591 45.8071 42.0564 42.7959 44.9724 38.2507ZM45.1408 37.9826C43.3135 38.675 41.3322 39.054 39.2623 39.054C30.0981 39.054 22.6691 31.625 22.6691 22.4608C22.6691 19.4836 23.4532 16.6895 24.8262 14.2737C24.8783 14.1819 24.9314 14.0907 24.9852 14C24.8867 14.0395 24.7886 14.08 24.691 14.1213C18.7401 16.6424 14.5654 22.5371 14.5654 29.4068C14.5654 38.571 21.9945 46 31.1586 46C37.1186 46 42.3447 42.8578 45.2706 38.1396C45.3265 38.0495 45.3815 37.9588 45.4357 37.8676C45.3379 37.9069 45.2395 37.9452 45.1408 37.9826Z" fill="url(#paint1_linear_0_1295)"/>
</g>
<defs>
<filter id="filter0_b_0_1295" x="-47.5102" y="-48.0757" width="155.022" height="156.151" filterUnits="userSpaceOnUse" color-interpolation-filters="sRGB">
<feFlood flood-opacity="0" result="BackgroundImageFix"/>
<feGaussianBlur in="BackgroundImageFix" stdDeviation="31.0378"/>
<feComposite in2="SourceAlpha" operator="in" result="effect1_backgroundBlur_0_1295"/>
<feBlend mode="normal" in="SourceGraphic" in2="effect1_backgroundBlur_0_1295" result="shape"/>
</filter>
<linearGradient id="paint0_linear_0_1295" x1="36.2183" y1="15.4813" x2="22.413" y2="45.6297" gradientUnits="userSpaceOnUse">
<stop stop-color="#FFD88B"/>
<stop offset="1" stop-color="#FFA900"/>
</linearGradient>
<linearGradient id="paint1_linear_0_1295" x1="12.0241" y1="21.5587" x2="27.1224" y2="28.2109" gradientUnits="userSpaceOnUse">
<stop stop-color="white"/>
<stop offset="1" stop-color="white" stop-opacity="0"/>
</linearGradient>
</defs>
</svg>
