<svg width="56" height="20" viewBox="0 0 56 20" fill="none" xmlns="http://www.w3.org/2000/svg">
<path d="M31.4456 13.7362H35.7864V14.6616H32.5462V16.264H35.3902V17.138H32.5462V19.8543H31.4456V13.7362Z" fill="white" fill-opacity="0.6"/>
<path d="M36.6649 13.7362H37.7655V18.9289H40.9616V19.8543H36.6649V13.7362Z" fill="white" fill-opacity="0.6"/>
<path d="M44.3974 14.4645C44.0628 14.4645 43.7722 14.5302 43.5257 14.6616C43.285 14.793 43.0884 14.9701 42.9358 15.1929C42.7832 15.4099 42.6687 15.6584 42.5924 15.9384C42.522 16.2183 42.4867 16.5039 42.4867 16.7952C42.4867 17.0866 42.522 17.3722 42.5924 17.6521C42.6687 17.932 42.7832 18.1834 42.9358 18.4062C43.0884 18.6233 43.285 18.7975 43.5257 18.9289C43.7722 19.0603 44.0628 19.126 44.3974 19.126C44.732 19.126 45.0196 19.0603 45.2602 18.9289C45.5068 18.7975 45.7064 18.6233 45.859 18.4062C46.0116 18.1834 46.1231 17.932 46.1935 17.6521C46.2699 17.3722 46.308 17.0866 46.308 16.7952C46.308 16.5039 46.2699 16.2183 46.1935 15.9384C46.1231 15.6584 46.0116 15.4099 45.859 15.1929C45.7064 14.9701 45.5068 14.793 45.2602 14.6616C45.0196 14.5302 44.732 14.4645 44.3974 14.4645ZM44.3974 13.5905C44.867 13.5905 45.2867 13.6762 45.6565 13.8476C46.0321 14.0189 46.3491 14.2503 46.6074 14.5416C46.8656 14.833 47.0623 15.1729 47.1973 15.5613C47.3382 15.9498 47.4086 16.3611 47.4086 16.7952C47.4086 17.2351 47.3382 17.6493 47.1973 18.0377C47.0623 18.4262 46.8656 18.7661 46.6074 19.0574C46.3491 19.3488 46.0321 19.5801 45.6565 19.7515C45.2867 19.9172 44.867 20 44.3974 20C43.9278 20 43.5052 19.9172 43.1295 19.7515C42.7597 19.5801 42.4457 19.3488 42.1874 19.0574C41.9291 18.7661 41.7295 18.4262 41.5886 18.0377C41.4536 17.6493 41.3861 17.2351 41.3861 16.7952C41.3861 16.3611 41.4536 15.9498 41.5886 15.5613C41.7295 15.1729 41.9291 14.833 42.1874 14.5416C42.4457 14.2503 42.7597 14.0189 43.1295 13.8476C43.5052 13.6762 43.9278 13.5905 44.3974 13.5905Z" fill="white" fill-opacity="0.6"/>
<path d="M47.794 13.7362H48.9122L50.048 18.4148H50.0656L51.3335 13.7362H52.4605L53.6932 18.4148H53.7108L54.8818 13.7362H56L54.2655 19.8543H53.1473L51.8882 15.1757H51.8706L50.5851 19.8543H49.4492L47.794 13.7362Z" fill="white" fill-opacity="0.6"/>
<path d="M39.1935 1.76178C40.3524 1.76178 41.3866 2.32128 41.9556 3.27525C41.9556 3.27525 42.4623 3.97934 42.7996 4.16636C43.1161 4.35338 43.6212 4.41467 43.9585 4.35338C44.275 4.29209 44.4636 4.22922 44.3373 3.6493C43.6836 1.51504 41.6391 0.00157367 39.1935 0.00157367C36.2428 0.00157367 33.9234 2.19869 33.9234 5.18319C33.9234 8.1677 36.2428 10.3648 39.1935 10.3648C41.5752 10.3648 43.431 9.03837 44.2111 6.88211C44.4636 6.23932 44.275 6.17803 44.275 6.17803C44.275 6.17803 44.0848 5.92971 43.2424 6.11516C42.4623 6.32262 42.1459 6.88211 42.1459 6.88211C41.5129 7.89738 40.4803 8.58103 39.1951 8.58103C37.3393 8.58103 35.7808 7.00627 35.7808 5.18162C35.7808 3.35698 37.3409 1.76178 39.1951 1.76178H39.1935Z" fill="white" fill-opacity="0.6"/>
<path d="M16.8902 0C13.9395 0 11.6201 2.19712 11.6201 5.18162C11.6201 8.16612 13.9395 10.3632 16.8902 10.3632C19.841 10.3632 22.1603 8.14569 22.1603 5.18162C22.1603 2.21755 19.8634 0 16.8902 0ZM16.8902 8.58103C15.0344 8.58103 13.4967 7.00627 13.4967 5.18162C13.4967 3.35697 15.036 1.76178 16.8902 1.76178C18.7444 1.76178 20.3045 3.33654 20.3045 5.18162C20.3045 7.0267 18.7652 8.58103 16.8902 8.58103Z" fill="white" fill-opacity="0.6"/>
<path d="M50.704 0C47.7309 0 45.4339 2.19712 45.4339 5.18162C45.4339 8.16612 47.7309 10.3632 50.704 10.3632C53.6771 10.3632 55.9741 8.14569 55.9741 5.18162C55.9741 2.21755 53.6548 0 50.704 0ZM50.704 8.58103C48.8274 8.58103 47.2881 7.00627 47.2881 5.18162C47.2881 3.35697 48.8274 1.76178 50.704 1.76178C52.5806 1.76178 54.0975 3.33654 54.0975 5.18162C54.0975 7.0267 52.5582 8.58103 50.704 8.58103Z" fill="white" fill-opacity="0.6"/>
<path d="M30.8464 4.35181L25.7025 4.29051C24.9225 4.29051 24.8585 3.85518 25.0488 3.33654C25.5762 2.40457 26.7351 1.69892 28.1482 1.69892C29.5612 1.69892 30.1926 2.52873 30.6561 2.9625C31.1613 3.39784 32.1315 3.52199 32.5743 3.33654C32.8269 3.21239 32.7645 2.90121 32.5743 2.52873C31.7319 0.931969 29.8761 0 28.0203 0C26.3979 0 24.606 0.683654 23.5094 2.32128C22.6239 3.73102 22.6878 6.0523 25.8911 6.0523L30.3812 6.11359C31.035 6.17646 31.1613 6.4452 30.971 6.9434C30.5922 7.89738 29.2431 8.64232 28.0203 8.64232C26.6073 8.64232 25.8911 7.95867 25.3221 7.37717C24.7946 6.81768 23.762 6.75481 23.4455 6.88054C23.129 7.0047 23.2553 7.5029 23.3816 7.77165C24.2879 9.40927 26.1437 10.3632 27.9563 10.3632C29.8745 10.4245 31.5401 9.47214 32.5727 7.89738C33.543 6.32262 33.1418 4.35338 30.8448 4.35338L30.8464 4.35181Z" fill="white" fill-opacity="0.6"/>
<path d="M5.27416 0C2.30263 0 0.00404657 2.19712 0.00404657 5.18162V12.0417C0.00404657 12.0417 -0.0598918 12.9328 0.320541 13.5552C0.637036 13.9905 1.10059 14.3221 1.54336 14.3834C1.85986 14.3221 1.9222 13.9277 1.9222 13.9277V9.22225C2.82852 9.9059 3.9874 10.3617 5.27416 10.3617C8.22492 10.3617 10.5443 8.14412 10.5443 5.18005C10.5443 2.21598 8.22651 0 5.27416 0ZM5.27416 8.58103C3.39757 8.58103 1.85986 7.00627 1.85986 5.18162C1.85986 3.35697 3.39917 1.76178 5.27416 1.76178C7.14915 1.76178 8.66769 3.27525 8.66769 5.18162C8.66769 7.08799 7.12837 8.58103 5.27416 8.58103Z" fill="white" fill-opacity="0.6"/>
</svg>
