<svg width="40" height="40" viewBox="0 0 40 40" fill="none" xmlns="http://www.w3.org/2000/svg">
<path d="M13.7283 11.4432V7.43484C13.7283 6.62318 14.3867 5.96484 15.1983 5.96484H24.8017C25.6133 5.96484 26.2717 6.62318 26.2717 7.43484V11.4432" stroke="#111111" stroke-width="1.5" stroke-miterlimit="10" stroke-linecap="round" stroke-linejoin="round"/>
<path d="M9.12335 18.9698V14.3865C9.12335 12.7615 10.44 11.4448 12.065 11.4448H27.9367C29.5617 11.4448 30.8784 12.7615 30.8784 14.3865V18.9698" stroke="#111111" stroke-width="1.5" stroke-miterlimit="10" stroke-linecap="round" stroke-linejoin="round"/>
<path d="M20 3.33325V5.96492" stroke="#111111" stroke-width="1.5" stroke-miterlimit="10" stroke-linecap="round" stroke-linejoin="round"/>
<path d="M27.8084 29.3848L30 24.9998L33.3334 19.9998L20 16.6665L6.66669 19.9998L10 24.9998L11.465 29.1498" stroke="#111111" stroke-width="1.5" stroke-miterlimit="10" stroke-linecap="round" stroke-linejoin="round"/>
<path d="M5 29C6.83333 28.1667 9.16667 28.1667 11 29C12.8333 29.8333 15.1667 29.8333 17 29C18.8333 28.1667 21.1667 28.1667 23 29C24.8333 29.8333 27.1667 29.8333 29 29C30.8333 28.1667 33.1667 28.1667 35 29" stroke="#111111" stroke-width="1.5" stroke-linecap="round" stroke-linejoin="round"/>
<path d="M11 34.375C12.8333 35.2083 15.1667 35.2083 17 34.375C18.8333 33.5417 21.1667 33.5417 23 34.375C24.8333 35.2083 27.1667 35.2083 29 34.375" stroke="#111111" stroke-width="1.5" stroke-linecap="round" stroke-linejoin="round"/>
</svg>
