<svg width="20" height="20" viewBox="0 0 20 20" fill="none" xmlns="http://www.w3.org/2000/svg">
<g>
<path stroke="#999999" d="M15.4167 17.9167C16.5673 17.9167 17.5 16.9839 17.5 15.8333C17.5 14.6827 16.5673 13.75 15.4167 13.75C14.2661 13.75 13.3333 14.6827 13.3333 15.8333C13.3333 16.9839 14.2661 17.9167 15.4167 17.9167Z" stroke-width="1.5" stroke-linecap="round" stroke-linejoin="round"/>
<path fill="#999999" d="M5.41988 3.80339C5.58456 3.80402 5.74535 3.85344 5.88197 3.94539C6.01859 4.03734 6.1249 4.1677 6.18748 4.32003C6.25006 4.47235 6.26611 4.63981 6.2336 4.80124C6.20108 4.96268 6.12146 5.11087 6.0048 5.22709C5.88813 5.34331 5.73964 5.42236 5.57808 5.45426C5.41652 5.48615 5.24913 5.46947 5.09704 5.4063C4.94496 5.34314 4.815 5.23632 4.72357 5.09935C4.63214 4.96238 4.58335 4.8014 4.58335 4.63672C4.58275 4.52685 4.60401 4.41795 4.64587 4.31637C4.68774 4.21479 4.74939 4.12254 4.82723 4.045C4.90507 3.96746 4.99755 3.90617 5.09929 3.86469C5.20103 3.82321 5.31001 3.80237 5.41988 3.80339Z"/>
<path stroke="#999999" d="M8.33333 4.58329C8.33333 5.96778 6.78625 7.44852 5.94493 8.15121C5.7939 8.26925 5.60771 8.33335 5.41602 8.3333C5.22433 8.33325 5.03817 8.26905 4.88721 8.15093C4.04667 7.44815 2.5 5.9676 2.5 4.58329C2.5 3.80974 2.80729 3.06788 3.35427 2.5209C3.90125 1.97392 4.64312 1.66663 5.41667 1.66663V1.66663C6.19021 1.66663 6.93208 1.97392 7.47906 2.5209C8.02604 3.06788 8.33333 3.80974 8.33333 4.58329V4.58329Z" stroke-width="1.5" stroke-linecap="round" stroke-linejoin="round"/>
<path stroke="#999999" d="M10 15.8334H7.5C6.83696 15.8334 6.20107 15.57 5.73223 15.1011C5.26339 14.6323 5 13.9964 5 13.3334C5 12.6703 5.26339 12.0344 5.73223 11.5656C6.20107 11.0968 6.83696 10.8334 7.5 10.8334H12.5C13.163 10.8334 13.7989 10.57 14.2678 10.1011C14.7366 9.6323 15 8.99642 15 8.33337C15 7.67033 14.7366 7.03445 14.2678 6.56561C13.7989 6.09677 13.163 5.83337 12.5 5.83337H10.8333" stroke-width="1.5" stroke-linecap="round" stroke-linejoin="round"/>
</g>
</svg>
