<svg width="98" height="28" viewBox="0 0 98 28" fill="none" xmlns="http://www.w3.org/2000/svg">
<g clip-path="url(#clip0_36_603)">
<path d="M80 5.65669C80 5.52684 80.1218 5.43142 80.2479 5.46251L83 6.14134V20.4014L80.1368 19.447C80.0551 19.4197 80 19.3433 80 19.2572V5.65669Z" fill="#F0BF24"/>
<path d="M80 15.25L83 15.99V20.4013L80.1368 19.4469C80.0551 19.4197 80 19.3432 80 19.2571V15.25Z" fill="#ED9300"/>
<path d="M91.3213 20.2031H1.31732V23.6152H91.3213V20.2031Z" fill="#332C24"/>
<path d="M38.5247 20.9775H31.3956C30.6387 20.9775 30.0251 21.5604 30.0251 22.2793V22.9305C30.0251 23.6495 30.6387 24.2323 31.3956 24.2323H38.5247C39.2816 24.2323 39.8952 23.6495 39.8952 22.9305V22.2793C39.8952 21.5604 39.2816 20.9775 38.5247 20.9775Z" fill="#51504F"/>
<path d="M52.9477 27.0049C54.3407 25.6817 54.3407 23.5363 52.9477 22.2131C51.5546 20.8899 49.2961 20.8899 47.9031 22.2131C46.51 23.5363 46.51 25.6817 47.9031 27.0049C49.2961 28.3281 51.5546 28.3281 52.9477 27.0049Z" fill="#262728"/>
<path d="M50.4255 27.7906C52.2755 27.7906 53.7753 26.366 53.7753 24.6087C53.7753 22.8514 52.2755 21.4268 50.4255 21.4268C48.5754 21.4268 47.0756 22.8514 47.0756 24.6087C47.0756 26.366 48.5754 27.7906 50.4255 27.7906Z" fill="#343435"/>
<path d="M50.4254 27.3792C52.0358 27.3792 53.3413 26.1392 53.3413 24.6095C53.3413 23.0799 52.0358 21.8398 50.4254 21.8398C48.815 21.8398 47.5096 23.0799 47.5096 24.6095C47.5096 26.1392 48.815 27.3792 50.4254 27.3792Z" fill="#171819"/>
<path d="M51.0453 27.109C52.4972 26.7835 53.3964 25.4016 53.0537 24.0225C52.711 22.6434 51.2562 21.7892 49.8043 22.1147C48.3524 22.4402 47.4532 23.8221 47.7959 25.2012C48.1386 26.5804 49.5934 27.4345 51.0453 27.109Z" fill="#FFCB27"/>
<path opacity="0.43" d="M52.7476 25.5229C53.2788 24.3047 52.6698 22.9081 51.3873 22.4035C50.1047 21.8988 48.6344 22.4774 48.1032 23.6956C47.5719 24.9138 48.181 26.3104 49.4635 26.815C50.746 27.3196 52.2163 26.7411 52.7476 25.5229Z" fill="#DB620F"/>
<path d="M52.5204 25.434C52.9997 24.3349 52.4503 23.0749 51.2932 22.6197C50.1361 22.1644 48.8096 22.6863 48.3304 23.7854C47.8511 24.8844 48.4006 26.1444 49.5576 26.5997C50.7147 27.0549 52.0412 26.533 52.5204 25.434Z" fill="#FFCB27"/>
<path d="M51.1246 26.2124C52.0569 25.8457 52.4995 24.8305 52.1134 23.945C51.7273 23.0595 50.6585 22.639 49.7263 23.0058C48.7941 23.3726 48.3514 24.3878 48.7376 25.2732C49.1237 26.1587 50.1924 26.5792 51.1246 26.2124Z" fill="#DB620F"/>
<path d="M51.3293 24.965C51.5361 24.4908 51.2991 23.9471 50.7998 23.7507C50.3006 23.5543 49.7282 23.7795 49.5215 24.2537C49.3147 24.7279 49.5517 25.2715 50.051 25.468C50.5502 25.6644 51.1226 25.4392 51.3293 24.965Z" fill="#FFCB27"/>
<path opacity="0.29" d="M53.5028 24.1761C53.4466 24.1761 53.3986 24.1367 53.3878 24.0828C53.123 22.7286 51.8772 21.7463 50.426 21.7463C48.9747 21.7463 47.7289 22.7291 47.4641 24.0828C47.4534 24.1367 47.4053 24.1761 47.3491 24.1761H47.3435C47.3087 24.1761 47.276 24.1615 47.254 24.1363C47.2315 24.111 47.2223 24.0775 47.229 24.045C47.5127 22.5815 48.8576 21.5195 50.4265 21.5195C51.9953 21.5195 53.3398 22.5815 53.624 24.045C53.6301 24.0775 53.6209 24.1105 53.5989 24.1363C53.5764 24.1615 53.5442 24.1761 53.5095 24.1761H53.5039H53.5028Z" fill="white"/>
<path d="M60.4222 27.0049C61.8152 25.6817 61.8152 23.5363 60.4222 22.2131C59.0291 20.8899 56.7706 20.8899 55.3775 22.2131C53.9845 23.5363 53.9845 25.6817 55.3775 27.0049C56.7706 28.3281 59.0291 28.3281 60.4222 27.0049Z" fill="#262728"/>
<path d="M57.8996 27.7916C59.7496 27.7916 61.2494 26.367 61.2494 24.6097C61.2494 22.8523 59.7496 21.4277 57.8996 21.4277C56.0495 21.4277 54.5497 22.8523 54.5497 24.6097C54.5497 26.367 56.0495 27.7916 57.8996 27.7916Z" fill="#343435"/>
<path d="M57.8996 27.3792C59.51 27.3792 60.8154 26.1392 60.8154 24.6095C60.8154 23.0799 59.51 21.8398 57.8996 21.8398C56.2892 21.8398 54.9838 23.0799 54.9838 24.6095C54.9838 26.1392 56.2892 27.3792 57.8996 27.3792Z" fill="#171819"/>
<path d="M58.5195 27.109C59.9714 26.7835 60.8706 25.4016 60.5279 24.0225C60.1852 22.6434 58.7304 21.7892 57.2785 22.1147C55.8266 22.4402 54.9274 23.8221 55.2701 25.2012C55.6128 26.5804 57.0676 27.4345 58.5195 27.109Z" fill="#FFCB27"/>
<path opacity="0.43" d="M60.2219 25.5229C60.7531 24.3047 60.1441 22.9081 58.8616 22.4035C57.5791 21.8988 56.1087 22.4773 55.5775 23.6956C55.0463 24.9138 55.6553 26.3104 56.9378 26.815C58.2203 27.3196 59.6906 26.7411 60.2219 25.5229Z" fill="#DB620F"/>
<path d="M59.9947 25.433C60.474 24.3339 59.9246 23.0739 58.7675 22.6187C57.6104 22.1634 56.2839 22.6853 55.8047 23.7844C55.3254 24.8835 55.8749 26.1435 57.0319 26.5987C58.189 27.0539 59.5155 26.532 59.9947 25.433Z" fill="#FFCB27"/>
<path d="M58.5989 26.2124C59.5311 25.8457 59.9738 24.8305 59.5876 23.945C59.2015 23.0595 58.1328 22.639 57.2006 23.0058C56.2683 23.3726 55.8257 24.3878 56.2118 25.2732C56.5979 26.1587 57.6667 26.5792 58.5989 26.2124Z" fill="#DB620F"/>
<path d="M58.8036 24.965C59.0104 24.4908 58.7734 23.9471 58.2741 23.7507C57.7749 23.5543 57.2026 23.7795 56.9958 24.2537C56.789 24.7279 57.026 25.2715 57.5253 25.468C58.0245 25.6644 58.5969 25.4392 58.8036 24.965Z" fill="#FFCB27"/>
<path opacity="0.29" d="M60.9765 24.177C60.9202 24.177 60.8722 24.1377 60.8614 24.0838C60.5967 22.7296 59.3509 21.7473 57.8996 21.7473C56.4483 21.7473 55.2026 22.7301 54.9378 24.0838C54.927 24.1377 54.879 24.177 54.8227 24.177H54.8171C54.7824 24.177 54.7496 24.1625 54.7277 24.1372C54.7052 24.112 54.696 24.0785 54.7026 24.0459C54.9863 22.5824 56.3313 21.5205 57.9001 21.5205C59.469 21.5205 60.8134 22.5824 61.0976 24.0459C61.1038 24.0785 61.0946 24.1115 61.0726 24.1372C61.0501 24.1625 61.0179 24.177 60.9831 24.177H60.9775H60.9765Z" fill="white"/>
<path d="M58.4062 20.3193H49.9112C47.6241 20.3193 45.7639 22.0868 45.7639 24.2587V25.3527H46.6207V24.2587C46.6207 22.535 48.097 21.1331 49.9112 21.1331H58.4062C60.2209 21.1331 61.6967 22.5355 61.6967 24.2587V25.3527H62.5535V24.2587C62.5535 22.0863 60.6928 20.3193 58.4062 20.3193Z" fill="#51504F"/>
<path d="M13.4504 27.0058C14.8434 25.6826 14.8434 23.5373 13.4504 22.2141C12.0573 20.8909 9.79878 20.8909 8.40574 22.2141C7.0127 23.5373 7.0127 25.6826 8.40574 27.0058C9.79878 28.3291 12.0573 28.3291 13.4504 27.0058Z" fill="#262728"/>
<path d="M10.9278 27.7916C12.7778 27.7916 14.2776 26.367 14.2776 24.6097C14.2776 22.8523 12.7778 21.4277 10.9278 21.4277C9.07772 21.4277 7.57794 22.8523 7.57794 24.6097C7.57794 26.367 9.07772 27.7916 10.9278 27.7916Z" fill="#343435"/>
<path d="M10.9277 27.3792C12.5381 27.3792 13.8436 26.1392 13.8436 24.6095C13.8436 23.0799 12.5381 21.8398 10.9277 21.8398C9.31737 21.8398 8.0119 23.0799 8.0119 24.6095C8.0119 26.1392 9.31737 27.3792 10.9277 27.3792Z" fill="#171819"/>
<path d="M11.5471 27.108C12.999 26.7825 13.8982 25.4006 13.5555 24.0215C13.2129 22.6424 11.7581 21.7882 10.3062 22.1137C8.85425 22.4393 7.95504 23.8211 8.29772 25.2002C8.6404 26.5794 10.0952 27.4335 11.5471 27.108Z" fill="#FFCB27"/>
<path opacity="0.43" d="M13.2502 25.5239C13.7814 24.3057 13.1724 22.909 11.8899 22.4044C10.6074 21.8998 9.13704 22.4783 8.60581 23.6966C8.07457 24.9148 8.6836 26.3114 9.96612 26.816C11.2486 27.3206 12.719 26.7421 13.2502 25.5239Z" fill="#DB620F"/>
<path d="M13.0231 25.434C13.5023 24.3349 12.9529 23.0749 11.7958 22.6197C10.6388 22.1644 9.31227 22.6863 8.833 23.7854C8.35373 24.8844 8.90319 26.1444 10.0602 26.5997C11.2173 27.0549 12.5438 26.533 13.0231 25.434Z" fill="#FFCB27"/>
<path d="M11.6267 26.2134C12.5589 25.8466 13.0016 24.8315 12.6155 23.946C12.2293 23.0605 11.1606 22.64 10.2284 23.0068C9.29618 23.3736 8.85349 24.3887 9.23963 25.2742C9.62576 26.1597 10.6945 26.5802 11.6267 26.2134Z" fill="#DB620F"/>
<path d="M11.832 24.965C12.0388 24.4908 11.8017 23.9471 11.3025 23.7507C10.8032 23.5543 10.2309 23.7795 10.0241 24.2537C9.81729 24.7279 10.0544 25.2715 10.5536 25.468C11.0528 25.6644 11.6252 25.4392 11.832 24.965Z" fill="#FFCB27"/>
<path opacity="0.29" d="M14.0046 24.177C13.9484 24.177 13.9003 24.1377 13.8896 24.0838C13.6248 22.7296 12.379 21.7473 10.9277 21.7473C9.47647 21.7473 8.2307 22.7301 7.9659 24.0838C7.95517 24.1377 7.90711 24.177 7.85088 24.177H7.84526C7.8105 24.177 7.77778 24.1625 7.7558 24.1372C7.73331 24.112 7.72411 24.0785 7.73075 24.0459C8.01446 22.5824 9.35941 21.5205 10.9283 21.5205C12.4971 21.5205 13.8415 22.5824 14.1258 24.0459C14.1319 24.0785 14.1227 24.1115 14.1007 24.1372C14.0782 24.1625 14.046 24.177 14.0113 24.177H14.0056H14.0046Z" fill="white"/>
<path d="M20.9243 27.0049C22.3173 25.6817 22.3173 23.5363 20.9243 22.2131C19.5313 20.8899 17.2727 20.8899 15.8797 22.2131C14.4866 23.5363 14.4866 25.6817 15.8797 27.0049C17.2727 28.3281 19.5313 28.3281 20.9243 27.0049Z" fill="#262728"/>
<path d="M18.4019 27.7906C20.252 27.7906 21.7517 26.366 21.7517 24.6087C21.7517 22.8514 20.252 21.4268 18.4019 21.4268C16.5518 21.4268 15.0521 22.8514 15.0521 24.6087C15.0521 26.366 16.5518 27.7906 18.4019 27.7906Z" fill="#343435"/>
<path d="M18.4019 27.3792C20.0123 27.3792 21.3178 26.1392 21.3178 24.6095C21.3178 23.0799 20.0123 21.8398 18.4019 21.8398C16.7915 21.8398 15.4861 23.0799 15.4861 24.6095C15.4861 26.1392 16.7915 27.3792 18.4019 27.3792Z" fill="#171819"/>
<path d="M19.0213 27.107C20.4732 26.7815 21.3724 25.3996 21.0297 24.0205C20.687 22.6414 19.2322 21.7873 17.7803 22.1128C16.3284 22.4383 15.4292 23.8201 15.7719 25.1993C16.1146 26.5784 17.5694 27.4325 19.0213 27.107Z" fill="#FFCB27"/>
<path opacity="0.43" d="M20.724 25.5229C21.2552 24.3047 20.6462 22.9081 19.3636 22.4035C18.0811 21.8988 16.6108 22.4774 16.0796 23.6956C15.5483 24.9138 16.1574 26.3104 17.4399 26.815C18.7224 27.3196 20.1927 26.7411 20.724 25.5229Z" fill="#DB620F"/>
<path d="M20.4968 25.433C20.976 24.3339 20.4266 23.0739 19.2695 22.6187C18.1125 22.1634 16.786 22.6853 16.3067 23.7844C15.8274 24.8835 16.3769 26.1435 17.5339 26.5987C18.691 27.0539 20.0175 26.532 20.4968 25.433Z" fill="#FFCB27"/>
<path d="M19.1009 26.2124C20.0331 25.8457 20.4758 24.8305 20.0897 23.945C19.7035 23.0595 18.6348 22.639 17.7026 23.0058C16.7704 23.3726 16.3277 24.3878 16.7138 25.2732C17.0999 26.1587 18.1687 26.5792 19.1009 26.2124Z" fill="#DB620F"/>
<path d="M19.3057 24.965C19.5125 24.4908 19.2754 23.9471 18.7761 23.7507C18.2769 23.5543 17.7046 23.7795 17.4978 24.2537C17.291 24.7279 17.5281 25.2715 18.0273 25.468C18.5265 25.6644 19.0989 25.4392 19.3057 24.965Z" fill="#FFCB27"/>
<path opacity="0.29" d="M21.4788 24.1761C21.4226 24.1761 21.3745 24.1367 21.3638 24.0828C21.099 22.7286 19.8532 21.7463 18.4019 21.7463C16.9507 21.7463 15.7049 22.7291 15.4401 24.0828C15.4293 24.1367 15.3813 24.1761 15.3251 24.1761H15.3194C15.2847 24.1761 15.252 24.1615 15.23 24.1363C15.2075 24.111 15.1983 24.0775 15.2049 24.045C15.4886 22.5815 16.8336 21.5195 18.4024 21.5195C19.9713 21.5195 21.3157 22.5815 21.5999 24.045C21.6061 24.0775 21.5969 24.1105 21.5749 24.1363C21.5524 24.1615 21.5202 24.1761 21.4854 24.1761H21.4798H21.4788Z" fill="white"/>
<path d="M18.9084 20.3193H10.4135C8.1264 20.3193 6.26617 22.0868 6.26617 24.2587V25.3527H7.12293V24.2587C7.12293 22.535 8.59925 21.1331 10.4135 21.1331H18.9084C20.7232 21.1331 22.199 22.5355 22.199 24.2587V25.3527H23.0557V24.2587C23.0557 22.0863 21.195 20.3193 18.9084 20.3193Z" fill="#51504F"/>
<g style="mix-blend-mode:multiply" opacity="0.51">
<path d="M38.723 23.536H36.9481L36.7498 20.9775V23.536H36.2969V20.9775L36.0985 23.536H33.8217L33.6234 20.9775V23.536H33.1704V20.9775L32.9721 23.536H31.1972C30.5501 23.536 30.0251 23.0378 30.0251 22.4226V23.1184C30.0251 23.7331 30.5496 24.2318 31.1972 24.2318H38.7235C39.3707 24.2318 39.8957 23.7336 39.8957 23.1184V22.4226C39.8957 23.0373 39.3712 23.536 38.7235 23.536H38.723Z" fill="#51504F"/>
</g>
<path d="M33.6228 20.8447H33.1699V24.3656H33.6228V20.8447Z" fill="#51504F"/>
<path d="M36.7498 20.8447H36.2969V24.3656H36.7498V20.8447Z" fill="#51504F"/>
<path d="M97.2138 16.7119H82.7103V23.6249H97.2138V16.7119Z" fill="#332C24"/>
<path d="M86.7712 19.8643H88.7204C90.7472 19.8643 92.3923 21.4273 92.3923 23.3521V23.6327H83.0993V23.3521C83.0993 21.4268 84.7448 19.8643 86.7712 19.8643Z" fill="#161412"/>
<path d="M86.0131 9.12305H96.6249L97.6258 15.6753L97.1575 15.5923C96.8835 15.5437 96.6688 15.3436 96.6101 15.0882L86.0131 12.3244V9.12353V9.12305Z" fill="#332C24"/>
<path d="M91.2843 25.1543C91.5999 23.3072 90.2794 21.5668 88.3348 21.2669C86.3902 20.9671 84.5579 22.2214 84.2422 24.0686C83.9266 25.9157 85.2471 27.6561 87.1917 27.956C89.1363 28.2558 90.9686 27.0015 91.2843 25.1543Z" fill="#262728"/>
<path d="M87.7593 27.7916C89.6094 27.7916 91.1092 26.367 91.1092 24.6097C91.1092 22.8523 89.6094 21.4277 87.7593 21.4277C85.9093 21.4277 84.4095 22.8523 84.4095 24.6097C84.4095 26.367 85.9093 27.7916 87.7593 27.7916Z" fill="#343435"/>
<path d="M87.7593 27.3792C89.3697 27.3792 90.6751 26.1392 90.6751 24.6095C90.6751 23.0799 89.3697 21.8398 87.7593 21.8398C86.1489 21.8398 84.8434 23.0799 84.8434 24.6095C84.8434 26.1392 86.1489 27.3792 87.7593 27.3792Z" fill="#171819"/>
<path d="M90.4399 24.8595C90.5868 23.4494 89.5024 22.1932 88.0179 22.0537C86.5333 21.9142 85.2108 22.9442 85.0639 24.3543C84.917 25.7645 86.0015 27.0207 87.486 27.1602C88.9706 27.2997 90.2931 26.2697 90.4399 24.8595Z" fill="#FFCB27"/>
<path opacity="0.46" d="M90.0817 25.5235C90.613 24.3053 90.0039 22.9086 88.7214 22.404C87.4389 21.8994 85.9686 22.4779 85.4374 23.6962C84.9061 24.9144 85.5151 26.311 86.7977 26.8156C88.0802 27.3202 89.5505 26.7417 90.0817 25.5235Z" fill="#DB620F"/>
<path d="M88.2801 26.7098C89.499 26.4366 90.2539 25.2765 89.9662 24.1187C89.6785 22.9609 88.4572 22.2438 87.2383 22.5171C86.0194 22.7903 85.2645 23.9504 85.5522 25.1082C85.8399 26.266 87.0612 26.9831 88.2801 26.7098Z" fill="#FFCB27"/>
<path opacity="0.29" d="M84.6825 24.177C84.7387 24.177 84.7867 24.1377 84.7975 24.0838C85.0623 22.7296 86.3081 21.7473 87.7593 21.7473C89.2106 21.7473 90.4564 22.7301 90.7212 24.0838C90.7319 24.1377 90.78 24.177 90.8362 24.177H90.8418C90.8766 24.177 90.9093 24.1625 90.9313 24.1372C90.9538 24.112 90.963 24.0785 90.9563 24.0459C90.6726 22.5824 89.3277 21.5205 87.7588 21.5205C86.19 21.5205 84.8455 22.5824 84.5613 24.0459C84.5552 24.0785 84.5644 24.1115 84.5864 24.1372C84.6088 24.1625 84.6411 24.177 84.6758 24.177H84.6814H84.6825Z" fill="white"/>
<path d="M89.0584 25.8434C89.7759 25.1619 89.7759 24.0569 89.0584 23.3754C88.3409 22.6939 87.1777 22.6939 86.4602 23.3754C85.7427 24.0569 85.7427 25.1619 86.4602 25.8434C87.1777 26.5249 88.3409 26.5249 89.0584 25.8434Z" fill="#DB620F"/>
<g style="mix-blend-mode:multiply">
<path d="M88.3299 26.0556C89.0908 25.7562 89.4521 24.9277 89.137 24.205C88.8218 23.4823 87.9495 23.1391 87.1887 23.4384C86.4278 23.7378 86.0665 24.5663 86.3817 25.2891C86.6968 26.0118 87.5691 26.355 88.3299 26.0556Z" fill="#E0790A"/>
</g>
<path d="M87.7593 25.9441C88.5354 25.9441 89.1645 25.3464 89.1645 24.6092C89.1645 23.872 88.5354 23.2744 87.7593 23.2744C86.9832 23.2744 86.354 23.872 86.354 24.6092C86.354 25.3464 86.9832 25.9441 87.7593 25.9441Z" fill="#FFC431"/>
<path d="M86.7686 24.8103C86.8852 24.8103 86.9797 24.7205 86.9797 24.6097C86.9797 24.499 86.8852 24.4092 86.7686 24.4092C86.652 24.4092 86.5575 24.499 86.5575 24.6097C86.5575 24.7205 86.652 24.8103 86.7686 24.8103Z" fill="#FF9D00"/>
<path d="M88.7505 24.8103C88.8671 24.8103 88.9616 24.7205 88.9616 24.6097C88.9616 24.499 88.8671 24.4092 88.7505 24.4092C88.6339 24.4092 88.5394 24.499 88.5394 24.6097C88.5394 24.7205 88.6339 24.8103 88.7505 24.8103Z" fill="#FF9D00"/>
<path d="M87.7593 23.8689C87.8759 23.8689 87.9704 23.7791 87.9704 23.6683C87.9704 23.5576 87.8759 23.4678 87.7593 23.4678C87.6427 23.4678 87.5482 23.5576 87.5482 23.6683C87.5482 23.7791 87.6427 23.8689 87.7593 23.8689Z" fill="#FF9D00"/>
<path d="M87.7593 25.7517C87.8759 25.7517 87.9704 25.6619 87.9704 25.5511C87.9704 25.4404 87.8759 25.3506 87.7593 25.3506C87.6427 25.3506 87.5482 25.4404 87.5482 25.5511C87.5482 25.6619 87.6427 25.7517 87.7593 25.7517Z" fill="#FF9D00"/>
<path d="M87.2077 24.0854C87.1254 24.1635 86.9915 24.1635 86.9092 24.0854C86.8269 24.0072 86.8269 23.88 86.9092 23.8018C86.9915 23.7236 87.1254 23.7236 87.2077 23.8018C87.29 23.88 87.29 24.0072 87.2077 24.0854Z" fill="#FF9D00"/>
<path d="M88.4601 25.4753C88.5767 25.4753 88.6713 25.3855 88.6713 25.2748C88.6713 25.164 88.5767 25.0742 88.4601 25.0742C88.3435 25.0742 88.249 25.164 88.249 25.2748C88.249 25.3855 88.3435 25.4753 88.4601 25.4753Z" fill="#FF9D00"/>
<path d="M88.3109 24.0854C88.2286 24.0072 88.2286 23.88 88.3109 23.8018C88.3932 23.7236 88.5271 23.7236 88.6094 23.8018C88.6917 23.88 88.6917 24.0072 88.6094 24.0854C88.5271 24.1635 88.3932 24.1635 88.3109 24.0854Z" fill="#FF9D00"/>
<path d="M86.9097 25.4164C86.8274 25.3382 86.8274 25.211 86.9097 25.1329C86.992 25.0547 87.1259 25.0547 87.2082 25.1329C87.2905 25.211 87.2905 25.3382 87.2082 25.4164C87.1259 25.4946 86.992 25.4946 86.9097 25.4164Z" fill="#FF9D00"/>
<path d="M95.1332 13.53L89.0117 12.4549C88.5808 12.3792 88.2679 12.0223 88.2679 11.6062V8.14941H94.3266L95.1332 13.5305V13.53Z" fill="#46ABD3"/>
<g style="mix-blend-mode:multiply">
<path d="M90.7058 12.1782C90.2749 12.1024 89.962 11.7455 89.962 11.3294V8.14844H88.2679V11.6052C88.2679 12.0213 88.5808 12.3782 89.0117 12.454L95.1332 13.529L95.0448 12.94L90.7058 12.1777V12.1782Z" fill="#46ABD3"/>
</g>
<path d="M98 19.2627V15.0621C98 14.6828 97.7152 14.3575 97.3226 14.2885L86.4798 12.3841C86.2093 12.3366 86.0136 12.1127 86.0136 11.852V9.664C86.0136 9.36489 86.2686 9.1226 86.5835 9.1226H97.4121C97.1069 8.27625 96.3713 7.63482 95.4573 7.41874L94.3117 7.1478C91.2937 6.43353 88.1948 6.07227 85.0847 6.07227H82.7108V18.5319H89.8322C90.9108 18.5319 91.9224 19.0282 92.5466 19.8638H97.3666C97.7163 19.8638 98 19.5943 98 19.2622V19.2627Z" fill="#FFCB27"/>
<g style="mix-blend-mode:multiply">
<path d="M97.4694 15.1289L97.4929 15.2076L97.7086 15.2901L97.794 15.7786L98 15.8218V15.2416L97.4694 15.1289Z" fill="#013F3F"/>
</g>
<g style="mix-blend-mode:multiply">
<path d="M97.4694 16.2461L97.4929 16.3248L97.7086 16.4068L97.794 16.8958L98 16.9385V16.3587L97.4694 16.2461Z" fill="#013F3F"/>
</g>
<g style="mix-blend-mode:multiply">
<path d="M97.4694 17.3799L97.4929 17.4585L97.7086 17.5411L97.794 18.0301L98 18.0728V17.4925L97.4694 17.3799Z" fill="#013F3F"/>
</g>
<g style="mix-blend-mode:multiply">
<path d="M97.4694 18.5137L97.4929 18.5923L97.7086 18.6749L97.794 19.1634L98 19.2066V18.6263L97.4694 18.5137Z" fill="#013F3F"/>
</g>
<path d="M88.5854 15.9746H90.028C90.1979 15.9746 90.3357 15.8437 90.3357 15.6823V15.2681C90.3357 15.1067 90.1979 14.9758 90.028 14.9758H88.5854C88.4154 14.9758 88.2776 15.1067 88.2776 15.2681V15.6823C88.2776 15.8437 88.4154 15.9746 88.5854 15.9746Z" fill="#DB620F"/>
<path d="M88.6396 15.5635H89.9738C90.1073 15.5635 90.2156 15.4606 90.2156 15.3338V15.2964C90.2156 15.1696 90.1073 15.0667 89.9738 15.0667H88.6396C88.506 15.0667 88.3978 15.1696 88.3978 15.2964V15.3338C88.3978 15.4606 88.506 15.5635 88.6396 15.5635Z" fill="#FFC200"/>
<path d="M96.7491 25.4106H92.5149V21.8393H97.3902C97.7265 21.8393 98 22.0986 98 22.4186V24.223C98 24.8785 97.4397 25.4111 96.7491 25.4111V25.4106Z" fill="#332C24"/>
<path d="M97.1928 24.6523H97.2347C97.3776 24.6523 97.4934 24.5423 97.4934 24.4066V22.7018C97.4934 22.5661 97.3776 22.4561 97.2347 22.4561H97.1928C97.05 22.4561 96.9342 22.5661 96.9342 22.7018V24.4066C96.9342 24.5423 97.05 24.6523 97.1928 24.6523Z" fill="white"/>
<path d="M92.6478 22.8936H95.8315V22.3944H92.6478V22.8936Z" fill="#51504F"/>
<path d="M92.6483 23.4336H95.2912V22.8932H92.6483V23.4336Z" fill="#231D17"/>
<path d="M92.6483 24.4727H95.2912V23.9322H92.6483V24.4727Z" fill="#231D17"/>
<path d="M92.6478 23.9326H95.8315V23.4335H92.6478V23.9326Z" fill="#51504F"/>
<path d="M92.6478 24.9717H95.8315V24.4725H92.6478V24.9717Z" fill="#51504F"/>
<path d="M86.7134 19.1426H88.7832C90.9941 19.1426 92.7864 20.845 92.7864 22.9451V25.4108H92.1269V24.056C92.1269 21.956 90.3347 20.2536 88.1238 20.2536H87.3728C85.1619 20.2536 83.3697 21.956 83.3697 24.056V25.4108H82.7103V22.9451C82.7103 20.845 84.5025 19.1426 86.7134 19.1426Z" fill="#51504F"/>
<path opacity="0.29" d="M86.7134 19.1426H88.7832C90.9941 19.1426 92.7864 20.845 92.7864 22.9451V23.5549C92.7864 21.4548 90.9941 19.7524 88.7832 19.7524H86.7134C84.5025 19.7524 82.7103 21.4548 82.7103 23.5549V22.9451C82.7103 20.845 84.5025 19.1426 86.7134 19.1426Z" fill="white"/>
<path d="M95.2544 9.12256L95.8356 13.01C95.8985 13.4227 96.2313 13.7515 96.6627 13.8277L97.3579 13.951L96.6346 9.12207H95.2544V9.12256Z" fill="#46ABD3"/>
<path opacity="0.4" d="M96.6305 9.12256H95.9179L96.4736 12.8376C96.5364 13.2504 96.8692 13.5791 97.3007 13.6553L97.3099 13.6568L96.6305 9.12207V9.12256Z" fill="white"/>
<path d="M95.5719 19.42H92.905L92.8978 19.4078C92.6555 19.0135 91.8652 18.0963 89.7683 18.0963H87.5416V9.12254H87.5927V18.0477H89.7683C91.8708 18.0477 92.6796 18.963 92.9346 19.3709H95.5213V13.9933L94.7943 9.12594L94.845 9.11914L95.5719 13.9899V19.4195V19.42Z" fill="#EF980C"/>
<path opacity="0.4" d="M95.4573 7.41874L94.3117 7.1478C91.2937 6.43353 88.1948 6.07227 85.0847 6.07227H82.7108L83.1299 6.26892C84.9672 7.13032 86.9884 8.14855 89.0373 8.14855H96.7859C96.4296 7.797 95.9711 7.54013 95.4573 7.41874Z" fill="white"/>
<g style="mix-blend-mode:multiply">
<path d="M96.3059 19.8641C96.3059 18.9892 95.6506 18.238 94.7452 18.0753L82.7103 15.9131V18.5322H89.8317C90.9103 18.5322 91.9219 19.0285 92.5461 19.8641H96.3054H96.3059Z" fill="#FFCB27"/>
</g>
<path d="M76 0.401367H74V20.4014H76V0.401367Z" fill="#00365C"/>
<path d="M1 1.40137H0V20.4014H1V1.40137Z" fill="#00365C"/>
<path d="M74 1.40137H1V20.4014H74V1.40137Z" fill="#005C9C"/>
<path opacity="0.2" d="M3 18.2078L3 3.70744C3 3.53894 3.22474 3.40137 3.5 3.40137C3.77526 3.40137 4 3.53894 4 3.70744L4 18.2072C4 18.3757 3.77526 18.5132 3.5 18.5132C3.22474 18.5132 3 18.3757 3 18.2072L3 18.2078Z" fill="#00A2E0"/>
<path opacity="0.2" d="M5 18.2078L5 3.70744C5 3.53894 5.22474 3.40137 5.5 3.40137C5.77526 3.40137 6 3.53894 6 3.70744L6 18.2072C6 18.3757 5.77526 18.5132 5.5 18.5132C5.22474 18.5132 5 18.3757 5 18.2072L5 18.2078Z" fill="#00A2E0"/>
<path opacity="0.2" d="M7 18.2078L7 3.70744C7 3.53894 7.22474 3.40137 7.5 3.40137C7.77526 3.40137 8 3.53894 8 3.70744L8 18.2072C8 18.3757 7.77526 18.5132 7.5 18.5132C7.22474 18.5132 7 18.3757 7 18.2072L7 18.2078Z" fill="#00A2E0"/>
<path opacity="0.2" d="M9 18.2078L9 3.70744C9 3.53894 9.22474 3.40137 9.5 3.40137C9.77526 3.40137 10 3.53894 10 3.70744L10 18.2072C10 18.3757 9.77526 18.5132 9.5 18.5132C9.22474 18.5132 9 18.3757 9 18.2072L9 18.2078Z" fill="#00A2E0"/>
<path opacity="0.2" d="M11 18.2078L11 3.70744C11 3.53894 11.2247 3.40137 11.5 3.40137C11.7753 3.40137 12 3.53894 12 3.70744L12 18.2072C12 18.3757 11.7753 18.5132 11.5 18.5132C11.2247 18.5132 11 18.3757 11 18.2072L11 18.2078Z" fill="#00A2E0"/>
<path opacity="0.2" d="M13 18.2078L13 3.70744C13 3.53894 13.2247 3.40137 13.5 3.40137C13.7753 3.40137 14 3.53894 14 3.70744L14 18.2072C14 18.3757 13.7753 18.5132 13.5 18.5132C13.2247 18.5132 13 18.3757 13 18.2072L13 18.2078Z" fill="#00A2E0"/>
<path opacity="0.2" d="M15 18.2078L15 3.70744C15 3.53894 15.2247 3.40137 15.5 3.40137C15.7753 3.40137 16 3.53894 16 3.70744L16 18.2072C16 18.3757 15.7753 18.5132 15.5 18.5132C15.2247 18.5132 15 18.3757 15 18.2072L15 18.2078Z" fill="#00A2E0"/>
<path opacity="0.2" d="M17 18.2078L17 3.70744C17 3.53894 17.2247 3.40137 17.5 3.40137C17.7753 3.40137 18 3.53894 18 3.70744L18 18.2072C18 18.3757 17.7753 18.5132 17.5 18.5132C17.2247 18.5132 17 18.3757 17 18.2072L17 18.2078Z" fill="#00A2E0"/>
<path opacity="0.2" d="M19 18.2078L19 3.70744C19 3.53894 19.2247 3.40137 19.5 3.40137C19.7753 3.40137 20 3.53894 20 3.70744L20 18.2072C20 18.3757 19.7753 18.5132 19.5 18.5132C19.2247 18.5132 19 18.3757 19 18.2072L19 18.2078Z" fill="#00A2E0"/>
<path opacity="0.2" d="M21 18.2078L21 3.70744C21 3.53894 21.2247 3.40137 21.5 3.40137C21.7753 3.40137 22 3.53894 22 3.70744L22 18.2072C22 18.3757 21.7753 18.5132 21.5 18.5132C21.2247 18.5132 21 18.3757 21 18.2072L21 18.2078Z" fill="#00A2E0"/>
<path opacity="0.2" d="M23 18.2078L23 3.70744C23 3.53894 23.2247 3.40137 23.5 3.40137C23.7753 3.40137 24 3.53894 24 3.70744L24 18.2072C24 18.3757 23.7753 18.5132 23.5 18.5132C23.2247 18.5132 23 18.3757 23 18.2072L23 18.2078Z" fill="#00A2E0"/>
<path opacity="0.2" d="M25 18.2078L25 3.70744C25 3.53894 25.2247 3.40137 25.5 3.40137C25.7753 3.40137 26 3.53894 26 3.70744L26 18.2072C26 18.3757 25.7753 18.5132 25.5 18.5132C25.2247 18.5132 25 18.3757 25 18.2072L25 18.2078Z" fill="#00A2E0"/>
<path opacity="0.2" d="M27 18.2078L27 3.70744C27 3.53894 27.2247 3.40137 27.5 3.40137C27.7753 3.40137 28 3.53894 28 3.70744L28 18.2072C28 18.3757 27.7753 18.5132 27.5 18.5132C27.2247 18.5132 27 18.3757 27 18.2072L27 18.2078Z" fill="#00A2E0"/>
<path opacity="0.2" d="M29 18.2078L29 3.70744C29 3.53894 29.2247 3.40137 29.5 3.40137C29.7753 3.40137 30 3.53894 30 3.70744L30 18.2072C30 18.3757 29.7753 18.5132 29.5 18.5132C29.2247 18.5132 29 18.3757 29 18.2072L29 18.2078Z" fill="#00A2E0"/>
<path opacity="0.2" d="M31 18.2078L31 3.70744C31 3.53894 31.2247 3.40137 31.5 3.40137C31.7753 3.40137 32 3.53894 32 3.70744L32 18.2072C32 18.3757 31.7753 18.5132 31.5 18.5132C31.2247 18.5132 31 18.3757 31 18.2072L31 18.2078Z" fill="#00A2E0"/>
<path opacity="0.2" d="M33 18.2078L33 3.70744C33 3.53894 33.2247 3.40137 33.5 3.40137C33.7753 3.40137 34 3.53894 34 3.70744L34 18.2072C34 18.3757 33.7753 18.5132 33.5 18.5132C33.2247 18.5132 33 18.3757 33 18.2072L33 18.2078Z" fill="#00A2E0"/>
<path opacity="0.2" d="M35 18.2078L35 3.70744C35 3.53894 35.2247 3.40137 35.5 3.40137C35.7753 3.40137 36 3.53894 36 3.70744L36 18.2072C36 18.3757 35.7753 18.5132 35.5 18.5132C35.2247 18.5132 35 18.3757 35 18.2072L35 18.2078Z" fill="#00A2E0"/>
<path opacity="0.2" d="M37 18.2078L37 3.70744C37 3.53894 37.2247 3.40137 37.5 3.40137C37.7753 3.40137 38 3.53894 38 3.70744L38 18.2072C38 18.3757 37.7753 18.5132 37.5 18.5132C37.2247 18.5132 37 18.3757 37 18.2072L37 18.2078Z" fill="#00A2E0"/>
<path opacity="0.2" d="M39 18.2078L39 3.70744C39 3.53894 39.2247 3.40137 39.5 3.40137C39.7753 3.40137 40 3.53894 40 3.70744L40 18.2072C40 18.3757 39.7753 18.5132 39.5 18.5132C39.2247 18.5132 39 18.3757 39 18.2072L39 18.2078Z" fill="#00A2E0"/>
<path opacity="0.2" d="M41 18.2078L41 3.70744C41 3.53894 41.2247 3.40137 41.5 3.40137C41.7753 3.40137 42 3.53894 42 3.70744L42 18.2072C42 18.3757 41.7753 18.5132 41.5 18.5132C41.2247 18.5132 41 18.3757 41 18.2072L41 18.2078Z" fill="#00A2E0"/>
<path opacity="0.2" d="M43 18.2078L43 3.70744C43 3.53894 43.2247 3.40137 43.5 3.40137C43.7753 3.40137 44 3.53894 44 3.70744L44 18.2072C44 18.3757 43.7753 18.5132 43.5 18.5132C43.2247 18.5132 43 18.3757 43 18.2072L43 18.2078Z" fill="#00A2E0"/>
<path opacity="0.2" d="M45 18.2078L45 3.70744C45 3.53894 45.2247 3.40137 45.5 3.40137C45.7753 3.40137 46 3.53894 46 3.70744L46 18.2072C46 18.3757 45.7753 18.5132 45.5 18.5132C45.2247 18.5132 45 18.3757 45 18.2072L45 18.2078Z" fill="#00A2E0"/>
<path opacity="0.2" d="M47 18.2078L47 3.70744C47 3.53894 47.2247 3.40137 47.5 3.40137C47.7753 3.40137 48 3.53894 48 3.70744L48 18.2072C48 18.3757 47.7753 18.5132 47.5 18.5132C47.2247 18.5132 47 18.3757 47 18.2072L47 18.2078Z" fill="#00A2E0"/>
<path opacity="0.2" d="M49 18.2078L49 3.70744C49 3.53894 49.2247 3.40137 49.5 3.40137C49.7753 3.40137 50 3.53894 50 3.70744L50 18.2072C50 18.3757 49.7753 18.5132 49.5 18.5132C49.2247 18.5132 49 18.3757 49 18.2072L49 18.2078Z" fill="#00A2E0"/>
<path opacity="0.2" d="M51 18.2078L51 3.70744C51 3.53894 51.2247 3.40137 51.5 3.40137C51.7753 3.40137 52 3.53894 52 3.70744L52 18.2072C52 18.3757 51.7753 18.5132 51.5 18.5132C51.2247 18.5132 51 18.3757 51 18.2072L51 18.2078Z" fill="#00A2E0"/>
<path opacity="0.2" d="M53 18.2078L53 3.70744C53 3.53894 53.2247 3.40137 53.5 3.40137C53.7753 3.40137 54 3.53894 54 3.70744L54 18.2072C54 18.3757 53.7753 18.5132 53.5 18.5132C53.2247 18.5132 53 18.3757 53 18.2072L53 18.2078Z" fill="#00A2E0"/>
<path opacity="0.2" d="M55 18.2078L55 3.70744C55 3.53894 55.2247 3.40137 55.5 3.40137C55.7753 3.40137 56 3.53894 56 3.70744L56 18.2072C56 18.3757 55.7753 18.5132 55.5 18.5132C55.2247 18.5132 55 18.3757 55 18.2072L55 18.2078Z" fill="#00A2E0"/>
<path opacity="0.2" d="M57 18.2078L57 3.70744C57 3.53894 57.2247 3.40137 57.5 3.40137C57.7753 3.40137 58 3.53894 58 3.70744L58 18.2072C58 18.3757 57.7753 18.5132 57.5 18.5132C57.2247 18.5132 57 18.3757 57 18.2072L57 18.2078Z" fill="#00A2E0"/>
<path opacity="0.2" d="M59 18.2078L59 3.70744C59 3.53894 59.2247 3.40137 59.5 3.40137C59.7753 3.40137 60 3.53894 60 3.70744L60 18.2072C60 18.3757 59.7753 18.5132 59.5 18.5132C59.2247 18.5132 59 18.3757 59 18.2072L59 18.2078Z" fill="#00A2E0"/>
<path opacity="0.2" d="M61 18.2078L61 3.70744C61 3.53894 61.2247 3.40137 61.5 3.40137C61.7753 3.40137 62 3.53894 62 3.70744L62 18.2072C62 18.3757 61.7753 18.5132 61.5 18.5132C61.2247 18.5132 61 18.3757 61 18.2072L61 18.2078Z" fill="#00A2E0"/>
<path opacity="0.2" d="M63 18.2078L63 3.70744C63 3.53894 63.2247 3.40137 63.5 3.40137C63.7753 3.40137 64 3.53894 64 3.70744L64 18.2072C64 18.3757 63.7753 18.5132 63.5 18.5132C63.2247 18.5132 63 18.3757 63 18.2072L63 18.2078Z" fill="#00A2E0"/>
<path opacity="0.2" d="M65 18.2078L65 3.70744C65 3.53894 65.2247 3.40137 65.5 3.40137C65.7753 3.40137 66 3.53894 66 3.70744L66 18.2072C66 18.3757 65.7753 18.5132 65.5 18.5132C65.2247 18.5132 65 18.3757 65 18.2072L65 18.2078Z" fill="#00A2E0"/>
<path opacity="0.2" d="M67 18.2078L67 3.70744C67 3.53894 67.2247 3.40137 67.5 3.40137C67.7753 3.40137 68 3.53894 68 3.70744L68 18.2072C68 18.3757 67.7753 18.5132 67.5 18.5132C67.2247 18.5132 67 18.3757 67 18.2072L67 18.2078Z" fill="#00A2E0"/>
<path opacity="0.2" d="M69 18.2078L69 3.70744C69 3.53894 69.2247 3.40137 69.5 3.40137C69.7753 3.40137 70 3.53894 70 3.70744L70 18.2072C70 18.3757 69.7753 18.5132 69.5 18.5132C69.2247 18.5132 69 18.3757 69 18.2072L69 18.2078Z" fill="#00A2E0"/>
<path opacity="0.2" d="M71 18.2078L71 3.70744C71 3.53894 71.2247 3.40137 71.5 3.40137C71.7753 3.40137 72 3.53894 72 3.70744L72 18.2072C72 18.3757 71.7753 18.5132 71.5 18.5132C71.2247 18.5132 71 18.3757 71 18.2072L71 18.2078Z" fill="#00A2E0"/>
<path d="M1.3291 21.4121H1.00909V23.6156H1.3291V21.4121Z" fill="#332C24"/>
<path d="M1.00909 21.4121H0.689087V23.6156H1.00909V21.4121Z" fill="#B73030"/>
</g>
<defs>
<clipPath id="clip0_36_603">
<rect width="98" height="28" fill="white"/>
</clipPath>
</defs>
</svg>
