<svg width="24" height="24" viewBox="0 0 24 24" fill="none" xmlns="http://www.w3.org/2000/svg">
<path stroke="#ffffff" d="M3 11V6C3 5.73478 3.10536 5.48043 3.29289 5.29289C3.48043 5.10536 3.73478 5 4 5H8C8.26522 5 8.51957 5.10536 8.70711 5.29289C8.89464 5.48043 9 5.73478 9 6V7.7929C9 7.85856 8.98707 7.92358 8.96194 7.98425C8.93681 8.04491 8.89998 8.10003 8.85355 8.14646L8.14645 8.85356C8.10002 8.89999 8.06319 8.95511 8.03806 9.01577C8.01293 9.07644 8 9.14146 8 9.20712V11" stroke-width="1.5" stroke-linecap="round" stroke-linejoin="round"/>
<path stroke="#ffffff" d="M6 5V3" stroke-width="1.5" stroke-linecap="round" stroke-linejoin="round"/>
<path stroke="#ffffff" d="M12 11V4C12 3.73478 12.1054 3.48043 12.2929 3.29289C12.4804 3.10536 12.7348 3 13 3H20C20.2652 3 20.5196 3.10536 20.7071 3.29289C20.8946 3.48043 21 3.73478 21 4V9" stroke-width="1.5" stroke-linecap="round" stroke-linejoin="round"/>
<path stroke="#ffffff" d="M19.8646 14L21.8668 10.4961C21.9537 10.344 21.9991 10.1718 21.9985 9.99663C21.9979 9.82148 21.9513 9.64956 21.8634 9.49807C21.7755 9.34658 21.6493 9.22084 21.4976 9.13343C21.3458 9.04602 21.1737 9.00001 20.9986 9H16.302C16.1257 9 15.9526 9.0466 15.8001 9.13508C15.6476 9.22356 15.5213 9.35077 15.4338 9.50382L14.8667 10.4962C14.7792 10.6492 14.6529 10.7764 14.5004 10.8649C14.3479 10.9534 14.1748 11 13.9985 11H3C2.73478 11 2.48043 11.1054 2.29289 11.2929C2.10536 11.4804 2 11.7348 2 12V14" stroke-width="1.5" stroke-linecap="round" stroke-linejoin="round"/>
<path stroke="#ffffff" d="M3 17.5C4.17685 17.1667 5.42315 17.1667 6.6 17.5V17.5C7.77685 17.8333 9.02315 17.8333 10.2 17.5C11.3769 17.1667 12.6231 17.1667 13.8 17.5V17.5C14.9769 17.8333 16.2231 17.8333 17.4 17.5C18.5769 17.1667 19.8231 17.1667 21 17.5V17.5" stroke-width="1.5" stroke-linecap="round" stroke-linejoin="round"/>
<path stroke="#ffffff" d="M6.6 20.75C7.77685 21.0833 9.02315 21.0833 10.2 20.75C11.3769 20.4167 12.6231 20.4167 13.8 20.75V20.75C14.9769 21.0833 16.2231 21.0833 17.4 20.75" stroke-width="1.5" stroke-linecap="round" stroke-linejoin="round"/>
</svg>
