<svg width="24" height="24" viewBox="0 0 24 24" fill="none" xmlns="http://www.w3.org/2000/svg">
<path stroke="#ffffff" d="M4 12.0742V9.5C4 8.96957 4.21071 8.46086 4.58579 8.08579C4.96086 7.71071 5.46957 7.5 6 7.5H18C18.5304 7.5 19.0391 7.71071 19.4142 8.08579C19.7893 8.46086 20 8.96957 20 9.5V12.086" stroke-width="1.5" stroke-linecap="round" stroke-linejoin="round"/>
<path stroke="#ffffff" d="M5 7.768V5C5 4.46957 5.21071 3.96086 5.58579 3.58579C5.96086 3.21071 6.46957 3 7 3H17C17.5304 3 18.0391 3.21071 18.4142 3.58579C18.7893 3.96086 19 4.46957 19 5V7.768" stroke-width="1.5" stroke-linecap="round" stroke-linejoin="round"/>
<path stroke="#ffffff" d="M15 15.5V16.5C15 16.7652 14.8946 17.0196 14.7071 17.2071C14.5196 17.3946 14.2652 17.5 14 17.5H10C9.73478 17.5 9.48043 17.3946 9.29289 17.2071C9.10536 17.0196 9 16.7652 9 16.5V15.5" stroke-width="1.5" stroke-linecap="round" stroke-linejoin="round"/>
<path stroke="#ffffff" d="M4.5 12H19.5C19.8978 12 20.2794 12.158 20.5607 12.4393C20.842 12.7206 21 13.1022 21 13.5V19C21 19.5304 20.7893 20.0391 20.4142 20.4142C20.0391 20.7893 19.5304 21 19 21H5C4.46957 21 3.96086 20.7893 3.58579 20.4142C3.21071 20.0391 3 19.5304 3 19V13.5C3 13.1022 3.15804 12.7206 3.43934 12.4393C3.72064 12.158 4.10218 12 4.5 12Z" stroke-width="1.5" stroke-linecap="round" stroke-linejoin="round"/>
</svg>
