<svg width="60" height="60" viewBox="0 0 60 60" fill="none" xmlns="http://www.w3.org/2000/svg">
<path d="M52 18.1953C52 23.826 47.4354 28.3906 41.8047 28.3906C36.174 28.3906 31.6094 23.826 31.6094 18.1953C31.6094 12.5646 36.174 8 41.8047 8C47.4354 8 52 12.5646 52 18.1953Z" fill="url(#paint0_linear_0_1189)"/>
<path d="M52.3828 33.9111C52.3828 38.0591 49.014 41.4219 44.8568 41.4219H17.6239C12.0977 41.4219 7.61719 36.9511 7.61719 31.4339C7.61719 25.9183 12.0977 21.4459 17.6239 21.4459C18.1195 21.4459 18.6066 21.4839 19.0843 21.553C21.3441 17.0737 25.9916 14 31.3603 14C37.8565 14 43.2987 18.5019 44.7284 24.5502C44.8711 25.1541 44.9741 25.7727 45.0333 26.403V26.4046C49.107 26.4974 52.3828 29.8221 52.3828 33.9111Z" fill="#BAC7CB" fill-opacity="0.4"/>
<g filter="url(#filter0_b_0_1189)">
<path d="M52.3828 33.9111C52.3828 38.0591 49.014 41.4219 44.8568 41.4219H17.6239C12.0977 41.4219 7.61719 36.9511 7.61719 31.4339C7.61719 25.9183 12.0977 21.4459 17.6239 21.4459C18.1195 21.4459 18.6066 21.4839 19.0843 21.553C21.3441 17.0737 25.9916 14 31.3603 14C37.8565 14 43.2987 18.5019 44.7284 24.5502C44.8711 25.1541 44.9741 25.7727 45.0333 26.403V26.4046C49.107 26.4974 52.3828 29.8221 52.3828 33.9111Z" fill="url(#paint1_linear_0_1189)"/>
</g>
<g filter="url(#filter1_b_0_1189)">
<path fill-rule="evenodd" clip-rule="evenodd" d="M19.2176 21.8091L19.0507 21.7849C18.5834 21.7173 18.1075 21.6803 17.6239 21.6803C12.2267 21.6803 7.85156 26.0481 7.85156 31.4339C7.85156 36.8212 12.2267 41.1875 17.6239 41.1875H44.8568C48.885 41.1875 52.1484 37.9293 52.1484 33.9111C52.1484 29.9503 48.9751 26.7288 45.0279 26.6389L44.7989 26.6337V26.414C44.7406 25.7985 44.6397 25.1942 44.5003 24.6041C43.0951 18.6594 37.7456 14.2344 31.3603 14.2344C26.0833 14.2344 21.515 17.2553 19.2935 21.6585L19.2176 21.8091ZM45.0333 26.403V26.4046C49.107 26.4974 52.3828 29.8221 52.3828 33.9111C52.3828 38.0591 49.014 41.4219 44.8568 41.4219H17.6239C12.0977 41.4219 7.61719 36.9511 7.61719 31.4339C7.61719 25.9183 12.0977 21.4459 17.6239 21.4459C18.1195 21.4459 18.6066 21.4839 19.0843 21.553C21.3441 17.0737 25.9916 14 31.3603 14C37.8565 14 43.2987 18.5019 44.7284 24.5502C44.8711 25.1541 44.9741 25.7727 45.0333 26.403Z" fill="url(#paint2_linear_0_1189)"/>
</g>
<path d="M18.0432 39.797C17.9152 39.577 17.6318 39.5018 17.4101 39.6286L16.4596 40.1728V39.0846C16.4596 38.8308 16.252 38.625 15.996 38.625C15.7401 38.625 15.5325 38.8308 15.5325 39.0846V40.1728L14.582 39.6286C14.3603 39.5016 14.0769 39.577 13.9488 39.797C13.821 40.0168 13.8968 40.2977 14.1184 40.4247L15.069 40.9688L14.1184 41.5128C13.8968 41.6398 13.821 41.9207 13.9488 42.1405C14.0347 42.288 14.1905 42.3705 14.3507 42.3705C14.4293 42.3705 14.509 42.3505 14.582 42.3089L15.5325 41.7647V42.8529C15.5325 43.1067 15.7401 43.3125 15.996 43.3125C16.252 43.3125 16.4596 43.1067 16.4596 42.8529V41.7647L17.4101 42.3089C17.4831 42.3505 17.5628 42.3705 17.6414 42.3705C17.8016 42.3705 17.9574 42.288 18.0432 42.1405C18.1713 41.9207 18.0953 41.6398 17.8736 41.5128L16.9231 40.9688L17.8736 40.4247C18.0953 40.2977 18.1713 40.0168 18.0432 39.797Z" fill="#818494"/>
<path d="M40.3736 41.5128L39.4231 40.9688L40.3736 40.4247C40.5953 40.2977 40.6713 40.0168 40.5432 39.797C40.4152 39.577 40.1318 39.5018 39.9101 39.6286L38.9596 40.1728V39.0846C38.9596 38.8308 38.752 38.625 38.496 38.625C38.2401 38.625 38.0325 38.8308 38.0325 39.0846V40.1728L37.082 39.6286C36.8603 39.5016 36.5769 39.577 36.4488 39.797C36.321 40.0168 36.3968 40.2977 36.6184 40.4247L37.569 40.9688L36.6184 41.5128C36.3968 41.6398 36.321 41.9207 36.4488 42.1405C36.5347 42.288 36.6905 42.3705 36.8507 42.3705C36.9293 42.3705 37.009 42.3505 37.082 42.3089L38.0325 41.7647V42.8529C38.0325 43.1067 38.2401 43.3125 38.496 43.3125C38.752 43.3125 38.9596 43.1067 38.9596 42.8529V41.7647L39.9101 42.3089C39.9831 42.3505 40.0628 42.3705 40.1414 42.3705C40.3016 42.3705 40.4574 42.288 40.5432 42.1405C40.6713 41.9207 40.5953 41.6398 40.3736 41.5128Z" fill="#818494"/>
<path d="M29.2932 39.797C29.1652 39.5772 28.8818 39.5018 28.6601 39.6286L27.7096 40.1728V39.0846C27.7096 38.8308 27.502 38.625 27.2461 38.625C26.9902 38.625 26.7826 38.8308 26.7826 39.0846V40.1728L25.8321 39.6286C25.6104 39.5018 25.327 39.5772 25.1989 39.797C25.0709 40.0168 25.1469 40.2977 25.3685 40.4247L26.319 40.9688L25.3685 41.5128C25.1469 41.6398 25.0709 41.9207 25.1989 42.1405C25.2848 42.288 25.4406 42.3705 25.6008 42.3705C25.6794 42.3705 25.7591 42.3505 25.8321 42.3089L26.7826 41.7647V42.8529C26.7826 43.1067 26.9902 43.3125 27.2461 43.3125C27.502 43.3125 27.7096 43.1067 27.7096 42.8529V41.7649L28.6601 42.3089C28.7331 42.3508 28.8128 42.3705 28.8914 42.3705C29.0516 42.3705 29.2074 42.288 29.2932 42.1407C29.4211 41.9209 29.3453 41.6398 29.1236 41.513L28.1731 40.9688L29.1236 40.4247C29.3453 40.2977 29.4213 40.0168 29.2932 39.797Z" fill="#818494"/>
<path d="M23.5511 46.4845C23.423 46.2645 23.1396 46.1893 22.9179 46.3161L21.9674 46.8603V45.7721C21.9674 45.5183 21.7598 45.3125 21.5039 45.3125C21.2479 45.3125 21.0403 45.5183 21.0403 45.7721V46.8603L20.0898 46.3161C19.8681 46.1891 19.5847 46.2645 19.4567 46.4845C19.3288 46.7043 19.4046 46.9852 19.6263 47.1122L20.5768 47.6563L19.6263 48.2003C19.4046 48.3273 19.3288 48.6082 19.4567 48.828C19.5425 48.9755 19.6983 49.058 19.8585 49.058C19.9371 49.058 20.0168 49.038 20.0898 48.9964L21.0403 48.4522V49.5404C21.0403 49.7942 21.2479 50 21.5039 50C21.7598 50 21.9674 49.7942 21.9674 49.5404V48.4522L22.9179 48.9964C22.9909 49.038 23.0706 49.058 23.1492 49.058C23.3094 49.058 23.4652 48.9755 23.5511 48.828C23.6791 48.6082 23.6031 48.3273 23.3815 48.2003L22.4309 47.6563L23.3815 47.1122C23.6031 46.9852 23.6791 46.7043 23.5511 46.4845Z" fill="#818494"/>
<path d="M45.8815 48.2003L44.9309 47.6563L45.8815 47.1122C46.1031 46.9852 46.1791 46.7043 46.0511 46.4845C45.923 46.2645 45.6396 46.1893 45.4179 46.3161L44.4674 46.8603V45.7721C44.4674 45.5183 44.2598 45.3125 44.0039 45.3125C43.7479 45.3125 43.5403 45.5183 43.5403 45.7721V46.8603L42.5898 46.3161C42.3681 46.1891 42.0847 46.2645 41.9567 46.4845C41.8288 46.7043 41.9046 46.9852 42.1263 47.1122L43.0768 47.6563L42.1263 48.2003C41.9046 48.3273 41.8288 48.6082 41.9567 48.828C42.0425 48.9755 42.1983 49.058 42.3585 49.058C42.4371 49.058 42.5168 49.038 42.5898 48.9964L43.5403 48.4522V49.5404C43.5403 49.7942 43.7479 50 44.0039 50C44.2598 50 44.4674 49.7942 44.4674 49.5404V48.4522L45.4179 48.9964C45.4909 49.038 45.5706 49.058 45.6492 49.058C45.8094 49.058 45.9652 48.9755 46.0511 48.828C46.1791 48.6082 46.1031 48.3273 45.8815 48.2003Z" fill="#818494"/>
<path d="M34.8011 46.4845C34.673 46.2647 34.3896 46.1893 34.1679 46.3161L33.2174 46.8603V45.7721C33.2174 45.5183 33.0098 45.3125 32.7539 45.3125C32.498 45.3125 32.2904 45.5183 32.2904 45.7721V46.8603L31.3399 46.3161C31.1182 46.1893 30.8348 46.2647 30.7068 46.4845C30.5787 46.7043 30.6547 46.9852 30.8764 47.1122L31.8269 47.6563L30.8764 48.2003C30.6547 48.3273 30.5787 48.6082 30.7068 48.828C30.7926 48.9755 30.9484 49.058 31.1086 49.058C31.1872 49.058 31.2669 49.038 31.3399 48.9964L32.2904 48.4522V49.5404C32.2904 49.7942 32.498 50 32.7539 50C33.0098 50 33.2174 49.7942 33.2174 49.5404V48.4524L34.1679 48.9964C34.2409 49.0383 34.3206 49.058 34.3992 49.058C34.5594 49.058 34.7152 48.9755 34.8011 48.8282C34.9289 48.6084 34.8531 48.3273 34.6315 48.2005L33.681 47.6563L34.6315 47.1122C34.8531 46.9852 34.9291 46.7043 34.8011 46.4845Z" fill="#818494"/>
<defs>
<filter id="filter0_b_0_1189" x="2.61719" y="9" width="54.7656" height="37.4219" filterUnits="userSpaceOnUse" color-interpolation-filters="sRGB">
<feFlood flood-opacity="0" result="BackgroundImageFix"/>
<feGaussianBlur in="BackgroundImageFix" stdDeviation="2.5"/>
<feComposite in2="SourceAlpha" operator="in" result="effect1_backgroundBlur_0_1189"/>
<feBlend mode="normal" in="SourceGraphic" in2="effect1_backgroundBlur_0_1189" result="shape"/>
</filter>
<filter id="filter1_b_0_1189" x="-23.4206" y="-17.0378" width="106.841" height="89.4975" filterUnits="userSpaceOnUse" color-interpolation-filters="sRGB">
<feFlood flood-opacity="0" result="BackgroundImageFix"/>
<feGaussianBlur in="BackgroundImageFix" stdDeviation="15.5189"/>
<feComposite in2="SourceAlpha" operator="in" result="effect1_backgroundBlur_0_1189"/>
<feBlend mode="normal" in="SourceGraphic" in2="effect1_backgroundBlur_0_1189" result="shape"/>
</filter>
<linearGradient id="paint0_linear_0_1189" x1="45.9117" y1="8.94391" x2="37.3221" y2="28.3884" gradientUnits="userSpaceOnUse">
<stop stop-color="#FFD88B"/>
<stop offset="1" stop-color="#FFA900"/>
</linearGradient>
<linearGradient id="paint1_linear_0_1189" x1="14.707" y1="18.8047" x2="48.394" y2="43.1209" gradientUnits="userSpaceOnUse">
<stop offset="0.416176" stop-color="white" stop-opacity="0.7"/>
<stop offset="1" stop-color="white" stop-opacity="0"/>
</linearGradient>
<linearGradient id="paint2_linear_0_1189" x1="4.18919" y1="21.226" x2="20.2172" y2="32.7544" gradientUnits="userSpaceOnUse">
<stop stop-color="white"/>
<stop offset="1" stop-color="white" stop-opacity="0"/>
</linearGradient>
</defs>
</svg>
