<svg width="24" height="24" viewBox="0 0 24 24" fill="none" xmlns="http://www.w3.org/2000/svg">
<g clip-path="url(#clip0_1024_913)">
<path d="M13.5999 20H10.3999" stroke="#555555" stroke-width="1.5" stroke-linecap="round" stroke-linejoin="round"/>
<path d="M17 11V12.504C17 12.828 17.183 13.123 17.472 13.269L17.975 13.52C18.603 13.834 19 14.476 19 15.178C19 16.202 18.17 17.032 17.146 17.032H6.854C5.83 17.032 5 16.202 5 15.178C5 14.476 5.397 13.834 6.025 13.519L6.528 13.268C6.817 13.123 7 12.828 7 12.504V10.032V10C7 7.58149 8.71802 5.56349 11 5.1001" stroke="#555555" stroke-width="1.5" stroke-linecap="round" stroke-linejoin="round"/>
<path d="M18.1213 3.87868C19.2929 5.05025 19.2929 6.94975 18.1213 8.12132C16.9498 9.29289 15.0502 9.29289 13.8787 8.12132C12.7071 6.94975 12.7071 5.05025 13.8787 3.87868C15.0502 2.70711 16.9498 2.70711 18.1213 3.87868Z" fill="#E5493A"/>
</g>
</svg>
