<svg width="40" height="40" viewBox="0 0 40 40" fill="none" xmlns="http://www.w3.org/2000/svg">
<g>
<path stroke="#111111" d="M8.6001 10.2668C9.36843 9.36678 10.2434 8.56512 11.2034 7.87012" stroke-width="1.5" stroke-linecap="round" stroke-linejoin="round"/>
<path stroke="#111111" d="M28.3333 32.47C25.95 34.0666 23.085 35 20 35C18.48 35 17.015 34.77 15.6333 34.35" stroke-width="1.5" stroke-linecap="round" stroke-linejoin="round"/>
<path stroke="#111111" d="M5.87167 15C5.31667 16.5667 5 18.2433 5 20" stroke-width="1.5" stroke-linecap="round" stroke-linejoin="round"/>
<path stroke="#111111" d="M22.5351 19.9999L24.7118 22.8066C24.9385 23.0983 25.0618 23.4583 25.0618 23.8283V25.8333C25.0618 26.2933 24.6885 26.6666 24.2285 26.6666H15.7718C15.3118 26.6666 14.9385 26.2933 14.9385 25.8333V23.7983C14.9385 23.4483 15.0485 23.1049 15.2551 22.8216L17.2968 19.9999L15.2551 17.1799C15.0501 16.8949 14.9385 16.5533 14.9385 16.2033V14.1666C14.9385 13.7066 15.3118 13.3333 15.7718 13.3333H24.2285C24.6885 13.3333 25.0618 13.7066 25.0618 14.1666V16.1716C25.0618 16.5416 24.9385 16.9016 24.7118 17.1933L22.5351 19.9999Z" stroke-width="1.5" stroke-linecap="round" stroke-linejoin="round"/>
<path stroke="#111111" d="M15.6333 5.65C17.015 5.23 18.48 5 20 5C28.285 5 35 11.715 35 20C35 23.0917 34.045 25.9483 32.4383 28.3333" stroke-width="1.5" stroke-linecap="round" stroke-linejoin="round"/>
<path stroke="#111111" d="M11.2033 32.1317C8.77 30.365 6.9 27.8833 5.875 25" stroke-width="1.5" stroke-linecap="round" stroke-linejoin="round"/>
</g>
</svg>
