<svg width="21" height="20" viewBox="0 0 21 20" fill="none" xmlns="http://www.w3.org/2000/svg">
<path d="M10.3633 3.30828V2.521" stroke="white" stroke-width="1.5" stroke-linecap="round" stroke-linejoin="round"/>
<path d="M15.3633 5.00017L16.1506 4.21289" stroke="white" stroke-width="1.5" stroke-linecap="round" stroke-linejoin="round"/>
<path d="M5.36346 5.00017L4.57617 4.21289" stroke="white" stroke-width="1.5" stroke-linecap="round" stroke-linejoin="round"/>
<path d="M17.8423 10H18.6296" stroke="white" stroke-width="1.5" stroke-linecap="round" stroke-linejoin="round"/>
<path d="M2.07617 10H2.86346" stroke="white" stroke-width="1.5" stroke-linecap="round" stroke-linejoin="round"/>
<path d="M12.0298 10.8335V12.5002" stroke="white" stroke-width="1.5" stroke-linecap="round" stroke-linejoin="round"/>
<path d="M14.5301 15.0001V10.6285C14.5023 9.55085 14.0478 8.5283 13.2665 7.78547C12.4853 7.04264 11.4411 6.64027 10.3634 6.66676C9.28574 6.64027 8.24159 7.04264 7.46034 7.78547C6.67909 8.5283 6.22463 9.55085 6.19678 10.6285V15.0001" stroke="white" stroke-width="1.5" stroke-linecap="round" stroke-linejoin="round"/>
<path d="M15.068 15H5.58317C5.405 15 5.23152 15.0571 5.08818 15.1629C4.94485 15.2688 4.8392 15.4177 4.78675 15.588L4.53009 16.4214C4.49169 16.546 4.48309 16.6779 4.50498 16.8065C4.52687 16.9351 4.57863 17.0567 4.6561 17.1616C4.73357 17.2666 4.83458 17.3519 4.95102 17.4106C5.06746 17.4694 5.19606 17.5 5.32649 17.5H15.3627C15.496 17.5 15.6274 17.468 15.7458 17.4067C15.8642 17.3454 15.9662 17.2566 16.0431 17.1478C16.1201 17.0389 16.1698 16.9132 16.1882 16.7811C16.2065 16.6491 16.1928 16.5145 16.1484 16.3889L15.8537 15.5555C15.7962 15.3931 15.6898 15.2524 15.5491 15.1529C15.4084 15.0534 15.2404 15 15.068 15Z" stroke="white" stroke-width="1.5" stroke-linecap="round" stroke-linejoin="round"/>
</svg>
