<svg width="40" height="40" viewBox="0 0 40 40" fill="none" xmlns="http://www.w3.org/2000/svg">
<path d="M20 23.75C21.6109 23.75 22.9167 22.4441 22.9167 20.8333C22.9167 19.2225 21.6109 17.9166 20 17.9166C18.3892 17.9166 17.0834 19.2225 17.0834 20.8333C17.0834 22.4441 18.3892 23.75 20 23.75Z" stroke="white" stroke-width="2" stroke-linecap="round" stroke-linejoin="round"/>
<path d="M20 10.8367V17.5033" stroke="white" stroke-width="2" stroke-linecap="round" stroke-linejoin="round"/>
<path d="M12.9283 13.7667L14.1067 14.9451" stroke="white" stroke-width="2" stroke-linecap="round" stroke-linejoin="round"/>
<path d="M25.3983 15.4401L27.0716 13.7667" stroke="white" stroke-width="2" stroke-linecap="round" stroke-linejoin="round"/>
<path d="M14.1666 28.3367H25.8333" stroke="white" stroke-width="2" stroke-linecap="round" stroke-linejoin="round"/>
<path d="M30 20.8367H28.3334" stroke="white" stroke-width="2" stroke-linecap="round" stroke-linejoin="round"/>
<path d="M11.6667 20.8367H10" stroke="white" stroke-width="2" stroke-linecap="round" stroke-linejoin="round"/>
<path d="M19.5316 5.8333C15.6543 5.99549 11.9866 7.63778 9.28348 10.4222C6.58032 13.2066 5.04731 16.9212 4.99995 20.8016C4.99264 23.1841 5.55429 25.534 6.63818 27.6557C7.72207 29.7773 9.29688 31.6096 11.2316 33C12.3428 33.7762 13.6696 34.1843 15.0249 34.1666H24.9883C26.3129 34.1865 27.6105 33.792 28.6999 33.0383C31.3257 31.1728 33.2808 28.5111 34.2757 25.4476C35.2706 22.3841 35.2523 19.0817 34.2237 16.0294C33.195 12.977 31.2106 10.3372 28.5644 8.50075C25.9182 6.66433 22.7509 5.729 19.5316 5.8333Z" stroke="white" stroke-width="2" stroke-linecap="round" stroke-linejoin="round"/>
</svg>
