<svg width="136" height="28" viewBox="0 0 136 28" fill="none" xmlns="http://www.w3.org/2000/svg">
<g opacity="0.2">
<path d="M22 0H4C3.44772 0 3 0.447715 3 1V10.9255H23V1C23 0.447715 22.5523 0 22 0Z" fill="#BBC3CC"/>
<rect x="1" y="9" width="1.5" height="4" rx="0.4" fill="#3D3D49"/>
<path d="M3.43908 13.9871C3.40175 13.9871 3.36443 13.9725 3.33572 13.9434L1.9432 12.4803C1.74222 12.2693 1.63312 11.9927 1.63312 11.7001V11.2662C1.63312 11.1862 1.69772 11.1207 1.77668 11.1207C1.85563 11.1207 1.92023 11.1862 1.92023 11.2662V11.7001C1.92023 11.917 2.00206 12.1222 2.15136 12.278L3.54388 13.741C3.59843 13.7993 3.59699 13.891 3.53957 13.9463C3.51229 13.974 3.47641 13.9871 3.44052 13.9871H3.43908Z" fill="#111111"/>
<path d="M25 9.4C25 9.17909 24.8209 9 24.6 9H23.9C23.6791 9 23.5 9.17909 23.5 9.4V12.6C23.5 12.8209 23.6791 13 23.9 13H24.6C24.8209 13 25 12.8209 25 12.6V9.4Z" fill="#3D3D49"/>
<path d="M22.6591 13.9871C22.6965 13.9871 22.7338 13.9725 22.7625 13.9434L24.155 12.4803C24.356 12.2693 24.4651 11.9927 24.4651 11.7001V11.2662C24.4651 11.1862 24.4005 11.1207 24.3215 11.1207C24.2426 11.1207 24.178 11.1862 24.178 11.2662V11.7001C24.178 11.917 24.0961 12.1222 23.9468 12.278L22.5543 13.741C22.4998 13.7993 22.5012 13.891 22.5586 13.9463C22.5859 13.974 22.6218 13.9871 22.6577 13.9871H22.6591Z" fill="#111111"/>
<path d="M22.1679 20.0064H19.4038C19.2934 20.0064 19.2038 20.096 19.2038 20.2064V26.8064C19.2038 26.9169 19.2934 27.0064 19.4038 27.0064H22.1679C22.2783 27.0064 22.3679 26.9169 22.3679 26.8064V20.2064C22.3679 20.096 22.2783 20.0064 22.1679 20.0064Z" fill="url(#paint0_linear_1_3878)"/>
<path d="M22.4138 18.7042H21.9831V18.9226H22.4138V18.7042Z" fill="#45454F"/>
<path d="M22.4138 26.3732H21.9831V25.9597H22.4138V26.3732ZM22.4138 25.5448H21.9831V25.1314H22.4138V25.5448ZM22.4138 24.7165H21.9831V24.3031H22.4138V24.7165ZM22.4138 23.8882H21.9831V23.4747H22.4138V23.8882ZM22.4138 23.0599H21.9831V22.6464H22.4138V23.0599ZM22.4138 22.2315H21.9831V21.8181H22.4138V22.2315ZM22.4138 21.4032H21.9831V20.9898H22.4138V21.4032ZM22.4138 20.5749H21.9831V20.1614H22.4138V20.5749ZM22.4138 19.7465H21.9831V19.3331H22.4138V19.7465Z" fill="#45454F"/>
<path d="M22.4138 26.7881H21.9831V27.0064H22.4138V26.7881Z" fill="#45454F"/>
<path d="M19.5972 19.7042H19.1665V19.9226H19.5972V19.7042Z" fill="#45454F"/>
<path d="M19.5972 26.3732H19.1665V25.9597H19.5972V26.3732ZM19.5972 25.5449H19.1665V25.1314H19.5972V25.5449ZM19.5972 24.7165H19.1665V24.3031H19.5972V24.7165ZM19.5972 23.8882H19.1665V23.4748H19.5972V23.8882ZM19.5972 23.0599H19.1665V22.6464H19.5972V23.0599ZM19.5972 22.2315H19.1665V21.8181H19.5972V22.2315ZM19.5972 21.4032H19.1665V20.9898H19.5972V21.4032ZM19.5972 20.5749H19.1665V20.1615H19.5972V20.5749ZM19.5972 19.7466H19.1665V19.3331H19.5972V19.7466Z" fill="#45454F"/>
<path d="M19.5972 26.788H19.1665V27.0064H19.5972V26.788Z" fill="#45454F"/>
<path d="M21.4764 19.7042H21.1892V27.0064H21.4764V19.7042Z" fill="#302230"/>
<path d="M20.3824 19.7042H20.0953V27.0064H20.3824V19.7042Z" fill="#302230"/>
<path d="M6.49359 20.0064H3.72957C3.61911 20.0064 3.52957 20.096 3.52957 20.2064V26.8064C3.52957 26.9169 3.61911 27.0064 3.72957 27.0064H6.49359C6.60405 27.0064 6.69359 26.9169 6.69359 26.8064V20.2064C6.69359 20.096 6.60405 20.0064 6.49359 20.0064Z" fill="url(#paint1_linear_1_3878)"/>
<path d="M6.73951 18.7042H6.30884V18.9226H6.73951V18.7042Z" fill="#45454F"/>
<path d="M6.73951 26.3732H6.30884V25.9597H6.73951V26.3732ZM6.73951 25.5448H6.30884V25.1314H6.73951V25.5448ZM6.73951 24.7165H6.30884V24.3031H6.73951V24.7165ZM6.73951 23.8882H6.30884V23.4747H6.73951V23.8882ZM6.73951 23.0599H6.30884V22.6464H6.73951V23.0599ZM6.73951 22.2315H6.30884V21.8181H6.73951V22.2315ZM6.73951 21.4032H6.30884V20.9898H6.73951V21.4032ZM6.73951 20.5749H6.30884V20.1614H6.73951V20.5749ZM6.73951 19.7465H6.30884V19.3331H6.73951V19.7465Z" fill="#45454F"/>
<path d="M6.73951 26.7881H6.30884V27.0064H6.73951V26.7881Z" fill="#45454F"/>
<path d="M3.92292 19.7042H3.49225V19.9226H3.92292V19.7042Z" fill="#45454F"/>
<path d="M3.92292 26.3732H3.49225V25.9597H3.92292V26.3732ZM3.92292 25.5449H3.49225V25.1314H3.92292V25.5449ZM3.92292 24.7165H3.49225V24.3031H3.92292V24.7165ZM3.92292 23.8882H3.49225V23.4748H3.92292V23.8882ZM3.92292 23.0599H3.49225V22.6464H3.92292V23.0599ZM3.92292 22.2315H3.49225V21.8181H3.92292V22.2315ZM3.92292 21.4032H3.49225V20.9898H3.92292V21.4032ZM3.92292 20.5749H3.49225V20.1615H3.92292V20.5749ZM3.92292 19.7466H3.49225V19.3331H3.92292V19.7466Z" fill="#45454F"/>
<path d="M3.92292 26.788H3.49225V27.0064H3.92292V26.788Z" fill="#45454F"/>
<path d="M5.8021 19.7042H5.51498V27.0064H5.8021V19.7042Z" fill="#302230"/>
<path d="M4.70819 19.7042H4.42107V27.0064H4.70819V19.7042Z" fill="#302230"/>
<path d="M3.96732 5H22.0327C22.5672 5 23 5.38642 23 5.8636V20.3815C23 20.7225 22.6892 21 22.3072 21H3.69281C3.31082 21 3 20.7225 3 20.3815V5.8636C3 5.38642 3.43282 5 3.96732 5Z" fill="#DCE3EB"/>
<path d="M22.0327 5H3.96732C3.43282 5 3 5.38642 3 5.8636V6.3636C3 5.88642 3.43282 5.5 3.96732 5.5H22.0327C22.5672 5.5 23 5.88642 23 6.3636V5.8636C23 5.38642 22.5672 5 22.0327 5Z" fill="white"/>
<path d="M23.2848 20.0064H2.7152C2.32021 20.0064 2 20.3115 2 20.6877V23.3251C2 23.7014 2.32021 24.0064 2.7152 24.0064H23.2848C23.6798 24.0064 24 23.7014 24 23.3251V20.6877C24 20.3115 23.6798 20.0064 23.2848 20.0064Z" fill="#444444"/>
<path d="M6.64155 21.3064H3.35845C3.16048 21.3064 3 21.4859 3 21.7074V22.3054C3 22.5268 3.16048 22.7064 3.35845 22.7064H6.64155C6.83952 22.7064 7 22.5268 7 22.3054V21.7074C7 21.4859 6.83952 21.3064 6.64155 21.3064Z" fill="#DBE0D9"/>
<path d="M4.40161 22.0064C4.40161 21.9394 4.45616 21.8841 4.5222 21.8841H6.29084C6.35687 21.8841 6.41143 21.9394 6.41143 22.0064C6.41143 22.0733 6.35687 22.1287 6.29084 22.1287H4.5222C4.45616 22.1287 4.40161 22.0733 4.40161 22.0064Z" fill="#45454F"/>
<path d="M3.8 21.3064H3.37687C3.16959 21.3064 3 21.4851 3 21.7075V22.3054C3 22.526 3.16788 22.7064 3.37687 22.7064H3.8V21.3064Z" fill="#EA8120"/>
<path d="M3.8 22.0064V21.3064H3.37687C3.16959 21.3064 3 21.4944 3 21.7283V22.0064H3.8Z" fill="#F23B11"/>
<path d="M19.3585 21.3064H22.6415C22.8395 21.3064 23 21.4859 23 21.7074V22.3054C23 22.5268 22.8395 22.7064 22.6415 22.7064H19.3585C19.1605 22.7064 19 22.5268 19 22.3054V21.7074C19 21.4859 19.1605 21.3064 19.3585 21.3064Z" fill="#DBE0D9"/>
<path d="M21.5984 22.0064C21.5984 21.9394 21.5438 21.8841 21.4778 21.8841H19.7092C19.6431 21.8841 19.5886 21.9394 19.5886 22.0064C19.5886 22.0733 19.6431 22.1287 19.7092 22.1287H21.4778C21.5438 22.1287 21.5984 22.0733 21.5984 22.0064Z" fill="#45454F"/>
<path d="M22.2 21.3064H22.6231C22.8304 21.3064 23 21.4851 23 21.7075V22.3054C23 22.526 22.8321 22.7064 22.6231 22.7064H22.2V21.3064Z" fill="#EA8120"/>
<path d="M22.2 22.0064V21.3064H22.6231C22.8304 21.3064 23 21.4944 23 21.7283V22.0064H22.2Z" fill="#F23B11"/>
<path d="M19.747 15.261H6.25302C6.11327 15.261 5.99219 15.2618 5.99219 15.3359C5.99219 15.4101 8.0033 15.9967 7.99999 19.0997C7.99999 19.0997 8.02147 19.3428 8.25302 19.3428H17.747C18 19.3428 18 19.0997 18 19.0997C18.0047 15.9861 20.0023 15.446 20.0023 15.3434C20.0023 15.2407 19.8867 15.261 19.747 15.261Z" fill="#3D3D49"/>
<path d="M16.8342 18.1795H9.16575C9.07421 18.1795 9 18.2537 9 18.3453C9 18.4368 9.07421 18.511 9.16575 18.511H16.8342C16.9258 18.511 17 18.4368 17 18.3453C17 18.2537 16.9258 18.1795 16.8342 18.1795Z" fill="black"/>
<path d="M17.0342 17.4834H8.96574C8.8742 17.4834 8.79999 17.5576 8.79999 17.6491C8.79999 17.7406 8.8742 17.8149 8.96574 17.8149H17.0342C17.1258 17.8149 17.2 17.7406 17.2 17.6491C17.2 17.5576 17.1258 17.4834 17.0342 17.4834Z" fill="black"/>
<path d="M17.4343 16.7872H8.56578C8.47423 16.7872 8.40002 16.8614 8.40002 16.9529C8.40002 17.0445 8.47423 17.1187 8.56578 17.1187H17.4343C17.5258 17.1187 17.6 17.0445 17.6 16.9529C17.6 16.8614 17.5258 16.7872 17.4343 16.7872Z" fill="black"/>
<path d="M17.8342 16.0912H8.16575C8.07421 16.0912 8 16.1654 8 16.2569C8 16.3485 8.07421 16.4227 8.16575 16.4227H17.8342C17.9258 16.4227 18 16.3485 18 16.2569C18 16.1654 17.9258 16.0912 17.8342 16.0912Z" fill="black"/>
<path d="M7.2174 17.261H3.77871C3.62478 17.261 3.5 17.4018 3.5 17.5754V19.0283C3.5 19.2019 3.62478 19.3427 3.77871 19.3427H7.2174C7.37133 19.3427 7.49611 19.2019 7.49611 19.0283V17.5754C7.49611 17.4018 7.37133 17.261 7.2174 17.261Z" fill="#45454F"/>
<rect x="3.69806" y="17.4618" width="3.6" height="0.8" rx="0.4" fill="#C1F3FF"/>
<path d="M4.14813 17.9768H6.85187C6.93437 17.9768 7 17.9259 7 17.8618C7 17.7978 6.93437 17.7468 6.85187 17.7468H4.14813C4.06563 17.7468 4 17.7978 4 17.8618C4 17.9259 4.06563 17.9768 4.14813 17.9768Z" fill="white"/>
<rect x="3.69806" y="18.3419" width="3.6" height="0.8" rx="0.4" fill="#C1F3FF"/>
<path d="M4.14813 18.857H6.85187C6.93437 18.857 7 18.806 7 18.742C7 18.6779 6.93437 18.627 6.85187 18.627H4.14813C4.06563 18.627 4 18.6779 4 18.742C4 18.806 4.06563 18.857 4.14813 18.857Z" fill="white"/>
<path d="M22.2174 17.261H18.7787C18.6248 17.261 18.5 17.4018 18.5 17.5754V19.0283C18.5 19.2019 18.6248 19.3427 18.7787 19.3427H22.2174C22.3713 19.3427 22.4961 19.2019 22.4961 19.0283V17.5754C22.4961 17.4018 22.3713 17.261 22.2174 17.261Z" fill="#45454F"/>
<rect x="18.6981" y="17.4618" width="3.6" height="0.8" rx="0.4" fill="#C1F3FF"/>
<path d="M19.1481 17.9768H21.8519C21.9344 17.9768 22 17.9259 22 17.8618C22 17.7978 21.9344 17.7468 21.8519 17.7468H19.1481C19.0656 17.7468 19 17.7978 19 17.8618C19 17.9259 19.0656 17.9768 19.1481 17.9768Z" fill="white"/>
<rect x="18.6981" y="18.3419" width="3.6" height="0.8" rx="0.4" fill="#C1F3FF"/>
<path d="M19.1481 18.857H21.8519C21.9344 18.857 22 18.806 22 18.742C22 18.6779 21.9344 18.627 21.8519 18.627H19.1481C19.0656 18.627 19 18.6779 19 18.742C19 18.806 19.0656 18.857 19.1481 18.857Z" fill="white"/>
<path d="M8.48019 21.0064H17.5214C17.7854 21.0064 18.0001 21.2234 18.0001 21.4903V24.0064H8.00006V21.4903C8.00006 21.2234 8.21474 21.0064 8.47874 21.0064H8.48019Z" fill="url(#paint2_linear_1_3878)"/>
<path d="M4 13.5H22C22 13.929 21.1009 14.5 20.5 14.5H5.5C4.89777 14.5 4 13.928 4 13.5Z" fill="#A2AAB4"/>
<path d="M4.62127 2.51493C4.84385 1.62459 5.64382 1 6.56155 1H19.4384C20.3562 1 21.1561 1.62459 21.3787 2.51493L22 5H4L4.62127 2.51493Z" fill="white"/>
<path d="M5.04536 2.97896C5.28085 2.10627 6.0724 1.5 6.9763 1.5H19.0237C19.9276 1.5 20.7192 2.10627 20.9546 2.97895L21.5 5H4.5L5.04536 2.97896Z" fill="url(#paint3_linear_1_3878)"/>
<path d="M3.54999 7.04999C3.54999 6.4977 3.9977 6.04999 4.54999 6.04999H21.55C22.1023 6.04999 22.55 6.4977 22.55 7.04999V12.05C22.55 12.6023 22.1023 13.05 21.55 13.05H4.54999C3.9977 13.05 3.54999 12.6023 3.54999 12.05V7.04999Z" fill="#3D3D49"/>
<path d="M3.5 7.04999C3.5 6.4977 3.94772 6.04999 4.5 6.04999H21.5C22.0523 6.04999 22.5 6.4977 22.5 7.04999V12.05C22.5 12.6023 22.0523 13.05 21.5 13.05H4.5C3.94771 13.05 3.5 12.6023 3.5 12.05V7.04999Z" fill="url(#paint4_linear_1_3878)"/>
<path d="M4.70001 6.35H21.3C21.7971 6.35 22.2 6.75294 22.2 7.25V11.85C22.2 12.3471 21.7971 12.75 21.3 12.75H4.70001C4.20296 12.75 3.80001 12.3471 3.80001 11.85V7.25C3.80001 6.75294 4.20296 6.35 4.70001 6.35Z" stroke="white" stroke-width="0.2"/>
<path d="M19.9394 1.61094C24.0201 -0.0796694 28.6981 1.85893 30.3888 5.93967C32.0794 10.0204 30.1408 14.6985 26.06 16.3891C21.9793 18.0797 17.3012 16.1411 15.6106 12.0603C13.9209 7.97959 15.8586 3.30154 19.9394 1.61094" fill="white"/>
<path d="M19.9394 1.61094C24.0201 -0.0796694 28.6981 1.85893 30.3888 5.93967C32.0794 10.0204 30.1408 14.6985 26.06 16.3891C21.9793 18.0797 17.3012 16.1411 15.6106 12.0603C13.9209 7.97959 15.8586 3.30154 19.9394 1.61094" stroke="#111111" stroke-width="1.5" stroke-linecap="round" stroke-linejoin="round"/>
<path d="M22.749 5.43124V9.56532L25.9987 11.5466" stroke="#111111" stroke-width="1.5" stroke-linecap="round" stroke-linejoin="round"/>
</g>
<g opacity="0.2">
<path d="M59.6804 17.5293H65.5009V17.9866H59.6804V17.5293Z" fill="#1E2729"/>
<path d="M66.3679 18.1263C66.4098 18.1633 66.474 18.1594 66.511 18.1175L67.2092 17.3264C67.2462 17.2845 67.2423 17.2202 67.2004 17.1832C67.1585 17.1462 67.0943 17.1502 67.0573 17.1921L66.3591 17.9832C66.322 18.0251 66.326 18.0893 66.3679 18.1263Z" fill="#222C2E"/>
<path d="M67.3801 16.6768L67.3847 16.6849C67.4115 16.7312 67.3956 16.7904 67.3493 16.8171L66.5301 17.2901C66.4838 17.3168 66.4246 17.301 66.3978 17.2547L66.3932 17.2466C66.3664 17.2003 66.3823 17.1411 66.4286 17.1144L67.2479 16.6414C67.2942 16.6146 67.3534 16.6305 67.3801 16.6768Z" fill="#222C2E"/>
<path d="M67.0454 16.8621L67.6139 17.7266L67.3518 17.8989L66.7833 17.0344L67.0454 16.8621Z" fill="#222C2E"/>
<path d="M66.8682 17.5575L67.3659 17.9969L67.1792 18.2083L66.6815 17.7689L66.8682 17.5575Z" fill="#222C2E"/>
<path d="M67.1583 16.0255L65.1548 17.8432L67.7175 17.8849L67.1583 16.0255Z" fill="#1E2729"/>
<path d="M50.8436 19.6276C50.7624 19.6276 44.6753 19.8046 44.6753 19.8046V24.7094H73.2427L71.9639 17.7822L50.2211 17.9773L50.8433 19.6276H50.8436Z" fill="#233134"/>
<path d="M71.9639 2.98279H72.4362V21.2203H71.9639V2.98279Z" fill="#3B464A"/>
<path d="M71.9639 2.98279H72.4362V21.2203H71.9639V2.98279Z" fill="#3B464A"/>
<path d="M71.5534 4.45569H71.6703V21.2203H71.5534V4.45569Z" fill="#3B464A"/>
<path d="M72.7965 1.04254H74.2752C74.3857 1.04254 74.4752 1.13208 74.4752 1.24254V25.3708C74.4752 25.4813 74.3857 25.5708 74.2752 25.5708H72.7965C72.686 25.5708 72.5965 25.4813 72.5965 25.3708V1.24254C72.5965 1.13208 72.686 1.04254 72.7965 1.04254Z" fill="#2E383A"/>
<path d="M63.7812 9.66358L64.2372 9.40601L66.3024 13.0621L65.8463 13.3197L63.7812 9.66358Z" fill="#222C2E"/>
<path d="M64.2525 10.5815L64.8054 10.2692C64.8481 10.2451 64.9024 10.2601 64.9266 10.3029L65.0955 10.6021C65.1197 10.6449 65.1046 10.6991 65.0618 10.7233L64.509 11.0356C64.4662 11.0598 64.4119 11.0447 64.3878 11.0019L64.2188 10.7027C64.1946 10.6599 64.2097 10.6057 64.2525 10.5815Z" fill="#646A66"/>
<path d="M64.2868 10.5599L64.7426 10.3024L64.9526 8.99957L63.0626 10.0671L64.2868 10.5599Z" fill="#222C2E"/>
<path d="M65.5444 8.46161C65.4866 8.35917 65.3569 8.32315 65.2545 8.38098L62.3021 10.0485C62.1997 10.1063 62.1637 10.2359 62.2215 10.3384C62.2793 10.4408 62.409 10.4768 62.5114 10.419L65.4638 8.75178C65.5662 8.69394 65.6023 8.5643 65.5444 8.46186V8.46161Z" fill="#646A66"/>
<path d="M62.9773 6.3508C62.9773 6.65518 63.443 6.91814 63.7219 7.04827C63.8172 7.09287 63.9265 7.0218 63.9265 6.91667V4.72008C63.9265 4.59706 63.8268 4.49756 63.704 4.49756H63.1771C63.0668 4.49756 62.9776 4.58701 62.9776 4.69705V6.3508H62.9773Z" fill="#222C2E"/>
<path d="M63.7845 5.53034L64.7253 4.9418L64.8545 5.14832L63.9137 5.73686L63.7845 5.53034Z" fill="#222C2E"/>
<path d="M47.4999 26.9893C45.5727 26.9893 44.0104 25.427 44.0104 23.4999C44.0104 21.5727 45.5727 20.0104 47.4999 20.0104C49.427 20.0104 50.9893 21.5727 50.9893 23.4999C50.9893 25.427 49.427 26.9893 47.4999 26.9893Z" fill="#3A3C3B"/>
<path d="M47.4999 25.5982C46.341 25.5982 45.4016 24.6587 45.4016 23.4999C45.4016 22.341 46.341 21.4016 47.4999 21.4016C48.6587 21.4016 49.5982 22.341 49.5982 23.4999C49.5982 24.6587 48.6587 25.5982 47.4999 25.5982Z" fill="#292828"/>
<path d="M47.4999 25.497C46.3969 25.497 45.5027 24.6029 45.5027 23.4999C45.5027 22.3969 46.3969 21.5027 47.4999 21.5027C48.6029 21.5027 49.497 22.3969 49.497 23.4999C49.497 24.6029 48.6029 25.497 47.4999 25.497Z" fill="#B3B3B3"/>
<path d="M47.4999 24.4986C46.9483 24.4986 46.5012 24.0514 46.5012 23.4999C46.5012 22.9483 46.9483 22.5012 47.4999 22.5012C48.0514 22.5012 48.4986 22.9483 48.4986 23.4999C48.4986 24.0514 48.0514 24.4986 47.4999 24.4986Z" fill="#6B6B6B"/>
<path d="M47.1522 23.5809C47.1067 23.3879 47.2262 23.1944 47.4193 23.1489C47.6123 23.1033 47.8058 23.2229 47.8513 23.4159C47.8969 23.609 47.7773 23.8024 47.5843 23.848C47.3912 23.8935 47.1978 23.774 47.1522 23.5809Z" fill="#B3B3B3"/>
<path d="M47.4999 21.866C47.4371 21.866 47.3863 21.8151 47.3863 21.7524C47.3863 21.6896 47.4371 21.6387 47.4999 21.6387C47.5626 21.6387 47.6135 21.6896 47.6135 21.7524C47.6135 21.8151 47.5626 21.866 47.4999 21.866Z" fill="#6D6D6D"/>
<path d="M48.7357 22.3779C48.673 22.3779 48.6221 22.327 48.6221 22.2643C48.6221 22.2015 48.673 22.1507 48.7357 22.1507C48.7985 22.1507 48.8493 22.2015 48.8493 22.2643C48.8493 22.327 48.7985 22.3779 48.7357 22.3779Z" fill="#6D6D6D"/>
<path d="M49.2474 23.6135C49.1846 23.6135 49.1338 23.5626 49.1338 23.4999C49.1338 23.4371 49.1846 23.3863 49.2474 23.3863C49.3101 23.3863 49.361 23.4371 49.361 23.4999C49.361 23.5626 49.3101 23.6135 49.2474 23.6135Z" fill="#6D6D6D"/>
<path d="M48.7357 24.8493C48.673 24.8493 48.6221 24.7985 48.6221 24.7357C48.6221 24.673 48.673 24.6221 48.7357 24.6221C48.7985 24.6221 48.8493 24.673 48.8493 24.7357C48.8493 24.7985 48.7985 24.8493 48.7357 24.8493Z" fill="#6D6D6D"/>
<path d="M47.4999 25.361C47.4371 25.361 47.3863 25.3101 47.3863 25.2474C47.3863 25.1846 47.4371 25.1338 47.4999 25.1338C47.5626 25.1338 47.6135 25.1846 47.6135 25.2474C47.6135 25.3101 47.5626 25.361 47.4999 25.361Z" fill="#6D6D6D"/>
<path d="M46.2643 24.8493C46.2015 24.8493 46.1507 24.7985 46.1507 24.7357C46.1507 24.673 46.2015 24.6221 46.2643 24.6221C46.327 24.6221 46.3779 24.673 46.3779 24.7357C46.3779 24.7985 46.327 24.8493 46.2643 24.8493Z" fill="#6D6D6D"/>
<path d="M45.7523 23.6135C45.6896 23.6135 45.6387 23.5626 45.6387 23.4999C45.6387 23.4371 45.6896 23.3863 45.7523 23.3863C45.8151 23.3863 45.866 23.4371 45.866 23.4999C45.866 23.5626 45.8151 23.6135 45.7523 23.6135Z" fill="#6D6D6D"/>
<path d="M46.2643 22.3779C46.2015 22.3779 46.1507 22.327 46.1507 22.2643C46.1507 22.2015 46.2015 22.1507 46.2643 22.1507C46.327 22.1507 46.3779 22.2015 46.3779 22.2643C46.3779 22.327 46.327 22.3779 46.2643 22.3779Z" fill="#6D6D6D"/>
<path d="M47.4999 22.8253C47.4371 22.8253 47.3863 22.7744 47.3863 22.7116C47.3863 22.6489 47.4371 22.598 47.4999 22.598C47.5626 22.598 47.6135 22.6489 47.6135 22.7116C47.6135 22.7744 47.5626 22.8253 47.4999 22.8253Z" fill="#B3B3B3"/>
<path d="M48.0573 23.0563C47.9945 23.0563 47.9437 23.0055 47.9437 22.9427C47.9437 22.8799 47.9945 22.8291 48.0573 22.8291C48.1201 22.8291 48.1709 22.8799 48.1709 22.9427C48.1709 23.0055 48.1201 23.0563 48.0573 23.0563Z" fill="#B3B3B3"/>
<path d="M48.2881 23.6135C48.2253 23.6135 48.1745 23.5626 48.1745 23.4999C48.1745 23.4371 48.2253 23.3863 48.2881 23.3863C48.3509 23.3863 48.4017 23.4371 48.4017 23.4999C48.4017 23.5626 48.3509 23.6135 48.2881 23.6135Z" fill="#B3B3B3"/>
<path d="M48.1376 23.977C48.0931 23.9325 48.0212 23.9325 47.977 23.977C47.9325 24.0215 47.9325 24.0934 47.977 24.1376C48.0215 24.1821 48.0934 24.1821 48.1376 24.1376C48.1821 24.0931 48.1821 24.0212 48.1376 23.977Z" fill="#B3B3B3"/>
<path d="M47.4999 24.4017C47.4371 24.4017 47.3863 24.3509 47.3863 24.2881C47.3863 24.2253 47.4371 24.1745 47.4999 24.1745C47.5626 24.1745 47.6135 24.2253 47.6135 24.2881C47.6135 24.3509 47.5626 24.4017 47.4999 24.4017Z" fill="#B3B3B3"/>
<path d="M47.023 24.1376C47.0675 24.0931 47.0675 24.0212 47.023 23.977C46.9785 23.9325 46.9066 23.9325 46.8624 23.977C46.8179 24.0215 46.8179 24.0934 46.8624 24.1376C46.9069 24.1821 46.9788 24.1821 47.023 24.1376Z" fill="#B3B3B3"/>
<path d="M46.7116 23.6135C46.6489 23.6135 46.598 23.5626 46.598 23.4999C46.598 23.4371 46.6489 23.3863 46.7116 23.3863C46.7744 23.3863 46.8253 23.4371 46.8253 23.4999C46.8253 23.5626 46.7744 23.6135 46.7116 23.6135Z" fill="#B3B3B3"/>
<path d="M46.8624 23.023C46.9069 23.0675 46.9788 23.0675 47.023 23.023C47.0675 22.9785 47.0675 22.9066 47.023 22.8624C46.9785 22.8179 46.9066 22.8179 46.8624 22.8624C46.8179 22.9069 46.8179 22.9788 46.8624 23.023Z" fill="#B3B3B3"/>
<path d="M47.839 20H47.1608C47.1488 20 47.1392 20.0097 47.1392 20.0216V20.2524H47.8606V20.0216C47.8606 20.0097 47.8509 20 47.839 20Z" fill="#4F5250"/>
<path d="M48.7335 20.207L48.0784 20.0315C48.0669 20.0284 48.0551 20.0352 48.052 20.0467L47.9922 20.2697L48.689 20.4564L48.7488 20.2334C48.7519 20.2219 48.745 20.2101 48.7335 20.207Z" fill="#4F5250"/>
<path d="M49.5437 20.6385L48.9564 20.2994C48.946 20.2934 48.9328 20.2969 48.9269 20.3073L48.8115 20.5072L49.4362 20.8679L49.5516 20.668C49.5576 20.6576 49.554 20.6444 49.5437 20.6385Z" fill="#4F5250"/>
<path d="M50.2147 21.2648L49.7352 20.7853C49.7267 20.7769 49.7131 20.7769 49.7046 20.7853L49.5414 20.9485L50.0515 21.4586L50.2147 21.2954C50.2232 21.2869 50.2232 21.2733 50.2147 21.2648Z" fill="#4F5250"/>
<path d="M50.7006 22.0436L50.3615 21.4563C50.3555 21.4459 50.3423 21.4424 50.332 21.4484L50.1321 21.5638L50.4928 22.1885L50.6927 22.0731C50.703 22.0671 50.7066 22.0539 50.7006 22.0436Z" fill="#4F5250"/>
<path d="M50.9685 22.9215L50.793 22.2665C50.7899 22.2549 50.7781 22.2481 50.7665 22.2512L50.5436 22.3109L50.7303 23.0077L50.9532 22.948C50.9648 22.9449 50.9716 22.9331 50.9685 22.9215Z" fill="#4F5250"/>
<path d="M51 23.839V23.1608C51 23.1488 50.9903 23.1392 50.9784 23.1392H50.7476V23.8606H50.9784C50.9903 23.8606 51 23.8509 51 23.839Z" fill="#4F5250"/>
<path d="M50.793 24.7335L50.9685 24.0784C50.9716 24.0669 50.9648 24.055 50.9532 24.0519L50.7303 23.9922L50.5436 24.689L50.7665 24.7487C50.7781 24.7518 50.7899 24.745 50.793 24.7335Z" fill="#4F5250"/>
<path d="M50.3616 25.5436L50.7006 24.9563C50.7066 24.9459 50.7031 24.9327 50.6927 24.9268L50.4929 24.8114L50.1322 25.4361L50.332 25.5515C50.3424 25.5575 50.3556 25.5539 50.3616 25.5436Z" fill="#4F5250"/>
<path d="M49.7351 26.2147L50.2147 25.7352C50.2231 25.7267 50.2231 25.7131 50.2147 25.7046L50.0515 25.5414L49.5414 26.0515L49.7046 26.2147C49.713 26.2231 49.7267 26.2231 49.7351 26.2147Z" fill="#4F5250"/>
<path d="M48.9563 26.7009L49.5436 26.3618C49.554 26.3558 49.5575 26.3426 49.5515 26.3323L49.4361 26.1324L48.8114 26.4931L48.9268 26.6929C48.9328 26.7033 48.946 26.7068 48.9563 26.7009Z" fill="#4F5250"/>
<path d="M48.0782 26.9688L48.7332 26.7932C48.7448 26.7901 48.7516 26.7783 48.7485 26.7668L48.6888 26.5438L47.992 26.7305L48.0517 26.9535C48.0548 26.965 48.0666 26.9718 48.0782 26.9688Z" fill="#4F5250"/>
<path d="M47.161 27H47.8392C47.8512 27 47.8608 26.9903 47.8608 26.9784V26.7476H47.1394V26.9784C47.1394 26.9903 47.1491 27 47.161 27Z" fill="#4F5250"/>
<path d="M46.2666 26.793L46.9216 26.9686C46.9332 26.9716 46.945 26.9648 46.9481 26.9533L47.0078 26.7303L46.311 26.5436L46.2513 26.7666C46.2482 26.7781 46.255 26.7899 46.2666 26.793Z" fill="#4F5250"/>
<path d="M45.4561 26.3616L46.0434 26.7007C46.0538 26.7067 46.067 26.7032 46.073 26.6928L46.1884 26.4929L45.5636 26.1323L45.4482 26.3321C45.4422 26.3425 45.4458 26.3557 45.4561 26.3616Z" fill="#4F5250"/>
<path d="M44.7853 25.7352L45.2649 26.2147C45.2733 26.2231 45.287 26.2231 45.2954 26.2147L45.4586 26.0515L44.9485 25.5414L44.7853 25.7046C44.7769 25.713 44.7769 25.7267 44.7853 25.7352Z" fill="#4F5250"/>
<path d="M44.2994 24.9565L44.6384 25.5438C44.6444 25.5542 44.6576 25.5577 44.668 25.5517L44.8678 25.4363L44.5071 24.8116L44.3073 24.927C44.2969 24.933 44.2934 24.9462 44.2994 24.9565Z" fill="#4F5250"/>
<path d="M44.0314 24.0784L44.2069 24.7335C44.21 24.745 44.2218 24.7519 44.2333 24.7488L44.4563 24.689L44.2696 23.9922L44.0466 24.052C44.0351 24.0551 44.0283 24.0669 44.0314 24.0784Z" fill="#4F5250"/>
<path d="M44 23.161V23.8392C44 23.8512 44.0097 23.8608 44.0216 23.8608H44.2524V23.1394H44.0216C44.0097 23.1394 44 23.1491 44 23.161Z" fill="#4F5250"/>
<path d="M44.2069 22.2668L44.0314 22.9218C44.0283 22.9334 44.0351 22.9452 44.0466 22.9483L44.2696 23.008L44.4563 22.3112L44.2333 22.2515C44.2218 22.2484 44.21 22.2552 44.2069 22.2668Z" fill="#4F5250"/>
<path d="M44.6382 21.4563L44.2992 22.0436C44.2932 22.0539 44.2967 22.0671 44.3071 22.0731L44.507 22.1885L44.8676 21.5638L44.6678 21.4484C44.6574 21.4424 44.6442 21.4459 44.6382 21.4563Z" fill="#4F5250"/>
<path d="M45.2648 20.7853L44.7853 21.2648C44.7768 21.2733 44.7768 21.2869 44.7853 21.2954L44.9485 21.4586L45.4586 20.9485L45.2954 20.7853C45.2869 20.7769 45.2733 20.7769 45.2648 20.7853Z" fill="#4F5250"/>
<path d="M46.0436 20.2993L45.4563 20.6383C45.446 20.6443 45.4424 20.6575 45.4484 20.6679L45.5638 20.8677L46.1885 20.507L46.0731 20.3072C46.0672 20.2968 46.054 20.2933 46.0436 20.2993Z" fill="#4F5250"/>
<path d="M46.9215 20.0315L46.2665 20.207C46.2549 20.2101 46.2481 20.222 46.2512 20.2335L46.3109 20.4564L47.0077 20.2697L46.948 20.0468C46.9449 20.0353 46.9331 20.0284 46.9215 20.0315Z" fill="#4F5250"/>
<path d="M73.1199 14.3304H73.935C74.0461 14.3304 74.1362 14.4205 74.1362 14.5316V16.2699C74.1362 16.381 74.0461 16.4711 73.935 16.4711H73.1199C73.0088 16.4711 72.9187 16.381 72.9187 16.2699V14.5316C72.9187 14.4205 73.0088 14.3304 73.1199 14.3304Z" fill="#475357"/>
<path d="M69.4744 16.3068L72.8773 15.3663L72.9812 15.7423L69.5783 16.6828L69.4744 16.3068Z" fill="#9FA9AB"/>
<path d="M72.5259 15.3264L73.3865 15.0885L73.5608 15.7192L72.7002 15.9571L72.5259 15.3264Z" fill="#424F4F"/>
<path d="M68.4888 16.3872L71.8917 15.4467L72.0943 16.1799L68.6914 17.1204L68.4888 16.3872Z" fill="#3A4646"/>
<path d="M73.3768 14.8884H73.6782C73.7559 14.8884 73.8189 14.9514 73.8189 15.0291V15.7724C73.8189 15.8501 73.7559 15.9131 73.6782 15.9131H73.3768C73.2991 15.9131 73.2361 15.8501 73.2361 15.7724V15.0291C73.2361 14.9514 73.2991 14.8884 73.3768 14.8884Z" fill="#5A6669"/>
<path d="M73.4049 15.4006C73.4049 15.4683 73.4598 15.5231 73.5275 15.5231C73.5951 15.5231 73.65 15.4683 73.65 15.4006C73.65 15.333 73.5951 15.2781 73.5275 15.2781C73.4598 15.2781 73.4049 15.333 73.4049 15.4006Z" fill="#3C3C3C"/>
<path d="M67.5678 12.8982L66.9492 10.6937L63.9265 12.2887L65.2364 14.5686L67.0489 15.3802L67.37 17.2739L68.9113 16.6517L67.5678 12.8982Z" fill="#222C2E"/>
<path d="M68.308 15.6467L65.6984 18.0182H55.838L57.5531 21.9744L64.2625 24.1362L64.276 21.5352C64.3436 18.8164 67.0624 18.0452 67.6866 18.0182C68.367 17.9888 72.2499 17.964 72.2499 17.964V17.7596H68.7853L68.4584 16.3137L68.308 15.6467Z" fill="#545E60"/>
<path d="M68.0368 17.6449C68.9565 17.6449 70.3765 17.6449 72.2499 17.6449V18.2741C72.2499 18.2741 69.0398 18.2741 68.359 18.2741C66.7704 18.2155 64.3568 19.778 64.3568 21.5629V24.1404H63.6941C63.6564 23.2529 63.6941 22.3631 63.6941 21.5629C63.6941 19.3483 66.0419 17.6449 68.0368 17.6449Z" fill="#EC7021"/>
<path d="M59.4272 14.5685L59.8774 15.5052C60.0948 15.9571 60.2075 16.4522 60.2075 16.9538V17.8876L57.9077 17.9081V16.3135L57.0152 14.5685H59.4272Z" fill="#1E2729"/>
<path d="M57.039 14.5685H51.7064L51.4116 15.2177L53.444 17.9866L57.9315 17.9081V16.3135L57.039 14.5685Z" fill="#222C2E"/>
<path d="M54.9018 13.899H59.451V14.5686H54.9018V13.899Z" fill="#151F21"/>
<path d="M59.6056 13.8991C59.7443 13.8991 59.8612 13.7954 59.8764 13.6574C59.9014 13.4293 59.9195 13.0947 59.8426 12.9048C59.7178 12.5972 59.3684 12.496 59.1145 12.4629C58.8287 12.4257 56.1449 12.4186 55.6036 12.3674C55.3467 12.3431 55.0781 11.9392 54.9049 11.9064C54.6073 11.8498 54.1505 12.0698 54.1336 12.3166C54.1098 12.6614 54.4542 13.4388 54.6039 13.7581C54.6443 13.8444 54.7311 13.8993 54.8264 13.8993H59.6053L59.6056 13.8991Z" fill="#222C2E"/>
<path d="M52.7003 8.18075L54.1317 12.435C54.8758 12.0889 55.4434 11.387 55.1642 10.6717C54.7944 9.72348 53.8766 8.00822 53.8766 8.00822C53.7448 7.71609 53.4217 7.54528 53.0889 7.59209C52.7958 7.63326 52.6106 7.91387 52.7003 8.18075Z" fill="#222C2E"/>
<path d="M67.6416 6.84462H67.7659V4.4978H66.69C66.5998 4.4978 66.5356 4.58554 66.5628 4.67156L67.1341 6.47333C67.2042 6.69463 67.4095 6.84486 67.6416 6.84486V6.84462Z" fill="#2E3838"/>
<path d="M67.6002 5.33327L67.5385 5.20276C67.4327 4.97896 67.1651 4.88289 66.9411 4.98873L66.0281 5.42008L66.4731 6.36181L67.386 5.93047C67.6098 5.82472 67.7059 5.55707 67.6001 5.33305L67.6002 5.33327Z" fill="#364042"/>
<path d="M67.7661 4.4978H68.2124V6.84462H67.7661V4.4978Z" fill="#EC7021"/>
<path d="M50.7372 0H50.5098C50.4149 0 50.338 0.0769527 50.338 0.171796V0.823443C50.338 0.944264 50.4362 1.04254 50.5571 1.04254H50.7369V0H50.7372Z" fill="#B73030"/>
<path d="M70.9114 1.31213H73.9613V1.81257H70.9114V1.31213Z" fill="#455257"/>
<path d="M70.9114 1.81256H72.5964V2.313H70.9114V1.81256Z" fill="#293335"/>
<path d="M70.9114 1.81256H71.5214V4.15276H70.9114V1.81256Z" fill="#455257"/>
<path d="M89.8472 26.4021C90.0746 26.4021 90.0348 26.6638 89.8164 26.6685L86.1577 26.8669C79.7018 26.9545 76.8889 26.9938 76.1555 27C76.0697 27.0007 76 26.9342 76 26.8519V20H76.825V26.1258C76.825 26.2785 76.954 26.4021 77.1134 26.4021H89.8472Z" fill="#252727"/>
<path d="M66.1802 25.8198C64.6228 24.2624 64.6228 21.7373 66.1802 20.1799C67.7376 18.6224 70.2627 18.6224 71.8201 20.1799C73.3776 21.7373 73.3776 24.2624 71.8201 25.8198C70.2627 27.3772 67.7376 27.3772 66.1802 25.8198Z" fill="#3A3C3B"/>
<path d="M67.3045 24.6955C66.368 23.759 66.368 22.2407 67.3045 21.3042C68.241 20.3677 69.7594 20.3677 70.6958 21.3042C71.6323 22.2407 71.6323 23.759 70.6958 24.6955C69.7594 25.632 68.241 25.632 67.3045 24.6955Z" fill="#292828"/>
<path d="M67.3862 24.6138C66.4948 23.7224 66.4948 22.2772 67.3862 21.3858C68.2776 20.4944 69.7228 20.4944 70.6142 21.3858C71.5056 22.2772 71.5056 23.7225 70.6142 24.6138C69.7228 25.5052 68.2776 25.5052 67.3862 24.6138Z" fill="#B3B3B3"/>
<path d="M67.8727 23.1812C67.7732 22.5589 68.1971 21.9737 68.8195 21.8742C69.4418 21.7748 70.027 22.1987 70.1264 22.821C70.2259 23.4434 69.802 24.0285 69.1796 24.128C68.5573 24.2274 67.9721 23.8036 67.8727 23.1812Z" fill="#6B6B6B"/>
<path d="M68.6009 23.093C68.5493 22.8724 68.6862 22.6516 68.9069 22.6C69.1275 22.5483 69.3482 22.6853 69.3999 22.9059C69.4515 23.1265 69.3146 23.3473 69.094 23.3989C68.8733 23.4506 68.6526 23.3136 68.6009 23.093Z" fill="#B3B3B3"/>
<path d="M69.0001 21.1327C68.9284 21.1327 68.8702 21.0746 68.8702 21.0028C68.8702 20.9311 68.9284 20.873 69.0001 20.873C69.0718 20.873 69.13 20.9311 69.13 21.0028C69.13 21.0746 69.0718 21.1327 69.0001 21.1327Z" fill="#6D6D6D"/>
<path d="M70.3206 21.4958C70.27 21.5465 70.27 21.6287 70.3206 21.6794C70.3713 21.73 70.4535 21.73 70.5042 21.6794C70.5548 21.6287 70.5548 21.5465 70.5042 21.4958C70.4535 21.4452 70.3713 21.4452 70.3206 21.4958Z" fill="#6D6D6D"/>
<path d="M70.9974 22.87C70.9256 22.87 70.8675 22.9281 70.8675 22.9999C70.8675 23.0717 70.9256 23.1298 70.9974 23.1298C71.0692 23.1298 71.1273 23.0717 71.1273 22.9999C71.1273 22.9281 71.0692 22.87 70.9974 22.87Z" fill="#6D6D6D"/>
<path d="M70.5042 24.3204C70.4535 24.2698 70.3713 24.2698 70.3206 24.3204C70.27 24.371 70.27 24.4533 70.3206 24.5039C70.3713 24.5546 70.4535 24.5546 70.5042 24.5039C70.5548 24.4533 70.5548 24.371 70.5042 24.3204Z" fill="#6D6D6D"/>
<path d="M69.0001 25.127C68.9284 25.127 68.8702 25.0689 68.8702 24.9972C68.8702 24.9254 68.9284 24.8673 69.0001 24.8673C69.0718 24.8673 69.13 24.9254 69.13 24.9972C69.13 25.0689 69.0718 25.127 69.0001 25.127Z" fill="#6D6D6D"/>
<path d="M67.6798 24.5039C67.7305 24.4533 67.7305 24.371 67.6798 24.3204C67.6292 24.2698 67.5469 24.2698 67.4963 24.3204C67.4457 24.371 67.4457 24.4533 67.4963 24.5039C67.5469 24.5546 67.6292 24.5546 67.6798 24.5039Z" fill="#6D6D6D"/>
<path d="M67.0028 23.1298C67.0746 23.1298 67.1327 23.0717 67.1327 22.9999C67.1327 22.9281 67.0746 22.87 67.0028 22.87C66.9311 22.87 66.873 22.9281 66.873 22.9999C66.873 23.0717 66.9311 23.1298 67.0028 23.1298Z" fill="#6D6D6D"/>
<path d="M67.4961 21.6796C67.5467 21.7302 67.629 21.7302 67.6796 21.6796C67.7302 21.629 67.7302 21.5467 67.6796 21.4961C67.629 21.4454 67.5467 21.4454 67.4961 21.4961C67.4454 21.5467 67.4454 21.629 67.4961 21.6796Z" fill="#6D6D6D"/>
<path d="M69.0001 22.229C68.9284 22.229 68.8702 22.1709 68.8702 22.0992C68.8702 22.0274 68.9284 21.9693 69.0001 21.9693C69.0718 21.9693 69.13 22.0274 69.13 22.0992C69.13 22.1709 69.0718 22.229 69.0001 22.229Z" fill="#B3B3B3"/>
<path d="M69.5454 22.2711C69.4947 22.3217 69.4947 22.404 69.5454 22.4546C69.596 22.5053 69.6783 22.5053 69.7289 22.4546C69.7796 22.404 69.7796 22.3217 69.7289 22.2711C69.6783 22.2204 69.596 22.2204 69.5454 22.2711Z" fill="#B3B3B3"/>
<path d="M69.9011 22.87C69.8293 22.87 69.7712 22.9281 69.7712 22.9999C69.7712 23.0717 69.8293 23.1298 69.9011 23.1298C69.9728 23.1298 70.0309 23.0717 70.0309 22.9999C70.0309 22.9281 69.9728 22.87 69.9011 22.87Z" fill="#B3B3B3"/>
<path d="M69.7289 23.5451C69.6783 23.4945 69.596 23.4945 69.5454 23.5451C69.4947 23.5958 69.4947 23.678 69.5454 23.7287C69.596 23.7793 69.6783 23.7793 69.7289 23.7287C69.7796 23.678 69.7796 23.5958 69.7289 23.5451Z" fill="#B3B3B3"/>
<path d="M69.0001 24.0307C68.9284 24.0307 68.8702 23.9726 68.8702 23.9008C68.8702 23.8291 68.9284 23.771 69.0001 23.771C69.0718 23.771 69.13 23.8291 69.13 23.9008C69.13 23.9726 69.0718 24.0307 69.0001 24.0307Z" fill="#B3B3B3"/>
<path d="M68.4551 23.7287C68.5057 23.678 68.5057 23.5958 68.4551 23.5451C68.4044 23.4945 68.3222 23.4945 68.2716 23.5451C68.2209 23.5958 68.2209 23.678 68.2716 23.7287C68.3222 23.7793 68.4044 23.7793 68.4551 23.7287Z" fill="#B3B3B3"/>
<path d="M68.0994 23.1298C68.1712 23.1298 68.2293 23.0717 68.2293 22.9999C68.2293 22.9281 68.1712 22.87 68.0994 22.87C68.0276 22.87 67.9695 22.9281 67.9695 22.9999C67.9695 23.0717 68.0276 23.1298 68.0994 23.1298Z" fill="#B3B3B3"/>
<path d="M68.2713 22.4549C68.322 22.5055 68.4042 22.5055 68.4549 22.4549C68.5055 22.4042 68.5055 22.322 68.4549 22.2713C68.4042 22.2207 68.322 22.2207 68.2713 22.2713C68.2207 22.322 68.2207 22.4042 68.2713 22.4549Z" fill="#B3B3B3"/>
<path d="M69.3876 19H68.6126C68.5989 19 68.5877 19.0112 68.5877 19.0249V19.2885H69.4123V19.0249C69.4123 19.0112 69.4013 19 69.3876 19Z" fill="#4F5250"/>
<path d="M70.4099 19.2366L69.6613 19.036C69.6481 19.0324 69.6344 19.0403 69.6308 19.0535L69.5626 19.3082L70.359 19.5216L70.4273 19.2669C70.4308 19.2537 70.4231 19.2401 70.4099 19.2366Z" fill="#4F5250"/>
<path d="M71.3358 19.7294L70.6646 19.3419C70.6527 19.335 70.6375 19.3391 70.6306 19.351L70.4988 19.5793L71.2128 19.9916L71.3447 19.7632C71.3515 19.7514 71.3476 19.7362 71.3358 19.7294Z" fill="#4F5250"/>
<path d="M72.1026 20.4457L71.5546 19.8977C71.5449 19.888 71.5291 19.888 71.5194 19.8977L71.333 20.0841L71.916 20.6671L72.1025 20.4807C72.1121 20.471 72.1123 20.4554 72.1026 20.4457Z" fill="#4F5250"/>
<path d="M72.658 21.3353L72.2705 20.6641C72.2636 20.6523 72.2484 20.6482 72.2365 20.655L72.0082 20.7869L72.4204 21.5009L72.6488 21.3691C72.6606 21.3622 72.6648 21.3472 72.658 21.3353Z" fill="#4F5250"/>
<path d="M72.964 22.3389L72.7634 21.5903C72.7599 21.5771 72.7462 21.5692 72.733 21.5727L72.4783 21.641L72.6917 22.4374L72.9464 22.3692C72.9596 22.3656 72.9676 22.3522 72.964 22.3389Z" fill="#4F5250"/>
<path d="M73.0002 23.3874V22.6124C73.0002 22.5987 72.9891 22.5875 72.9754 22.5875H72.7117V23.412H72.9754C72.9891 23.412 73.0002 23.4011 73.0002 23.3874Z" fill="#4F5250"/>
<path d="M72.7635 24.4095L72.9641 23.6609C72.9677 23.6476 72.9598 23.634 72.9465 23.6304L72.6918 23.5622L72.4784 24.3586L72.7331 24.4268C72.7464 24.4304 72.76 24.4227 72.7635 24.4095Z" fill="#4F5250"/>
<path d="M72.2704 25.3356L72.6579 24.6644C72.6647 24.6525 72.6607 24.6373 72.6488 24.6304L72.4204 24.4986L72.0082 25.2126L72.2365 25.3445C72.2484 25.3513 72.2635 25.3474 72.2704 25.3356Z" fill="#4F5250"/>
<path d="M71.5546 26.1025L72.1027 25.5545C72.1124 25.5448 72.1124 25.529 72.1027 25.5193L71.9162 25.3329L71.3332 25.9159L71.5197 26.1023C71.5293 26.112 71.545 26.1122 71.5546 26.1025Z" fill="#4F5250"/>
<path d="M70.6646 26.6579L71.3358 26.2704C71.3476 26.2636 71.3517 26.2483 71.3449 26.2365L71.213 26.0081L70.499 26.4204L70.6308 26.6487C70.6377 26.6606 70.6527 26.6648 70.6646 26.6579Z" fill="#4F5250"/>
<path d="M69.6611 26.9639L70.4097 26.7633C70.4229 26.7598 70.4308 26.7461 70.4273 26.7329L70.359 26.4782L69.5626 26.6916L69.6309 26.9463C69.6344 26.9595 69.6478 26.9674 69.6611 26.9639Z" fill="#4F5250"/>
<path d="M68.6126 27H69.3876C69.4013 27 69.4125 26.9888 69.4125 26.9751V26.7115H68.588V26.9751C68.588 26.9888 68.5989 27 68.6126 27Z" fill="#4F5250"/>
<path d="M67.5905 26.7632L68.3391 26.9638C68.3524 26.9674 68.366 26.9595 68.3696 26.9462L68.4378 26.6915L67.6414 26.4781L67.5732 26.7328C67.5696 26.7461 67.5773 26.7597 67.5905 26.7632Z" fill="#4F5250"/>
<path d="M66.6644 26.2704L67.3355 26.6579C67.3474 26.6648 67.3627 26.6607 67.3695 26.6488L67.5013 26.4205L66.7873 26.0082L66.6555 26.2366C66.6486 26.2485 66.6525 26.2636 66.6644 26.2704Z" fill="#4F5250"/>
<path d="M65.8978 25.5545L66.4458 26.1025C66.4555 26.1122 66.4713 26.1122 66.481 26.1025L66.6674 25.916L66.0844 25.333L65.8979 25.5195C65.8883 25.5292 65.8881 25.5448 65.8978 25.5545Z" fill="#4F5250"/>
<path d="M65.3424 24.6643L65.7299 25.3355C65.7367 25.3473 65.7519 25.3514 65.7638 25.3446L65.9922 25.2127L65.5799 24.4987L65.3516 24.6305C65.3397 24.6374 65.3355 24.6524 65.3424 24.6643Z" fill="#4F5250"/>
<path d="M65.0361 23.6608L65.2367 24.4094C65.2402 24.4227 65.2539 24.4306 65.2671 24.427L65.5218 24.3588L65.3084 23.5624L65.0537 23.6306C65.0405 23.6341 65.0325 23.6476 65.0361 23.6608Z" fill="#4F5250"/>
<path d="M65 22.6126V23.3876C65 23.4013 65.0112 23.4125 65.0249 23.4125H65.2885V22.588H65.0249C65.0112 22.588 65 22.5989 65 22.6126Z" fill="#4F5250"/>
<path d="M65.2368 21.5903L65.0362 22.3389C65.0327 22.3522 65.0406 22.3658 65.0538 22.3694L65.3085 22.4376L65.5219 21.6412L65.2672 21.5729C65.254 21.5694 65.2404 21.5771 65.2368 21.5903Z" fill="#4F5250"/>
<path d="M65.7298 20.6643L65.3423 21.3355C65.3354 21.3473 65.3395 21.3626 65.3513 21.3694L65.5797 21.5013L65.992 20.7872L65.7636 20.6554C65.7517 20.6485 65.7366 20.6524 65.7298 20.6643Z" fill="#4F5250"/>
<path d="M66.4456 19.8977L65.8976 20.4457C65.8879 20.4554 65.8879 20.4711 65.8976 20.4808L66.0841 20.6673L66.6671 20.0843L66.4806 19.8978C66.4709 19.8881 66.4553 19.888 66.4456 19.8977Z" fill="#4F5250"/>
<path d="M67.3358 19.3421L66.6646 19.7296C66.6527 19.7365 66.6486 19.7517 66.6555 19.7636L66.7873 19.9919L67.5014 19.5797L67.3695 19.3513C67.3627 19.3395 67.3476 19.3353 67.3358 19.3421Z" fill="#4F5250"/>
<path d="M68.3392 19.0359L67.5906 19.2365C67.5773 19.24 67.5695 19.2537 67.573 19.2669L67.6413 19.5216L68.4377 19.3082L68.3694 19.0535C68.3659 19.0403 68.3524 19.0323 68.3392 19.0359Z" fill="#4F5250"/>
<path d="M74.4752 16.3135H75.084V19.4117H74.4752V16.3135Z" fill="#22292B"/>
<path d="M74.4752 21.9742H75.084V22.7792H74.4752V21.9742Z" fill="#22292B"/>
<path d="M75.0839 14.5685H76.1661V26.2031H75.0839V14.5685Z" fill="#3B4547"/>
<path d="M44.0996 17.7744V19.8045H48.6251C48.8467 19.8045 49.0565 19.8396 49.2535 19.9053C49.2905 19.918 49.3265 19.9307 49.3626 19.9454C50.6308 20.453 51.3609 22.2575 51.5665 24.1404C51.6079 24.5111 51.628 24.8864 51.628 25.254L64.3561 25.3165V21.611C64.3561 21.611 62.6256 21.5485 61.439 21.5485C59.947 21.5485 52.7639 15.6231 52.7639 15.6231H49.2535L49.1572 13.3915H45.3358C45.0985 13.3915 44.8927 13.5549 44.8393 13.7863C44.6229 14.7261 44.0996 17.0698 44.0996 17.7741V17.7744Z" fill="#EC7021"/>
<path d="M64.2945 23.5878H59.7965C59.3434 23.5878 58.9037 23.4339 58.5494 23.1513L53.1705 18.861C52.8162 18.5784 52.3765 18.4246 51.9234 18.4246H49.2988V15.6485" stroke="#B5561A" stroke-width="0.1"/>
<path d="M49.2988 19.9357V15.6109" stroke="#B5561A" stroke-width="0.1"/>
<path d="M52.7639 15.6234C52.7639 15.6234 59.947 21.5487 61.439 21.5487C62.6259 21.5487 63.6924 21.5487 63.6924 21.5487V22.3268C63.6924 22.3268 62.6256 22.3268 61.439 22.3268C59.947 22.3268 52.7639 16.4015 52.7639 16.4015H49.3462C49.3462 16.1402 49.3462 15.8787 49.358 15.6234H52.7639Z" fill="#FDB384"/>
<path d="M69.8281 17.6523C68.9402 13.4707 65.8896 0.917306 61.6557 0.399958C57.5652 -0.123516 54.1264 0.0409271 50.7252 0C50.7252 0.400693 50.7353 0.669538 50.7353 1.05479C49.8898 5.16049 49.0406 10.3604 49.0445 11.3897C49.0953 12.755 48.9705 13.6062 49.2541 15.6236H52.7645C52.7598 15.6128 50.8571 14.4061 50.7419 11.8012C50.6505 11.2584 50.7934 9.35367 51.9222 0.973917C54.7731 0.913139 59.7339 0.98274 61.7596 1.62311C65.1311 2.68893 68.014 14.1495 68.7578 17.6523H69.8281Z" fill="#364042"/>
<path d="M51.5667 24.7094C51.6082 24.9008 51.6282 25.0945 51.6282 25.2842L64.3563 25.3165V24.7094H51.5667Z" fill="#C65813"/>
</g>
<path d="M106.439 13.9871C106.402 13.9871 106.364 13.9725 106.336 13.9434L104.943 12.4803C104.742 12.2693 104.633 11.9927 104.633 11.7001V11.2662C104.633 11.1862 104.698 11.1207 104.777 11.1207C104.856 11.1207 104.92 11.1862 104.92 11.2662V11.7001C104.92 11.917 105.002 12.1222 105.151 12.278L106.544 13.741C106.598 13.7993 106.597 13.891 106.54 13.9463C106.512 13.974 106.476 13.9871 106.441 13.9871H106.439Z" fill="#111111"/>
<rect x="104.1" y="9.1" width="1.3" height="3.8" rx="0.3" fill="#E2E1E3" stroke="black" stroke-width="0.2"/>
<path d="M125.168 20.0064H122.404C122.293 20.0064 122.204 20.096 122.204 20.2064V26.8064C122.204 26.9169 122.293 27.0064 122.404 27.0064H125.168C125.278 27.0064 125.368 26.9169 125.368 26.8064V20.2064C125.368 20.096 125.278 20.0064 125.168 20.0064Z" fill="url(#paint5_linear_1_3878)"/>
<path d="M125.414 18.7042H124.983V18.9226H125.414V18.7042Z" fill="#45454F"/>
<path d="M125.414 26.3732H124.983V25.9597H125.414V26.3732ZM125.414 25.5448H124.983V25.1314H125.414V25.5448ZM125.414 24.7165H124.983V24.3031H125.414V24.7165ZM125.414 23.8882H124.983V23.4747H125.414V23.8882ZM125.414 23.0599H124.983V22.6464H125.414V23.0599ZM125.414 22.2315H124.983V21.8181H125.414V22.2315ZM125.414 21.4032H124.983V20.9898H125.414V21.4032ZM125.414 20.5749H124.983V20.1614H125.414V20.5749ZM125.414 19.7465H124.983V19.3331H125.414V19.7465Z" fill="#45454F"/>
<path d="M125.414 26.7881H124.983V27.0064H125.414V26.7881Z" fill="#45454F"/>
<path d="M122.597 19.7042H122.167V19.9226H122.597V19.7042Z" fill="#45454F"/>
<path d="M122.597 26.3732H122.167V25.9597H122.597V26.3732ZM122.597 25.5449H122.167V25.1314H122.597V25.5449ZM122.597 24.7165H122.167V24.3031H122.597V24.7165ZM122.597 23.8882H122.167V23.4748H122.597V23.8882ZM122.597 23.0599H122.167V22.6464H122.597V23.0599ZM122.597 22.2315H122.167V21.8181H122.597V22.2315ZM122.597 21.4032H122.167V20.9898H122.597V21.4032ZM122.597 20.5749H122.167V20.1615H122.597V20.5749ZM122.597 19.7466H122.167V19.3331H122.597V19.7466Z" fill="#45454F"/>
<path d="M122.597 26.788H122.167V27.0064H122.597V26.788Z" fill="#45454F"/>
<path d="M124.476 19.7042H124.189V27.0064H124.476V19.7042Z" fill="#302230"/>
<path d="M123.382 19.7042H123.095V27.0064H123.382V19.7042Z" fill="#302230"/>
<path d="M109.494 20.0064H106.73C106.619 20.0064 106.53 20.096 106.53 20.2064V26.8064C106.53 26.9169 106.619 27.0064 106.73 27.0064H109.494C109.604 27.0064 109.694 26.9169 109.694 26.8064V20.2064C109.694 20.096 109.604 20.0064 109.494 20.0064Z" fill="url(#paint6_linear_1_3878)"/>
<path d="M109.74 18.7042H109.309V18.9226H109.74V18.7042Z" fill="#45454F"/>
<path d="M109.74 26.3732H109.309V25.9597H109.74V26.3732ZM109.74 25.5448H109.309V25.1314H109.74V25.5448ZM109.74 24.7165H109.309V24.3031H109.74V24.7165ZM109.74 23.8882H109.309V23.4747H109.74V23.8882ZM109.74 23.0599H109.309V22.6464H109.74V23.0599ZM109.74 22.2315H109.309V21.8181H109.74V22.2315ZM109.74 21.4032H109.309V20.9898H109.74V21.4032ZM109.74 20.5749H109.309V20.1614H109.74V20.5749ZM109.74 19.7465H109.309V19.3331H109.74V19.7465Z" fill="#45454F"/>
<path d="M109.74 26.7881H109.309V27.0064H109.74V26.7881Z" fill="#45454F"/>
<path d="M106.923 19.7042H106.492V19.9226H106.923V19.7042Z" fill="#45454F"/>
<path d="M106.923 26.3732H106.492V25.9597H106.923V26.3732ZM106.923 25.5449H106.492V25.1314H106.923V25.5449ZM106.923 24.7165H106.492V24.3031H106.923V24.7165ZM106.923 23.8882H106.492V23.4748H106.923V23.8882ZM106.923 23.0599H106.492V22.6464H106.923V23.0599ZM106.923 22.2315H106.492V21.8181H106.923V22.2315ZM106.923 21.4032H106.492V20.9898H106.923V21.4032ZM106.923 20.5749H106.492V20.1615H106.923V20.5749ZM106.923 19.7466H106.492V19.3331H106.923V19.7466Z" fill="#45454F"/>
<path d="M106.923 26.788H106.492V27.0064H106.923V26.788Z" fill="#45454F"/>
<path d="M108.802 19.7042H108.515V27.0064H108.802V19.7042Z" fill="#302230"/>
<path d="M107.708 19.7042H107.421V27.0064H107.708V19.7042Z" fill="#302230"/>
<path d="M125.8 0H106.2C106.09 0 106 0.0895441 106 0.200001V20H126V0.2C126 0.0895431 125.91 0 125.8 0Z" fill="#BDBDBD"/>
<path d="M125.5 2.5H126V3H126.5V3.5H126V4H125.5V2.5Z" fill="#9C9C9C"/>
<path d="M125.5 16H126V16.5H126.5V17H126V17.5H125.5V16Z" fill="#9C9C9C"/>
<path d="M126 20H106V20.5H126V20Z" fill="#4F4F50"/>
<path d="M126.7 1.2H135.8V18.8H126.7L126.7 1.2V1.2Z" fill="#BDBEC0" stroke="#4F4F50" stroke-width="0.4"/>
<path d="M124.8 1H107.2C107.09 1 107 1.08954 107 1.2V19H125V1.2C125 1.08954 124.91 1 124.8 1Z" fill="#808080"/>
<path d="M111.351 14.8428H107V18.9982H111.351V14.8428Z" fill="#F8C37E"/>
<path d="M113.526 14.8447H111.351V19H113.526V14.8447Z" fill="#D8844C"/>
<path d="M109.752 14.8429H108.596V15.9405H109.752V14.8429Z" fill="#D8844C"/>
<path d="M111.351 18.6532H107V19.0001H111.351V18.6532Z" fill="#D8844C"/>
<path d="M111.351 10.6876H107V14.843H111.351V10.6876Z" fill="#F8C37E"/>
<path d="M113.526 10.6895H111.351V14.8449H113.526V10.6895Z" fill="#D8844C"/>
<path d="M109.752 10.6877H108.596V11.7853H109.752V10.6877Z" fill="#D8844C"/>
<path d="M111.351 14.498H107V14.8449H111.351V14.498Z" fill="#D8844C"/>
<path d="M115.9 14.8429H111.668V18.9983H115.9V14.8429Z" fill="#F8C37E"/>
<path d="M118.076 14.8447H115.901V19H118.076V14.8447Z" fill="#D8844C"/>
<path d="M114.302 14.8429H113.146V15.9405H114.302V14.8429Z" fill="#D8844C"/>
<path d="M115.9 18.6532H111.55V19.0001H115.9V18.6532Z" fill="#D8844C"/>
<path d="M120.45 14.8429H116.216V18.9983H120.45V14.8429Z" fill="#F8C37E"/>
<path d="M122.626 14.8447H120.45V19H122.626V14.8447Z" fill="#D8844C"/>
<path d="M118.852 14.8429H117.696V15.9405H118.852V14.8429Z" fill="#D8844C"/>
<path d="M120.45 18.6532H116.1V19H120.45V18.6532Z" fill="#D8844C"/>
<path d="M125 14.8429H120.855V18.9983H125V14.8429Z" fill="#F8C37E"/>
<path d="M123.511 14.8429H122.356V15.9405H123.511V14.8429Z" fill="#D8844C"/>
<path d="M125 18.6532H120.649V19H125V18.6532Z" fill="#D8844C"/>
<path d="M115.9 10.6877H111.668V14.8431H115.9V10.6877Z" fill="#F8C37E"/>
<path d="M118.076 10.6877H115.901V14.843H118.076V10.6877Z" fill="#D8844C"/>
<path d="M114.302 10.6877H113.146V11.7853H114.302V10.6877Z" fill="#D8844C"/>
<path d="M115.9 14.5003H111.668V14.8446H115.9V14.5003Z" fill="#D8844C"/>
<path d="M115.9 6.53056H111.668V10.6859H115.9V6.53056Z" fill="#F8C37E"/>
<path d="M118.076 6.53053H115.901V10.6859H118.076V6.53053Z" fill="#D8844C"/>
<path d="M114.302 6.53053H113.146V7.62818H114.302V6.53053Z" fill="#D8844C"/>
<path d="M115.9 10.3432H111.668V10.6875H115.9V10.3432Z" fill="#D8844C"/>
<path d="M120.45 10.6877H116.216V14.843H120.45V10.6877Z" fill="#F8C37E"/>
<path d="M122.626 10.6877H120.45V14.843H122.626V10.6877Z" fill="#D8844C"/>
<path d="M118.852 10.6877H117.696V11.7853H118.852V10.6877Z" fill="#D8844C"/>
<path d="M120.45 14.5003H116.1V14.8446H120.45V14.5003Z" fill="#D8844C"/>
<path d="M125 10.6877H120.855V14.843H125V10.6877Z" fill="#F8C37E"/>
<path d="M123.511 10.6877H122.356V11.7853H123.511V10.6877Z" fill="#D8844C"/>
<path d="M125 14.5003H120.649V14.8446H125V14.5003Z" fill="#D8844C"/>
<path d="M120.45 6.5304H116.216V10.3398H120.45V6.5304Z" fill="#F8C37E"/>
<path d="M122.626 6.53221H120.45V10.6876H122.626V6.53221Z" fill="#D8844C"/>
<path d="M118.852 6.53043H117.696V7.62807H118.852V6.53043Z" fill="#D8844C"/>
<path d="M120.45 10.3399H116.216V10.6876H120.45V10.3399Z" fill="#D8844C"/>
<path d="M120.45 2.5304H116.216V6.33982H120.45V2.5304Z" fill="#F8C37E"/>
<path d="M122.626 2.5322H120.45V6.68759H122.626V2.5322Z" fill="#D8844C"/>
<path d="M118.852 2.53043H117.696V3.62807H118.852V2.53043Z" fill="#D8844C"/>
<path d="M120.45 6.3399H116.216V6.68755H120.45V6.3399Z" fill="#D8844C"/>
<path d="M125 6.53043H120.855V10.3399H125V6.53043Z" fill="#F8C37E"/>
<path d="M123.511 6.53043H122.356V7.62807H123.511V6.53043Z" fill="#D8844C"/>
<path d="M125 10.3399H120.649V10.6876H125V10.3399Z" fill="#D8844C"/>
<path d="M125 2.53043H120.855V6.33985H125V2.53043Z" fill="#F8C37E"/>
<path d="M123.511 2.53043H122.356V3.62807H123.511V2.53043Z" fill="#D8844C"/>
<path d="M125 6.3399H120.649V6.68755H125V6.3399Z" fill="#D8844C"/>
<path d="M124.8 1H107.2C107.09 1 107 1.08954 107 1.2V19H111.5V5H125V1.2C125 1.08954 124.91 1 124.8 1Z" fill="#595959" fill-opacity="0.4"/>
<path d="M126 22H106V24.3H111H112.672C113.202 24.3 113.711 24.5108 114.086 24.8858L114.207 25.0072C114.395 25.1947 114.649 25.3 114.914 25.3H117.086C117.351 25.3 117.605 25.1947 117.793 25.0072L117.914 24.8858C118.289 24.5108 118.798 24.3 119.328 24.3H126V22Z" fill="#191A1C"/>
<path d="M106 23H110V25.3C110 25.4105 109.91 25.5 109.8 25.5H106.2C106.09 25.5 106 25.4105 106 25.3V23Z" fill="#353436"/>
<path d="M107.054 23H107.454V24.8C107.454 24.9105 107.365 25 107.254 25V25C107.144 25 107.054 24.9105 107.054 24.8L107.054 23Z" fill="white" fill-opacity="0.2"/>
<path d="M107 23H107.4V24.8C107.4 24.9105 107.31 25 107.2 25V25C107.09 25 107 24.9105 107 24.8L107 23Z" fill="#101415"/>
<path d="M108.604 23H109.004V24.8C109.004 24.9105 108.914 25 108.804 25V25C108.693 25 108.604 24.9105 108.604 24.8L108.604 23Z" fill="white" fill-opacity="0.2"/>
<path d="M108.55 23H108.95V24.8C108.95 24.9105 108.86 25 108.75 25V25C108.639 25 108.55 24.9105 108.55 24.8L108.55 23Z" fill="#101415"/>
<path d="M122 23H126V25.3C126 25.4105 125.91 25.5 125.8 25.5H122.2C122.09 25.5 122 25.4105 122 25.3V23Z" fill="#353436"/>
<path d="M123.054 23H123.454V24.8C123.454 24.9105 123.365 25 123.254 25V25C123.144 25 123.054 24.9105 123.054 24.8L123.054 23Z" fill="white" fill-opacity="0.2"/>
<path d="M123 23H123.4V24.8C123.4 24.9105 123.31 25 123.2 25V25C123.09 25 123 24.9105 123 24.8L123 23Z" fill="#101415"/>
<path d="M124.604 23H125.004V24.8C125.004 24.9105 124.914 25 124.804 25V25C124.693 25 124.604 24.9105 124.604 24.8L124.604 23Z" fill="white" fill-opacity="0.2"/>
<path d="M124.55 23H124.95V24.8C124.95 24.9105 124.86 25 124.75 25V25C124.639 25 124.55 24.9105 124.55 24.8L124.55 23Z" fill="#101415"/>
<path d="M106 20.5H126V23H106V20.5Z" fill="#BDBEC0"/>
<path d="M106 20.5H126V20.7H106L106 20.5Z" fill="#F5F5F5"/>
<path d="M106 20.7H126V20.9H106L106 20.7Z" fill="#ABABAB"/>
<path d="M110.134 21.25H106.851C106.653 21.25 106.492 21.4296 106.492 21.651V22.249C106.492 22.4704 106.653 22.65 106.851 22.65H110.134C110.332 22.65 110.492 22.4704 110.492 22.249V21.651C110.492 21.4296 110.332 21.25 110.134 21.25Z" fill="#DBE0D9"/>
<path d="M107.894 21.95C107.894 21.883 107.948 21.8277 108.014 21.8277H109.783C109.849 21.8277 109.904 21.883 109.904 21.95C109.904 22.0169 109.849 22.0723 109.783 22.0723H108.014C107.948 22.0723 107.894 22.0169 107.894 21.95Z" fill="#45454F"/>
<path d="M107.292 21.25H106.869C106.662 21.25 106.492 21.4287 106.492 21.6511V22.249C106.492 22.4696 106.66 22.65 106.869 22.65H107.292V21.25Z" fill="#EA8120"/>
<path d="M107.292 21.95V21.25H106.869C106.662 21.25 106.492 21.438 106.492 21.6719V21.95H107.292Z" fill="#F23B11"/>
<path d="M121.867 21.25H125.15C125.348 21.25 125.508 21.4296 125.508 21.651V22.249C125.508 22.4704 125.348 22.65 125.15 22.65H121.867C121.669 22.65 121.508 22.4704 121.508 22.249V21.651C121.508 21.4296 121.669 21.25 121.867 21.25Z" fill="#DBE0D9"/>
<path d="M124.106 21.95C124.106 21.883 124.052 21.8277 123.986 21.8277H122.217C122.151 21.8277 122.097 21.883 122.097 21.95C122.097 22.0169 122.151 22.0723 122.217 22.0723H123.986C124.052 22.0723 124.106 22.0169 124.106 21.95Z" fill="#45454F"/>
<path d="M124.708 21.25H125.131C125.338 21.25 125.508 21.4287 125.508 21.6511V22.249C125.508 22.4696 125.34 22.65 125.131 22.65H124.708V21.25Z" fill="#EA8120"/>
<path d="M124.708 21.95V21.25H125.131C125.338 21.25 125.508 21.438 125.508 21.6719V21.95H124.708Z" fill="#F23B11"/>
<path d="M106 23.1553H126V23.3553H106L106 23.1553Z" fill="#F5F5F5" fill-opacity="0.7"/>
<path d="M116 1H107V19H116V1Z" fill="#BDBEC0"/>
<path d="M107.2 1.2H115.8V18.8H107.2V1.2Z" stroke="url(#paint7_linear_1_3878)" stroke-opacity="0.3" stroke-width="0.4"/>
<path d="M115.024 16H114.524V16.5H114.024V17H114.524V17.5H115.024V16Z" fill="#9C9C9C"/>
<defs>
<linearGradient id="paint0_linear_1_3878" x1="19.2039" y1="23.8546" x2="22.3679" y2="23.8546" gradientUnits="userSpaceOnUse">
<stop stop-color="#423940"/>
<stop offset="1" stop-color="#312331"/>
</linearGradient>
<linearGradient id="paint1_linear_1_3878" x1="3.52963" y1="23.8546" x2="6.69366" y2="23.8546" gradientUnits="userSpaceOnUse">
<stop stop-color="#423940"/>
<stop offset="1" stop-color="#312331"/>
</linearGradient>
<linearGradient id="paint2_linear_1_3878" x1="13.0001" y1="24.1061" x2="13.0001" y2="20.6003" gradientUnits="userSpaceOnUse">
<stop stop-color="#3D3D49"/>
<stop offset="1" stop-color="#292429"/>
</linearGradient>
<linearGradient id="paint3_linear_1_3878" x1="13" y1="1.5" x2="13" y2="5" gradientUnits="userSpaceOnUse">
<stop offset="0.296875" stop-color="#BBC3CC"/>
<stop offset="1" stop-color="#78838F"/>
</linearGradient>
<linearGradient id="paint4_linear_1_3878" x1="10.9924" y1="6.98332" x2="10.9924" y2="9.03354" gradientUnits="userSpaceOnUse">
<stop stop-color="#5B7681"/>
<stop offset="1" stop-color="#3E3E49"/>
</linearGradient>
<linearGradient id="paint5_linear_1_3878" x1="122.204" y1="23.8546" x2="125.368" y2="23.8546" gradientUnits="userSpaceOnUse">
<stop stop-color="#423940"/>
<stop offset="1" stop-color="#312331"/>
</linearGradient>
<linearGradient id="paint6_linear_1_3878" x1="106.53" y1="23.8546" x2="109.694" y2="23.8546" gradientUnits="userSpaceOnUse">
<stop stop-color="#423940"/>
<stop offset="1" stop-color="#312331"/>
</linearGradient>
<linearGradient id="paint7_linear_1_3878" x1="107" y1="10" x2="114.5" y2="10" gradientUnits="userSpaceOnUse">
<stop/>
<stop offset="1" stop-color="white"/>
</linearGradient>
</defs>
</svg>
