<svg width="40" height="40" viewBox="0 0 40 40" fill="none" xmlns="http://www.w3.org/2000/svg">
<g>
<path fill="#111111" d="M19.9944 31.3384C19.2382 31.3384 18.6244 31.9521 18.6299 32.7083C18.6299 33.4646 19.2437 34.0783 19.9999 34.0783C20.7561 34.0783 21.3699 33.4646 21.3699 32.7083C21.3699 31.9521 20.7561 31.3384 19.9944 31.3384Z"/>
<path stroke="#111111" d="M10 33.3333L31.6667 5" stroke-width="1.5" stroke-miterlimit="10" stroke-linecap="round" stroke-linejoin="round"/>
<path stroke="#111111" d="M23.5266 15.6451C17.9683 14.5984 11.9649 16.0451 7.65161 20.0001" stroke-width="1.5" stroke-miterlimit="10" stroke-linecap="round" stroke-linejoin="round"/>
<path stroke="#111111" d="M29.1899 8.24007C20.3399 5.08841 9.82995 6.67674 2.65662 13.0067" stroke-width="1.5" stroke-miterlimit="10" stroke-linecap="round" stroke-linejoin="round"/>
<path stroke="#111111" d="M28.7783 17.4951C30.0533 18.1701 31.2567 18.9985 32.3467 20.0001" stroke-width="1.5" stroke-miterlimit="10" stroke-linecap="round" stroke-linejoin="round"/>
<path stroke="#111111" d="M34.0349 10.6201C35.1899 11.3285 36.3116 12.0984 37.3432 13.0068" stroke-width="1.5" stroke-miterlimit="10" stroke-linecap="round" stroke-linejoin="round"/>
<path stroke="#111111" d="M23.7699 24.0449C25.0799 24.5466 26.3099 25.3183 27.3666 26.3683" stroke-width="1.5" stroke-miterlimit="10" stroke-linecap="round" stroke-linejoin="round"/>
</g>
</svg>
