<svg width="24" height="24" viewBox="0 0 24 24" fill="none" xmlns="http://www.w3.org/2000/svg">
<path stroke="#ffffff" d="M3.92265 16.0807L4.44784 16.9904C4.59292 17.2417 4.80776 17.4455 5.06633 17.5771C5.3249 17.7088 5.6161 17.7626 5.90465 17.7321L7.42965 17.5708C7.63988 17.5485 7.85174 17.5935 8.03482 17.6992L9.09582 18.3118C9.27891 18.4175 9.42378 18.5785 9.50964 18.7717L10.1041 20.1092C10.2219 20.3743 10.4141 20.5996 10.6574 20.7577C10.9007 20.9159 11.1847 21 11.4748 21H12.5252C12.8153 21 13.0993 20.9158 13.3426 20.7577C13.5859 20.5996 13.7781 20.3743 13.8959 20.1092L14.4903 18.7717C14.5762 18.5785 14.721 18.4176 14.9041 18.3118L15.9525 17.7065C16.1356 17.6008 16.3474 17.5559 16.5577 17.5781L18.0132 17.7321C18.3017 17.7626 18.5929 17.7088 18.8515 17.5771C19.1101 17.4455 19.3249 17.2417 19.47 16.9904L19.9952 16.0807C20.1403 15.8294 20.2093 15.5415 20.1941 15.2517C20.1788 14.962 20.0798 14.6829 19.9091 14.4482L19.1096 13.3494C18.9853 13.1785 18.9183 12.9725 18.9183 12.7611V11.2389C18.9183 11.0275 18.9853 10.8215 19.1096 10.6505L19.9091 9.55169C20.0798 9.31706 20.1788 9.03796 20.1941 8.74821C20.2093 8.45846 20.1403 8.1705 19.9952 7.91922L19.47 7.00956C19.3249 6.75828 19.1101 6.55447 18.8515 6.42282C18.5929 6.29118 18.3017 6.23736 18.0132 6.26788L16.5577 6.42188C16.3474 6.44412 16.1356 6.39916 15.9525 6.29345L14.7936 5.62435C14.6105 5.51865 14.4656 5.35764 14.3798 5.16446L13.8138 3.89084C13.6959 3.62568 13.5037 3.40038 13.2604 3.24226C13.0171 3.08415 12.7332 2.99999 12.443 3H11.3927C11.1025 3 10.8186 3.08415 10.5753 3.24226C10.332 3.40037 10.1398 3.62565 10.0219 3.8908L9.39914 5.2921C9.31328 5.48529 9.1684 5.6463 8.98531 5.752L8.03481 6.30075C7.85173 6.40644 7.63987 6.4514 7.42965 6.42917L5.90465 6.26787C5.6161 6.23735 5.3249 6.29118 5.06633 6.42282C4.80776 6.55447 4.59291 6.75828 4.44784 7.00956L3.92265 7.91922C3.77757 8.1705 3.70849 8.45846 3.72377 8.74821C3.73905 9.03796 3.83804 9.31706 4.00874 9.55169L4.89036 10.7635C5.01473 10.9344 5.08173 11.1404 5.08173 11.3518V12.6482C5.08173 12.8596 5.01473 13.0655 4.89036 13.2365L4.00874 14.4482C3.83804 14.6829 3.73905 14.962 3.72377 15.2517C3.70849 15.5415 3.77757 15.8294 3.92265 16.0807V16.0807Z" stroke-width="1.5" stroke-linecap="round" stroke-linejoin="round"/>
<path stroke="#ffffff" d="M12 15C13.6569 15 15 13.6569 15 12C15 10.3431 13.6569 9 12 9C10.3432 9 9.00001 10.3431 9.00001 12C9.00001 13.6569 10.3432 15 12 15Z" stroke-width="1.5" stroke-linecap="round" stroke-linejoin="round"/>
</svg>
