<svg width="60" height="40" viewBox="0 0 60 40" fill="none" xmlns="http://www.w3.org/2000/svg">
<path d="M16.4277 13.1003C20.7354 6.49977 24.2892 7.89115 25.6431 8.87213L29.687 22.2462C28.1436 20.6246 24.3334 19.5663 20.1965 23.9963C14.3021 30.778 11.5362 28.791 9.05532 27.4668L7 17.6946C8.97613 18.4496 11.4178 20.164 16.4277 13.1003Z" fill="#87CBFB"/>
<path d="M16.428 13.1002C20.9647 6.28445 24.4896 7.96277 25.6434 8.87203L29.0084 21.5951C27.6427 19.1285 25.0701 9.7329 16.428 13.1002Z" fill="#003A62" fill-opacity="0.4"/>
<path d="M43.7893 13.4832C39.3024 6.14138 36.2374 8.18735 34.8126 8.65568L30.2886 21.6613C31.832 20.0397 36.1306 19.7158 40.1203 24.9037C45.4636 31.3885 48.0006 29.1918 50.3082 28.1461L52.9442 18.599C51.7455 19.3567 48.1708 20.6526 43.7893 13.4832Z" fill="#5CA0CF"/>
<path d="M40.6784 12.6415C40.9569 11.8525 41.2351 11.0631 41.5135 10.2741C40.9375 9.6279 40.3305 9.07447 39.6716 8.67529C39.3761 9.48838 39.0807 10.3015 38.7852 11.1143C39.4616 11.4879 40.0857 12.0178 40.6784 12.6413V12.6415Z" fill="#003A62"/>
<path d="M44.7623 14.7685C44.2277 13.9988 43.7034 13.1984 43.169 12.4287C42.9071 13.1961 42.645 13.9634 42.3832 14.7308C42.934 15.4793 43.4743 16.259 44.0251 17.0075C44.2708 16.2611 44.5166 15.5149 44.7623 14.7685Z" fill="#003A62"/>
<path d="M47.6232 20.624C47.8355 19.9233 48.0475 19.2226 48.2598 18.5219C47.601 18.1227 46.994 17.5693 46.4179 16.9231C46.1885 17.6476 45.9591 18.3723 45.7299 19.0968C46.3226 19.7202 46.9467 20.2501 47.6232 20.6237V20.624Z" fill="#003A62"/>
<path d="M53.0001 18.5696C52.0513 19.0352 51.1955 19.2228 50.4125 19.1941C50.2186 19.8674 50.0247 20.5404 49.8308 21.2138C50.633 21.2127 51.5085 20.9928 52.4785 20.4919C52.6524 19.8511 52.8262 19.2104 53.0001 18.5693V18.5696Z" fill="#003A62"/>
<path d="M37.8986 13.5535C38.1942 12.7405 38.4895 11.9274 38.7851 11.1145C38.1086 10.7409 37.3797 10.5234 36.5773 10.5244C36.2636 11.3649 35.9496 12.2054 35.6359 13.0459C36.4573 13.0151 37.2045 13.2053 37.8986 13.5535Z" fill="#003A62"/>
<path d="M41.5972 17.0329C41.8591 16.2655 42.1212 15.4981 42.3831 14.7308C41.8323 13.9823 41.271 13.265 40.6783 12.6416C40.3999 13.4307 40.1217 14.22 39.8432 15.009C40.4525 15.61 41.0301 16.3058 41.5972 17.0331V17.0329Z" fill="#003A62"/>
<path d="M45.0418 21.2707C45.2712 20.5462 45.5003 19.8215 45.7297 19.097C45.137 18.4735 44.5758 17.7563 44.025 17.0078C43.7792 17.7542 43.5335 18.5004 43.2877 19.2468C43.8546 19.9742 44.4325 20.67 45.0418 21.2709V21.2707Z" fill="#003A62"/>
<path d="M47.6233 20.624C47.411 21.3247 47.1989 22.0254 46.9866 22.7261C47.6807 23.0744 48.428 23.2646 49.2493 23.2338C49.4432 22.5605 49.6371 21.8875 49.831 21.2141C49.0288 21.2152 48.3 20.9979 47.6233 20.624Z" fill="#003A62"/>
<path d="M37.8986 13.5537C37.603 14.3668 37.3077 15.1799 37.0121 15.9927C37.7238 16.3154 38.3822 16.7981 39.0083 17.3766C39.2868 16.5875 39.565 15.7982 39.8434 15.0091C39.2341 14.4081 38.5929 13.902 37.8988 13.5537H37.8986Z" fill="#003A62"/>
<path d="M41.5973 17.033C41.3354 17.8003 41.0733 18.5677 40.8115 19.335C41.3947 20.0412 41.9672 20.7793 42.5504 21.4855C42.7962 20.739 43.0419 19.9928 43.2877 19.2464C42.7208 18.5191 42.1642 17.7603 41.5973 17.033Z" fill="#003A62"/>
<path d="M44.3538 23.4444C44.9799 24.0229 45.638 24.5053 46.35 24.8283C46.5623 24.1276 46.7743 23.4269 46.9866 22.7262C46.2925 22.3779 45.6513 21.8717 45.042 21.2708C44.8126 21.9952 44.5834 22.72 44.354 23.4444H44.3538Z" fill="#003A62"/>
<path d="M51.435 24.3371C51.6089 23.6963 51.7827 23.0556 51.9566 22.4146C50.9659 22.9509 50.0703 23.2028 49.2489 23.2336C49.055 23.9069 48.8611 24.58 48.6672 25.2533C49.5077 25.1928 50.4231 24.9086 51.4347 24.3368L51.435 24.3371Z" fill="#003A62"/>
<path d="M34.6946 15.5674C34.3809 16.4079 34.0669 17.2484 33.7532 18.0889C34.6126 17.9987 35.3964 18.1346 36.1258 18.432C36.4213 17.6189 36.7167 16.8058 37.0122 15.993C36.3005 15.6703 35.5351 15.507 34.6946 15.5677V15.5674Z" fill="#003A62"/>
<path d="M39.0081 17.3765C38.7296 18.1655 38.4514 18.9548 38.173 19.7439C38.8157 20.2997 39.426 20.9523 40.0254 21.6372C40.2872 20.8699 40.5493 20.1025 40.8112 19.3352C40.228 18.629 39.634 17.9547 39.0078 17.3765H39.0081Z" fill="#003A62"/>
<path d="M42.5505 21.4856C42.3048 22.232 42.059 22.9782 41.8132 23.7246C42.4128 24.4096 43.0229 25.0622 43.6656 25.618C43.895 24.8935 44.1242 24.1688 44.3536 23.4443C43.7274 22.8658 43.1335 22.1917 42.5503 21.4856H42.5505Z" fill="#003A62"/>
<path d="M46.3496 24.8279C46.1373 25.5286 45.9253 26.2293 45.713 26.93C46.4424 27.2274 47.2261 27.3633 48.0855 27.2731C48.2794 26.5998 48.4733 25.9267 48.6672 25.2534C47.8267 25.3139 47.0614 25.1508 46.3496 24.8281V24.8279Z" fill="#003A62"/>
<path d="M35.2393 20.8709C35.9862 21.143 36.6786 21.5781 37.3382 22.1113C37.6166 21.3223 37.8948 20.533 38.1733 19.7439C37.5305 19.1881 36.8553 18.7293 36.1257 18.4319C35.8302 19.245 35.5348 20.0581 35.2393 20.8709Z" fill="#003A62"/>
<path d="M39.24 23.9393C39.8557 24.603 40.4604 25.2996 41.076 25.9634C41.3218 25.2169 41.5676 24.4708 41.8133 23.7243C41.214 23.0394 40.6254 22.3221 40.0258 21.6372C39.764 22.4046 39.5018 23.1719 39.24 23.9393Z" fill="#003A62"/>
<path d="M42.9775 27.7916C43.6369 28.3249 44.3292 28.76 45.0765 29.032C45.2888 28.3313 45.5008 27.6306 45.7131 26.9299C44.9837 26.6325 44.3083 26.1737 43.6655 25.6179C43.4361 26.3424 43.2069 27.0671 42.9775 27.7916Z" fill="#003A62"/>
<path d="M50.3915 28.1818C50.5655 27.5411 50.7392 26.9003 50.9132 26.2593C49.8803 26.8662 48.9451 27.1827 48.0857 27.2729C47.8918 27.9462 47.6979 28.6192 47.504 29.2925C48.3825 29.1727 49.3377 28.8241 50.3915 28.1818Z" fill="#003A62"/>
<path d="M32.7375 16.0772C33.4349 15.7731 34.0846 15.6113 34.6946 15.5671C35.0083 14.7267 35.3223 13.8862 35.636 13.0457C35.0398 13.0682 34.4044 13.2069 33.7218 13.4867C34.0498 12.6233 34.3781 11.7598 34.7061 10.8963C35.3739 10.641 35.9949 10.525 36.5774 10.5243C36.8911 9.68379 37.2051 8.84331 37.5188 8.00283C36.7355 7.97415 34.8912 8.16199 33.9424 8.62731C32.6049 12.1178 31.2724 15.6104 29.9367 19.1019C29.8227 19.3998 27.1619 10.3736 26.6766 8.83323C25.7079 8.17116 23.9259 8.07052 23.1424 8.05115C23.4053 8.90945 23.6681 9.7675 23.9308 10.6258C24.512 10.6625 25.1251 10.8162 25.7763 11.1121C26.0519 11.9941 26.3278 12.876 26.6035 13.758C25.939 13.4369 25.3131 13.2594 24.7191 13.2005C24.982 14.0585 25.2449 14.9168 25.5075 15.7749C26.114 15.8562 26.7527 16.0575 27.4307 16.404C27.7063 17.2861 27.9822 18.1679 28.2579 19.05C27.5666 18.6782 26.9151 18.4531 26.2961 18.3495C26.559 19.2078 26.8219 20.0659 27.0845 20.9242C27.716 21.0503 28.3805 21.2991 29.0851 21.6959C29.0851 21.6959 25.7143 30.1438 25.0044 32.0005H26.686C27.714 29.2956 28.7417 26.5905 29.7697 23.8856C30.6153 26.5905 31.4609 29.2956 32.3068 32.0005H33.9723C32.8528 28.4452 30.6433 21.3987 30.6433 21.3987C31.2845 20.8909 32.1739 20.6976 32.8118 20.6105C33.1255 19.77 33.4395 18.9296 33.7532 18.0891C33.1291 18.1547 32.4652 18.3392 31.7532 18.6678C32.0812 17.8044 32.4095 16.9406 32.7375 16.0772Z" fill="#003A62"/>
<path d="M20.9539 8.59009C20.2723 8.94793 19.6332 9.46338 19.0195 10.0729C19.25 10.8777 19.4806 11.6825 19.7111 12.4871C20.34 11.9011 20.9948 11.4105 21.6925 11.079C21.4462 10.2493 21.2002 9.41971 20.9539 8.59009Z" fill="#003A62"/>
<path d="M17.2377 12.1221C16.6581 12.8574 16.0866 13.6245 15.507 14.3598C15.7075 15.1199 15.908 15.8798 16.1086 16.6399C16.7033 15.9266 17.2894 15.1814 17.8841 14.4681C17.6687 13.686 17.4531 12.9039 17.2377 12.1221Z" fill="#003A62"/>
<path d="M13.7253 16.4089C13.1117 17.0184 12.4725 17.5339 11.7909 17.8917C11.9608 18.604 12.1304 19.3164 12.3003 20.029C12.998 19.6975 13.6527 19.2068 14.2817 18.6208C14.0962 17.8835 13.9108 17.1463 13.7253 16.4089Z" fill="#003A62"/>
<path d="M7.05629 17.6487C7.19143 18.299 7.32657 18.9493 7.46171 19.5996C8.39979 20.159 9.26046 20.4321 10.0611 20.4825C9.90781 19.7986 9.75478 19.1147 9.6015 18.4308C8.81799 18.4111 7.9752 18.1714 7.05603 17.6487H7.05629Z" fill="#003A62"/>
<path d="M24.7199 13.2002C24.457 12.3419 24.1944 11.4839 23.9315 10.6256C23.1308 10.5752 22.3902 10.7475 21.6926 11.079C21.9388 11.9087 22.1849 12.7383 22.4311 13.5679C23.1449 13.2628 23.9021 13.1189 24.7201 13.2L24.7199 13.2002Z" fill="#003A62"/>
<path d="M20.4024 14.9015C20.172 14.0967 19.9413 13.2919 19.7109 12.4873C19.0819 13.0733 18.4785 13.7549 17.884 14.4682C18.0994 15.2503 18.315 16.0324 18.5304 16.8142C19.1399 16.1231 19.7581 15.464 20.4024 14.9015Z" fill="#003A62"/>
<path d="M16.7101 18.92C16.5095 18.1599 16.309 17.4 16.1085 16.6399C15.5137 17.3533 14.9106 18.0348 14.2816 18.6208C14.4671 19.3582 14.6526 20.0953 14.838 20.8327C15.4823 20.2703 16.1005 19.6111 16.7101 18.92Z" fill="#003A62"/>
<path d="M12.8098 22.166C12.64 21.4537 12.4703 20.7414 12.3004 20.0288C11.6028 20.3603 10.8622 20.5326 10.0615 20.4822C10.2148 21.1662 10.3678 21.8501 10.5211 22.534C11.3391 22.6151 12.0963 22.4709 12.8101 22.166H12.8098Z" fill="#003A62"/>
<path d="M20.4025 14.9016C20.633 15.7064 20.8636 16.511 21.0941 17.3158C21.7537 16.7768 22.4396 16.3355 23.1695 16.057C22.9232 15.2274 22.6772 14.3977 22.4309 13.5681C21.7172 13.8733 21.0468 14.3391 20.4025 14.9016Z" fill="#003A62"/>
<path d="M16.7101 18.9199C16.9106 19.6801 17.1112 20.4399 17.3117 21.2C17.9363 20.5309 18.552 19.8294 19.1764 19.1602C18.961 18.3781 18.7454 17.596 18.53 16.8142C17.9205 17.5053 17.3196 18.2288 16.7098 18.9199H16.7101Z" fill="#003A62"/>
<path d="M12.8098 22.1662C12.9797 22.8785 13.1493 23.5909 13.3192 24.3034C14.0491 24.0249 14.735 23.5836 15.3946 23.0447C15.2092 22.3073 15.0237 21.5702 14.8382 20.8328C14.1939 21.3952 13.5236 21.8611 12.8098 22.1662Z" fill="#003A62"/>
<path d="M7.86726 21.5505C8.0024 22.2009 8.13754 22.8512 8.27269 23.5015C9.24831 24.1342 10.145 24.474 10.9801 24.5859C10.8268 23.902 10.6738 23.2181 10.5205 22.5342C9.70254 22.453 8.82398 22.1466 7.867 21.5505H7.86726Z" fill="#003A62"/>
<path d="M23.1694 16.0573C23.4157 16.887 23.6617 17.7166 23.908 18.5462C24.654 18.294 25.4444 18.2065 26.2966 18.3493C26.0337 17.4913 25.7711 16.633 25.5082 15.7747C24.6731 15.6628 23.8993 15.7786 23.1694 16.0571V16.0573Z" fill="#003A62"/>
<path d="M19.1767 19.1602C19.3921 19.9423 19.6077 20.7244 19.823 21.5062C20.4625 20.8592 21.1108 20.2453 21.7858 19.7299C21.5554 18.9251 21.3247 18.1202 21.0942 17.3157C20.4346 17.8546 19.8013 18.491 19.1767 19.1602Z" fill="#003A62"/>
<path d="M15.3945 23.0447C15.5799 23.7821 15.7654 24.5192 15.9509 25.2566C16.6258 24.7412 17.2742 24.1273 17.9136 23.4803C17.7131 22.7202 17.5125 21.9603 17.312 21.2002C16.6874 21.8694 16.0541 22.5057 15.3945 23.0447Z" fill="#003A62"/>
<path d="M10.9803 24.5859C11.1336 25.2698 11.2866 25.9537 11.4399 26.6376C12.2924 26.7805 13.0825 26.6929 13.8285 26.4407C13.6586 25.7284 13.489 25.0161 13.3191 24.3035C12.5892 24.582 11.8154 24.6977 10.9803 24.5859Z" fill="#003A62"/>
<path d="M22.477 22.1444C23.1673 21.6528 23.8844 21.2608 24.6464 21.0353C24.4002 20.2056 24.1542 19.376 23.9079 18.5464C23.1619 18.7986 22.4604 19.215 21.7855 19.7305C22.0159 20.5353 22.2466 21.3401 22.477 22.1447V22.1444Z" fill="#003A62"/>
<path d="M18.5151 25.7602C19.1693 25.1354 19.8149 24.4773 20.4691 23.8523C20.2538 23.0703 20.0382 22.2882 19.8228 21.5063C19.1834 22.1533 18.5529 22.8331 17.9135 23.48C18.114 24.2402 18.3145 25 18.5151 25.7602Z" fill="#003A62"/>
<path d="M14.338 28.5777C15.1 28.3521 15.8171 27.9602 16.5074 27.4685C16.3219 26.7311 16.1364 25.994 15.951 25.2566C15.276 25.7718 14.5745 26.1885 13.8286 26.4407C13.9984 27.153 14.1681 27.8656 14.338 28.5779V28.5777Z" fill="#003A62"/>
<path d="M9.08378 27.4031C10.097 28.109 11.0297 28.5154 11.8993 28.689C11.746 28.0051 11.593 27.3212 11.4397 26.6373C10.5872 26.4944 9.67263 26.1213 8.6781 25.4521C8.81324 26.1025 8.94838 26.7528 9.08353 27.4031H9.08378Z" fill="#003A62"/>
<path fill-rule="evenodd" clip-rule="evenodd" d="M26.7707 31.9995C28.0948 28.1959 34.1628 8.5042 33.9381 8.61595L25.8816 31.9995H26.7707Z" fill="#001726"/>
<path fill-rule="evenodd" clip-rule="evenodd" d="M32.9644 31.9993C31.7162 28.0479 26.1504 8.50065 26.6783 8.84206L33.9774 31.9993H32.9644Z" fill="#C1D9EA"/>
</svg>
