<svg width="36" height="36" viewBox="0 0 36 36" fill="none" xmlns="http://www.w3.org/2000/svg">
<rect fill="#ffffff" x="0.5" y="0.5" width="35" height="35" rx="5.5"/>
<path d="M13 21H23" stroke="#111111" stroke-width="1.5" stroke-linecap="round" stroke-linejoin="round"/>
<path d="M13 24H23" stroke="#111111" stroke-width="1.5" stroke-linecap="round" stroke-linejoin="round"/>
<path d="M13 27H23" stroke="#111111" stroke-width="1.5" stroke-linecap="round" stroke-linejoin="round"/>
<path d="M23 27V18H13V27" stroke="#111111" stroke-width="1.5" stroke-linecap="round" stroke-linejoin="round"/>
<path d="M16 15H20" stroke="#111111" stroke-width="1.5" stroke-linecap="round" stroke-linejoin="round"/>
<path d="M27 15.1768C27 14.4505 26.6062 13.7812 25.9713 13.4285L18.9713 9.5396C18.3672 9.20402 17.6328 9.20402 17.0287 9.5396L10.0287 13.4285C9.39378 13.7812 9 14.4505 9 15.1768V25C9 26.1046 9.89543 27 11 27H25C26.1046 27 27 26.1046 27 25V15.1768Z" stroke="#111111" stroke-width="1.5" stroke-linecap="round" stroke-linejoin="round"/>
<rect stroke="#DDDDDD" x="0.5" y="0.5" width="35" height="35" rx="5.5"/>
</svg>