<svg width="60" height="60" viewBox="0 0 60 60" fill="none" xmlns="http://www.w3.org/2000/svg">
<path d="M52.3828 36.2002C52.3828 40.3482 49.014 43.7109 44.8568 43.7109H17.6239C12.0977 43.7109 7.6172 39.2401 7.6172 33.7229C7.6172 28.2074 12.0977 23.735 17.6239 23.735C18.1195 23.735 18.6066 23.7729 19.0843 23.842C21.3441 19.3628 25.9916 16.2891 31.3603 16.2891C37.8565 16.2891 43.2987 20.791 44.7284 26.8393C44.8711 27.4431 44.9741 28.0618 45.0333 28.692V28.6936C49.107 28.7864 52.3828 32.1112 52.3828 36.2002Z" fill="#BAC7CB"/>
<g filter="url(#filter0_b_0_1213)">
<path d="M52.3828 36.2002C52.3828 40.3482 49.014 43.7109 44.8568 43.7109H17.6239C12.0977 43.7109 7.6172 39.2401 7.6172 33.7229C7.6172 28.2074 12.0977 23.735 17.6239 23.735C18.1195 23.735 18.6066 23.7729 19.0843 23.842C21.3441 19.3628 25.9916 16.2891 31.3603 16.2891C37.8565 16.2891 43.2987 20.791 44.7284 26.8393C44.8711 27.4431 44.9741 28.0618 45.0333 28.692V28.6936C49.107 28.7864 52.3828 32.1112 52.3828 36.2002Z" fill="url(#paint0_linear_0_1213)"/>
</g>
<g filter="url(#filter1_b_0_1213)">
<path fill-rule="evenodd" clip-rule="evenodd" d="M19.2176 24.0981L19.0507 24.074C18.5834 24.0064 18.1075 23.9693 17.6239 23.9693C12.2268 23.9693 7.85158 28.3372 7.85158 33.7229C7.85158 39.1103 12.2267 43.4766 17.6239 43.4766H44.8568C48.885 43.4766 52.1484 40.2183 52.1484 36.2002C52.1484 32.2393 48.9751 29.0179 45.0279 28.9279L44.7989 28.9227V28.7031C44.7406 28.0876 44.6397 27.4833 44.5003 26.8932C43.0951 20.9485 37.7457 16.5234 31.3603 16.5234C26.0833 16.5234 21.515 19.5444 19.2935 23.9476L19.2176 24.0981ZM45.0333 28.692V28.6936C49.107 28.7864 52.3828 32.1112 52.3828 36.2002C52.3828 40.3482 49.014 43.7109 44.8568 43.7109H17.6239C12.0977 43.7109 7.6172 39.2401 7.6172 33.7229C7.6172 28.2074 12.0977 23.735 17.6239 23.735C18.1195 23.735 18.6066 23.7729 19.0843 23.842C21.3441 19.3628 25.9916 16.2891 31.3603 16.2891C37.8565 16.2891 43.2987 20.791 44.7284 26.8393C44.8711 27.4431 44.9741 28.0618 45.0333 28.692Z" fill="url(#paint1_linear_0_1213)"/>
</g>
<defs>
<filter id="filter0_b_0_1213" x="-22.3828" y="-13.7109" width="104.766" height="87.4219" filterUnits="userSpaceOnUse" color-interpolation-filters="sRGB">
<feFlood flood-opacity="0" result="BackgroundImageFix"/>
<feGaussianBlur in="BackgroundImageFix" stdDeviation="15"/>
<feComposite in2="SourceAlpha" operator="in" result="effect1_backgroundBlur_0_1213"/>
<feBlend mode="normal" in="SourceGraphic" in2="effect1_backgroundBlur_0_1213" result="shape"/>
</filter>
<filter id="filter1_b_0_1213" x="-23.4206" y="-14.7488" width="106.841" height="89.4975" filterUnits="userSpaceOnUse" color-interpolation-filters="sRGB">
<feFlood flood-opacity="0" result="BackgroundImageFix"/>
<feGaussianBlur in="BackgroundImageFix" stdDeviation="15.5189"/>
<feComposite in2="SourceAlpha" operator="in" result="effect1_backgroundBlur_0_1213"/>
<feBlend mode="normal" in="SourceGraphic" in2="effect1_backgroundBlur_0_1213" result="shape"/>
</filter>
<linearGradient id="paint0_linear_0_1213" x1="14.707" y1="21.0938" x2="48.7723" y2="45.6627" gradientUnits="userSpaceOnUse">
<stop offset="0.416176" stop-color="white" stop-opacity="0.7"/>
<stop offset="1" stop-color="white" stop-opacity="0"/>
</linearGradient>
<linearGradient id="paint1_linear_0_1213" x1="4.1892" y1="23.5151" x2="20.2172" y2="35.0434" gradientUnits="userSpaceOnUse">
<stop stop-color="white"/>
<stop offset="1" stop-color="white" stop-opacity="0"/>
</linearGradient>
</defs>
</svg>
