<svg width="20" height="20" viewBox="0 0 20 20" fill="none" xmlns="http://www.w3.org/2000/svg">
<path d="M6.66667 6.30957V14.1667" stroke="#555555" stroke-width="1.5" stroke-linecap="round" stroke-linejoin="round"/>
<path d="M6.66667 6.30957C7.16687 5.99833 7.74422 5.83337 8.33334 5.83337C8.92246 5.83337 9.49981 5.99833 10 6.30957C10.5002 6.6208 11.0776 6.78576 11.6667 6.78576C12.2558 6.78576 12.8331 6.6208 13.3333 6.30957V11.1905C12.8331 11.5018 12.2558 11.6667 11.6667 11.6667C11.0776 11.6667 10.5002 11.5018 10 11.1905C9.49981 10.8793 8.92246 10.7143 8.33334 10.7143C7.74422 10.7143 7.16687 10.8793 6.66667 11.1905" stroke="#555555" stroke-width="1.5" stroke-linecap="round" stroke-linejoin="round"/>
<path d="M13.3333 17.5H6.66667C5.5616 17.5 4.50179 17.061 3.72039 16.2796C2.93899 15.4982 2.5 14.4384 2.5 13.3334V6.6667C2.5 5.56163 2.93899 4.50182 3.72039 3.72042C4.50179 2.93902 5.5616 2.50003 6.66667 2.50003H13.3333C14.4384 2.50003 15.4982 2.93902 16.2796 3.72042C17.061 4.50182 17.5 5.56163 17.5 6.6667V13.3334C17.5 14.4384 17.061 15.4982 16.2796 16.2796C15.4982 17.061 14.4384 17.5 13.3333 17.5Z" stroke="#555555" stroke-width="1.5" stroke-linecap="round" stroke-linejoin="round"/>
</svg>
