<svg width="20" height="20" viewBox="0 0 20 20" fill="none" xmlns="http://www.w3.org/2000/svg">
<path d="M12.9165 7.91673L9.1665 7.91663" stroke="#6D7988" stroke-width="1.5" stroke-linecap="round" stroke-linejoin="round"/>
<path d="M7.9165 9.16667C8.60686 9.16667 9.1665 8.60703 9.1665 7.91667C9.1665 7.22632 8.60686 6.66667 7.9165 6.66667C7.22615 6.66667 6.6665 7.22632 6.6665 7.91667C6.6665 8.60703 7.22615 9.16667 7.9165 9.16667Z" stroke="#6D7988" stroke-width="1.5" stroke-linecap="round" stroke-linejoin="round"/>
<path d="M7.0835 12.0833L10.8335 12.0834" stroke="#6D7988" stroke-width="1.5" stroke-linecap="round" stroke-linejoin="round"/>
<path d="M12.0835 13.3333C12.7739 13.3333 13.3335 12.7737 13.3335 12.0833C13.3335 11.393 12.7739 10.8333 12.0835 10.8333C11.3931 10.8333 10.8335 11.393 10.8335 12.0833C10.8335 12.7737 11.3931 13.3333 12.0835 13.3333Z" stroke="#6D7988" stroke-width="1.5" stroke-linecap="round" stroke-linejoin="round"/>
<path d="M13.3333 2.50002H6.66667C4.36548 2.50002 2.5 4.36549 2.5 6.66668V13.3333C2.5 15.6345 4.36548 17.5 6.66667 17.5H13.3333C15.6345 17.5 17.5 15.6345 17.5 13.3333V6.66668C17.5 4.36549 15.6345 2.50002 13.3333 2.50002Z" stroke="#6D7988" stroke-width="1.5" stroke-linecap="round" stroke-linejoin="round"/>
</svg>
