<svg width="98" height="28" viewBox="0 0 98 28" fill="none" xmlns="http://www.w3.org/2000/svg">
<path d="M80 5.65663C80 5.52678 80.1218 5.43135 80.2479 5.46245L83 6.14128V20.4013L80.1368 19.4469C80.0551 19.4197 80 19.3432 80 19.2572V5.65663Z" fill="#F0BF24"/>
<path d="M80 15.25L83 15.99V20.4013L80.1368 19.4469C80.0551 19.4197 80 19.3432 80 19.2571V15.25Z" fill="#ED9300"/>
<path d="M91.3213 19.2029H1.31732V22.615H91.3213V19.2029Z" fill="#332C24"/>
<path d="M38.5247 19.9779H31.3956C30.6387 19.9779 30.0251 20.5607 30.0251 21.2797V21.9309C30.0251 22.6498 30.6387 23.2327 31.3956 23.2327H38.5247C39.2816 23.2327 39.8952 22.6498 39.8952 21.9309V21.2797C39.8952 20.5607 39.2816 19.9779 38.5247 19.9779Z" fill="#51504F"/>
<path d="M52.9477 26.0052C54.3407 24.682 54.3407 22.5367 52.9477 21.2135C51.5546 19.8903 49.2961 19.8903 47.9031 21.2135C46.51 22.5367 46.51 24.682 47.9031 26.0052C49.2961 27.3284 51.5546 27.3284 52.9477 26.0052Z" fill="#262728"/>
<path d="M50.4255 26.7914C52.2755 26.7914 53.7753 25.3668 53.7753 23.6095C53.7753 21.8521 52.2755 20.4276 50.4255 20.4276C48.5754 20.4276 47.0756 21.8521 47.0756 23.6095C47.0756 25.3668 48.5754 26.7914 50.4255 26.7914Z" fill="#343435"/>
<path d="M50.4254 26.3791C52.0358 26.3791 53.3413 25.1391 53.3413 23.6095C53.3413 22.0798 52.0358 20.8398 50.4254 20.8398C48.815 20.8398 47.5096 22.0798 47.5096 23.6095C47.5096 25.1391 48.815 26.3791 50.4254 26.3791Z" fill="#171819"/>
<path d="M51.0453 26.1089C52.4972 25.7834 53.3964 24.4015 53.0537 23.0224C52.711 21.6433 51.2562 20.7892 49.8043 21.1147C48.3524 21.4402 47.4532 22.822 47.7959 24.2012C48.1386 25.5803 49.5934 26.4344 51.0453 26.1089Z" fill="#FFCB27"/>
<path opacity="0.43" d="M52.7476 24.5233C53.2788 23.3051 52.6698 21.9084 51.3873 21.4038C50.1047 20.8992 48.6344 21.4777 48.1032 22.6959C47.5719 23.9142 48.181 25.3108 49.4635 25.8154C50.746 26.32 52.2163 25.7415 52.7476 24.5233Z" fill="#DB620F"/>
<path d="M52.5204 24.434C52.9997 23.3349 52.4503 22.0749 51.2932 21.6197C50.1361 21.1644 48.8096 21.6863 48.3304 22.7854C47.8511 23.8844 48.4006 25.1444 49.5576 25.5997C50.7147 26.0549 52.0412 25.533 52.5204 24.434Z" fill="#FFCB27"/>
<path d="M51.1246 25.213C52.0569 24.8463 52.4995 23.8311 52.1134 22.9456C51.7273 22.0601 50.6585 21.6396 49.7263 22.0064C48.7941 22.3732 48.3514 23.3884 48.7376 24.2738C49.1237 25.1593 50.1924 25.5798 51.1246 25.213Z" fill="#DB620F"/>
<path d="M51.3293 23.9653C51.5361 23.4911 51.2991 22.9474 50.7998 22.751C50.3006 22.5546 49.7282 22.7798 49.5215 23.254C49.3147 23.7282 49.5517 24.2718 50.051 24.4683C50.5502 24.6647 51.1226 24.4395 51.3293 23.9653Z" fill="#FFCB27"/>
<path opacity="0.29" d="M53.5028 23.1768C53.4466 23.1768 53.3986 23.1375 53.3878 23.0836C53.123 21.7293 51.8772 20.747 50.426 20.747C48.9747 20.747 47.7289 21.7298 47.4641 23.0836C47.4534 23.1375 47.4053 23.1768 47.3491 23.1768H47.3435C47.3087 23.1768 47.276 23.1622 47.254 23.137C47.2315 23.1117 47.2223 23.0782 47.229 23.0457C47.5127 21.5822 48.8576 20.5203 50.4265 20.5203C51.9953 20.5203 53.3398 21.5822 53.624 23.0457C53.6301 23.0782 53.6209 23.1112 53.5989 23.137C53.5764 23.1622 53.5442 23.1768 53.5095 23.1768H53.5039H53.5028Z" fill="white"/>
<path d="M60.4222 26.005C61.8152 24.6818 61.8152 22.5364 60.4222 21.2132C59.0291 19.89 56.7706 19.89 55.3775 21.2132C53.9845 22.5364 53.9845 24.6818 55.3775 26.005C56.7706 27.3282 59.0291 27.3282 60.4222 26.005Z" fill="#262728"/>
<path d="M57.8996 26.7914C59.7496 26.7914 61.2494 25.3668 61.2494 23.6095C61.2494 21.8521 59.7496 20.4276 57.8996 20.4276C56.0495 20.4276 54.5497 21.8521 54.5497 23.6095C54.5497 25.3668 56.0495 26.7914 57.8996 26.7914Z" fill="#343435"/>
<path d="M57.8996 26.3792C59.51 26.3792 60.8154 25.1392 60.8154 23.6095C60.8154 22.0799 59.51 20.8398 57.8996 20.8398C56.2892 20.8398 54.9838 22.0799 54.9838 23.6095C54.9838 25.1392 56.2892 26.3792 57.8996 26.3792Z" fill="#171819"/>
<path d="M58.5195 26.1092C59.9714 25.7837 60.8706 24.4018 60.5279 23.0227C60.1852 21.6435 58.7304 20.7894 57.2785 21.1149C55.8266 21.4404 54.9274 22.8223 55.2701 24.2014C55.6128 25.5805 57.0676 26.4347 58.5195 26.1092Z" fill="#FFCB27"/>
<path opacity="0.43" d="M60.2219 24.5228C60.7531 23.3046 60.1441 21.9079 58.8616 21.4033C57.5791 20.8987 56.1087 21.4772 55.5775 22.6955C55.0463 23.9137 55.6553 25.3103 56.9378 25.8149C58.2203 26.3195 59.6906 25.741 60.2219 24.5228Z" fill="#DB620F"/>
<path d="M59.9947 24.4334C60.474 23.3344 59.9246 22.0744 58.7675 21.6191C57.6104 21.1639 56.2839 21.6858 55.8047 22.7848C55.3254 23.8839 55.8749 25.1439 57.0319 25.5991C58.189 26.0544 59.5155 25.5325 59.9947 24.4334Z" fill="#FFCB27"/>
<path d="M58.5989 25.2129C59.5311 24.8461 59.9738 23.831 59.5876 22.9455C59.2015 22.06 58.1328 21.6395 57.2006 22.0063C56.2683 22.3731 55.8257 23.3882 56.2118 24.2737C56.5979 25.1592 57.6667 25.5797 58.5989 25.2129Z" fill="#DB620F"/>
<path d="M58.8036 23.9648C59.0104 23.4906 58.7734 22.9469 58.2741 22.7505C57.7749 22.5541 57.2026 22.7793 56.9958 23.2535C56.789 23.7277 57.026 24.2714 57.5253 24.4678C58.0245 24.6642 58.5969 24.439 58.8036 23.9648Z" fill="#FFCB27"/>
<path opacity="0.29" d="M60.9765 23.1769C60.9202 23.1769 60.8722 23.1375 60.8614 23.0836C60.5967 21.7294 59.3509 20.7471 57.8996 20.7471C56.4483 20.7471 55.2026 21.7299 54.9378 23.0836C54.927 23.1375 54.879 23.1769 54.8227 23.1769H54.8171C54.7824 23.1769 54.7496 23.1623 54.7277 23.137C54.7052 23.1118 54.696 23.0783 54.7026 23.0458C54.9863 21.5823 56.3313 20.5203 57.9001 20.5203C59.469 20.5203 60.8134 21.5823 61.0976 23.0458C61.1038 23.0783 61.0946 23.1113 61.0726 23.137C61.0501 23.1623 61.0179 23.1769 60.9831 23.1769H60.9775H60.9765Z" fill="white"/>
<path d="M58.4062 19.3195H49.9112C47.6241 19.3195 45.7639 21.0869 45.7639 23.2589V24.3528H46.6207V23.2589C46.6207 21.5351 48.097 20.1333 49.9112 20.1333H58.4062C60.2209 20.1333 61.6967 21.5356 61.6967 23.2589V24.3528H62.5535V23.2589C62.5535 21.0864 60.6928 19.3195 58.4062 19.3195Z" fill="#51504F"/>
<path d="M13.4504 26.0054C14.8434 24.6822 14.8434 22.5369 13.4504 21.2137C12.0573 19.8905 9.79878 19.8905 8.40574 21.2137C7.0127 22.5369 7.0127 24.6822 8.40574 26.0054C9.79878 27.3286 12.0573 27.3286 13.4504 26.0054Z" fill="#262728"/>
<path d="M10.9278 26.7913C12.7778 26.7913 14.2776 25.3667 14.2776 23.6094C14.2776 21.8521 12.7778 20.4275 10.9278 20.4275C9.07772 20.4275 7.57794 21.8521 7.57794 23.6094C7.57794 25.3667 9.07772 26.7913 10.9278 26.7913Z" fill="#343435"/>
<path d="M10.9277 26.3791C12.5381 26.3791 13.8436 25.1391 13.8436 23.6095C13.8436 22.0798 12.5381 20.8398 10.9277 20.8398C9.31737 20.8398 8.0119 22.0798 8.0119 23.6095C8.0119 25.1391 9.31737 26.3791 10.9277 26.3791Z" fill="#171819"/>
<path d="M11.5471 26.1073C12.999 25.7818 13.8982 24.4 13.5555 23.0208C13.2129 21.6417 11.7581 20.7876 10.3062 21.1131C8.85425 21.4386 7.95504 22.8205 8.29772 24.1996C8.6404 25.5787 10.0952 26.4328 11.5471 26.1073Z" fill="#FFCB27"/>
<path opacity="0.43" d="M13.2502 24.523C13.7814 23.3048 13.1724 21.9082 11.8899 21.4036C10.6074 20.899 9.13704 21.4775 8.60581 22.6957C8.07457 23.9139 8.6836 25.3106 9.96612 25.8152C11.2486 26.3198 12.719 25.7413 13.2502 24.523Z" fill="#DB620F"/>
<path d="M13.0231 24.4337C13.5023 23.3346 12.9529 22.0746 11.7958 21.6193C10.6388 21.1641 9.31227 21.686 8.833 22.7851C8.35373 23.8841 8.90319 25.1441 10.0602 25.5994C11.2173 26.0546 12.5438 25.5327 13.0231 24.4337Z" fill="#FFCB27"/>
<path d="M11.6267 25.2127C12.5589 24.846 13.0016 23.8308 12.6155 22.9453C12.2293 22.0598 11.1606 21.6393 10.2284 22.0061C9.29618 22.3729 8.85349 23.3881 9.23963 24.2735C9.62576 25.159 10.6945 25.5795 11.6267 25.2127Z" fill="#DB620F"/>
<path d="M11.832 23.965C12.0388 23.4908 11.8017 22.9471 11.3025 22.7507C10.8032 22.5543 10.2309 22.7795 10.0241 23.2537C9.81729 23.7279 10.0544 24.2715 10.5536 24.468C11.0528 24.6644 11.6252 24.4392 11.832 23.965Z" fill="#FFCB27"/>
<path opacity="0.29" d="M14.0046 23.1768C13.9484 23.1768 13.9003 23.1375 13.8896 23.0836C13.6248 21.7293 12.379 20.747 10.9277 20.747C9.47647 20.747 8.2307 21.7298 7.9659 23.0836C7.95517 23.1375 7.90711 23.1768 7.85088 23.1768H7.84526C7.8105 23.1768 7.77778 23.1622 7.7558 23.137C7.73331 23.1117 7.72411 23.0782 7.73075 23.0457C8.01446 21.5822 9.35941 20.5203 10.9283 20.5203C12.4971 20.5203 13.8415 21.5822 14.1258 23.0457C14.1319 23.0782 14.1227 23.1112 14.1007 23.137C14.0782 23.1622 14.046 23.1768 14.0113 23.1768H14.0056H14.0046Z" fill="white"/>
<path d="M20.9243 26.0052C22.3173 24.682 22.3173 22.5366 20.9243 21.2134C19.5313 19.8902 17.2727 19.8902 15.8797 21.2134C14.4866 22.5366 14.4866 24.682 15.8797 26.0052C17.2727 27.3284 19.5313 27.3284 20.9243 26.0052Z" fill="#262728"/>
<path d="M18.4019 26.7914C20.252 26.7914 21.7517 25.3668 21.7517 23.6095C21.7517 21.8521 20.252 20.4276 18.4019 20.4276C16.5518 20.4276 15.0521 21.8521 15.0521 23.6095C15.0521 25.3668 16.5518 26.7914 18.4019 26.7914Z" fill="#343435"/>
<path d="M18.4019 26.3791C20.0123 26.3791 21.3178 25.1391 21.3178 23.6095C21.3178 22.0798 20.0123 20.8398 18.4019 20.8398C16.7915 20.8398 15.4861 22.0798 15.4861 23.6095C15.4861 25.1391 16.7915 26.3791 18.4019 26.3791Z" fill="#171819"/>
<path d="M19.0213 26.1076C20.4732 25.7821 21.3724 24.4002 21.0297 23.0211C20.687 21.6419 19.2322 20.7878 17.7803 21.1133C16.3284 21.4388 15.4292 22.8207 15.7719 24.1998C16.1146 25.5789 17.5694 26.4331 19.0213 26.1076Z" fill="#FFCB27"/>
<path opacity="0.43" d="M20.724 24.523C21.2552 23.3048 20.6462 21.9082 19.3636 21.4036C18.0811 20.899 16.6108 21.4775 16.0796 22.6957C15.5483 23.9139 16.1574 25.3106 17.4399 25.8152C18.7224 26.3198 20.1927 25.7413 20.724 24.523Z" fill="#DB620F"/>
<path d="M20.4968 24.4337C20.976 23.3346 20.4266 22.0746 19.2695 21.6193C18.1125 21.1641 16.786 21.686 16.3067 22.7851C15.8274 23.8841 16.3769 25.1441 17.5339 25.5994C18.691 26.0546 20.0175 25.5327 20.4968 24.4337Z" fill="#FFCB27"/>
<path d="M19.1009 25.2127C20.0331 24.8459 20.4758 23.8307 20.0897 22.9453C19.7035 22.0598 18.6348 21.6393 17.7026 22.0061C16.7704 22.3728 16.3277 23.388 16.7138 24.2735C17.0999 25.159 18.1687 25.5795 19.1009 25.2127Z" fill="#DB620F"/>
<path d="M19.3057 23.965C19.5125 23.4908 19.2754 22.9471 18.7761 22.7507C18.2769 22.5543 17.7046 22.7795 17.4978 23.2537C17.291 23.7279 17.5281 24.2715 18.0273 24.468C18.5265 24.6644 19.0989 24.4392 19.3057 23.965Z" fill="#FFCB27"/>
<path opacity="0.29" d="M21.4788 23.1768C21.4226 23.1768 21.3745 23.1375 21.3638 23.0836C21.099 21.7293 19.8532 20.747 18.4019 20.747C16.9507 20.747 15.7049 21.7298 15.4401 23.0836C15.4293 23.1375 15.3813 23.1768 15.3251 23.1768H15.3194C15.2847 23.1768 15.252 23.1622 15.23 23.137C15.2075 23.1117 15.1983 23.0782 15.2049 23.0457C15.4886 21.5822 16.8336 20.5203 18.4024 20.5203C19.9713 20.5203 21.3157 21.5822 21.5999 23.0457C21.6061 23.0782 21.5969 23.1112 21.5749 23.137C21.5524 23.1622 21.5202 23.1768 21.4854 23.1768H21.4798H21.4788Z" fill="white"/>
<path d="M18.9084 19.3195H10.4135C8.1264 19.3195 6.26617 21.0869 6.26617 23.2589V24.3528H7.12293V23.2589C7.12293 21.5351 8.59925 20.1333 10.4135 20.1333H18.9084C20.7232 20.1333 22.199 21.5356 22.199 23.2589V24.3528H23.0557V23.2589C23.0557 21.0864 21.195 19.3195 18.9084 19.3195Z" fill="#51504F"/>
<g style="mix-blend-mode:multiply" opacity="0.51">
<path d="M38.723 22.5364H36.9481L36.7498 19.9779V22.5364H36.2969V19.9779L36.0985 22.5364H33.8217L33.6234 19.9779V22.5364H33.1704V19.9779L32.9721 22.5364H31.1972C30.5501 22.5364 30.0251 22.0382 30.0251 21.423V22.1188C30.0251 22.7335 30.5496 23.2322 31.1972 23.2322H38.7235C39.3707 23.2322 39.8957 22.734 39.8957 22.1188V21.423C39.8957 22.0377 39.3712 22.5364 38.7235 22.5364H38.723Z" fill="#51504F"/>
</g>
<path d="M33.6228 19.8448H33.1699V23.3657H33.6228V19.8448Z" fill="#51504F"/>
<path d="M36.7498 19.8448H36.2969V23.3657H36.7498V19.8448Z" fill="#51504F"/>
<path d="M97.2138 15.7122H82.7103V22.6252H97.2138V15.7122Z" fill="#332C24"/>
<path d="M86.7712 18.864H88.7204C90.7472 18.864 92.3923 20.4271 92.3923 22.3518V22.6325H83.0993V22.3518C83.0993 20.4266 84.7448 18.864 86.7712 18.864Z" fill="#161412"/>
<path d="M86.0131 8.1228H96.6249L97.6258 14.675L97.1575 14.592C96.8835 14.5435 96.6688 14.3434 96.6101 14.088L86.0131 11.3241V8.12329V8.1228Z" fill="#332C24"/>
<path d="M91.2843 24.1541C91.5999 22.307 90.2794 20.5665 88.3348 20.2667C86.3902 19.9669 84.5579 21.2212 84.2422 23.0683C83.9266 24.9154 85.2471 26.6559 87.1917 26.9557C89.1363 27.2556 90.9686 26.0012 91.2843 24.1541Z" fill="#262728"/>
<path d="M87.7593 26.7913C89.6094 26.7913 91.1092 25.3667 91.1092 23.6094C91.1092 21.8521 89.6094 20.4275 87.7593 20.4275C85.9093 20.4275 84.4095 21.8521 84.4095 23.6094C84.4095 25.3667 85.9093 26.7913 87.7593 26.7913Z" fill="#343435"/>
<path d="M87.7593 26.3791C89.3697 26.3791 90.6751 25.1391 90.6751 23.6095C90.6751 22.0798 89.3697 20.8398 87.7593 20.8398C86.1489 20.8398 84.8434 22.0798 84.8434 23.6095C84.8434 25.1391 86.1489 26.3791 87.7593 26.3791Z" fill="#171819"/>
<path d="M90.4399 23.8594C90.5868 22.4492 89.5024 21.193 88.0178 21.0535C86.5333 20.914 85.2107 21.944 85.0639 23.3542C84.917 24.7643 86.0014 26.0205 87.4859 26.16C88.9705 26.2995 90.293 25.2695 90.4399 23.8594Z" fill="#FFCB27"/>
<path opacity="0.46" d="M90.0817 24.5229C90.613 23.3047 90.0039 21.908 88.7214 21.4034C87.4389 20.8988 85.9686 21.4773 85.4374 22.6956C84.9061 23.9138 85.5151 25.3104 86.7977 25.815C88.0802 26.3196 89.5505 25.7411 90.0817 24.5229Z" fill="#DB620F"/>
<path d="M88.28 25.7099C89.4989 25.4366 90.2538 24.2765 89.9661 23.1187C89.6784 21.9609 88.4571 21.2439 87.2382 21.5171C86.0193 21.7904 85.2644 22.9505 85.5521 24.1083C85.8398 25.2661 87.0611 25.9831 88.28 25.7099Z" fill="#FFCB27"/>
<path opacity="0.29" d="M84.6825 23.1768C84.7387 23.1768 84.7867 23.1375 84.7975 23.0836C85.0623 21.7293 86.3081 20.747 87.7593 20.747C89.2106 20.747 90.4564 21.7298 90.7212 23.0836C90.7319 23.1375 90.78 23.1768 90.8362 23.1768H90.8418C90.8766 23.1768 90.9093 23.1622 90.9313 23.137C90.9538 23.1117 90.963 23.0782 90.9563 23.0457C90.6726 21.5822 89.3277 20.5203 87.7588 20.5203C86.19 20.5203 84.8455 21.5822 84.5613 23.0457C84.5552 23.0782 84.5644 23.1112 84.5864 23.137C84.6088 23.1622 84.6411 23.1768 84.6758 23.1768H84.6814H84.6825Z" fill="white"/>
<path d="M89.0585 24.8433C89.776 24.1618 89.7759 23.0568 89.0585 22.3753C88.341 21.6938 87.1777 21.6938 86.4602 22.3753C85.7428 23.0568 85.7428 24.1618 86.4602 24.8433C87.1777 25.5248 88.341 25.5248 89.0585 24.8433Z" fill="#DB620F"/>
<g style="mix-blend-mode:multiply">
<path d="M88.3299 25.0552C89.0908 24.7558 89.4521 23.9273 89.137 23.2046C88.8218 22.4818 87.9495 22.1387 87.1887 22.438C86.4278 22.7374 86.0665 23.5659 86.3817 24.2886C86.6968 25.0113 87.5691 25.3545 88.3299 25.0552Z" fill="#E0790A"/>
</g>
<path d="M87.7593 24.9442C88.5354 24.9442 89.1645 24.3466 89.1645 23.6094C89.1645 22.8722 88.5354 22.2746 87.7593 22.2746C86.9832 22.2746 86.354 22.8722 86.354 23.6094C86.354 24.3466 86.9832 24.9442 87.7593 24.9442Z" fill="#FFC431"/>
<path d="M86.7687 23.81C86.8853 23.81 86.9799 23.7202 86.9799 23.6094C86.9799 23.4987 86.8853 23.4089 86.7687 23.4089C86.6521 23.4089 86.5576 23.4987 86.5576 23.6094C86.5576 23.7202 86.6521 23.81 86.7687 23.81Z" fill="#FF9D00"/>
<path d="M88.7507 23.81C88.8673 23.81 88.9618 23.7202 88.9618 23.6094C88.9618 23.4987 88.8673 23.4089 88.7507 23.4089C88.6341 23.4089 88.5396 23.4987 88.5396 23.6094C88.5396 23.7202 88.6341 23.81 88.7507 23.81Z" fill="#FF9D00"/>
<path d="M87.7595 22.8684C87.8761 22.8684 87.9706 22.7786 87.9706 22.6679C87.9706 22.5571 87.8761 22.4673 87.7595 22.4673C87.6429 22.4673 87.5483 22.5571 87.5483 22.6679C87.5483 22.7786 87.6429 22.8684 87.7595 22.8684Z" fill="#FF9D00"/>
<path d="M87.7595 24.751C87.8761 24.751 87.9706 24.6612 87.9706 24.5505C87.9706 24.4397 87.8761 24.3499 87.7595 24.3499C87.6429 24.3499 87.5483 24.4397 87.5483 24.5505C87.5483 24.6612 87.6429 24.751 87.7595 24.751Z" fill="#FF9D00"/>
<path d="M87.2078 23.0855C87.1255 23.1637 86.9916 23.1637 86.9093 23.0855C86.827 23.0073 86.827 22.8801 86.9093 22.8019C86.9916 22.7237 87.1255 22.7237 87.2078 22.8019C87.2901 22.8801 87.2901 23.0073 87.2078 23.0855Z" fill="#FF9D00"/>
<path d="M88.4601 24.4752C88.5767 24.4752 88.6713 24.3854 88.6713 24.2746C88.6713 24.1639 88.5767 24.0741 88.4601 24.0741C88.3435 24.0741 88.249 24.1639 88.249 24.2746C88.249 24.3854 88.3435 24.4752 88.4601 24.4752Z" fill="#FF9D00"/>
<path d="M88.3109 23.0855C88.2286 23.0073 88.2286 22.8801 88.3109 22.8019C88.3932 22.7237 88.5271 22.7237 88.6094 22.8019C88.6917 22.8801 88.6917 23.0073 88.6094 23.0855C88.5271 23.1637 88.3932 23.1637 88.3109 23.0855Z" fill="#FF9D00"/>
<path d="M86.9097 24.4164C86.8274 24.3382 86.8274 24.211 86.9097 24.1329C86.9921 24.0547 87.126 24.0547 87.2083 24.1329C87.2906 24.211 87.2906 24.3382 87.2083 24.4164C87.126 24.4946 86.9921 24.4946 86.9097 24.4164Z" fill="#FF9D00"/>
<path d="M95.1332 12.5298L89.0117 11.4548C88.5808 11.379 88.2679 11.0221 88.2679 10.606V7.14923H94.3266L95.1332 12.5303V12.5298Z" fill="#46ABD3"/>
<g style="mix-blend-mode:multiply">
<path d="M90.7058 11.1785C90.2749 11.1027 89.962 10.7458 89.962 10.3297V7.14874H88.2679V10.6055C88.2679 11.0216 88.5808 11.3785 89.0117 11.4543L95.1332 12.5293L95.0448 11.9403L90.7058 11.178V11.1785Z" fill="#46ABD3"/>
</g>
<path d="M98 18.2629V14.0622C98 13.683 97.7152 13.3577 97.3226 13.2887L86.4798 11.3843C86.2093 11.3367 86.0136 11.1129 86.0136 10.8522V8.66419C86.0136 8.36508 86.2686 8.12278 86.5835 8.12278H97.4121C97.1069 7.27644 96.3713 6.635 95.4573 6.41893L94.3117 6.14798C91.2937 5.43371 88.1948 5.07245 85.0847 5.07245H82.7108V17.5321H89.8322C90.9108 17.5321 91.9224 18.0283 92.5466 18.864H97.3666C97.7163 18.864 98 18.5945 98 18.2624V18.2629Z" fill="#FFCB27"/>
<g style="mix-blend-mode:multiply">
<path d="M97.4694 14.1288L97.4929 14.2074L97.7086 14.29L97.794 14.7785L98 14.8217V14.2414L97.4694 14.1288Z" fill="#013F3F"/>
</g>
<g style="mix-blend-mode:multiply">
<path d="M97.4694 15.246L97.4929 15.3247L97.7086 15.4068L97.794 15.8957L98 15.9385V15.3587L97.4694 15.246Z" fill="#013F3F"/>
</g>
<g style="mix-blend-mode:multiply">
<path d="M97.4694 16.3794L97.4929 16.4581L97.7086 16.5406L97.794 17.0296L98 17.0723V16.492L97.4694 16.3794Z" fill="#013F3F"/>
</g>
<g style="mix-blend-mode:multiply">
<path d="M97.4694 17.5132L97.4929 17.5918L97.7086 17.6744L97.794 18.1629L98 18.2061V17.6258L97.4694 17.5132Z" fill="#013F3F"/>
</g>
<path d="M88.5854 14.9746H90.028C90.1979 14.9746 90.3357 14.8437 90.3357 14.6823V14.2681C90.3357 14.1067 90.1979 13.9758 90.028 13.9758H88.5854C88.4154 13.9758 88.2776 14.1067 88.2776 14.2681V14.6823C88.2776 14.8437 88.4154 14.9746 88.5854 14.9746Z" fill="#DB620F"/>
<path d="M88.6396 14.5638H89.9738C90.1073 14.5638 90.2156 14.461 90.2156 14.3342V14.2968C90.2156 14.1699 90.1073 14.0671 89.9738 14.0671H88.6396C88.506 14.0671 88.3978 14.1699 88.3978 14.2968V14.3342C88.3978 14.461 88.506 14.5638 88.6396 14.5638Z" fill="#FFC200"/>
<path d="M96.7491 24.4111H92.5149V20.8398H97.3902C97.7265 20.8398 98 21.0991 98 21.4191V23.2234C98 23.879 97.4397 24.4116 96.7491 24.4116V24.4111Z" fill="#332C24"/>
<path d="M97.1928 23.6526H97.2347C97.3776 23.6526 97.4934 23.5426 97.4934 23.407V21.7021C97.4934 21.5664 97.3776 21.4564 97.2347 21.4564H97.1928C97.05 21.4564 96.9342 21.5664 96.9342 21.7021V23.407C96.9342 23.5426 97.05 23.6526 97.1928 23.6526Z" fill="white"/>
<path d="M92.6478 21.8935H95.8315V21.3943H92.6478V21.8935Z" fill="#51504F"/>
<path d="M92.6484 22.4339H95.2913V21.8935H92.6484V22.4339Z" fill="#231D17"/>
<path d="M92.6484 23.473H95.2913V22.9326H92.6484V23.473Z" fill="#231D17"/>
<path d="M92.6478 22.9331H95.8315V22.4339H92.6478V22.9331Z" fill="#51504F"/>
<path d="M92.6478 23.9722H95.8315V23.473H92.6478V23.9722Z" fill="#51504F"/>
<path d="M86.7134 18.1429H88.7832C90.9941 18.1429 92.7864 19.8453 92.7864 21.9454V24.4111H92.1269V23.0564C92.1269 20.9563 90.3347 19.2539 88.1238 19.2539H87.3728C85.1619 19.2539 83.3697 20.9563 83.3697 23.0564V24.4111H82.7103V21.9454C82.7103 19.8453 84.5025 18.1429 86.7134 18.1429Z" fill="#51504F"/>
<path opacity="0.29" d="M86.7134 18.1429H88.7832C90.9941 18.1429 92.7864 19.8453 92.7864 21.9454V22.5553C92.7864 20.4552 90.9941 18.7528 88.7832 18.7528H86.7134C84.5025 18.7528 82.7103 20.4552 82.7103 22.5553V21.9454C82.7103 19.8453 84.5025 18.1429 86.7134 18.1429Z" fill="white"/>
<path d="M95.2544 8.1228L95.8356 12.0102C95.8985 12.423 96.2313 12.7517 96.6627 12.8279L97.3579 12.9513L96.6346 8.12231H95.2544V8.1228Z" fill="#46ABD3"/>
<path opacity="0.4" d="M96.6306 8.1228H95.918L96.4736 11.8379C96.5365 12.2506 96.8693 12.5793 97.3007 12.6556L97.3099 12.657L96.6306 8.12231V8.1228Z" fill="white"/>
<path d="M95.5718 18.4197H92.9049L92.8978 18.4076C92.6555 18.0133 91.8652 17.0961 89.7683 17.0961H87.5415V8.1223H87.5926V17.0475H89.7683C91.8708 17.0475 92.6795 17.9628 92.9346 18.3707H95.5212V12.993L94.7943 8.12569L94.8449 8.1189L95.5718 12.9896V18.4192V18.4197Z" fill="#EF980C"/>
<path opacity="0.4" d="M95.4573 6.41893L94.3117 6.14798C91.2937 5.43371 88.1948 5.07245 85.0847 5.07245H82.7108L83.1299 5.2691C84.9672 6.1305 86.9884 7.14873 89.0373 7.14873H96.7859C96.4296 6.79718 95.9711 6.54032 95.4573 6.41893Z" fill="white"/>
<g style="mix-blend-mode:multiply">
<path d="M96.3059 18.864C96.3059 17.989 95.6506 17.2379 94.7452 17.0752L82.7103 14.913V17.5321H89.8317C90.9103 17.5321 91.9219 18.0284 92.5461 18.864H96.3054H96.3059Z" fill="#FFCB27"/>
</g>
<path d="M76 17H0V18H76V17Z" fill="#51504F"/>
<path d="M17 16H13V17H17V16Z" fill="#171819"/>
<path d="M29 16H25V17H29V16Z" fill="#171819"/>
<path d="M35 16H31V17H35V16Z" fill="#171819"/>
<path d="M47 16H43V17H47V16Z" fill="#171819"/>
<path d="M53 16H49V17H53V16Z" fill="#171819"/>
<path d="M65 16H61V17H65V16Z" fill="#171819"/>
<path d="M76 18H0V19H76V18Z" fill="#332C24"/>
<path d="M1.3291 20.412H1.00909V22.6155H1.3291V20.412Z" fill="#332C24"/>
<path d="M1.00909 20.412H0.689087V22.6155H1.00909V20.412Z" fill="#B73030"/>
<circle cx="57" cy="9" r="9" fill="#E0C6A7"/>
<circle cx="57" cy="9" r="7.7" stroke="#EDE3D7" stroke-width="0.6"/>
<circle cx="57" cy="9" r="2" fill="#4E4948"/>
<circle cx="39" cy="9" r="9" fill="#E0C6A7"/>
<circle cx="39" cy="9" r="7.7" stroke="#EDE3D7" stroke-width="0.6"/>
<circle cx="39" cy="9" r="2" fill="#4E4948"/>
<circle cx="21" cy="9" r="9" fill="#E0C6A7"/>
<circle cx="21" cy="9" r="7.7" stroke="#EDE3D7" stroke-width="0.6"/>
<circle cx="21" cy="9" r="2" fill="#4E4948"/>
</svg>
