<svg width="16" height="8" viewBox="0 0 16 8" fill="none" xmlns="http://www.w3.org/2000/svg">
<mask id="mask0_210_4320" style="mask-type:luminance" maskUnits="userSpaceOnUse" x="0" y="0" width="16" height="8">
<path d="M16 0H0V8H16V0Z" fill="white"/>
</mask>
<g mask="url(#mask0_210_4320)">
<path fill="#ffffff" d="M7.49654 7.49789C6.32543 5.25451 3.25449 0 0.183594 0H15.8011C12.7301 0 9.65925 5.25451 8.48813 7.49789C8.2821 7.89258 7.70258 7.89258 7.49654 7.49789Z" />
<path fill="#555555" fill-rule="evenodd" clip-rule="evenodd" d="M7.99235 6.22847C8.62385 5.08842 9.54768 3.56947 10.642 2.22556C10.9694 1.82344 12.1906 0.367598 12.5578 0H3.27715C3.64431 0.367598 5.01527 1.82344 5.34271 2.22556C6.43702 3.56947 7.36074 5.08842 7.99235 6.22847ZM2.73075 1.06173C1.90982 0.415082 1.04671 0 0.183594 0H15.8011C14.938 0 14.0749 0.415082 13.2539 1.06173C11.1541 2.71582 9.3301 5.88502 8.48813 7.49789C8.2821 7.89258 7.70258 7.89258 7.49654 7.49789C6.6546 5.88502 4.83064 2.71582 2.73075 1.06173Z" />
</g>
</svg>
