<svg width="191" height="17" viewBox="0 0 191 17" fill="none" xmlns="http://www.w3.org/2000/svg">
<path d="M2.64179 13.9087C1.73451 13.9087 1.06739 13.8686 0.640433 13.7885C0.213478 13.7083 0 13.6149 0 13.508L0.800541 11.7651C1.10742 11.8185 1.86793 11.8719 3.08208 11.9254C4.30958 11.9654 5.99072 11.9855 8.12549 11.9855H8.50575C9.07947 11.9855 9.48641 11.8853 9.72657 11.685C9.96673 11.4713 10.0868 11.1174 10.0868 10.6232V10.2225C10.0868 9.75509 9.98675 9.4212 9.78661 9.22086C9.59982 9.02053 9.17287 8.92036 8.50575 8.92036H3.86261C2.51503 8.92036 1.53437 8.67328 0.920622 8.17912C0.306874 7.67161 0 6.85024 0 5.71502V5.39448C0 4.80684 0.106739 4.26594 0.320216 3.77178C0.547036 3.27762 0.927293 2.88363 1.46099 2.58981C1.99468 2.28263 2.72851 2.12904 3.66247 2.12904H9.10615C10.0134 2.12904 10.7473 2.17579 11.3076 2.26928C11.868 2.36277 12.1482 2.46293 12.1482 2.56978L11.7479 4.25258C11.401 4.21251 10.6138 4.17245 9.38634 4.13238C8.15885 4.07896 6.51107 4.05225 4.443 4.05225L4.22285 4.03221C3.60911 4.03221 3.19549 4.15909 2.98202 4.41285C2.76854 4.65325 2.65513 4.96043 2.64179 5.33438V5.67495C2.64179 6.11569 2.76187 6.44958 3.00203 6.67662C3.25553 6.89031 3.66915 6.99715 4.24287 6.99715H8.68587C9.53978 6.99715 10.2669 7.08397 10.8673 7.25759C11.4677 7.43121 11.9281 7.75175 12.2483 8.21919C12.5685 8.67328 12.7286 9.34774 12.7286 10.2426V10.5631C12.7286 11.5648 12.4684 12.3728 11.9481 12.9871C11.4411 13.6015 10.5538 13.9087 9.28628 13.9087H2.64179Z" fill="#005C9C"/>
<path d="M15.7278 13.9087V3.73171L15.5277 2.12904H18.5697L23.0928 10.1424L27.776 2.12904H30.4778V13.9087H27.836V6.43622H27.6158L26.8353 8.17912L24.3136 12.7067H21.892L19.3703 8.17912L18.5697 6.43622H18.3696V13.9087H15.7278Z" fill="#005C9C"/>
<path d="M32.0834 13.9087L37.9474 2.12904H41.89L47.734 13.9087H44.6519L43.4711 11.3644H36.3063L35.0054 13.9087H32.0834ZM37.0267 9.40116H42.7306L39.9887 3.93205H39.7886L37.0267 9.40116Z" fill="#005C9C"/>
<path d="M62.1282 14.109C61.5945 14.109 61.0675 14.0289 60.5472 13.8686C60.0402 13.695 59.4598 13.281 58.806 12.6265L57.365 11.1841C56.7779 10.5831 56.1308 10.1424 55.4237 9.86193C54.7299 9.58146 53.856 9.44123 52.8019 9.44123H52.1815V13.9087H49.5397V3.73171L49.3396 2.10901H58.2056C59.0595 2.10901 59.7266 2.22253 60.2069 2.44958C60.7006 2.67662 61.0608 2.97712 61.2877 3.35108C61.5278 3.71168 61.6813 4.09899 61.748 4.51302C61.8147 4.92704 61.848 5.32103 61.848 5.69499V6.07562C61.848 6.36944 61.808 6.69665 61.728 7.05726C61.6479 7.41786 61.4945 7.77178 61.2676 8.11903C61.0408 8.46627 60.7139 8.76009 60.287 9.00049C59.8734 9.2409 59.3263 9.38113 58.6459 9.4212C58.8193 9.51468 59.0395 9.6616 59.3063 9.86193C59.5732 10.0489 59.8467 10.2559 60.1269 10.483C60.4204 10.71 60.6873 10.917 60.9274 11.104C61.1676 11.291 61.3544 11.4245 61.4878 11.5047C61.9681 11.7851 62.3951 11.9788 62.7687 12.0856C63.1423 12.1925 63.4491 12.2526 63.6893 12.2659C63.9294 12.2793 64.0695 12.286 64.1096 12.286L63.7093 13.9087C63.5892 13.9487 63.3891 13.9888 63.1089 14.0289C62.8287 14.0823 62.5018 14.109 62.1282 14.109ZM55.1835 7.61819C55.6905 7.61819 56.1442 7.61151 56.5445 7.59816C56.9447 7.57145 57.305 7.54473 57.6252 7.51802C58.2123 7.45125 58.6192 7.29098 58.846 7.03722C59.0862 6.77011 59.2063 6.42954 59.2063 6.01552V5.55475C59.2063 5.12737 59.0928 4.76677 58.866 4.47295C58.6392 4.17913 58.2323 4.03221 57.6452 4.03221H52.1815V7.51802C52.7686 7.55809 53.3089 7.5848 53.8026 7.59816C54.2963 7.61151 54.7566 7.61819 55.1835 7.61819Z" fill="#005C9C"/>
<path d="M69.1347 13.9087L69.1147 4.03221H63.9112V2.10901H77V4.03221H71.7765V13.9087H69.1347Z" fill="#005C9C"/>
<path d="M80.846 1.188C80.846 0.744 81.062 0.522 81.494 0.522H92.798V2.358H83.132V3.132H92.456V4.878H83.132V5.328C83.132 5.4 83.156 5.454 83.204 5.49L83.33 5.616C83.366 5.64 83.408 5.652 83.456 5.652H92.834V7.506H88.046V8.334H93.842V10.152H80V8.334H85.724V7.506H82.52C82.244 7.506 82.034 7.476 81.89 7.416C81.758 7.356 81.62 7.242 81.476 7.074L81.242 6.822C81.158 6.738 81.092 6.66 81.044 6.588C80.996 6.516 80.954 6.444 80.918 6.372C80.894 6.288 80.876 6.198 80.864 6.102C80.852 5.994 80.846 5.862 80.846 5.706V1.188ZM89.648 10.854C90.32 10.854 90.89 10.92 91.358 11.052C91.826 11.184 92.204 11.364 92.492 11.592C92.792 11.82 93.008 12.096 93.14 12.42C93.272 12.744 93.338 13.092 93.338 13.464C93.338 13.848 93.272 14.196 93.14 14.508C93.008 14.82 92.792 15.09 92.492 15.318C92.204 15.546 91.826 15.72 91.358 15.84C90.89 15.972 90.32 16.038 89.648 16.038H84.23C83.558 16.038 82.982 15.972 82.502 15.84C82.034 15.72 81.65 15.546 81.35 15.318C81.062 15.09 80.852 14.82 80.72 14.508C80.588 14.196 80.522 13.848 80.522 13.464C80.522 13.092 80.588 12.744 80.72 12.42C80.852 12.096 81.062 11.82 81.35 11.592C81.65 11.364 82.034 11.184 82.502 11.052C82.982 10.92 83.558 10.854 84.23 10.854H89.648ZM89.684 14.202C90.152 14.202 90.476 14.136 90.656 14.004C90.836 13.872 90.926 13.692 90.926 13.464C90.926 13.236 90.836 13.056 90.656 12.924C90.476 12.78 90.152 12.708 89.684 12.708H84.194C83.726 12.708 83.402 12.78 83.222 12.924C83.042 13.056 82.952 13.236 82.952 13.464C82.952 13.692 83.042 13.872 83.222 14.004C83.402 14.136 83.726 14.202 84.194 14.202H89.684Z" fill="#005C9C"/>
<path d="M99.8208 11.286H106.517V10.206H108.803V15.516C108.803 15.936 108.575 16.146 108.119 16.146H99.8568C99.4968 16.146 99.2268 16.11 99.0468 16.038C98.8788 15.978 98.6868 15.84 98.4708 15.624L98.0208 15.174C97.9248 15.078 97.8408 14.988 97.7688 14.904C97.7088 14.82 97.6608 14.736 97.6248 14.652C97.5888 14.556 97.5588 14.448 97.5348 14.328C97.5228 14.208 97.5168 14.064 97.5168 13.896V10.206H99.8208V11.286ZM104.573 6.534C104.573 6.894 104.507 7.242 104.375 7.578C104.255 7.902 104.057 8.196 103.781 8.46C103.505 8.712 103.151 8.916 102.719 9.072C102.299 9.216 101.789 9.288 101.189 9.288H99.8928C99.2928 9.288 98.7768 9.216 98.3448 9.072C97.9128 8.916 97.5588 8.712 97.2828 8.46C97.0068 8.208 96.8028 7.92 96.6708 7.596C96.5508 7.26 96.4908 6.912 96.4908 6.552C96.4908 6.192 96.5508 5.85 96.6708 5.526C96.8028 5.202 97.0068 4.914 97.2828 4.662C97.5588 4.41 97.9128 4.212 98.3448 4.068C98.7768 3.924 99.2928 3.852 99.8928 3.852H101.189C101.789 3.852 102.299 3.924 102.719 4.068C103.151 4.212 103.505 4.41 103.781 4.662C104.057 4.902 104.255 5.184 104.375 5.508C104.507 5.832 104.573 6.174 104.573 6.534ZM108.803 0.522V3.906H110.891V5.868H108.803V9.378H106.499V0.522H108.803ZM95.6808 3.204V1.35H99.3708V0H101.675V1.35H105.293V3.204H95.6808ZM106.517 14.256V13.158H99.8208V13.662C99.8208 13.758 99.8508 13.848 99.9108 13.932L100.127 14.13C100.211 14.214 100.301 14.256 100.397 14.256H106.517ZM101.171 7.434C101.567 7.434 101.843 7.35 101.999 7.182C102.167 7.002 102.251 6.792 102.251 6.552C102.251 6.312 102.167 6.108 101.999 5.94C101.843 5.76 101.567 5.67 101.171 5.67H99.9108C99.5028 5.67 99.2148 5.76 99.0468 5.94C98.8908 6.108 98.8128 6.312 98.8128 6.552C98.8128 6.792 98.8908 7.002 99.0468 7.182C99.2148 7.35 99.5028 7.434 99.9108 7.434H101.171Z" fill="#005C9C"/>
<path d="M115.196 13.554V14.112C115.196 14.172 115.22 14.226 115.268 14.274L115.322 14.328C115.358 14.352 115.412 14.364 115.484 14.364H125.69V16.146H114.746C114.446 16.146 114.224 16.11 114.08 16.038C113.936 15.966 113.786 15.846 113.63 15.678L113.36 15.39C113.18 15.21 113.06 15.048 113 14.904C112.952 14.76 112.928 14.52 112.928 14.184V12.528C112.928 12.144 113.15 11.952 113.594 11.952H122.828C122.948 11.952 123.008 11.898 123.008 11.79V11.142H112.946V9.36H117.914V8.46H112.118V6.66H125.96V8.46H120.236V9.36H124.646C125.078 9.36 125.294 9.576 125.294 10.008V12.258C125.294 12.618 125.18 12.924 124.952 13.176C124.724 13.428 124.4 13.554 123.98 13.554H115.196ZM115.142 5.85C114.818 5.85 114.566 5.814 114.386 5.742C114.218 5.67 114.038 5.532 113.846 5.328L113.468 4.95C113.3 4.77 113.174 4.596 113.09 4.428C113.018 4.248 112.982 3.99 112.982 3.654V1.296C112.982 0.852 113.192 0.63 113.612 0.63H124.448C124.88 0.63 125.096 0.852 125.096 1.296V5.166C125.096 5.622 124.88 5.85 124.448 5.85H115.142ZM122.81 4.086V2.376H115.25V3.564C115.25 3.636 115.262 3.696 115.286 3.744C115.322 3.792 115.358 3.834 115.394 3.87L115.502 3.96C115.538 3.996 115.568 4.026 115.592 4.05C115.628 4.074 115.676 4.086 115.736 4.086H122.81Z" fill="#005C9C"/>
<path d="M131.362 5.634V6.372C131.362 6.468 131.398 6.552 131.47 6.624L131.632 6.786C131.668 6.834 131.74 6.858 131.848 6.858H141.64V8.874H130.93C130.642 8.874 130.426 8.838 130.282 8.766C130.15 8.694 130 8.574 129.832 8.406L129.508 8.082C129.424 7.986 129.352 7.902 129.292 7.83C129.244 7.758 129.202 7.68 129.166 7.596C129.13 7.5 129.106 7.398 129.094 7.29C129.082 7.17 129.076 7.026 129.076 6.858V4.302C129.076 4.11 129.136 3.966 129.256 3.87C129.388 3.774 129.556 3.726 129.76 3.726H138.724C138.904 3.726 138.994 3.636 138.994 3.456V2.556H129.094V0.576H140.614C141.046 0.576 141.262 0.78 141.262 1.188V4.356C141.262 5.208 140.83 5.634 139.966 5.634H131.362ZM131.326 16.218V12.114H128.284V10.098H142.126V12.114H139.102V16.218H136.816V12.114H133.63V16.218H131.326Z" fill="#005C9C"/>
<path d="M157.735 0.522V15.948H155.431V0.522H157.735ZM150.643 8.388C151.147 9.18 151.693 9.972 152.281 10.764C152.869 11.556 153.481 12.342 154.117 13.122L152.533 14.544C151.945 13.824 151.357 13.092 150.769 12.348C150.193 11.592 149.653 10.83 149.149 10.062C149.113 10.002 149.083 9.936 149.059 9.864C149.035 9.78 149.017 9.702 149.005 9.63C148.969 9.798 148.909 9.942 148.825 10.062C148.321 10.854 147.799 11.64 147.259 12.42C146.719 13.188 146.155 13.95 145.567 14.706L143.893 13.32C144.505 12.528 145.099 11.724 145.675 10.908C146.251 10.092 146.809 9.24 147.349 8.352C147.517 8.088 147.631 7.782 147.691 7.434C147.751 7.086 147.781 6.72 147.781 6.336V0.846H150.175V6.336C150.175 6.72 150.205 7.092 150.265 7.452C150.337 7.8 150.463 8.112 150.643 8.388Z" fill="#005C9C"/>
<path d="M174.352 13.194V15.21H160.438V13.194H174.352ZM169.186 4.824C169.99 5.544 170.836 6.252 171.724 6.948C172.624 7.644 173.506 8.304 174.37 8.928L173.02 10.656C172.084 9.948 171.166 9.228 170.266 8.496C169.366 7.752 168.52 7.02 167.728 6.3C167.656 6.228 167.59 6.162 167.53 6.102C167.482 6.042 167.44 5.97 167.404 5.886C167.368 5.97 167.326 6.042 167.278 6.102C167.242 6.162 167.188 6.228 167.116 6.3C166.288 7.044 165.436 7.782 164.56 8.514C163.696 9.246 162.808 9.954 161.896 10.638L160.51 8.928C161.374 8.292 162.238 7.632 163.102 6.948C163.966 6.252 164.794 5.538 165.586 4.806C165.838 4.59 166.012 4.368 166.108 4.14C166.204 3.912 166.252 3.624 166.252 3.276V0.882H168.574V3.276C168.574 3.624 168.604 3.912 168.664 4.14C168.736 4.368 168.91 4.596 169.186 4.824Z" fill="#005C9C"/>
<path d="M188.107 14.184V12.456H180.277V14.184H188.107ZM189.475 10.512C189.739 10.512 189.949 10.59 190.105 10.746C190.261 10.89 190.339 11.1 190.339 11.376V15.282C190.339 15.558 190.261 15.768 190.105 15.912C189.949 16.068 189.739 16.146 189.475 16.146H178.873C178.597 16.146 178.381 16.068 178.225 15.912C178.081 15.768 178.009 15.558 178.009 15.282V11.376C178.009 11.1 178.081 10.89 178.225 10.746C178.381 10.59 178.597 10.512 178.873 10.512H189.475ZM182.329 5.958H178.639V6.84C178.639 6.972 178.669 7.08 178.729 7.164L178.927 7.326C179.011 7.41 179.095 7.452 179.179 7.452H183.121V9.36H178.603C178.279 9.36 178.021 9.324 177.829 9.252C177.649 9.18 177.457 9.042 177.253 8.838L176.839 8.406C176.647 8.202 176.521 8.016 176.461 7.848C176.401 7.668 176.371 7.404 176.371 7.056V1.404C176.371 0.948 176.587 0.72 177.019 0.72H182.815V2.646H178.639V4.14H182.329V5.958ZM190.339 0.522V9.648H188.125V0.522H190.339ZM187.045 0.63V9.54H184.867V5.922H183.193V4.014H184.867V0.63H187.045Z" fill="#005C9C"/>
</svg>
