<svg width="60" height="60" viewBox="0 0 60 60" fill="none" xmlns="http://www.w3.org/2000/svg">
<path d="M52.3828 24.7158C52.3828 28.8638 49.014 32.2266 44.8568 32.2266H17.6239C12.0977 32.2266 7.61719 27.7558 7.61719 22.2386C7.61719 16.723 12.0977 12.2506 17.6239 12.2506C18.1195 12.2506 18.6066 12.2886 19.0843 12.3576C21.3441 7.8784 25.9916 4.80469 31.3603 4.80469C37.8565 4.80469 43.2987 9.30661 44.7284 15.3549C44.8711 15.9588 44.9741 16.5774 45.0333 17.2077V17.2092C49.107 17.3021 52.3828 20.6268 52.3828 24.7158Z" fill="#BAC7CB" fill-opacity="0.6"/>
<g filter="url(#filter0_b_0_1218)">
<path d="M52.3828 24.7158C52.3828 28.8638 49.014 32.2266 44.8568 32.2266H17.6239C12.0977 32.2266 7.61719 27.7558 7.61719 22.2386C7.61719 16.723 12.0977 12.2506 17.6239 12.2506C18.1195 12.2506 18.6066 12.2886 19.0843 12.3576C21.3441 7.8784 25.9916 4.80469 31.3603 4.80469C37.8565 4.80469 43.2987 9.30661 44.7284 15.3549C44.8711 15.9588 44.9741 16.5774 45.0333 17.2077V17.2092C49.107 17.3021 52.3828 20.6268 52.3828 24.7158Z" fill="url(#paint0_linear_0_1218)"/>
</g>
<g filter="url(#filter1_b_0_1218)">
<path fill-rule="evenodd" clip-rule="evenodd" d="M19.2176 12.6137L19.0507 12.5896C18.5834 12.522 18.1075 12.485 17.6239 12.485C12.2267 12.485 7.85156 16.8528 7.85156 22.2386C7.85156 27.6259 12.2267 31.9922 17.6239 31.9922H44.8568C48.885 31.9922 52.1484 28.734 52.1484 24.7158C52.1484 20.755 48.9751 17.5335 45.0279 17.4436L44.7989 17.4383V17.2187C44.7406 16.6032 44.6397 15.9989 44.5003 15.4088C43.0951 9.46413 37.7456 5.03906 31.3603 5.03906C26.0833 5.03906 21.515 8.06001 19.2935 12.4632L19.2176 12.6137ZM45.0333 17.2077V17.2092C49.107 17.3021 52.3828 20.6268 52.3828 24.7158C52.3828 28.8638 49.014 32.2266 44.8568 32.2266H17.6239C12.0977 32.2266 7.61719 27.7558 7.61719 22.2386C7.61719 16.723 12.0977 12.2506 17.6239 12.2506C18.1195 12.2506 18.6066 12.2886 19.0843 12.3576C21.3441 7.8784 25.9916 4.80469 31.3603 4.80469C37.8565 4.80469 43.2987 9.30661 44.7284 15.3549C44.8711 15.9588 44.9741 16.5774 45.0333 17.2077Z" fill="url(#paint1_linear_0_1218)"/>
</g>
<path d="M40.5218 31.5105C40.5218 34.5595 38.0456 37.0312 34.9899 37.0312H14.9725C10.9106 37.0312 7.61719 33.745 7.61719 29.6897C7.61719 25.6355 10.9106 22.3481 14.9725 22.3481C15.3368 22.3481 15.6949 22.376 16.046 22.4267C17.707 19.1343 21.1231 16.875 25.0694 16.875C29.8444 16.875 33.8446 20.1841 34.8955 24.6298C35.0004 25.0737 35.0761 25.5285 35.1196 25.9917V25.9929C38.1139 26.0611 40.5218 28.5049 40.5218 31.5105Z" fill="#BAC7CB"/>
<g filter="url(#filter2_b_0_1218)">
<path d="M40.5218 31.5105C40.5218 34.5595 38.0456 37.0312 34.9899 37.0312H14.9725C10.9106 37.0312 7.61719 33.745 7.61719 29.6897C7.61719 25.6355 10.9106 22.3481 14.9725 22.3481C15.3368 22.3481 15.6949 22.376 16.046 22.4267C17.707 19.1343 21.1231 16.875 25.0694 16.875C29.8444 16.875 33.8446 20.1841 34.8955 24.6298C35.0004 25.0737 35.0761 25.5285 35.1196 25.9917V25.9929C38.1139 26.0611 40.5218 28.5049 40.5218 31.5105Z" fill="url(#paint2_linear_0_1218)"/>
</g>
<g filter="url(#filter3_b_0_1218)">
<path fill-rule="evenodd" clip-rule="evenodd" d="M16.1793 22.6828L16.0124 22.6587C15.6717 22.6094 15.3248 22.5824 14.9725 22.5824C11.0396 22.5824 7.85156 25.7653 7.85156 29.6897C7.85156 33.6151 11.0396 36.7969 14.9725 36.7969H34.9899C37.9166 36.7969 40.2875 34.4296 40.2875 31.5105C40.2875 28.6331 37.9821 26.2925 35.1143 26.2272L34.8852 26.222V26.0028C34.8426 25.5543 34.769 25.1139 34.6674 24.6838C33.641 20.3416 29.7335 17.1094 25.0694 17.1094C21.2149 17.1094 17.8779 19.3159 16.2552 22.5323L16.1793 22.6828ZM35.1196 25.9917V25.9929C38.1139 26.0611 40.5218 28.5049 40.5218 31.5105C40.5218 34.5595 38.0456 37.0312 34.9899 37.0312H14.9725C10.9106 37.0312 7.61719 33.745 7.61719 29.6897C7.61719 25.6355 10.9106 22.3481 14.9725 22.3481C15.3368 22.3481 15.6949 22.376 16.046 22.4267C17.707 19.1343 21.1231 16.875 25.0694 16.875C29.8444 16.875 33.8446 20.1841 34.8955 24.6298C35.0004 25.0737 35.0761 25.5285 35.1196 25.9917Z" fill="url(#paint3_linear_0_1218)"/>
</g>
<path d="M41.3633 46.1719C40.1336 46.1719 39.133 45.1467 39.133 43.8867C39.133 43.6334 39.3335 43.4282 39.5805 43.4282C39.8275 43.4282 40.0278 43.6334 40.0278 43.8867C40.0278 44.6412 40.6269 45.2551 41.3633 45.2551C42.0999 45.2551 42.6991 44.6412 42.6991 43.8867C42.6991 43.132 42.0999 42.5183 41.3633 42.5183H22.1272C21.88 42.5183 21.6797 42.3129 21.6797 42.0598C21.6797 41.8067 21.88 41.6016 22.1272 41.6016H41.3633C42.5932 41.6016 43.5938 42.6265 43.5938 43.8867C43.5938 45.1467 42.5932 46.1719 41.3633 46.1719Z" fill="#9DB7BF"/>
<path d="M20.9946 44.4141H16.8573C16.6084 44.4141 16.4063 44.2305 16.4063 44.004C16.4063 43.7773 16.6084 43.5938 16.8573 43.5938H20.9946C21.2435 43.5938 21.4454 43.7773 21.4454 44.004C21.4454 44.2305 21.2435 44.4141 20.9946 44.4141Z" fill="#9DB7BF"/>
<path d="M32.9247 47.9297C31.694 47.9297 30.693 46.9571 30.693 45.7617C30.693 45.5216 30.8934 45.3267 31.1406 45.3267C31.3877 45.3267 31.5883 45.5216 31.5883 45.7617C31.5883 46.4775 32.1876 47.0599 32.9247 47.0599C33.6615 47.0599 34.261 46.4775 34.261 45.7617C34.261 45.0459 33.6615 44.4635 32.9247 44.4635H22.7132C22.4661 44.4635 22.2657 44.2688 22.2657 44.0285C22.2657 43.7884 22.4661 43.5938 22.7132 43.5938H32.9247C34.1551 43.5938 35.1563 44.5664 35.1563 45.7617C35.1563 46.9571 34.1551 47.9297 32.9247 47.9297Z" fill="#9DB7BF"/>
<path d="M28.6134 46.5234H18.7307C18.4826 46.5234 18.2813 46.3136 18.2813 46.0546C18.2813 45.7958 18.4826 45.5859 18.7307 45.5859H28.6134C28.8615 45.5859 29.0626 45.7958 29.0626 46.0546C29.0626 46.3136 28.8615 46.5234 28.6134 46.5234Z" fill="#9DB7BF"/>
<path d="M24.6405 40.6641H17.8989C17.657 40.6641 17.461 40.4803 17.461 40.2538C17.461 40.0273 17.657 39.8438 17.8989 39.8438H24.6405C24.8822 39.8438 25.0782 40.0273 25.0782 40.2538C25.0782 40.4803 24.8822 40.6641 24.6405 40.6641Z" fill="#9DB7BF"/>
<defs>
<filter id="filter0_b_0_1218" x="-22.3828" y="-25.1953" width="104.766" height="87.4219" filterUnits="userSpaceOnUse" color-interpolation-filters="sRGB">
<feFlood flood-opacity="0" result="BackgroundImageFix"/>
<feGaussianBlur in="BackgroundImageFix" stdDeviation="15"/>
<feComposite in2="SourceAlpha" operator="in" result="effect1_backgroundBlur_0_1218"/>
<feBlend mode="normal" in="SourceGraphic" in2="effect1_backgroundBlur_0_1218" result="shape"/>
</filter>
<filter id="filter1_b_0_1218" x="-23.4206" y="-26.2331" width="106.841" height="89.4975" filterUnits="userSpaceOnUse" color-interpolation-filters="sRGB">
<feFlood flood-opacity="0" result="BackgroundImageFix"/>
<feGaussianBlur in="BackgroundImageFix" stdDeviation="15.5189"/>
<feComposite in2="SourceAlpha" operator="in" result="effect1_backgroundBlur_0_1218"/>
<feBlend mode="normal" in="SourceGraphic" in2="effect1_backgroundBlur_0_1218" result="shape"/>
</filter>
<filter id="filter2_b_0_1218" x="-22.3828" y="-13.125" width="92.9046" height="80.1562" filterUnits="userSpaceOnUse" color-interpolation-filters="sRGB">
<feFlood flood-opacity="0" result="BackgroundImageFix"/>
<feGaussianBlur in="BackgroundImageFix" stdDeviation="15"/>
<feComposite in2="SourceAlpha" operator="in" result="effect1_backgroundBlur_0_1218"/>
<feBlend mode="normal" in="SourceGraphic" in2="effect1_backgroundBlur_0_1218" result="shape"/>
</filter>
<filter id="filter3_b_0_1218" x="-23.4206" y="-14.1628" width="94.9803" height="82.2319" filterUnits="userSpaceOnUse" color-interpolation-filters="sRGB">
<feFlood flood-opacity="0" result="BackgroundImageFix"/>
<feGaussianBlur in="BackgroundImageFix" stdDeviation="15.5189"/>
<feComposite in2="SourceAlpha" operator="in" result="effect1_backgroundBlur_0_1218"/>
<feBlend mode="normal" in="SourceGraphic" in2="effect1_backgroundBlur_0_1218" result="shape"/>
</filter>
<linearGradient id="paint0_linear_0_1218" x1="14.707" y1="9.60938" x2="48" y2="34" gradientUnits="userSpaceOnUse">
<stop offset="0.416176" stop-color="white" stop-opacity="0.7"/>
<stop offset="1" stop-color="white" stop-opacity="0"/>
</linearGradient>
<linearGradient id="paint1_linear_0_1218" x1="4.18919" y1="12.0307" x2="20.2172" y2="23.5591" gradientUnits="userSpaceOnUse">
<stop stop-color="white"/>
<stop offset="1" stop-color="white" stop-opacity="0"/>
</linearGradient>
<linearGradient id="paint2_linear_0_1218" x1="12.8285" y1="20.4067" x2="38" y2="39" gradientUnits="userSpaceOnUse">
<stop offset="0.416176" stop-color="white" stop-opacity="0.7"/>
<stop offset="1" stop-color="white" stop-opacity="0"/>
</linearGradient>
<linearGradient id="paint3_linear_0_1218" x1="5.09746" y1="22.1864" x2="16.8788" y2="30.6603" gradientUnits="userSpaceOnUse">
<stop stop-color="white"/>
<stop offset="1" stop-color="white" stop-opacity="0"/>
</linearGradient>
</defs>
</svg>
