<svg width="24" height="24" viewBox="0 0 24 24" fill="none" xmlns="http://www.w3.org/2000/svg">
<path d="M8 10L11.2929 13.2929C11.6834 13.6834 12.3166 13.6834 12.7071 13.2929L16 10"/>
<path d="M10.1213 7.87868C8.94975 6.70711 7.05025 6.70711 5.87868 7.87868C4.70711 9.05025 4.70711 10.9497 5.87868 12.1213L10.1213 7.87868ZM18.1213 12.1213C19.2929 10.9497 19.2929 9.05025 18.1213 7.87868C16.9497 6.70711 15.0503 6.70711 13.8787 7.87868L18.1213 12.1213ZM5.87868 12.1213L9.17157 15.4142L13.4142 11.1716L10.1213 7.87868L5.87868 12.1213ZM14.8284 15.4142L18.1213 12.1213L13.8787 7.87868L10.5858 11.1716L14.8284 15.4142ZM9.17157 15.4142C10.7337 16.9763 13.2663 16.9763 14.8284 15.4142L10.5858 11.1716C11.3668 10.3905 12.6332 10.3905 13.4142 11.1716L9.17157 15.4142Z" fill="#555555" mask="url(#path-1-inside-1_1_108)"/>
</svg>
