<svg width="20" height="20" viewBox="0 0 20 20" fill="none" xmlns="http://www.w3.org/2000/svg">
<path d="M7.59667 11.8225C4.635 12.2125 2.5 13.3 2.5 14.5833C2.5 16.1942 5.8575 17.5 10 17.5C14.1425 17.5 17.5 16.1942 17.5 14.5833C17.5 13.3 15.365 12.2125 12.4033 11.8225" stroke="#555555" stroke-width="1.5" stroke-linecap="round" stroke-linejoin="round"/>
<path d="M15 6.52752C15 3.84335 12.7617 1.66669 10 1.66669C7.23833 1.66669 5 3.84335 5 6.52752C5 10.1734 10 14.1667 10 14.1667C10 14.1667 15 10.1734 15 6.52752Z" stroke="#555555" stroke-width="1.5" stroke-linecap="round" stroke-linejoin="round"/>
<path d="M11.1785 5.48819C11.8294 6.13906 11.8294 7.19434 11.1785 7.84521C10.5276 8.49609 9.47234 8.49609 8.82147 7.84521C8.17059 7.19434 8.17059 6.13906 8.82147 5.48819C9.47234 4.83731 10.5276 4.83731 11.1785 5.48819Z" stroke="#555555" stroke-width="1.5" stroke-linecap="round" stroke-linejoin="round"/>
</svg>
