<svg width="60" height="60" viewBox="0 0 60 60" fill="none" xmlns="http://www.w3.org/2000/svg">
<path d="M52 18.1953C52 23.826 47.4354 28.3906 41.8047 28.3906C36.174 28.3906 31.6094 23.826 31.6094 18.1953C31.6094 12.5646 36.174 8 41.8047 8C47.4354 8 52 12.5646 52 18.1953Z" fill="url(#paint0_linear_0_1172)"/>
<path d="M52.3828 33.9111C52.3828 38.0591 49.014 41.4219 44.8568 41.4219H17.6239C12.0977 41.4219 7.61719 36.9511 7.61719 31.4339C7.61719 25.9183 12.0977 21.4459 17.6239 21.4459C18.1195 21.4459 18.6066 21.4839 19.0843 21.553C21.3441 17.0737 25.9916 14 31.3603 14C37.8565 14 43.2987 18.5019 44.7284 24.5502C44.8711 25.1541 44.9741 25.7727 45.0333 26.403V26.4046C49.107 26.4974 52.3828 29.8221 52.3828 33.9111Z" fill="#BAC7CB" fill-opacity="0.4"/>
<g filter="url(#filter0_b_0_1172)">
<path d="M52.3828 33.9111C52.3828 38.0591 49.014 41.4219 44.8568 41.4219H17.6239C12.0977 41.4219 7.61719 36.9511 7.61719 31.4339C7.61719 25.9183 12.0977 21.4459 17.6239 21.4459C18.1195 21.4459 18.6066 21.4839 19.0843 21.553C21.3441 17.0737 25.9916 14 31.3603 14C37.8565 14 43.2987 18.5019 44.7284 24.5502C44.8711 25.1541 44.9741 25.7727 45.0333 26.403V26.4046C49.107 26.4974 52.3828 29.8221 52.3828 33.9111Z" fill="url(#paint1_linear_0_1172)"/>
</g>
<g filter="url(#filter1_b_0_1172)">
<path fill-rule="evenodd" clip-rule="evenodd" d="M19.2176 21.8091L19.0507 21.7849C18.5834 21.7173 18.1075 21.6803 17.6239 21.6803C12.2267 21.6803 7.85156 26.0481 7.85156 31.4339C7.85156 36.8212 12.2267 41.1875 17.6239 41.1875H44.8568C48.885 41.1875 52.1484 37.9293 52.1484 33.9111C52.1484 29.9503 48.9751 26.7288 45.0279 26.6389L44.7989 26.6337V26.414C44.7406 25.7985 44.6397 25.1942 44.5003 24.6041C43.0951 18.6594 37.7456 14.2344 31.3603 14.2344C26.0833 14.2344 21.515 17.2553 19.2935 21.6585L19.2176 21.8091ZM45.0333 26.403V26.4046C49.107 26.4974 52.3828 29.8221 52.3828 33.9111C52.3828 38.0591 49.014 41.4219 44.8568 41.4219H17.6239C12.0977 41.4219 7.61719 36.9511 7.61719 31.4339C7.61719 25.9183 12.0977 21.4459 17.6239 21.4459C18.1195 21.4459 18.6066 21.4839 19.0843 21.553C21.3441 17.0737 25.9916 14 31.3603 14C37.8565 14 43.2987 18.5019 44.7284 24.5502C44.8711 25.1541 44.9741 25.7727 45.0333 26.403Z" fill="url(#paint2_linear_0_1172)"/>
</g>
<path d="M29.3376 43.1056C27.8414 43.9718 26.834 45.5887 26.834 47.4417C26.834 47.508 26.8349 47.5738 26.8376 47.6391C26.9601 50.787 31.7152 50.787 31.8376 47.6391C31.8404 47.5738 31.8413 47.508 31.8413 47.4417C31.8417 45.5887 30.8339 43.9718 29.3376 43.1056Z" fill="#00A3FF"/>
<path d="M19.7287 36.1915C18.2325 37.0578 17.2246 38.6746 17.2246 40.5277C17.2246 40.5939 17.226 40.6597 17.2287 40.7255C17.3507 43.8729 22.1063 43.8729 22.2287 40.7255C22.231 40.6597 22.2324 40.5939 22.2324 40.5277C22.2324 38.6746 21.225 37.0578 19.7287 36.1915Z" fill="#00A3FF"/>
<path d="M40.2722 38.4181C38.776 39.2843 37.7686 40.9012 37.7686 42.7542C37.7686 42.8205 37.7699 42.8863 37.7722 42.9521C37.8947 46.0995 42.6498 46.0995 42.7722 42.9521C42.7749 42.8863 42.7759 42.8205 42.7759 42.7542C42.7763 40.9012 41.7689 39.2843 40.2722 38.4181Z" fill="#00A3FF"/>
<defs>
<filter id="filter0_b_0_1172" x="2.61719" y="9" width="54.7656" height="37.4219" filterUnits="userSpaceOnUse" color-interpolation-filters="sRGB">
<feFlood flood-opacity="0" result="BackgroundImageFix"/>
<feGaussianBlur in="BackgroundImageFix" stdDeviation="2.5"/>
<feComposite in2="SourceAlpha" operator="in" result="effect1_backgroundBlur_0_1172"/>
<feBlend mode="normal" in="SourceGraphic" in2="effect1_backgroundBlur_0_1172" result="shape"/>
</filter>
<filter id="filter1_b_0_1172" x="-23.4206" y="-17.0378" width="106.841" height="89.4975" filterUnits="userSpaceOnUse" color-interpolation-filters="sRGB">
<feFlood flood-opacity="0" result="BackgroundImageFix"/>
<feGaussianBlur in="BackgroundImageFix" stdDeviation="15.5189"/>
<feComposite in2="SourceAlpha" operator="in" result="effect1_backgroundBlur_0_1172"/>
<feBlend mode="normal" in="SourceGraphic" in2="effect1_backgroundBlur_0_1172" result="shape"/>
</filter>
<linearGradient id="paint0_linear_0_1172" x1="45.9117" y1="8.94391" x2="37.3221" y2="28.3884" gradientUnits="userSpaceOnUse">
<stop stop-color="#FFD88B"/>
<stop offset="1" stop-color="#FFA900"/>
</linearGradient>
<linearGradient id="paint1_linear_0_1172" x1="14.707" y1="18.8047" x2="48.394" y2="43.1209" gradientUnits="userSpaceOnUse">
<stop offset="0.416176" stop-color="white" stop-opacity="0.7"/>
<stop offset="1" stop-color="white" stop-opacity="0"/>
</linearGradient>
<linearGradient id="paint2_linear_0_1172" x1="4.18919" y1="21.226" x2="20.2172" y2="32.7544" gradientUnits="userSpaceOnUse">
<stop stop-color="white"/>
<stop offset="1" stop-color="white" stop-opacity="0"/>
</linearGradient>
</defs>
</svg>
