<svg width="80" height="80" viewBox="0 0 80 80" fill="none" xmlns="http://www.w3.org/2000/svg">
<g>
<path d="M71.6666 35.5V16.6667C71.6666 12.9833 68.6833 10 64.9999 10H14.9999C11.3166 10 8.33325 12.9833 8.33325 16.6667V63.3333C8.33325 67.0167 11.3166 70 14.9999 70H43.9999" stroke="white" stroke-width="3" stroke-linecap="round" stroke-linejoin="round"/>
<path d="M49.375 47.3148V56.6033C49.375 62.7612 56.6348 67.3917 60.4878 69.4206C61.2033 69.8006 61.9998 69.9994 62.8087 70C63.6176 70.0006 64.4145 69.8029 65.1305 69.424C68.9822 67.3959 76.25 62.755 76.25 56.6033V47.3152C76.2436 46.8838 76.0747 46.4709 75.7776 46.16C75.4806 45.8491 75.0773 45.6632 74.6494 45.6401C71.079 45.351 67.6609 44.0585 64.7842 41.9096C64.2148 41.4814 63.5232 41.25 62.8125 41.25C62.1018 41.25 61.4102 41.4814 60.8408 41.9096C57.9642 44.0584 54.5461 45.351 50.9757 45.6401C50.5497 45.6684 50.1495 45.8558 49.8534 46.1655C49.5574 46.4753 49.3868 46.8851 49.375 47.3148Z" stroke="white" stroke-width="3" stroke-linecap="round" stroke-linejoin="round"/>
<path d="M8.33325 26.6667H71.6666" stroke="white" stroke-width="3" stroke-linecap="round" stroke-linejoin="round"/>
<path d="M18.3332 16.6667C17.3332 16.6667 16.6665 17.3333 16.6665 18.3333C16.6665 19.3333 17.3332 20 18.3332 20C19.3331 20 19.9998 19.3333 19.9998 18.3333C19.9998 17.3333 19.3331 16.6667 18.3332 16.6667Z" fill="white"/>
<path d="M26.81 16.6667C25.81 16.6667 25.1433 17.3333 25.1433 18.3333C25.1433 19.3333 25.81 20 26.81 20C27.81 20 28.4766 19.3333 28.4766 18.3333C28.4766 17.3333 27.81 16.6667 26.81 16.6667Z" fill="white"/>
<path d="M35.2765 16.6667C34.2766 16.6667 33.6099 17.3333 33.6099 18.3333C33.6099 19.3333 34.2766 20 35.2765 20C36.2765 20 36.9432 19.3333 36.9432 18.3333C36.9432 17.3333 35.9432 16.6667 35.2765 16.6667Z" fill="white"/>
</g>
</svg>
