<svg width="96" height="96" viewBox="0 0 96 96" fill="none" xmlns="http://www.w3.org/2000/svg">
<g clip-path="url(#clip0_247_2589)">
<path d="M19.4998 25.5001C31.222 10.2099 49.8331 11.1668 56.9998 13.0001C56.9998 14.5001 56.7997 19.1 55.9996 25.5001C55.1996 31.9002 55.5002 32.5 50.0001 36.5C41.5006 37.5 39.0001 33.5 34.0001 39.5C27.8432 46.8884 35.4168 51 30.0001 57.5C28.0001 59.9 20.5001 62 15.0001 60C12.5002 54 8.00003 40.5 19.4998 25.5001Z" fill="white" fill-opacity="0.15"/>
<path d="M14.0557 60H24.0002C26.1219 60 28.1567 59.1571 29.657 57.6568C31.1573 56.1565 32.0002 54.1217 32.0002 52V44C32.0002 41.8782 32.843 39.8434 34.3433 38.3431C35.8436 36.8428 37.8785 36 40.0002 36H48.0002C50.1219 36 52.1567 35.1571 53.657 33.6568C55.1573 32.1565 56.0002 30.1217 56.0002 28V12.8987" stroke="white" stroke-width="2" stroke-linecap="round" stroke-linejoin="round"/>
<path d="M69 78C79.4484 78 82.0128 64.9972 88 61.5424C85.8201 58.5556 82.9591 56.1319 79.6546 54.4726C76.3502 52.8132 72.6975 51.9661 69 52.0016" stroke="white" stroke-width="2" stroke-linecap="round" stroke-linejoin="round"/>
<path d="M69 78C65.5522 78 62.2456 76.6304 59.8076 74.1924C57.3696 71.7544 56 68.4478 56 65C56 61.5522 57.3696 58.2456 59.8076 55.8076C62.2456 53.3696 65.5522 52 69 52" stroke="white" stroke-width="2" stroke-linecap="round" stroke-linejoin="round"/>
<path d="M69.9617 64.0657C66.2965 64.6788 62.802 66.0588 59.7068 68.1153C56.6116 70.1719 53.9854 72.8587 52 76" stroke="white" stroke-width="2" stroke-linecap="round" stroke-linejoin="round"/>
<path d="M83.0771 40C81.6493 33.7274 78.5662 27.9522 74.1488 23.2756C69.7314 18.5991 64.1412 15.1921 57.9601 13.4094C51.779 11.6267 45.233 11.5334 39.0037 13.1394C32.7743 14.7453 27.0893 17.9916 22.5405 22.5405C17.9916 27.0893 14.7453 32.7743 13.1394 39.0037C11.5334 45.233 11.6267 51.779 13.4094 57.9601C15.1921 64.1412 18.5991 69.7314 23.2756 74.1488C27.9522 78.5662 33.7274 81.6493 40 83.0771" stroke="white" stroke-width="2" stroke-linecap="round" stroke-linejoin="round"/>
</g>
<defs>
<clipPath id="clip0_247_2589">
<rect width="96" height="96" fill="white"/>
</clipPath>
</defs>
</svg>
