<svg width="1852" height="269" viewBox="0 0 1852 269" fill="none" xmlns="http://www.w3.org/2000/svg">
<rect width="1852" height="240" fill="#D4F3D9"/>
<mask id="mask0_247_2520" style="mask-type:alpha" maskUnits="userSpaceOnUse" x="0" y="0" width="1852" height="240">
<rect width="1852" height="240" fill="#D4F3D9"/>
</mask>
<g mask="url(#mask0_247_2520)">
<path d="M1868.68 230.008C1868.68 230.008 1787.2 210.202 1687.71 194.498C1596.18 180.053 1489.03 169.818 1423.65 165.275C1272.59 154.766 1088.19 152.038 923.85 163.741C474.357 195.761 192.018 294.109 192.018 294.109L0.916841 356.754L2.32209 378.128L1869.55 249.945L1868.7 230.006L1868.68 230.008Z" fill="#52B278"/>
<path d="M1.94049 357.506C106.7 322.95 210.07 287.136 321.502 258.487C446.713 226.296 581.04 203.072 715.064 185.993C833.282 170.931 952.983 161.22 1072.48 158.119C1203.66 154.717 1333.36 159.355 1459.88 169.714C1526.95 175.203 1593.96 181.75 1658.96 190.448C1716.13 198.111 1770.11 209.18 1823.37 220.99C1838.17 224.274 1852.94 227.59 1867.7 230.897C1869.93 231.395 1871.79 229.604 1869.59 229.103C1814.72 216.832 1760.06 204.196 1702.27 194.802C1640.66 184.778 1575.77 178.257 1511.32 172.227C1384.64 160.385 1254.72 153.828 1122.83 155.274C1001.47 156.598 879.452 164.734 758.743 178.744C624.922 194.276 492.078 216.195 365.418 245.659C247.98 272.976 139.134 309.457 31.131 345.578C20.6983 349.061 10.2655 352.544 -0.189829 355.998C-2.39385 356.731 -0.284119 358.24 1.92059 357.517L1.94049 357.506Z" fill="#665044"/>
</g>
<path d="M1602.22 183.705L1671.26 191.379C1671.26 191.379 1674.21 184.973 1668.25 181.89C1662.29 178.808 1658.21 181.2 1658.21 181.2C1658.21 181.2 1658.57 177.123 1654.46 175.769C1650.36 174.412 1645.39 177.632 1645.46 177.105C1645.52 176.581 1646.76 172.661 1644.58 170.799C1642.4 168.937 1639.93 169.244 1639.93 169.244C1639.93 169.244 1640.84 162.409 1633.42 161.38C1625.99 160.351 1625.98 165.224 1625.98 165.224C1625.98 165.224 1620.95 161.97 1616.38 164.184C1610.34 167.101 1610.72 172.687 1610.72 172.687C1610.72 172.687 1605.16 171.503 1602.52 175.139C1598.27 180.987 1602.23 183.725 1602.23 183.725L1602.22 183.705Z" fill="#52B278"/>
<path d="M1602.94 182.241C1600.05 177.505 1605.9 171.874 1610.77 173.73C1611.31 173.932 1612.06 173.483 1612.03 172.875C1611.86 169.7 1613.43 166.527 1616.29 165.002C1619.14 163.476 1622.89 163.956 1625.46 166.032C1625.99 166.459 1626.66 166.027 1626.89 165.528C1628.16 162.779 1631.6 161.209 1634.49 162.192C1637.38 163.174 1639.07 166.382 1638.56 169.355C1638.45 169.992 1639.17 170.452 1639.73 170.351C1643.77 169.561 1646.37 174.075 1643.93 177.281C1643.33 178.077 1644.38 179.057 1645.18 178.649C1647.52 177.481 1650.03 176.201 1652.73 176.45C1655.01 176.663 1657.5 178.469 1656.93 181.047C1656.79 181.69 1657.28 182.517 1658.04 182.28C1661.14 181.335 1664.71 180.772 1667.64 182.513C1670.83 184.413 1670.99 187.765 1670.36 191.093C1670.12 192.289 1671.95 192.897 1672.18 191.691C1672.93 187.765 1672.81 183.823 1669.29 181.298C1665.77 178.773 1661.46 179.242 1657.65 180.411L1658.77 181.643C1659.44 178.613 1657.5 175.778 1654.6 174.87C1651.01 173.751 1647.46 175.365 1644.3 176.946L1645.55 178.314C1647.1 176.271 1647.32 173.317 1645.9 171.128C1644.48 168.939 1641.85 167.972 1639.33 168.463L1640.5 169.459C1641.15 165.564 1638.65 161.347 1634.78 160.267C1630.92 159.187 1626.75 161.325 1625.09 164.935L1626.53 164.431C1623.45 161.943 1618.93 161.434 1615.42 163.316C1611.91 165.198 1609.94 168.958 1610.14 172.782L1611.4 171.928C1605 169.491 1597.49 176.992 1601.26 183.155C1601.91 184.202 1603.61 183.324 1602.96 182.266L1602.94 182.241Z" fill="#665044"/>
<path d="M1602.04 183.898C1619.94 186.116 1637.84 188.334 1655.74 190.552C1660.82 191.184 1665.92 191.814 1671.01 192.446C1672.24 192.601 1672.33 190.677 1671.12 190.53C1653.22 188.313 1635.32 186.095 1617.42 183.877C1612.33 183.245 1607.23 182.615 1602.15 181.982C1600.92 181.828 1600.82 183.752 1602.04 183.898Z" fill="#665044"/>
<path d="M1657.97 193.83L1819.49 218.048C1819.49 218.048 1826.95 203.046 1813.01 195.327C1799.08 187.607 1789.25 192.987 1789.25 192.987C1789.25 192.987 1790.38 183.341 1780.75 179.834C1771.11 176.326 1759.11 183.621 1759.3 182.38C1759.49 181.138 1762.7 171.943 1757.66 167.359C1752.63 162.785 1746.73 163.34 1746.73 163.34C1746.73 163.34 1749.37 147.183 1731.84 144.23C1714.3 141.276 1713.93 152.813 1713.93 152.813C1713.93 152.813 1702.22 144.742 1691.22 149.667C1676.71 156.162 1677.21 169.44 1677.21 169.44C1677.21 169.44 1664.11 166.255 1657.58 174.68C1649.11 188.895 1657.44 193.365 1657.44 193.365L1657.97 193.83Z" fill="#85D89C"/>
<path d="M1656.85 192.07C1654.1 187.433 1654.47 182.321 1657.42 177.89C1659.85 174.245 1663.37 171.46 1667.63 170.341C1670.81 169.512 1674.52 169.294 1677.59 170.642C1678.23 170.926 1679.03 170.524 1678.99 169.771C1678.77 163.543 1681.48 157.459 1686.12 153.306C1690.75 149.153 1697.48 147.517 1703.67 148.785C1707.23 149.512 1710.55 151.11 1713.27 153.516C1713.72 153.912 1714.5 153.83 1714.77 153.254C1717.41 147.728 1723.28 144.167 1729.37 144.057C1735.45 143.946 1741.12 147.896 1743.66 153.528C1745.07 156.633 1745.53 160.101 1744.8 163.44C1744.64 164.211 1745.32 164.705 1746.02 164.573C1750.67 163.7 1755.71 165.981 1758.1 170.071C1760.48 174.161 1759.85 179.679 1756.81 183.26C1756.06 184.137 1757.08 185.164 1758.03 184.715C1764.26 181.831 1771.13 178.718 1778.15 180.202C1783.91 181.425 1789.19 186.77 1787.43 193.035C1787.22 193.758 1787.97 194.364 1788.64 194.168C1796.49 191.99 1805.38 191.143 1812.53 195.799C1815.74 197.891 1818.22 200.987 1819.2 204.727C1820.31 209.03 1819.51 213.563 1818.56 217.82C1818.29 219.022 1820.15 219.465 1820.43 218.26C1821.98 211.382 1822.66 203.842 1817.88 198.037C1813.68 192.936 1807.13 190.606 1800.66 190.479C1796.4 190.406 1792.17 191.213 1788.09 192.339L1789.31 193.472C1791.23 186.699 1786.02 180.422 1779.75 178.614C1771.88 176.354 1764.04 179.836 1757.02 183.091L1758.24 184.546C1761.86 180.277 1762.56 173.901 1759.73 169.025C1756.9 164.15 1750.94 161.692 1745.47 162.722L1746.69 163.855C1748.12 157.202 1745.38 150 1740.07 145.771C1734.77 141.541 1727.23 141.114 1721.09 144.223C1717.63 145.975 1714.75 148.825 1713.08 152.331L1714.58 152.07C1709.39 147.501 1702.24 145.575 1695.44 146.741C1688.64 147.907 1682.81 152.439 1679.64 158.557C1677.85 162.016 1676.95 165.891 1677.09 169.792L1678.49 168.921C1673.04 166.516 1665.59 167.799 1660.93 171.392C1657.18 174.291 1653.92 178.484 1653.16 183.267C1652.61 186.721 1653.47 190.075 1655.24 193.069C1655.86 194.131 1657.48 193.101 1656.85 192.038L1656.85 192.07Z" fill="#665044"/>
<path d="M1655.82 194.114C1677.05 197.386 1698.3 200.656 1719.53 203.928C1740.77 207.201 1761.85 210.447 1783.01 213.702C1794.94 215.541 1806.88 217.379 1818.81 219.218C1820.03 219.408 1820.47 217.537 1819.25 217.346C1798.02 214.074 1776.77 210.804 1755.54 207.532C1734.3 204.259 1713.22 201.013 1692.06 197.758C1680.13 195.919 1668.19 194.081 1656.26 192.242C1655.04 192.052 1654.6 193.924 1655.82 194.114Z" fill="#665044"/>
<path d="M1277.88 72.3935C1277.82 72.2135 1264.66 63.9435 1259.9 74.9535C1253.97 88.6735 1272.86 86.6835 1272.86 86.6835C1272.86 86.6835 1273.87 95.1135 1281.11 96.2135C1288.35 97.3135 1293 91.9135 1293 91.9135C1293 91.9135 1298.84 98.8335 1307.3 97.2435C1317.09 95.4035 1317.34 87.0435 1317.34 87.0435C1317.34 87.0435 1319.9 88.6435 1322.16 87.8135C1326.39 86.2535 1330.9 80.8835 1324.93 73.7235C1318.73 66.2935 1305.56 72.2935 1305.56 72.2935C1305.56 72.2935 1306.17 61.2235 1292.96 62.2035C1282.38 62.9835 1277.9 72.4035 1277.9 72.4035L1277.88 72.3935Z" fill="white"/>
<path d="M1278.45 72.4334C1274.16 67.0934 1266.41 66.8334 1261.31 71.1234C1258.89 73.1534 1257.35 76.1134 1257.81 79.3234C1258.21 82.1134 1259.95 84.6034 1262.25 86.1834C1265.5 88.4134 1269.87 87.6134 1273.56 87.6234L1272.63 86.9234C1273.12 89.0534 1273.58 91.2834 1274.93 93.0634C1276.63 95.3034 1279.43 96.4134 1282.14 96.7734C1286.34 97.3334 1290.87 95.3734 1293.78 92.3434H1292.42C1294.9 95.3534 1298.76 97.7134 1302.61 98.2934C1308.12 99.1134 1313.28 96.0734 1316.5 91.7434C1317.31 90.6534 1318.95 88.3734 1317.98 86.9434L1316.67 88.2534C1319.99 89.7434 1324.02 88.8934 1326.38 86.0834C1328.74 83.2734 1329.1 78.8834 1327.39 75.5334C1325.59 72.0034 1321.94 69.8334 1318.09 69.3134C1313.43 68.6834 1308.79 70.2334 1304.45 71.7634L1305.63 72.9434C1307.13 69.2434 1304.57 65.7434 1301.56 63.7934C1298.34 61.7034 1294.34 60.8134 1290.54 61.3334C1284.07 62.2334 1280.56 67.8434 1276.92 72.6134C1276.17 73.5934 1277.84 74.5534 1278.58 73.5834C1281.5 69.7534 1284.28 65.0934 1289.15 63.5934C1292.26 62.6334 1295.85 63.0834 1298.78 64.4434C1301.71 65.8034 1305.26 68.7534 1303.77 72.4234C1303.5 73.0934 1304.3 73.8334 1304.95 73.6034C1311.19 71.4034 1319.76 68.7734 1324.71 74.9234C1326.72 77.4134 1327.21 80.9934 1325.6 83.8234C1323.99 86.6534 1320.53 87.8934 1317.62 86.5834C1316.83 86.2334 1315.71 87.0134 1316.31 87.8934C1316.41 88.0334 1316.32 87.6734 1316.31 87.9234C1316.31 88.0134 1316.3 88.0834 1316.26 88.1634C1316.12 88.5234 1316 88.8734 1315.82 89.2134C1315.27 90.2334 1314.56 91.1534 1313.77 91.9934C1311.74 94.1534 1309.08 95.9334 1306.1 96.3934C1301.49 97.1134 1296.64 94.4634 1293.76 90.9634C1293.43 90.5634 1292.73 90.6134 1292.4 90.9634C1290 93.4734 1286.29 95.1934 1282.8 94.9034C1280.44 94.7134 1277.76 93.7534 1276.34 91.7634C1275.22 90.2034 1274.88 88.2134 1274.46 86.3834C1274.37 85.9734 1273.94 85.6834 1273.53 85.6834C1270.14 85.6834 1265.92 86.5434 1262.99 84.3634C1260.5 82.5034 1258.87 79.1834 1259.95 76.1134C1261.03 73.0434 1264.38 70.7134 1267.53 70.1134C1271.12 69.4234 1274.81 70.9634 1277.07 73.7734C1277.84 74.7334 1279.19 73.3734 1278.43 72.4134L1278.45 72.4334Z" fill="#665044"/>
<path d="M1118.44 96.4234C1118.51 96.6034 1127.98 107.733 1138.71 96.0334C1145.02 89.1434 1137.7 83.5134 1131.6 81.9334C1127.94 80.9834 1125.83 81.6334 1125.83 81.6334C1125.83 81.6334 1123.11 73.5834 1115.82 72.8834C1108.53 72.1834 1103.76 78.9334 1103.76 78.9334C1103.76 78.9334 1097.85 71.5534 1089.5 73.6134C1079.83 76.0034 1082.9 84.0234 1082.9 84.0234C1082.9 84.0234 1080.11 83.8934 1077.91 84.8434C1073.77 86.6334 1068.09 92.2034 1074.45 99.0234C1081.05 106.093 1091.58 97.8834 1091.58 97.8834C1091.58 97.8834 1094.3 110.513 1107.45 108.803C1117.97 107.433 1118.45 96.4334 1118.45 96.4334L1118.44 96.4234Z" fill="white"/>
<path d="M1117.4 97.2035C1120.35 100.134 1123.94 102.674 1128.28 102.584C1132.09 102.504 1135.59 100.954 1138.19 98.1635C1139.56 96.6835 1140.75 94.8835 1141.22 92.8935C1141.65 91.0535 1141.3 89.2035 1140.6 87.4735C1139.39 84.4835 1136.97 82.4035 1133.93 81.3835C1131.2 80.4735 1128.29 80.4435 1125.45 80.5535L1126.38 81.2535C1125.58 78.9735 1124.81 76.5935 1123.01 74.8835C1120.74 72.7135 1117.15 71.7335 1114.07 71.8235C1109.63 71.9535 1105.38 74.8335 1102.92 78.4435H1104.58C1102.73 75.6535 1099.68 73.4335 1096.49 72.4735C1091.61 71.0035 1084.73 72.4535 1082.4 77.4435C1081.38 79.6135 1081.37 82.1035 1082.14 84.3435L1083.07 83.1235C1077.34 82.3735 1071.96 86.2635 1071.1 92.0435C1070.14 98.5035 1076.1 102.974 1082.16 102.784C1086.23 102.654 1090.06 100.724 1092.83 97.7835L1091.23 96.8535C1090.62 98.5635 1092.06 101.084 1092.91 102.464C1094.67 105.334 1097.29 107.584 1100.44 108.804C1104.02 110.184 1108.41 110.214 1111.88 108.504C1114.64 107.144 1116.59 104.634 1117.75 101.834C1118.44 100.164 1118.94 98.3335 1119.05 96.5135C1119.13 95.2835 1117.21 95.2835 1117.13 96.5135C1116.93 99.7035 1115.29 103.744 1112.49 105.884C1107.11 109.994 1098.89 107.574 1095.17 102.414C1094.46 101.434 1093.84 100.354 1093.44 99.2035C1093.29 98.7735 1093.14 98.3135 1093.08 97.8635C1093.06 97.6835 1093.08 97.3735 1093.08 97.3735C1093.4 96.4635 1092.11 95.7635 1091.48 96.4435C1087.31 100.864 1079.99 102.754 1075.07 98.3835C1071.73 95.4235 1072.61 90.2435 1075.57 87.3335C1077.59 85.3535 1080.32 84.6935 1083.07 85.0535C1083.68 85.1335 1084.18 84.3735 1084 83.8335C1083.27 81.7035 1083.33 79.3535 1084.61 77.4335C1086.31 74.8735 1089.76 73.8735 1092.68 73.8435C1096.66 73.8035 1100.79 76.1835 1102.94 79.4035C1103.35 80.0235 1104.18 80.0135 1104.6 79.4035C1106.55 76.5335 1110.15 73.9735 1113.76 73.7535C1116.41 73.5835 1119.7 74.3535 1121.68 76.2335C1123.23 77.7135 1123.86 79.7935 1124.55 81.7535C1124.69 82.1435 1125.04 82.4735 1125.48 82.4535C1129.8 82.2935 1135.07 82.4335 1137.85 86.3235C1138.75 87.5935 1139.41 89.2235 1139.53 90.7835C1139.66 92.5235 1138.82 94.2235 1137.84 95.5935C1135.81 98.4135 1132.82 100.164 1129.38 100.564C1125.12 101.054 1121.69 98.6935 1118.79 95.8135C1117.91 94.9435 1116.55 96.3035 1117.43 97.1735L1117.4 97.2035Z" fill="#665044"/>
<path d="M1249.23 39.3635C1248.98 39.3635 1246.72 24.3335 1235.35 27.5635C1228.22 29.5935 1226.07 39.8535 1226.07 39.8535C1226.07 39.8535 1212.67 31.6635 1207.21 42.8635C1202.21 53.1135 1215.55 54.9635 1215.55 54.9635C1215.55 54.9635 1213.29 65.3535 1222.26 66.5135C1231.23 67.6735 1234.92 59.6335 1234.92 59.6335C1234.92 59.6335 1240.51 68.3635 1247.15 65.2935C1253.79 62.2235 1253.35 52.5735 1253.35 52.5735C1253.35 52.5735 1257.45 54.2535 1260.78 52.7535C1264.86 50.9235 1268.06 45.5335 1264.59 41.5135C1258.28 34.2035 1249.23 39.3635 1249.23 39.3635Z" fill="white"/>
<path d="M1227.32 40.0435C1222.74 36.2935 1215.06 35.0035 1209.93 38.4135C1206.15 40.9235 1204.07 46.7035 1206.31 50.8735C1208.12 54.2535 1212 55.5535 1215.64 55.4635L1214.68 54.5035C1214.58 56.2735 1213.78 57.9535 1213.94 59.7435C1214.06 61.1335 1214.69 62.4035 1215.55 63.4935C1217.36 65.7835 1220.16 67.1735 1223.02 67.5635C1228.69 68.3235 1233.99 64.7635 1235.77 59.3935L1234.02 59.6235C1236.5 64.2435 1241.62 67.5135 1246.95 66.0035C1252.88 64.3335 1254.79 57.4735 1253.75 52.0135L1252.57 53.1935C1255.61 54.0935 1259.06 54.8635 1262.06 53.4335C1264.84 52.1135 1266.23 49.0735 1266.39 46.1135C1266.53 43.5135 1265.06 40.9535 1263.25 39.1635C1261.35 37.2835 1258.92 36.7135 1256.31 36.7635C1253.29 36.8135 1249.97 37.5335 1247.52 39.3735L1248.93 40.4535C1249.78 37.4335 1248.65 34.1035 1247.06 31.5235C1245.47 28.9435 1243.05 26.7835 1240.05 26.1835C1237.05 25.5835 1234.28 26.5035 1231.97 28.2335C1229.66 29.9635 1228.45 31.9935 1227.45 34.5435C1226.7 36.4635 1226.12 38.4635 1225.69 40.4835C1225.44 41.6935 1227.29 42.2035 1227.54 40.9935C1228.52 36.3235 1230.03 31.2235 1234.55 28.8635C1237.63 27.2635 1241.08 27.8435 1243.57 30.2335C1246.06 32.6235 1248.01 36.5935 1247.07 39.9535C1246.86 40.6935 1247.78 41.5635 1248.48 41.0335C1250.68 39.3835 1253.59 38.7335 1256.3 38.6935C1259.31 38.6435 1261.59 39.6235 1263.24 42.2335C1264.89 44.8435 1264.91 47.9035 1262.97 50.3135C1260.55 53.3235 1256.24 52.2935 1253.07 51.3535C1252.32 51.1335 1251.76 51.8435 1251.89 52.5335C1252.76 57.1135 1251.16 63.0535 1246.07 64.2635C1241.65 65.3135 1237.67 62.4135 1235.66 58.6735C1235.25 57.9135 1234.15 58.1535 1233.91 58.9035C1232.42 63.4035 1227.88 66.3735 1223.14 65.6735C1220.82 65.3335 1218.53 64.1835 1217.06 62.3435C1216.2 61.2635 1215.72 60.0135 1215.87 58.6135C1216.02 57.2135 1216.51 55.9235 1216.59 54.5235C1216.62 54.0135 1216.13 53.5535 1215.63 53.5635C1212.19 53.6535 1208 52.1835 1207.4 48.2935C1207.08 46.2035 1207.67 43.8735 1208.84 42.1335C1212.47 36.7335 1221.45 37.7335 1225.95 41.4135C1226.9 42.1935 1228.26 40.8435 1227.31 40.0535L1227.32 40.0435Z" fill="#665044"/>
<path d="M726.6 102.7C726.4 102.74 718.07 107.33 718.23 114.55C718.38 121.47 722.05 123.92 722.05 123.92C722.05 123.92 729.64 119.09 729.7 112.83C729.76 106.57 726.6 102.7 726.6 102.7Z" fill="#B4EAB7"/>
<path d="M725.66 102.45C722.08 104.47 719.15 107.69 717.84 111.63C717.14 113.74 716.92 116.1 717.52 118.26C718.12 120.42 719.51 122.39 720.86 124.22C721.58 125.2 723.25 124.25 722.52 123.25C721.37 121.69 720.16 120.08 719.52 118.23C718.84 116.24 719.04 114.11 719.69 112.14C720.84 108.67 723.49 105.88 726.63 104.11C727.71 103.5 726.74 101.84 725.66 102.45Z" fill="#665044"/>
<path d="M725.85 103.71C731.79 109.27 727.73 119.51 721.56 123.09C720.49 123.71 721.46 125.37 722.53 124.75C729.75 120.56 734.06 108.78 727.2 102.36C726.3 101.52 724.94 102.87 725.84 103.72L725.85 103.71Z" fill="#665044"/>
<path d="M725.79 103.21C724.09 109.95 722.5 116.71 721.02 123.5C720.76 124.7 722.61 125.22 722.87 124.01C724.35 117.22 725.94 110.46 727.64 103.72C727.94 102.52 726.09 102.01 725.79 103.21Z" fill="#665044"/>
<path d="M1288.44 119.16C1288.29 119.02 1279.76 114.82 1273.94 119.09C1268.36 123.18 1268.45 127.59 1268.45 127.59C1268.45 127.59 1276.76 131.04 1281.92 127.5C1287.08 123.97 1288.45 119.16 1288.45 119.16H1288.44Z" fill="#52B278"/>
<path d="M1288.19 118.29C1284.18 116.37 1279.41 115.78 1275.19 117.41C1273.24 118.16 1271.5 119.3 1270.23 120.97C1268.89 122.73 1268.16 124.86 1267.46 126.93C1267.06 128.1 1268.92 128.61 1269.31 127.44C1269.9 125.7 1270.5 123.94 1271.54 122.41C1272.58 120.88 1274.23 119.78 1276 119.14C1279.65 117.82 1283.75 118.29 1287.21 119.94C1288.32 120.47 1289.29 118.82 1288.18 118.28L1288.19 118.29Z" fill="#665044"/>
<path d="M1287.2 119.03C1286.06 127.05 1275.43 129.78 1268.93 126.75C1267.82 126.23 1266.84 127.89 1267.96 128.41C1272.16 130.36 1276.92 130.35 1281.18 128.59C1285.15 126.95 1288.43 123.96 1289.05 119.54C1289.22 118.33 1287.37 117.81 1287.2 119.03Z" fill="#665044"/>
<path d="M1287.62 118.77C1281.12 121.24 1274.67 123.82 1268.26 126.49C1267.14 126.96 1267.63 128.82 1268.77 128.34C1275.18 125.66 1281.64 123.09 1288.13 120.62C1289.27 120.18 1288.78 118.33 1287.62 118.77Z" fill="#665044"/>
<path d="M692.29 54.7902C692.29 54.5802 689.43 45.5102 682.33 44.2502C675.52 43.0402 672.39 46.1502 672.39 46.1502C672.39 46.1502 675.63 54.5402 681.75 55.8302C687.87 57.1302 692.29 54.7902 692.29 54.7902Z" fill="#52B278"/>
<path d="M692.74 53.9802C691.48 50.1102 688.97 46.6002 685.42 44.5302C683.52 43.4202 681.29 42.6902 679.07 42.8102C676.61 42.9402 674.35 43.9802 672.16 45.0002C671.04 45.5202 672.01 47.1802 673.13 46.6602C675 45.7902 676.98 44.8502 679.07 44.7302C681.16 44.6102 683.01 45.3002 684.69 46.3302C687.68 48.1602 689.81 51.1802 690.89 54.4902C691.27 55.6602 693.13 55.1602 692.74 53.9802Z" fill="#665044"/>
<path d="M691.5 53.8203C684.9 58.5303 675.61 52.6703 673.32 45.8803C672.93 44.7203 671.07 45.2203 671.47 46.3903C672.88 50.5703 676 53.9503 679.98 55.8303C683.96 57.7103 688.66 58.2003 692.47 55.4803C693.47 54.7703 692.51 53.1003 691.5 53.8203Z" fill="#665044"/>
<path d="M692 53.9203C685.73 50.9303 679.41 48.0303 673.05 45.2403C671.93 44.7503 670.95 46.4003 672.08 46.9003C678.44 49.6903 684.76 52.5803 691.03 55.5803C692.14 56.1103 693.11 54.4503 692 53.9203Z" fill="#665044"/>
<path d="M1067.68 70.8902C1067.88 70.9402 1077.38 70.5302 1080.44 64.0002C1083.37 57.7402 1081.18 53.9102 1081.18 53.9102C1081.18 53.9102 1072.24 54.8702 1069.4 60.4402C1066.57 66.0202 1067.67 70.8902 1067.67 70.8902H1067.68Z" fill="#B4EAB7"/>
<path d="M1068.34 71.5302C1072.44 71.3102 1076.53 69.7702 1079.45 66.8202C1080.95 65.3002 1082.19 63.4002 1082.65 61.3002C1083.18 58.8702 1082.77 56.3802 1082.34 53.9702C1082.13 52.7602 1080.28 53.2702 1080.49 54.4802C1080.85 56.5402 1081.25 58.7102 1080.8 60.7902C1080.39 62.6702 1079.28 64.3202 1077.91 65.6402C1075.37 68.1102 1071.85 69.4202 1068.34 69.6102C1067.11 69.6702 1067.1 71.5902 1068.34 71.5302Z" fill="#665044"/>
<path d="M1068.81 70.3702C1065.96 62.7902 1074.05 55.3102 1081.18 54.8602C1082.41 54.7802 1082.42 52.8602 1081.18 52.9402C1076.76 53.2202 1072.67 55.3802 1069.82 58.7602C1066.97 62.1402 1065.32 66.5102 1066.96 70.8802C1067.39 72.0302 1069.25 71.5302 1068.81 70.3702Z" fill="#665044"/>
<path d="M1068.59 70.8302C1073.1 65.5502 1077.53 60.1902 1081.88 54.7702C1082.64 53.8102 1081.29 52.4502 1080.52 53.4102C1076.18 58.8402 1071.75 64.1902 1067.23 69.4702C1066.43 70.4002 1067.78 71.7702 1068.59 70.8302Z" fill="#665044"/>
<path d="M804.95 181.21C804.82 180.86 799.37 175.82 796.52 180.67C794.85 183.51 798.49 186.74 798.49 186.74C798.49 186.74 791.88 187.68 792.99 192.4C794.19 197.53 801.92 193.35 801.92 193.35C801.92 193.35 805.69 199.14 811.24 194.4C814.95 191.23 809.04 187.34 809.04 187.34C809.04 187.34 817.6 181.85 811.99 179.47C806.38 177.09 804.96 181.19 804.96 181.19L804.95 181.21Z" fill="white"/>
<path d="M799.43 186.18C797.48 185.98 795.3 186.05 793.75 187.4C792.2 188.75 791.87 190.79 792.29 192.65C793.41 197.59 799.83 195.87 802.67 193.61L801.07 193.19C802.33 197.4 808.04 197.97 811.28 195.73C814.93 193.21 812.85 187.85 809.12 186.73L809.35 188.48C811.09 187.66 812.78 186.54 813.62 184.74C814.39 183.08 814.22 180.71 813.08 179.25C811.94 177.79 809.66 177.64 808 178C806.07 178.42 804.45 179.79 803.6 181.55L805.35 181.78C804.19 178.39 799.34 176.31 796.44 178.99C793.54 181.67 796.32 186.31 798.97 187.98C800.02 188.64 800.98 186.98 799.94 186.32C798.47 185.4 796.03 182.36 797.58 180.57C799.29 178.59 802.78 180.19 803.5 182.29C803.74 183 804.87 183.32 805.25 182.52C805.82 181.33 806.75 180.38 808.02 179.97C809.14 179.61 811.1 179.53 811.75 180.73C813.29 183.61 810.7 185.73 808.38 186.82C807.6 187.19 807.87 188.35 808.61 188.57C811.05 189.31 812.51 192.93 809.83 194.36C807.64 195.52 803.77 195.51 802.93 192.67C802.71 191.92 801.88 191.8 801.33 192.25C800.17 193.17 798.74 193.75 797.27 193.88C796.58 193.94 795.63 193.99 795.01 193.6C794.39 193.21 794.2 192.5 794.11 191.83C793.93 190.54 794.33 189.16 795.53 188.51C796.73 187.86 798.17 187.97 799.47 188.1C800.77 188.23 800.69 186.3 799.47 186.18H799.43Z" fill="#665044"/>
<path d="M943.827 193.454C943.697 193.104 938.247 188.064 935.397 192.914C933.727 195.754 937.367 198.984 937.367 198.984C937.367 198.984 930.757 199.924 931.867 204.644C933.067 209.774 940.797 205.594 940.797 205.594C940.797 205.594 944.567 211.384 950.117 206.644C953.827 203.474 947.917 199.594 947.917 199.594C947.917 199.594 956.477 194.104 950.867 191.724C945.257 189.354 943.837 193.444 943.837 193.444L943.827 193.454Z" fill="white"/>
<path d="M938.307 198.414C936.357 198.214 934.177 198.284 932.627 199.634C931.077 200.984 930.747 203.024 931.167 204.884C932.287 209.824 938.707 208.104 941.547 205.844L939.947 205.424C941.207 209.634 946.917 210.204 950.157 207.964C953.807 205.444 951.727 200.084 947.997 198.964L948.227 200.714C949.967 199.894 951.657 198.774 952.497 196.974C953.267 195.314 953.097 192.944 951.957 191.484C950.817 190.024 948.537 189.874 946.877 190.234C944.947 190.654 943.327 192.024 942.477 193.784L944.227 194.014C943.067 190.624 938.217 188.544 935.317 191.224C932.417 193.904 935.197 198.544 937.847 200.214C938.897 200.874 939.857 199.214 938.817 198.554C937.347 197.634 934.907 194.594 936.457 192.804C938.167 190.824 941.657 192.424 942.377 194.524C942.617 195.234 943.747 195.554 944.127 194.754C944.697 193.564 945.627 192.614 946.897 192.204C948.017 191.844 949.977 191.764 950.627 192.964C952.167 195.844 949.577 197.964 947.257 199.054C946.477 199.424 946.747 200.584 947.487 200.804C949.927 201.544 951.387 205.164 948.707 206.594C946.517 207.754 942.647 207.744 941.807 204.904C941.587 204.154 940.757 204.034 940.207 204.484C939.047 205.404 937.617 205.984 936.147 206.114C935.457 206.174 934.507 206.224 933.887 205.834C933.267 205.444 933.077 204.734 932.987 204.064C932.807 202.774 933.207 201.394 934.407 200.744C935.607 200.094 937.047 200.204 938.347 200.334C939.647 200.464 939.567 198.534 938.347 198.414H938.307Z" fill="#665044"/>
<path d="M793.993 47.6501C809.653 52.7401 822.822 59.7401 833.382 69.2901C847.152 81.7401 856.323 97.0401 859.202 103.11C863.622 91.4001 881.642 63.7901 919.022 55.2401C943.052 49.7401 960.962 49.8001 973.412 49.9701C986.942 50.1501 993.982 50.6901 993.982 50.6901C993.982 50.6901 996.022 61.6901 990.522 74.7301C984.442 89.1701 961.793 107.86 940.183 114.33C889.163 129.6 862.772 111.31 861.382 110.33C860.902 110.56 866.022 134.3 869.482 165.34C871.091 179.765 871.772 196.001 871.971 208.5C872.163 220.557 871.602 229.26 871.602 229.26C870.772 229.6 855.662 228.57 854.682 228.93C854.306 229.067 855.534 220.791 856.59 208.5C857.609 196.634 858.466 181.024 857.562 165.63C855.912 137.73 851.783 112.37 850.993 112.61C845.223 114.37 837.963 114.62 828.243 114.52C814.453 114.37 796.742 112.72 780.252 106.9C752.992 97.2801 741.073 77.4101 736.393 61.8101C733.163 51.0701 735.023 40.3001 735.023 40.3001C735.023 40.3001 745.012 37.1801 775.602 42.9201C780.832 43.9001 787.652 45.6001 794.002 47.6401L793.993 47.6501Z" fill="#52B278"/>
<path d="M860.032 102.93C863.952 94.39 870.022 87.01 876.792 80.56C883.562 74.11 891.183 68.37 899.563 64.06C917.383 54.9 937.582 51.72 957.412 51.06C969.602 50.65 981.802 51.14 993.982 51.64L993.052 50.94C997.452 72.68 979.482 91.24 962.722 101.94C945.102 113.19 924.362 119.64 903.392 119.36C889.382 119.17 875.572 115.91 862.792 110.22C861.672 109.72 860.692 111.38 861.822 111.88C873.552 117.11 886.082 120.37 898.922 121.12C910.382 121.79 921.932 120.46 932.982 117.38C943.032 114.57 952.692 110.33 961.602 104.91C970.512 99.49 978.803 92.96 985.183 84.66C992.652 74.94 997.402 62.77 994.902 50.43C994.812 50.01 994.382 49.74 993.972 49.73C972.362 48.86 950.483 47.99 929.123 52.14C919.673 53.98 910.382 56.8 901.652 60.9C892.922 65 885.092 70.48 877.932 76.89C870.032 83.97 862.812 92.26 858.362 101.97C857.852 103.09 859.502 104.06 860.022 102.94L860.032 102.93Z" fill="#665044"/>
<path d="M872.402 228.36C873.862 207.36 872.772 186.22 870.482 165.32C868.732 149.44 866.282 133.61 863.092 117.95C862.362 114.36 861.622 110.77 860.722 107.22C860.192 105.11 859.302 103.09 858.442 101.1C856.562 96.72 854.292 92.51 851.692 88.52C841.112 72.28 825.422 59.68 807.852 51.71C787.602 42.52 765.212 39.06 743.112 39C740.362 39 737.602 39.04 734.852 39.13C734.442 39.14 734.022 39.42 733.922 39.83C731.332 50.79 734.502 62.53 739.622 72.3C744.262 81.16 750.992 88.89 758.812 95.09C766.632 101.29 775.472 106.02 784.942 109.04C795.032 112.26 805.642 113.84 816.182 114.57C827.862 115.38 839.652 115.12 851.252 113.53C852.472 113.36 851.952 111.51 850.742 111.68C840.792 113.04 830.682 113.35 820.662 112.9C810.642 112.45 799.822 111.15 789.752 108.44C771.092 103.42 753.852 91.92 743.572 75.34C737.292 65.21 732.962 52.25 735.772 40.34L734.842 41.04C756.852 40.31 779.232 42.62 799.932 50.47C818.302 57.44 835.072 69.09 846.862 84.94C849.632 88.66 852.122 92.6 854.252 96.73C855.952 100 857.632 103.47 858.672 107.01C859.472 109.71 859.982 112.52 860.562 115.26C863.632 129.75 866.032 144.41 867.832 159.11C870.332 179.52 871.722 200.16 870.892 220.72C870.792 223.27 870.652 225.81 870.472 228.35C870.382 229.58 872.302 229.58 872.392 228.35L872.402 228.36Z" fill="#665044"/>
<path d="M850.062 112.86C855.942 142.63 858.052 173.12 856.212 203.41C855.692 211.94 854.862 220.45 853.732 228.93C853.572 230.15 855.492 230.14 855.652 228.93C859.702 198.66 859.812 167.9 856.002 137.61C854.942 129.15 853.572 120.72 851.922 112.36C851.682 111.15 849.832 111.66 850.072 112.87L850.062 112.86Z" fill="#665044"/>
<path d="M846.882 105.77C829.322 83.5299 803.152 70.3899 777.282 60.2999C769.192 57.1399 761.012 54.2299 752.832 51.3199C751.662 50.9099 751.162 52.7599 752.322 53.1699C779.402 62.7999 807.392 72.6699 829.852 91.2299C835.602 95.9799 840.902 101.27 845.522 107.13C846.292 108.1 847.642 106.73 846.882 105.77Z" fill="#665044"/>
<path d="M970.692 64.3701C941.862 64.3601 914.932 77.0901 890.612 91.4401C883.542 95.6101 876.582 99.9701 869.622 104.34C868.582 104.99 869.542 106.66 870.592 106C894.602 90.9501 919.242 75.4101 947.212 69.0301C954.922 67.2701 962.782 66.2801 970.692 66.2901C971.932 66.2901 971.932 64.3701 970.692 64.3701Z" fill="#665044"/>
</svg>
