<svg width="55" height="40" viewBox="0 0 55 40" fill="none" xmlns="http://www.w3.org/2000/svg">
<path d="M25.85 4.74076C25.81 4.37076 21.73 -1.82923 17.8 2.19077C15.5 4.55077 18.25 8.56077 18.25 8.56077C18.25 8.56077 11.61 7.88076 11.55 12.7408C11.48 18.0008 19.99 15.8108 19.99 15.8108C19.99 15.8108 22.26 22.3407 28.78 19.0707C33.15 16.8807 28.34 11.6908 28.34 11.6908C28.34 11.6908 37.97 8.41075 33.09 4.76075C28.21 1.11075 25.85 4.74076 25.85 4.74076Z" fill="white"/>
<path d="M19.32 8.24085C17.4 7.56085 15.11 7.07086 13.24 8.18086C11.62 9.14086 10.79 11.0608 10.8 12.8908C10.82 17.8708 17.36 17.7109 20.64 16.2209L19.2 15.3908C19.44 19.8608 25 21.8508 28.74 20.2308C32.68 18.5308 31.81 13.0009 28.58 11.0809L28.35 12.8309C30.24 12.4509 32.15 11.7709 33.4 10.2209C34.55 8.78086 34.98 6.39086 34.17 4.68086C33.36 2.97086 31.2 2.33086 29.52 2.31086C27.56 2.28086 25.7 3.20085 24.45 4.70085L26.09 5.38087C25.9 3.43087 24.9 1.82086 23.2 0.84086C21.5 -0.13914 19.19 -0.439133 17.53 0.910868C14.79 3.13087 16.38 7.73085 18.4 9.83085C19.26 10.7209 20.61 9.36087 19.76 8.47087C18.56 7.22087 17.3 4.53085 18.35 2.83085C19.13 1.57085 20.83 1.78084 21.96 2.35084C23.17 2.96084 24.04 3.99087 24.17 5.38087C24.24 6.12087 25.22 6.76086 25.81 6.06086C26.66 5.03086 27.8 4.32085 29.16 4.24085C30.24 4.18085 32.09 4.52087 32.51 5.69087C32.97 6.96087 32.49 8.54087 31.53 9.44087C30.57 10.3409 29.15 10.7209 27.85 10.9909C27.02 11.1609 26.95 12.3409 27.62 12.7409C29.66 13.9509 30.45 17.6509 27.72 18.5809C25.31 19.4009 21.29 18.3908 21.13 15.3908C21.09 14.6208 20.36 14.2609 19.69 14.5609C17.61 15.5109 12.53 16.0409 12.75 12.5809C12.83 11.3709 13.43 10.1008 14.62 9.64085C15.97 9.11085 17.54 9.62085 18.83 10.0809C20 10.4909 20.5 8.64084 19.34 8.23084L19.32 8.24085Z" fill="#665044"/>
<path d="M47.06 20.421C47.08 20.101 47.9001 13.191 41.3801 16.211C38.9101 17.351 40.68 21.561 40.68 21.561C40.68 21.561 36.2301 21.331 35.5001 25.371C34.7001 29.751 41.7201 28.131 41.7201 28.131C41.7201 28.131 42.62 33.891 48.29 32.091C52.09 30.881 49.14 26.151 49.14 26.151C49.14 26.151 56.5501 25.0909 53.1601 21.3509C49.7701 17.6109 47.06 20.411 47.06 20.411V20.421Z" fill="white"/>
<path d="M47.0801 21.6709C48.0601 20.2109 48.8601 18.4009 48.0201 16.6809C47.3001 15.2009 45.6001 14.4009 44.0501 14.1709C42.2601 13.9109 40.7901 14.5209 39.9101 16.1309C39.0301 17.7409 38.8901 19.6209 39.4501 21.3609L40.3801 20.1409C36.7901 19.7409 33.5001 23.5009 34.6101 27.0509C35.7201 30.6009 40.8301 30.4509 43.0601 28.2909L41.4201 27.6109C41.5001 29.2909 41.9001 30.9909 43.2001 32.1509C44.4101 33.2309 46.4201 33.8209 48.0301 33.4709C49.5301 33.1509 50.6901 31.6309 51.0101 30.1809C51.3901 28.4709 50.7101 26.8209 49.4801 25.6209L48.8001 27.2609C50.5901 27.4009 52.3401 26.7609 53.5201 25.3909C54.6001 24.1409 55.0301 22.4309 54.0401 20.9809C52.3501 18.4909 47.9901 19.1109 45.7601 20.3409C44.6801 20.9409 45.6501 22.6009 46.7301 22.0009C48.1301 21.2309 50.6901 20.7109 52.1301 21.7309C53.0701 22.3909 52.6601 23.5009 52.0101 24.2009C51.1601 25.1209 50.0401 25.4309 48.8101 25.3309C47.9601 25.2609 47.5701 26.4209 48.1301 26.9709C48.8601 27.6809 49.3601 28.6209 49.1601 29.6609C48.9801 30.6109 48.2401 31.6109 47.2201 31.6109C46.2001 31.6109 45.0901 31.3209 44.3701 30.5809C43.5901 29.7709 43.4001 28.6709 43.3501 27.5909C43.3101 26.7709 42.3301 26.3209 41.7101 26.9109C40.4501 28.1309 36.8801 28.4909 36.4001 26.2709C35.8701 23.8709 38.1001 21.7909 40.3801 22.0509C40.9901 22.1209 41.4801 21.3809 41.3101 20.8309C40.6901 18.9309 41.1601 15.6209 43.8001 16.0509C44.6901 16.1909 45.7701 16.5909 46.2501 17.4209C46.8801 18.5009 46.0201 19.8009 45.4301 20.6809C44.7401 21.7109 46.4001 22.6709 47.0901 21.6509L47.0801 21.6709Z" fill="#665044"/>
<path d="M5.39004 29.2308C5.07004 29.4308 -1.33996 30.4008 3.37004 37.3408C5.41004 40.3508 10.32 35.8408 10.32 35.8408C10.32 35.8408 13.95 40.1308 18.34 38.0508C23.1 35.7908 16.41 29.5208 16.41 29.5208C16.41 29.5208 21.97 23.5608 14.9 21.7608C12.22 21.0808 11.68 24.1909 11.68 24.1909C11.68 24.1909 4.95004 17.6409 3.83004 23.6309C2.71004 29.6209 5.39004 29.2308 5.39004 29.2308Z" fill="white"/>
<path d="M9.67004 36.6109C10.65 38.1709 11.9701 39.5108 13.8801 39.7608C15.7901 40.0108 17.92 39.6708 19.36 38.4508C20.89 37.1509 20.99 34.9509 20.45 33.1409C19.91 31.3309 18.6 29.6609 16.89 28.6809L17.08 30.1909C19.19 28.3409 19.79 24.1809 17.83 21.9909C15.64 19.5309 10.87 20.9409 10.16 24.0509L11.76 23.6309C10.63 22.4809 9.41005 21.3309 7.86005 20.7809C6.31005 20.2309 4.56005 20.5009 3.57005 21.9009C1.75005 24.4709 2.72005 28.2808 4.86005 30.3208L5.54004 28.6809C3.77004 28.9009 1.92004 29.2809 1.01004 31.0009C0.16004 32.6109 0.280047 34.9009 1.33005 36.3909C3.42005 39.3609 8.95005 39.6309 11.08 36.5509C11.78 35.5309 10.12 34.5709 9.42004 35.5809C8.77004 36.5209 7.30005 36.7709 6.24005 36.7809C5.03005 36.8009 3.77005 36.4109 3.00005 35.4309C2.29005 34.5309 2.15004 32.9909 2.67004 31.9609C3.19004 30.9309 4.48005 30.7209 5.55005 30.5909C6.32005 30.4909 6.89004 29.5808 6.23004 28.9508C4.77004 27.5608 4.01005 25.1708 4.97005 23.2908C6.21005 20.8508 9.34005 23.9008 10.41 24.9808C10.9 25.4808 11.85 25.2709 12.01 24.5609C12.45 22.6409 15.9101 21.8108 16.7401 23.8508C17.4101 25.5008 17.07 27.6509 15.72 28.8409C15.25 29.2509 15.4 30.0608 15.91 30.3508C17.1101 31.0308 18.04 32.0909 18.5 33.4009C18.92 34.6009 19.1 36.2308 17.98 37.1008C17.01 37.8508 15.47 38.0009 14.28 37.8909C12.88 37.7609 12.01 36.7609 11.31 35.6409C10.65 34.6009 8.99004 35.5609 9.65004 36.6109H9.67004Z" fill="#665044"/>
</svg>
