<svg width="20" height="21" viewBox="0 0 20 21" fill="none" xmlns="http://www.w3.org/2000/svg">
<path d="M2.5494 13.4161L4.07596 12.5348C4.15864 12.4871 4.25568 12.4705 4.34952 12.4881L7.35312 13.0502C7.59996 13.0964 7.82782 12.9064 7.8267 12.6553L7.81501 10.0236C7.81469 9.95206 7.83355 9.88178 7.86961 9.82004L9.38539 7.22497C9.46428 7.08991 9.45721 6.92126 9.3673 6.79328L6.81514 3.16055M15.6002 4.78724C11.2002 6.90003 13.6 9.70003 14.4002 10.1C15.9018 10.8507 17.9901 10.9 17.9901 10.9C17.9966 10.7675 18 10.6341 18 10.5C18 6.08172 14.4183 2.5 10 2.5C5.58172 2.5 2 6.08172 2 10.5C2 14.9183 5.58172 18.5 10 18.5C10.1341 18.5 10.2675 18.4967 10.4 18.4902M13.8062 18.4518L11.2728 11.7728L17.9518 14.3062L14.9901 15.4901L13.8062 18.4518Z" stroke="#005C9C" stroke-width="1.5" stroke-linecap="round" stroke-linejoin="round"/>
</svg>
