<svg width="20" height="20" viewBox="0 0 20 20" fill="none" xmlns="http://www.w3.org/2000/svg">
<g clip-path="url(#clip0_157_303)">
<path d="M10 17.5C5.8575 17.5 2.5 14.1425 2.5 10C2.5 5.8575 5.8575 2.5 10 2.5C14.1425 2.5 17.5 5.8575 17.5 10C17.5 14.1425 14.1425 17.5 10 17.5Z" stroke="#999999" stroke-width="1.5" stroke-linecap="round" stroke-linejoin="round"/>
<path d="M9.99999 14.1667V10H9.16666" stroke="#999999" stroke-width="1.5" stroke-linecap="round" stroke-linejoin="round"/>
<path d="M9.80345 6.05685C9.34346 6.05685 8.97013 6.43018 8.97346 6.89018C8.97346 7.35018 9.34679 7.72352 9.80678 7.72352C10.2668 7.72352 10.6401 7.35018 10.6401 6.89018C10.6401 6.43018 10.2668 6.05685 9.80345 6.05685Z" fill="#999999"/>
<path d="M9.80345 6.05685C9.34346 6.05685 8.97013 6.43018 8.97346 6.89018C8.97346 7.35018 9.34679 7.72352 9.80678 7.72352C10.2668 7.72352 10.6401 7.35018 10.6401 6.89018C10.6401 6.43018 10.2668 6.05685 9.80345 6.05685Z" fill="#999999"/>
</g>
<defs>
<clipPath id="clip0_157_303">
<rect width="20" height="20" fill="white"/>
</clipPath>
</defs>
</svg>
